<svg xmlns="http://www.w3.org/2000/svg" xmlns:xlink="http://www.w3.org/1999/xlink" id="말" width="100" height="87.096" viewBox="0 0 100 87.096">
    <defs>
        <linearGradient id="linear-gradient" x1="167.082" x2="168.291" y1="-64.89" y2="-64.113" gradientUnits="objectBoundingBox">
            <stop offset="0" stop-color="#00aaed"/>
            <stop offset=".356" stop-color="#01a7ea"/>
            <stop offset=".578" stop-color="#06a0e1"/>
            <stop offset=".763" stop-color="#0f93d3"/>
            <stop offset=".927" stop-color="#1b81be"/>
            <stop offset="1" stop-color="#2277b3"/>
        </linearGradient>
        <linearGradient id="linear-gradient-2" x1="175.339" x2="176.51" y1="-10.577" y2="-9.79" xlink:href="#linear-gradient"/>
        <clipPath id="clip-path">
            <path id="SVGID" d="M2133.578 429.112l-11.135-.5a30.371 30.371 0 0 1-28.977-31.7l.54-12.012a35.944 35.944 0 0 1 37.521-34.294 35.944 35.944 0 0 1 34.295 37.521l-.54 12.012a30.372 30.372 0 0 1-31.704 28.973z" class="cls-1" transform="translate(-2093.435 -350.564)"/>
        </clipPath>
        <clipPath id="clip-path-2">
            <path id="SVGID-2" d="M2203.218 506.185c-3.146-2.839-7.509.255-11.066.255s-7.771-2.919-11.066-.255c-3.9 3.154-.79 10.956 11.066 10.956s14.848-7.546 11.066-10.956z" class="cls-1" transform="translate(-2179.494 -504.986)"/>
        </clipPath>
        <style>
            .cls-1{fill:none}.cls-2{fill:#00aaed}.cls-3{fill:#1cb744}.cls-10{fill:#3d4459}.cls-11{fill:#fbe6b9}.cls-12{fill:#f5a200}.cls-14{fill:#fff}
        </style>
    </defs>
    <g id="그룹_10418" transform="translate(0 22.126)">
        <path id="패스_10260" d="M2052.569 493.915c-2.3.982-5.328 1.722-8.147.661-4.07-1.53-6.265-6.125-6.664-7.031a3.651 3.651 0 0 1 6.683-2.943c.557 1.233 1.747 2.836 2.551 3.138.881.332 3.367-.678 4.917-1.769a3.652 3.652 0 0 1 4.233 5.951 19.87 19.87 0 0 1-3.573 1.993z" class="cls-2" transform="translate(-2035.796 -467.811)"/>
        <path id="패스_10261" d="M2038.962 482.5a2.222 2.222 0 0 0-2.862-.823s-5.113 2.452-4.616 3.888a6.5 6.5 0 0 0 3.267 2.975c2.859.541 6.532-2.64 4.211-6.04z" class="cls-2" transform="translate(-2031.325 -467.091)"/>
        <path id="패스_10262" d="M2043.994 471.473c-.821-2.02-2.128-4.042-2.889-3.792-.88.29-.624 2.261-.624 2.261a10.708 10.708 0 0 0 1.057 3.142 4.925 4.925 0 0 0 2.456-1.611z" class="cls-2" transform="translate(-2038.033 -456.807)"/>
        <path id="패스_10263" d="M2057.624 482.594s2.508-4.195 1.564-4.67-3.344 1.042-3.344 1.042z" class="cls-2" transform="translate(-2049.513 -464.39)"/>
        <g id="그룹_10417" transform="translate(.363)">
            <path id="패스_10264" d="M2057.579 425.184l-3.631 5.194 4.517 1.408v-6.322a.5.5 0 0 0-.886-.28z" class="cls-3" transform="translate(-2048.462 -425)"/>
            <path id="패스_10265" fill="#efca9e" d="M2056.53 431.6l1.939.609v4.5l-4.517-1.408z" transform="translate(-2048.462 -429.923)"/>
            <g id="그룹_10416" transform="translate(0 4.937)">
                <path id="사각형_1823" fill="#ffe834" d="M0 0H4.731V18.301H0z" transform="rotate(17.435 1.302 18.11)"/>
                <path id="패스_10266" fill="#0ea82f" d="M2045.719 466.461l-1.508-.474 5.486-17.47.967-.442.541.915z" transform="translate(-2041.203 -447.141)"/>
                <path id="패스_10267" fill="#2fcc4d" d="M2033.893 462.788l-1.508-.473 5.486-17.47.967-.442.541.915z" transform="translate(-2032.385 -444.403)"/>
                <path id="패스_10268" d="M2039.819 464.649l-1.508-.473 5.486-17.47.967-.442.541.915z" class="cls-3" transform="translate(-2036.803 -445.79)"/>
            </g>
        </g>
        <path id="패스_10269" fill="url(#linear-gradient)" d="M2036.5 484.185a1.321 1.321 0 0 1 2.135.4c.445.673.778 1.612-.007 2.057a1.479 1.479 0 0 1-1.658-.319c-.499-.392-1.341-1.349-.47-2.138z" transform="translate(-2034.81 -468.83)"/>
        <path id="패스_10270" fill="url(#linear-gradient-2)" d="M2031.057 491.674a1.269 1.269 0 0 1 1.948-.521c.634.5 1.3 1.493.821 2.2s-1.347.47-2.057-.007c-.529-.352-1.024-1.028-.712-1.672z" transform="translate(-2030.96 -474.121)"/>
    </g>
    <g id="그룹_10420" transform="translate(78.678 47.534)">
        <g id="그룹_10419" transform="translate(11.365 11.272)">
            <path id="패스_10271" d="M2388.11 569.2c2.76-.166 6.27.215 6.3 1.271.029.927-1.91 1.36-1.91 1.36s2.691.243 2.724 1.3c.038 1.243-2.728 1.222-2.728 1.222s2.019.772 1.977 1.651-3.841.994-5.912.9c-4.096-.191-4.152-7.478-.451-7.704z" class="cls-2" transform="translate(-2385.27 -569.166)"/>
            <path id="패스_10272" d="M2384.862 594.564s2.542 3.786 3.518 3.381.16-3.852.16-3.852z" class="cls-2" transform="translate(-2384.862 -587.75)"/>
        </g>
        <path id="패스_10273" d="M2353.483 543.431a3.657 3.657 0 0 1-1.36-.263 18.838 18.838 0 0 1-6.508-4.673 27.045 27.045 0 0 1-5.25-8.879 3.651 3.651 0 0 1 6.958-2.217 19.961 19.961 0 0 0 3.75 6.244 11.8 11.8 0 0 0 3.785 2.753 3.65 3.65 0 0 1-1.375 7.034z" class="cls-2" transform="translate(-2340.195 -524.864)"/>
    </g>
    <g id="그룹_10421" transform="translate(30.622 69.524)">
        <path id="패스_10274" d="M2170.486 628.865h-14.149a1.883 1.883 0 0 1 1.011-2.091l-6.032-15.482h20.311v16.432a1.141 1.141 0 0 1-1.141 1.141z" class="cls-10" transform="translate(-2151.316 -611.292)"/>
        <path id="패스_10275" d="M2184.268 677.016a1.238 1.238 0 0 1 .255-1.141h.228a1.045 1.045 0 0 0-.264 1.141z" class="cls-11" transform="translate(-2175.851 -659.443)"/>
        <path id="패스_10276" d="M2177.092 677.016a1.238 1.238 0 0 1 .255-1.141h.229a1.045 1.045 0 0 0-.264 1.141z" class="cls-11" transform="translate(-2170.501 -659.443)"/>
    </g>
    <g id="그룹_10422" transform="translate(52.017 69.58)">
        <path id="패스_10277" d="M2241.94 629.031h14.46a1.883 1.883 0 0 0-1.011-2.091l.326-15.425h-20.311l5.449 16.728a1.141 1.141 0 0 0 1.087.788z" class="cls-10" transform="translate(-2235.407 -611.515)"/>
        <path id="패스_10278" d="M2303.164 677.016a1.238 1.238 0 0 0-.255-1.141h-.228a1.045 1.045 0 0 1 .264 1.141z" class="cls-11" transform="translate(-2285.564 -659.5)"/>
        <path id="패스_10279" d="M2310.34 677.016a1.238 1.238 0 0 0-.255-1.141h-.228a1.045 1.045 0 0 1 .264 1.141z" class="cls-11" transform="translate(-2290.914 -659.5)"/>
    </g>
    <g id="그룹_10423" transform="translate(33.142)">
        <path id="패스_10280" d="M2170.856 345.783s-3.739-8.333-7.7-7.713-.637 11.452-.637 11.452z" class="cls-12" transform="translate(-2161.22 -338.037)"/>
    </g>
    <g id="그룹_10424" transform="translate(70.756 5.252)">
        <path id="패스_10281" d="M2309.059 362.946s6.891-5.995 10.222-3.771-4.228 10.662-4.228 10.662z" class="cls-12" transform="translate(-2309.059 -358.68)"/>
    </g>
    <path id="패스_10282" d="M2133.578 429.112l-11.135-.5a30.371 30.371 0 0 1-28.977-31.7l.54-12.012a35.944 35.944 0 0 1 37.521-34.294 35.944 35.944 0 0 1 34.295 37.521l-.54 12.012a30.372 30.372 0 0 1-31.704 28.973z" class="cls-2" transform="translate(-2077.54 -347.377)"/>
    <g id="그룹_10426" transform="translate(15.895 3.187)">
        <g id="그룹_10425" clip-path="url(#clip-path)">
            <path id="패스_10283" d="M2080.293 565.557s5.85-5.659 16.405-3.091c15.437 3.755 15.119 11.981 33.091 11.981 16.546 0 29.623-10.589 29.623-10.589l-1.332 29.638-78.883-3.544z" class="cls-10" transform="translate(-2082.82 -508.054)"/>
        </g>
    </g>
    <g id="그룹_10427" transform="translate(34.755 10.304)">
        <circle id="타원_1765" cx="15.668" cy="15.668" r="15.668" class="cls-14"/>
        <circle id="타원_1766" cx="9.216" cy="9.216" r="9.216" fill="#2c303a" transform="translate(4.15 4.936)"/>
        <circle id="타원_1767" cx="3.423" cy="3.423" r="3.423" class="cls-14" transform="translate(5.289 5.842)"/>
    </g>
    <g id="그룹_10430" transform="translate(37.791 42.476)">
        <path id="패스_10284" fill="#dd335c" d="M2203.218 506.185c-3.146-2.839-7.509.255-11.066.255s-7.771-2.919-11.066-.255c-3.9 3.154-.79 10.956 11.066 10.956s14.848-7.546 11.066-10.956z" transform="translate(-2179.494 -504.986)"/>
        <g id="그룹_10429">
            <g id="그룹_10428" clip-path="url(#clip-path-2)">
                <path id="패스_10285" d="M2259.114 508.03c-1.522 0-1.522-3.044-1.522-3.044h3.044s0 3.044-1.522 3.044z" class="cls-14" transform="translate(-2237.722 -504.986)"/>
            </g>
        </g>
    </g>
</svg>
