<svg xmlns="http://www.w3.org/2000/svg" width="133.927" height="152.903" viewBox="0 0 133.927 152.903">
    <defs>
        <clipPath id="clip-path">
            <path id="SVGID" d="M26.31 67.864h9.655a26.31 26.31 0 0 0 26.31-26.31V31.138A31.137 31.137 0 0 0 31.138 0 31.138 31.138 0 0 0 0 31.138v10.416a26.31 26.31 0 0 0 26.31 26.31z" class="cls-1"/>
        </clipPath>
        <clipPath id="clip-path-2">
            <path id="SVGID-2" d="M.928.6C3.4-.882 5.623.848 7.847.848S12.3-.882 14.767.6c2.282 1.369.494 10.626-6.919 10.626S-1.354 1.97.928.6z" class="cls-1"/>
        </clipPath>
        <style>
            .cls-1{fill:none}.cls-2{fill:#ff4747}.cls-3{fill:#3d4459}.cls-4{fill:#fbe6b9}.cls-5{fill:#fba000}.cls-6{fill:#00aaed}.cls-8{fill:#fff}
        </style>
    </defs>
    <g id="그룹_1102" transform="translate(-1126.609 -141.097)">
        <path id="패스_4651" d="M-7.89 2.16a2.139 2.139 0 0 0 2.4 2.19 2.139 2.139 0 0 0 2.4-2.19V-21.3a2.139 2.139 0 0 0-2.4-2.19 2.139 2.139 0 0 0-2.4 2.19zm-11.16-24.54a2.131 2.131 0 0 0-2.4 2.04v3.93c0 3.75-1.65 6.9-5.22 9.84a2.289 2.289 0 0 0-.81 2.97 2.3 2.3 0 0 0 3.09.69 15.835 15.835 0 0 0 5.34-5.4 16.762 16.762 0 0 0 5.49 5.13 2.282 2.282 0 0 0 3.09-.93 2.313 2.313 0 0 0-.93-2.82c-3.57-2.91-5.25-5.73-5.25-9.48v-3.93a2.131 2.131 0 0 0-2.4-2.04zm23.07-.48c-1.35 0-2.19.57-2.19 1.92s.84 1.92 2.19 1.92h3.27v.63c0 2.64-2.4 4.77-4.77 6.03a1.906 1.906 0 0 0-.87 2.88C2.28-8.46 3.6-8.37 4.8-9a15.894 15.894 0 0 0 4.83-3.87 13.422 13.422 0 0 0 4.83 3.45c1.2.51 2.52.54 3.15-.48a1.889 1.889 0 0 0-.87-2.88c-2.34-1.23-4.77-2.82-4.77-5.61v-.63h3.12c1.35 0 2.19-.57 2.19-1.92s-.84-1.92-2.19-1.92zM19.65 2.16a2.139 2.139 0 0 0 2.4 2.19 2.139 2.139 0 0 0 2.4-2.19v-6.51c0-1.98-.69-2.61-2.67-2.61h-15a1.937 1.937 0 0 0-2.1 1.98A1.937 1.937 0 0 0 6.78-3h12.54c.3 0 .33.06.33.33zm0-12.81a2.139 2.139 0 0 0 2.4 2.19 2.139 2.139 0 0 0 2.4-2.19v-3.39h2.07a1.9 1.9 0 0 0 2.16-1.98A1.9 1.9 0 0 0 26.52-18h-2.07v-3.33a2.118 2.118 0 0 0-2.4-2.16 2.118 2.118 0 0 0-2.4 2.16z" class="cls-2" transform="rotate(-27 974.09 -2325.602)"/>
        <g id="그룹_996" transform="translate(0 -406)">
            <g id="그룹_854" transform="translate(-4.025 -2.984)">
                <g id="그룹_817" transform="rotate(27 -707.745 2838.88)">
                    <path id="패스_1519" d="M.828 14.271l5.782.952h6.636a1.631 1.631 0 0 0-.876-1.811L17.6 0H0v13.3a.988.988 0 0 0 .828.971z" class="cls-3"/>
                    <path id="패스_1520" d="M.419.989A1.073 1.073 0 0 0 .2 0H0a.906.906 0 0 1 .229.989z" class="cls-4" transform="translate(9.885 14.234)"/>
                    <path id="패스_1521" d="M.419.989A1.073 1.073 0 0 0 .2 0H0a.906.906 0 0 1 .229.989z" class="cls-4" transform="translate(11.466 14.234)"/>
                </g>
                <g id="그룹_818" transform="rotate(27 -697.738 2797.19)">
                    <path id="패스_1522" d="M16.767 14.271l-5.782.952H4.349a1.631 1.631 0 0 1 .876-1.811L0 0h17.6v13.3a.988.988 0 0 1-.833.971z" class="cls-3"/>
                    <path id="패스_1523" d="M.038.989A1.074 1.074 0 0 1 .259 0h.2a.906.906 0 0 0-.23.989z" class="cls-4" transform="translate(7.253 14.234)"/>
                    <path id="패스_1524" d="M.038.989A1.073 1.073 0 0 1 .259 0h.2a.906.906 0 0 0-.23.989z" class="cls-4" transform="translate(5.672 14.234)"/>
                </g>
                <g id="그룹_819" transform="rotate(27 -593.324 2890.558)">
                    <path id="패스_1525" d="M0 5.609S4.389-.974 7.681.123 6.583 10 6.583 10z" class="cls-5"/>
                </g>
                <g id="그룹_820" transform="rotate(27 -575.788 2822.046)">
                    <path id="패스_1526" d="M8.9 5.609S4.516-.974 1.224.123 2.322 10 2.322 10z" class="cls-5"/>
                </g>
                <path id="패스_1527" d="M26.31 67.864h9.655a26.31 26.31 0 0 0 26.31-26.31V31.138A31.137 31.137 0 0 0 31.138 0 31.138 31.138 0 0 0 0 31.138v10.416a26.31 26.31 0 0 0 26.31 26.31z" class="cls-6" transform="rotate(27 -571.548 2800.378)"/>
                <g id="그룹_822" transform="rotate(27 -571.548 2800.378)">
                    <g id="그룹_821" clip-path="url(#clip-path)">
                        <path id="패스_1528" d="M68.4 4.547S63.083-.275 51 2.767C37.661 6.128 32.818 9.192 21.154 7.215A81.92 81.92 0 0 1 0 0v25.7h68.4z" class="cls-3" transform="translate(-4.349 46.023)"/>
                    </g>
                </g>
                <g id="그룹_823" transform="rotate(27 -591.492 2822.63)">
                    <circle id="타원_8" cx="13.573" cy="13.573" r="13.573" class="cls-8"/>
                    <circle id="타원_9" cx="7.984" cy="7.984" r="7.984" fill="#2c303a" transform="translate(5.565 1.204)"/>
                    <circle id="타원_10" cx="2.965" cy="2.965" r="2.965" class="cls-8" transform="translate(14.802 2.174)"/>
                    <circle id="타원_11" cx="1.977" cy="1.977" r="1.977" class="cls-8" transform="translate(8.624 9.094)"/>
                </g>
                <path id="패스_1529" d="M19.028 3.46S16.063 0 9.638 0 0 3.46 0 3.46v3.46h19.028z" class="cls-6" transform="rotate(27 -636.79 2820.406)"/>
                <path id="패스_1530" fill="#dd335c" d="M.928.6C3.4-.882 5.623.848 7.847.848S12.3-.882 14.767.6c2.282 1.369.494 10.626-6.919 10.626S-1.354 1.97.928.6z" transform="rotate(27 -644.67 2822.458)"/>
                <g id="그룹_825" transform="rotate(27 -644.67 2822.458)">
                    <g id="그룹_824" clip-path="url(#clip-path-2)">
                        <path id="패스_1531" d="M1.285 2.57C2.57 2.57 2.57 0 2.57 0H0s0 2.57 1.285 2.57z" class="cls-8" transform="translate(1.479 -.388)"/>
                    </g>
                </g>
                <path id="패스_1536" d="M5.815 11.629a5.814 5.814 0 0 1 5.814-5.815A5.814 5.814 0 0 1 5.815 0 5.815 5.815 0 0 1 0 5.815a5.815 5.815 0 0 1 5.815 5.814z" class="cls-8" transform="rotate(16 -1337.938 4680.028)"/>
                <path id="패스_1537" d="M5.814 11.629a5.815 5.815 0 0 1 5.815-5.815A5.814 5.814 0 0 1 5.815 0 5.815 5.815 0 0 1 0 5.815a5.815 5.815 0 0 1 5.814 5.814z" class="cls-8" transform="rotate(-14.98 2751.946 -4361.88)"/>
            </g>
            <g id="그룹_833" transform="translate(76.333 562)">
                <circle id="타원_535_복사_2" cx="50" cy="50" r="50" class="cls-2" transform="translate(1062.667 38)"/>
                <path id="다각형_543" d="M1077 105.817c-2.922-2.148-2.922-42.05 0-44.2s37.109 16.2 37.183 22.1c.066 5.458-34.264 24.248-37.183 22.1z" class="cls-8" transform="translate(22.469 5.047)"/>
            </g>
            <g id="그룹_853">
                <ellipse id="타원_12" cx="7" cy="5.5" class="cls-6" rx="7" ry="5.5" transform="translate(1181 593)"/>
                <ellipse id="타원_13" cx="7" cy="5.5" class="cls-6" rx="7" ry="5.5" transform="rotate(37 -298.07 2131.053)"/>
            </g>
        </g>
    </g>
</svg>
