<svg xmlns="http://www.w3.org/2000/svg" xmlns:xlink="http://www.w3.org/1999/xlink" width="172" height="172" viewBox="0 0 172 172">
    <defs>
        <linearGradient id="linear-gradient" x1="222.185" x2="220.961" y1="27.973" y2="27.973" gradientUnits="objectBoundingBox">
            <stop offset="0" stop-color="#00aaed"/>
            <stop offset=".356" stop-color="#01a7ea"/>
            <stop offset=".578" stop-color="#06a0e1"/>
            <stop offset=".763" stop-color="#0f93d3"/>
            <stop offset=".927" stop-color="#1b81be"/>
            <stop offset="1" stop-color="#2277b3"/>
        </linearGradient>
        <linearGradient id="linear-gradient-2" x1="198.981" x2="197.852" y1="25.088" y2="25.088" xlink:href="#linear-gradient"/>
        <linearGradient id="linear-gradient-3" x1="222.319" x2="221.211" y1="27.991" y2="27.991" xlink:href="#linear-gradient"/>
        <clipPath id="clip-path">
            <path id="SVGID" fill="none" d="M2182.495 2005.366l-17.836-1.594a48.507 48.507 0 0 1-44.223-52.536l1.735-19.08c2.863-31.5 30.938-54.733 62.708-51.894 31.769 2.84 55.2 30.677 52.337 62.176l-1.735 19.08a48.686 48.686 0 0 1-52.986 43.848z" transform="translate(-2120.235 -1880.027)"/>
        </clipPath>
        <clipPath id="clip-path-2">
            <path id="SVGID-2" d="M2197.525 1993.733c1.344-1.125 15 1.833 15.33 3.011.638 2.254-6.709 13.714-9.446 13.714s-7.793-15.127-5.884-16.725z" class="cls-2" transform="translate(-2197.105 -1993.482)"/>
        </clipPath>
        <style>
            .cls-2{fill:#dd335c}.cls-4{fill:#00aaed}.cls-5{fill:#3d4459}.cls-6{fill:#fbe6b9}.cls-7{fill:#f5a200}.cls-9{fill:#fff}.cls-13{fill:#fffa48}.cls-18{fill:#ffc74a}.cls-24{fill:#f9311c}.cls-25{fill:#ffbe1d}.cls-26{mix-blend-mode:multiply;isolation:isolate}.cls-27{fill:#ffd13e;opacity:.7}.cls-30{fill:#23ce00}.cls-31{fill:#169100}.cls-32{fill:#9eff4e}.cls-35{fill:#fdffd0}
        </style>
    </defs>
    <g id="그룹_11268" transform="translate(-1073 -165)">
        <path id="사각형_2016" fill="rgba(255,255,255,0)" d="M0 0H172V172H0z" transform="translate(1073 165)"/>
        <g id="그룹_11267" transform="translate(1081.154 169.3)">
            <g id="안녕" transform="translate(0 20.546)">
                <path id="패스_10288" d="M2092.326 1955.028c-1.511-2.194-3.309-5.159-2.939-6.951 1.053-5.1 7.408-5.479 9.121-3.968a20.934 20.934 0 0 1 2.966 3.477c3.087 5.804-5.774 12.335-9.148 7.442z" class="cls-4" transform="translate(-2084.599 -1888.865)"/>
                <path id="패스_10289" d="M2100.081 1938.638a9.269 9.269 0 0 1 1.063-3.528c.866-1.485 2.477-2.644 3.8-1.814.866.542-.088 2.229-.227 3.9a18.351 18.351 0 0 0 .423 4.686 6.508 6.508 0 0 1-.132 4.843c-.787 1.746-6.308 1.8-7.1-2.051a6.17 6.17 0 0 1 2.173-6.036z" class="cls-4" transform="translate(-2087.469 -1885.305)"/>
                <path id="패스_10290" d="M2114.379 1967.074a23.115 23.115 0 0 1-3.074-.205c-9.624-1.283-15.594-8.636-16.244-9.47a5.867 5.867 0 0 1 9.262-7.205c.008.009 3.574 4.384 8.532 5.044 6.718.891 11.96-4.6 12.012-4.652a5.868 5.868 0 0 1 8.662 7.917c-.343.378-7.914 8.571-19.15 8.571z" class="cls-4" transform="translate(-2086.126 -1890.474)"/>
                <g id="그룹_10433" transform="translate(119.718 89.857)">
                    <g id="그룹_10432" transform="translate(20.185 15.619)">
                        <path id="패스_10291" d="M2299.546 2021.767c4.376-.77 10.048-.806 10.293.875.215 1.474-2.8 2.521-2.8 2.521s4.341-.1 4.587 1.575c.288 1.978-4.132 2.451-4.132 2.451s3.364.864 3.459 2.273-5.949 2.291-9.272 2.516c-6.581.445-8.004-11.178-2.135-12.211z" class="cls-4" transform="translate(-2295.85 -2021.258)"/>
                        <path id="패스_10292" d="M2300.316 2038.238s5.52 4.82 6.866 3.784-1.353-6.046-1.353-6.046z" class="cls-4" transform="translate(-2297.37 -2026.266)"/>
                    </g>
                    <path id="패스_10293" d="M2290.258 2025.739a5.859 5.859 0 0 1-1.994-.351 44.649 44.649 0 0 1-11.518-6.57 55.13 55.13 0 0 1-10.618-12.287 5.867 5.867 0 0 1 9.983-6.168 43.447 43.447 0 0 0 8 9.322 32.8 32.8 0 0 0 8.139 4.667 5.869 5.869 0 0 1-2 11.387z" class="cls-4" transform="translate(-2265.253 -1997.582)"/>
                </g>
                <g id="그룹_10434" transform="translate(42.789 118.468)">
                    <path id="패스_10294" d="M2178.385 2069.546h-22.736c-.222-1.118-.018-2.237 1.625-3.36l-9.693-24.877h32.637v26.4a1.834 1.834 0 0 1-1.833 1.837z" class="cls-5" transform="translate(-2147.581 -2041.309)"/>
                    <path id="패스_10295" d="M2168.046 2083.164a1.99 1.99 0 0 1 .411-1.833h.367a1.679 1.679 0 0 0-.425 1.833z" class="cls-6" transform="translate(-2154.521 -2054.927)"/>
                    <path id="패스_10296" d="M2163.6 2083.164a1.99 1.99 0 0 1 .41-1.833h.367a1.68 1.68 0 0 0-.425 1.833z" class="cls-6" transform="translate(-2153.007 -2054.927)"/>
                </g>
                <g id="그룹_10435" transform="translate(79.596 118.468)">
                    <path id="패스_10297" d="M2205.7 2069.546h22.736c.221-1.118.017-2.237-1.625-3.36l9.692-24.877h-32.637v26.4a1.834 1.834 0 0 0 1.834 1.837z" class="cls-5" transform="translate(-2203.861 -2041.309)"/>
                    <path id="패스_10298" d="M2232.431 2083.164a1.99 1.99 0 0 0-.41-1.833h-.366a1.68 1.68 0 0 1 .424 1.833z" class="cls-6" transform="translate(-2213.319 -2054.927)"/>
                    <path id="패스_10299" d="M2236.879 2083.164a1.99 1.99 0 0 0-.411-1.833h-.366a1.679 1.679 0 0 1 .423 1.833z" class="cls-6" transform="translate(-2214.832 -2054.927)"/>
                </g>
                <g id="그룹_10436" transform="translate(50.425 5.268)">
                    <path id="패스_10300" d="M2175.142 1879.623s-7.012-12.893-13.276-11.414.382 18.426.382 18.426z" class="cls-7" transform="translate(-2159.177 -1868.09)"/>
                </g>
                <g id="그룹_10437" transform="translate(110.462 11.581)">
                    <path id="패스_10301" d="M2250.893 1886.895s9.2-11.432 15.1-8.856-3.672 18.06-3.672 18.06z" class="cls-7" transform="translate(-2250.893 -1877.66)"/>
                </g>
                <path id="패스_10302" d="M2182.495 2005.366l-17.836-1.594a48.507 48.507 0 0 1-44.223-52.536l1.735-19.08c2.863-31.5 30.938-54.733 62.708-51.894 31.769 2.84 55.2 30.677 52.337 62.176l-1.735 19.08a48.686 48.686 0 0 1-52.986 43.848z" class="cls-4" transform="translate(-2096.188 -1866.884)"/>
                <g id="그룹_10439" transform="translate(24.047 13.143)">
                    <g id="그룹_10438" clip-path="url(#clip-path)">
                        <path id="패스_10303" d="M2111.276 2014.116s10.561-7.229 32.37.337c24.095 8.36 32.448 15.678 54.326 13.982 20.437-1.584 40.429-11.354 40.429-11.354l-4.28 47.076-126.368-11.295z" class="cls-5" transform="translate(-2115.987 -1925.329)"/>
                    </g>
                </g>
                <g id="그룹_10440" transform="translate(59.857 33.553)">
                    <circle id="타원_1768" cx="25.176" cy="25.176" r="25.176" class="cls-9"/>
                    <circle id="타원_1769" cx="14.809" cy="14.809" r="14.809" fill="#2c303a" transform="translate(10.398 10.327)"/>
                    <circle id="타원_1770" cx="5.501" cy="5.501" r="5.501" class="cls-9" transform="translate(12.588 11.454)"/>
                </g>
                <g id="이빨_있는" transform="translate(75.256 87.268)">
                    <path id="패스_10304" fill="#bc2f24" d="M2197.525 1993.733c1.344-1.125 15 1.833 15.33 3.011.638 2.254-6.709 13.714-9.446 13.714s-7.793-15.127-5.884-16.725z" transform="translate(-2197.105 -1993.482)"/>
                    <g id="그룹_10442">
                        <path id="SVGID-3" d="M2197.525 1993.733c1.344-1.125 15 1.833 15.33 3.011.638 2.254-6.709 13.714-9.446 13.714s-7.793-15.127-5.884-16.725z" class="cls-2" transform="translate(-2197.105 -1993.482)"/>
                        <g id="그룹_10441" clip-path="url(#clip-path-2)">
                            <path id="패스_10305" d="M2215.781 2000.863c-2.267-.733-.8-5.269-.8-5.269l4.536 1.466s-1.468 4.54-3.736 3.803z" class="cls-9" transform="translate(-2203.029 -1994.201)"/>
                        </g>
                    </g>
                </g>
                <g id="그룹_10445">
                    <path id="사각형_1824" d="M0 0H4.719V79.796H0z" class="cls-7" transform="rotate(10.003 -99.943 96.565)"/>
                    <rect id="사각형_1825" width="21.081" height="2.257" class="cls-13" rx="1.128" transform="rotate(10.02 -89.265 50.485)"/>
                    <rect id="사각형_1826" width="21.081" height="2.257" class="cls-13" rx="1.128" transform="rotate(10.02 -33.701 55.339)"/>
                    <g id="그룹_10443" transform="translate(8.453 9.212)">
                        <path id="패스_10306" fill="#ffda00" d="M2098.192 1874.325c-1.5-.3-2.967-.724-3.2 1.261-.288 2.4 2.894 1.746 3.262 2.349s-1.061 3.46 1.088 3.87 2.149-2.413 2.409-5.1c.149-1.632-1.522-1.976-3.559-2.38z" transform="translate(-2094.969 -1874.068)"/>
                        <path id="패스_10307" fill="#5f7eff" d="M2115.186 1879.007c.277-1.235.95-1.55 2.16-1.3s1.911.433 2.664.605 2.364.432 2.06 1.59c-.266 1.014-.5 1.338-2.706.8s-1.643-.435-1.922.982.422 1.254 1.481 1.444 2.379.358 2.122 1.494-.907 1.291-2.028 1.049-2.3-.541-3.111-.714a1.908 1.908 0 0 1-1.588-1.957c.163-.979.672-3.118.868-3.993z" transform="translate(-2101.546 -1875.28)"/>
                        <path id="패스_10308" fill="#ff4d8d" d="M2106.462 1876.393c-1.815-.349-1.9 1.551-2.277 3.506s-.235 3.131 1.855 3.559c2.577.527 4.9 1.256 5.284-.577.281-1.353-.436-1.618-1.948-1.942s-2.216-.343-2.174-.676c.21-1.663 1.262-3.484-.74-3.87z" transform="translate(-2098.05 -1874.845)"/>
                    </g>
                    <rect id="사각형_1827" width="6.841" height="2.145" fill="#efff64" rx="1.073" transform="rotate(10.02 -553.97 50.697)"/>
                    <g id="그룹_10444" transform="translate(12.089)">
                        <path id="패스_10309" d="M2112.614 1864.121a3.9 3.9 0 0 0-7.624-1.345 4.085 4.085 0 0 0-4.511-2.294c.432.934 1.658 2.911 1.235 5.311l6.473 1.141 6.473 1.142c.423-2.4 2.251-3.839 2.977-4.569a4.085 4.085 0 0 0-5.023.614z" class="cls-13" transform="translate(-2100.48 -1860.105)"/>
                    </g>
                    <path id="패스_10310" d="M2103.766 1890.114l-9.269-1.635s6.86 1.532 5.794 7.575l2.354.414 2.354.416c1.066-6.044 8.037-5.136 8.037-5.136z" class="cls-18" transform="translate(-2086.355 -1869.76)"/>
                    <rect id="사각형_1828" width="14.827" height="2.257" class="cls-18" rx="1.128" transform="rotate(10.02 -22.39 74.296)"/>
                </g>
                <g id="그룹_10446" transform="translate(4.787 50.917)">
                    <path id="패스_10311" fill="url(#linear-gradient)" d="M2091.053 1939.605c-.257 1.455.542 2.6 2.483 2.939 2.427.428 3.653-.856 3.824-1.827s-.585-2.354-2.768-2.74-3.368.658-3.539 1.628z" transform="translate(-2089.954 -1937.896)"/>
                    <path id="패스_10312" fill="url(#linear-gradient-2)" d="M2089.767 1943.491c-.288 1.627.606 2.9 2.776 3.286 2.712.478 4.083-.958 4.274-2.042s-.654-2.632-3.094-3.063-3.765.734-3.956 1.819z" transform="translate(-2089.515 -1939.15)"/>
                    <path id="패스_10313" fill="url(#linear-gradient-3)" d="M2089.458 1948.648c-.256 1.455.542 2.6 2.483 2.94 2.427.427 3.654-.857 3.824-1.828s-.585-2.354-2.769-2.74-3.367.657-3.538 1.628z" transform="translate(-2089.412 -1940.973)"/>
                </g>
            </g>
            <g id="그룹_10467" transform="translate(36.138)">
                <g id="그룹_10465">
                    <path id="패스_10330" fill="#d31900" d="M2167.094 1850.8c-1.456-2.619-5.084-5.043-10.985-3.116s-7.4 6.027-7.029 9c-4.869-2.793-12.233 4.744-4.781 9.575 2.958 1.917 6.372 2.883 7.235 5.524s10.947-4.587 10.947-4.587 12.406-.119 11.544-2.76 1.324-5.435 2.58-8.729c3.164-8.294-7.229-10.032-9.511-4.907z" transform="translate(-2138.699 -1835.097)"/>
                    <path id="패스_10331" fill="#bc1200" d="M2178.123 1858.709c-1.24 3.255-3.392 6.023-2.6 8.635a6.327 6.327 0 0 0-.31 1.039c-1.983 1.718-11.211 1.805-11.211 1.805s-7.49 5.369-10.112 5.158a6.5 6.5 0 0 0-.865-.655c-.9-2.576-4.273-3.54-7.2-5.437-.895-3.439 3.847-6.833 7.155-5.115-.27-2.5 1.164-5.985 6.516-7.732s8.572.216 9.826 2.4c1.661-3.343 7.49-3.407 8.801-.098z" transform="translate(-2140.264 -1838.072)"/>
                    <ellipse id="타원_1777" cx="1.825" cy=".918" class="cls-24" rx="1.825" ry=".918" transform="rotate(-58.745 22.035 -.373)"/>
                    <ellipse id="타원_1778" cx="1.825" cy=".918" class="cls-24" rx="1.825" ry=".918" transform="rotate(-48.088 32.39 -23.86)"/>
                    <ellipse id="타원_1779" cx="1.825" cy=".918" class="cls-24" rx="1.825" ry=".918" transform="rotate(-58.745 24.708 11.553)"/>
                    <g id="그룹_10458" transform="translate(0 12.438)">
                        <path id="패스_10332" d="M2147.776 1867.9a64.66 64.66 0 0 0-6.445-4.352c-3.058-1.733 2.408-10.783 4.041-12.482 1.924-2 5.673-1.258 5.673-1.258l1.539-.89s-6.539-2.37-8.826-.162c-3.068 2.963-6.33 9.117-6.309 13.664.023 4.826 2.563 2.238 8.512 6.5z" class="cls-25" transform="translate(-2137.449 -1847.816)"/>
                        <path id="패스_10333" d="M2145.332 1848.052a2.7 2.7 0 0 0-.808.533c-3.067 2.962-6.331 9.118-6.308 13.664.023 4.787 2.521 2.28 8.368 6.4l-.621.352c-5.951-4.265-8.491-1.676-8.514-6.5-.023-4.546 3.24-10.7 6.307-13.663a3.28 3.28 0 0 1 1.576-.786z" class="cls-13" transform="translate(-2137.449 -1847.896)"/>
                        <g id="그룹_10457" class="cls-26" transform="translate(.909 15.368)">
                            <path id="패스_10334" d="M2146.429 1876.85l1.815-1.023a64.97 64.97 0 0 0-6.446-4.352 1.608 1.608 0 0 1-.435-.364 7.7 7.7 0 0 1-2.536 2.129c1.205.967 3.651.778 7.602 3.61z" class="cls-25" transform="translate(-2138.827 -1871.111)"/>
                        </g>
                    </g>
                    <g id="그룹_10461" transform="translate(5.898)">
                        <path id="패스_10335" d="M2161.922 1835.211c-.733-.865-.593-1.517.243-2.244s1.96-1.7 2.49-2.148 1.587-1.454 2.25-.61c.581.739.685 1.082-.89 2.366s-1.817 1.511-.955 2.478 1.742-.2 2.449-.851 1.543-1.505 2.216-.708.432 1.346-.348 2.016-2.249 1.925-2.808 2.409a1.709 1.709 0 0 1-2.257.076c-.618-.652-1.87-2.171-2.39-2.784z" class="cls-13" transform="translate(-2151.513 -1829.275)"/>
                        <g id="그룹_10459" transform="translate(9.934 .608)">
                            <path id="패스_10336" d="M2164.778 1831.192c-.528.442-1.655 1.419-2.491 2.146a1.535 1.535 0 0 0-.7 1.369c-.308-.632-.082-1.161.583-1.74.837-.728 1.963-1.7 2.49-2.15s1.587-1.453 2.249-.61a1.43 1.43 0 0 1 .393.758 3.253 3.253 0 0 0-.271-.387c-.667-.842-1.723.167-2.253.614z" class="cls-9" transform="translate(-2161.447 -1829.882)"/>
                            <path id="패스_10337" d="M2171.784 1835.95a1.967 1.967 0 0 0-.264-.389c-.669-.8-1.508.054-2.217.708s-1.584 1.818-2.448.851a1.494 1.494 0 0 1-.488-.855 2.775 2.775 0 0 0 .367.484c.864.966 1.743-.2 2.448-.852s1.545-1.507 2.217-.708a1.477 1.477 0 0 1 .385.761z" class="cls-9" transform="translate(-2163.122 -1831.578)"/>
                        </g>
                        <path id="패스_10338" d="M2163.911 1833.865c.347 1.2-.646 1.781-2.1 2.264a1.828 1.828 0 0 1-.131-.191c-.445-.712-.247-1.288.484-1.921.329-.29.7-.617 1.072-.935.041-.033.082-.071.123-.1a1.479 1.479 0 0 1 .552.883z" class="cls-27" transform="translate(-2151.512 -1830.328)"/>
                        <path id="패스_10339" d="M2150.031 1836.132c-1.483.01-3.794-.086-3.635 1.841.194 2.33 3.925 1.069 4.391 1.568s-.332 3.485 1.783 3.456 1.568-2.7 1.292-5.3c-.162-1.578-1.821-1.578-3.831-1.565z" class="cls-13" transform="translate(-2146.389 -1831.401)"/>
                        <g id="그룹_10460" transform="translate(.001 4.728)">
                            <path id="패스_10340" d="M2154.36 1844.741c-1.386-.409-.912-2.669-1.215-3.3a.563.563 0 0 1 .357.121c.377.401-.073 2.428.858 3.179z" class="cls-9" transform="translate(-2148.689 -1837.936)"/>
                            <path id="패스_10341" d="M2153.257 1836.6a8.548 8.548 0 0 0-2.809-.257c-1.483.009-3.8-.085-3.634 1.842a1.356 1.356 0 0 0 .575 1.072 1.372 1.372 0 0 1-.991-1.282c-.162-1.928 2.151-1.834 3.633-1.843a6.062 6.062 0 0 1 3.226.468z" class="cls-9" transform="translate(-2146.391 -1836.128)"/>
                        </g>
                        <path id="패스_10342" d="M2156.176 1837.707c0 .039.008.074.012.112.012.113.025.226.034.339-1.831.509-2.491-.342-3.043-2.017.11 0 .215.006.322.011 1.456.04 2.541.294 2.675 1.555z" class="cls-27" transform="translate(-2148.7 -1831.404)"/>
                        <path id="패스_10343" d="M2153.342 1829.063c-1.709.529-.919 2.192-.347 4.03s1.226 2.78 3.2 2.193c2.439-.724 4.757-1.162 4.247-2.9-.376-1.282-1.108-1.182-2.547-.769s-2.047.717-2.163.414c-.576-1.521-.506-3.55-2.39-2.968z" class="cls-13" transform="translate(-2148.402 -1828.961)"/>
                        <path id="패스_10344" d="M2160.459 1832.388a1.237 1.237 0 0 1-.168 1.17 1.5 1.5 0 0 0-.058-.634c-.375-1.282-1.108-1.184-2.547-.77s-2.048.717-2.163.416c-.581-1.52-.512-3.552-2.4-2.97a1.51 1.51 0 0 0-.786.491 1.274 1.274 0 0 1 1.013-1.028c1.884-.579 1.814 1.449 2.395 2.971.114.3.724 0 2.163-.416s2.178-.512 2.551.77z" class="cls-9" transform="translate(-2148.415 -1828.962)"/>
                    </g>
                    <g id="그룹_10463" transform="translate(19.806 6.632)">
                        <path id="패스_10345" d="M2182.557 1856.893a64.806 64.806 0 0 1 2.634-7.318c1.445-3.2-8.309-7.282-10.63-7.69-2.735-.482-5.321 2.333-5.321 2.333l-1.769.191s3.88-5.773 7.03-5.34c4.225.58 10.49 3.623 13.156 7.306 2.831 3.909-.747 3.32-3.032 10.273z" class="cls-25" transform="translate(-2167.471 -1839.025)"/>
                        <path id="패스_10346" d="M2175.584 1839.334a2.725 2.725 0 0 1 .967-.046c4.224.581 10.491 3.622 13.157 7.306 2.808 3.878-.689 3.329-2.976 10.107l.709-.083c2.287-6.955 5.865-6.365 3.034-10.274-2.665-3.684-8.932-6.726-13.156-7.306a3.279 3.279 0 0 0-1.735.296z" class="cls-13" transform="translate(-2170.232 -1839.015)"/>
                        <g id="그룹_10462" class="cls-26" transform="translate(15.146 9.98)">
                            <path id="패스_10347" d="M2192.5 1861.764l-2.068.246a64.7 64.7 0 0 1 2.634-7.318 1.63 1.63 0 0 0 .136-.551 7.708 7.708 0 0 0 3.3.222c-.402 1.493-2.488 2.784-4.002 7.401z" class="cls-25" transform="translate(-2190.429 -1854.142)"/>
                        </g>
                    </g>
                    <g id="그룹_10464" transform="translate(13.245 8.144)">
                        <path id="패스_10348" d="M2163.208 1841.309a8.4 8.4 0 0 0-5.39 1.761 1.254 1.254 0 0 0-.065 1.524c1.431 2.044 5.2 7.556 6.01 10.026 1 3.066-.5 7.769-.5 7.769l3.473-1.134 3.473-1.135s-3.984-2.913-4.985-5.978c-.807-2.471-1.017-9.146-1.067-11.641a1.255 1.255 0 0 0-.949-1.192z" class="cls-13" transform="translate(-2157.525 -1841.306)"/>
                        <path id="패스_10349" d="M2168.448 1860.753a11.136 11.136 0 0 0 2.76 4.026l-4.074 1.331a11.21 11.21 0 0 0-.152-4.879 3.011 3.011 0 0 1 1.466-.478z" class="cls-25" transform="translate(-2160.743 -1847.916)"/>
                        <path id="패스_10350" fill="#ffffb0" d="M2164.16 1842.5c.014.772.047 1.945.1 3.267a8.388 8.388 0 0 0-4.668 1.525c-.734-1.1-1.4-2.067-1.844-2.7a1.2 1.2 0 0 1-.164-.329 1.258 1.258 0 0 1 .23-1.195 8.393 8.393 0 0 1 5.392-1.761 1.258 1.258 0 0 1 .954 1.193z" transform="translate(-2157.525 -1841.306)"/>
                    </g>
                    <path id="패스_10351" d="M2171.1 1868.782a7.36 7.36 0 0 0-13.872 4.531c-3.075-2.139-7.262-2.061-9.537.187 1.548 1.171 5.342 3.37 6.768 7.738l11.777-3.847 11.777-3.846c-1.427-4.368.337-8.382.9-10.24-3.163-.473-6.589 1.935-7.813 5.477z" class="cls-13" transform="translate(-2140.935 -1840.627)"/>
                    <rect id="사각형_1829" width="29.902" height="6.536" class="cls-9" rx="3.268" transform="rotate(-18.088 128.876 -13.07)"/>
                </g>
                <g id="그룹_10466" transform="translate(20.618 28.219)">
                    <rect id="사각형_1830" width="4.086" height="4.086" fill="#f9fff8" rx="2.043" transform="matrix(.453 -.892 .892 .453 0 3.644)"/>
                    <path id="패스_10352" d="M2174.772 1873.937a1.141 1.141 0 0 0-.571-.667l-1.6-.81a1.143 1.143 0 0 0-.876-.068l.75 2.295z" class="cls-30" transform="translate(-2169.731 -1871.94)"/>
                    <path id="패스_10353" d="M2175.161 1874.763a1.146 1.146 0 0 1-.069.876l-.811 1.6a1.156 1.156 0 0 1-.666.573l-.75-2.3z" class="cls-31" transform="translate(-2170.118 -1872.766)"/>
                    <path id="패스_10354" d="M2170.9 1872.42l.749 2.295-2.294.751a1.13 1.13 0 0 1 .067-.876l.811-1.6a1.147 1.147 0 0 1 .667-.57z" class="cls-32" transform="translate(-2168.905 -1871.969)"/>
                    <path id="패스_10355" d="M2171.682 1875.9l.75 2.3a1.147 1.147 0 0 1-.876-.068l-1.6-.812a1.126 1.126 0 0 1-.572-.666z" class="cls-30" transform="translate(-2168.934 -1873.153)"/>
                    <rect id="사각형_1831" width="2.266" height="2.266" class="cls-30" rx=".965" transform="rotate(-63.08 3.253 .625)"/>
                    <path id="패스_10356" d="M2173.86 1875.3l-.449.883a.638.638 0 0 1-.422.331.65.65 0 0 0 .317-.3l.452-.884a.64.64 0 0 0-.281-.859l-.886-.446a.647.647 0 0 0-.432-.053.642.642 0 0 1 .538.018l.884.449a.64.64 0 0 1 .279.861z" class="cls-31" transform="translate(-2169.877 -1872.48)"/>
                    <path id="패스_10357" d="M2172.245 1876.43a.618.618 0 0 0 .423.051.616.616 0 0 1-.546-.011l-.887-.446a.647.647 0 0 1-.28-.859l.452-.884a.621.621 0 0 1 .435-.332.63.63 0 0 0-.312.291l-.448.883a.64.64 0 0 0 .281.859z" class="cls-32" transform="translate(-2169.445 -1872.489)"/>
                    <path id="패스_10358" d="M2171.732 1876.86a1.165 1.165 0 0 0 .769.1 1.157 1.157 0 0 1-.976-.032l-1.6-.811a1.147 1.147 0 0 1-.5-1.542l.81-1.6a1.156 1.156 0 0 1 .77-.6 1.169 1.169 0 0 0-.562.534l-.811 1.6a1.147 1.147 0 0 0 .5 1.543z" transform="translate(-2168.905 -1871.954)" style="mix-blend-mode:screen;isolation:isolate" fill="#f0ff41" opacity="0.5"/>
                    <path id="패스_10359" fill="#57f431" d="M2175.317 1874.781l.225.042-.157.167-.042.225-.167-.157-.225-.042.157-.167.042-.225z" transform="translate(-2170.828 -1872.719)"/>
                    <path id="패스_10360" d="M2170.29 1874.873l.225.042-.157.167-.042.225-.167-.157-.225-.042.157-.167.042-.225z" class="cls-35" transform="translate(-2169.117 -1872.75)"/>
                    <path id="패스_10361" d="M2170.389 1875.764l.14.026-.1.1-.026.14-.1-.1-.14-.026.1-.1.025-.139z" class="cls-35" transform="translate(-2169.198 -1873.074)"/>
                </g>
            </g>
        </g>
    </g>
</svg>
