<svg xmlns="http://www.w3.org/2000/svg" xmlns:xlink="http://www.w3.org/1999/xlink" width="460" height="80" viewBox="0 0 460 80">
  <defs>
    <clipPath id="clip-하루한글_아이콘">
      <rect width="460" height="80"/>
    </clipPath>
  </defs>
  <g id="하루한글_아이콘" clip-path="url(#clip-하루한글_아이콘)">
    <g id="mic-24px" transform="translate(61.085 0.573)">
      <g id="그룹_1929" data-name="그룹 1929" transform="translate(-0.585 -0.573)">
        <rect id="사각형_514" data-name="사각형 514" width="40" height="40" transform="translate(-0.5 0)" fill="none"/>
        <rect id="사각형_515" data-name="사각형 515" width="40" height="40" transform="translate(-0.5 0)" fill="none"/>
        <rect id="사각형_516" data-name="사각형 516" width="40" height="40" transform="translate(-0.5 0)" fill="none"/>
      </g>
      <g id="그룹_1931" data-name="그룹 1931" transform="translate(5.429 1.124)">
        <g id="그룹_1930" data-name="그룹 1930">
          <path id="패스_1921" data-name="패스 1921" d="M14.78,25.119a5.772,5.772,0,0,0,5.78-5.78V7.78A5.78,5.78,0,1,0,9,7.78V19.339A5.772,5.772,0,0,0,14.78,25.119Z" transform="translate(-1.294 -2)" fill="#bbb"/>
          <path id="패스_1922" data-name="패스 1922" d="M28.119,11A9.633,9.633,0,1,1,8.853,11H5A13.477,13.477,0,0,0,16.559,24.332v5.934h3.853V24.332A13.477,13.477,0,0,0,31.972,11Z" transform="translate(-5 6.339)" fill="#bbb"/>
        </g>
      </g>
    </g>
    <g id="mic-24px-2" data-name="mic-24px" transform="translate(121.085 1.028)">
      <g id="그룹_1929-2" data-name="그룹 1929" transform="translate(-0.585 -0.573)">
        <rect id="사각형_514-2" data-name="사각형 514" width="40" height="40" transform="translate(-0.5 0)" fill="none"/>
        <rect id="사각형_515-2" data-name="사각형 515" width="40" height="40" transform="translate(-0.5 0)" fill="none"/>
        <rect id="사각형_516-2" data-name="사각형 516" width="40" height="40" transform="translate(-0.5 0)" fill="none"/>
      </g>
      <g id="그룹_1931-2" data-name="그룹 1931" transform="translate(5.429 1.124)">
        <g id="그룹_1930-2" data-name="그룹 1930">
          <path id="패스_1921-2" data-name="패스 1921" d="M14.78,25.119a5.772,5.772,0,0,0,5.78-5.78V7.78A5.78,5.78,0,1,0,9,7.78V19.339A5.772,5.772,0,0,0,14.78,25.119Z" transform="translate(-1.294 -2)" fill="#ffc84a"/>
          <path id="패스_1922-2" data-name="패스 1922" d="M28.119,11A9.633,9.633,0,1,1,8.853,11H5A13.477,13.477,0,0,0,16.559,24.332v5.934h3.853V24.332A13.477,13.477,0,0,0,31.972,11Z" transform="translate(-5 6.339)" fill="#ffc84a"/>
        </g>
      </g>
    </g>
    <g id="mic-24px-3" data-name="mic-24px" transform="translate(241.085 1.028)">
      <g id="그룹_1929-3" data-name="그룹 1929" transform="translate(-0.585 -0.573)">
        <rect id="사각형_514-3" data-name="사각형 514" width="40" height="40" transform="translate(-0.5 0)" fill="none"/>
        <rect id="사각형_515-3" data-name="사각형 515" width="40" height="40" transform="translate(-0.5 0)" fill="none"/>
        <rect id="사각형_516-3" data-name="사각형 516" width="40" height="40" transform="translate(-0.5 0)" fill="none"/>
      </g>
      <g id="그룹_1931-3" data-name="그룹 1931" transform="translate(5.429 1.124)">
        <g id="그룹_1930-3" data-name="그룹 1930">
          <path id="패스_1921-3" data-name="패스 1921" d="M14.78,25.119a5.772,5.772,0,0,0,5.78-5.78V7.78A5.78,5.78,0,1,0,9,7.78V19.339A5.772,5.772,0,0,0,14.78,25.119Z" transform="translate(-1.294 -2)" fill="#ffa4a1"/>
          <path id="패스_1922-3" data-name="패스 1922" d="M28.119,11A9.633,9.633,0,1,1,8.853,11H5A13.477,13.477,0,0,0,16.559,24.332v5.934h3.853V24.332A13.477,13.477,0,0,0,31.972,11Z" transform="translate(-5 6.339)" fill="#ffa4a1"/>
        </g>
      </g>
    </g>
    <g id="mic-24px-4" data-name="mic-24px" transform="translate(181.085 1.028)">
      <g id="그룹_1929-4" data-name="그룹 1929" transform="translate(-0.585 -0.573)">
        <rect id="사각형_514-4" data-name="사각형 514" width="40" height="40" transform="translate(-0.5 0)" fill="none"/>
        <rect id="사각형_515-4" data-name="사각형 515" width="40" height="40" transform="translate(-0.5 0)" fill="none"/>
        <rect id="사각형_516-4" data-name="사각형 516" width="40" height="40" transform="translate(-0.5 0)" fill="none"/>
      </g>
      <g id="그룹_1931-4" data-name="그룹 1931" transform="translate(5.429 1.124)">
        <g id="그룹_1930-4" data-name="그룹 1930">
          <path id="패스_1921-4" data-name="패스 1921" d="M14.78,25.119a5.772,5.772,0,0,0,5.78-5.78V7.78A5.78,5.78,0,1,0,9,7.78V19.339A5.772,5.772,0,0,0,14.78,25.119Z" transform="translate(-1.294 -2)" fill="#6bd2f8"/>
          <path id="패스_1922-4" data-name="패스 1922" d="M28.119,11A9.633,9.633,0,1,1,8.853,11H5A13.477,13.477,0,0,0,16.559,24.332v5.934h3.853V24.332A13.477,13.477,0,0,0,31.972,11Z" transform="translate(-5 6.339)" fill="#6bd2f8"/>
        </g>
      </g>
    </g>
    <g id="mic-24px-5" data-name="mic-24px" transform="translate(301.085 1.028)">
      <g id="그룹_1929-5" data-name="그룹 1929" transform="translate(-0.585 -0.573)">
        <rect id="사각형_514-5" data-name="사각형 514" width="40" height="40" transform="translate(-0.5 0)" fill="none"/>
        <rect id="사각형_515-5" data-name="사각형 515" width="40" height="40" transform="translate(-0.5 0)" fill="none"/>
        <rect id="사각형_516-5" data-name="사각형 516" width="40" height="40" transform="translate(-0.5 0)" fill="none"/>
      </g>
      <g id="그룹_1931-5" data-name="그룹 1931" transform="translate(5.429 1.124)">
        <g id="그룹_1930-5" data-name="그룹 1930">
          <path id="패스_1921-5" data-name="패스 1921" d="M14.78,25.119a5.772,5.772,0,0,0,5.78-5.78V7.78A5.78,5.78,0,1,0,9,7.78V19.339A5.772,5.772,0,0,0,14.78,25.119Z" transform="translate(-1.294 -2)" fill="#70da8b"/>
          <path id="패스_1922-5" data-name="패스 1922" d="M28.119,11A9.633,9.633,0,1,1,8.853,11H5A13.477,13.477,0,0,0,16.559,24.332v5.934h3.853V24.332A13.477,13.477,0,0,0,31.972,11Z" transform="translate(-5 6.339)" fill="#70da8b"/>
        </g>
      </g>
    </g>
    <g id="mic-24px-6" data-name="mic-24px" transform="translate(361.085 1.028)">
      <g id="그룹_1929-6" data-name="그룹 1929" transform="translate(-0.585 -0.573)">
        <rect id="사각형_514-6" data-name="사각형 514" width="40" height="40" transform="translate(-0.5 0)" fill="none"/>
        <rect id="사각형_515-6" data-name="사각형 515" width="40" height="40" transform="translate(-0.5 0)" fill="none"/>
        <rect id="사각형_516-6" data-name="사각형 516" width="40" height="40" transform="translate(-0.5 0)" fill="none"/>
      </g>
      <g id="그룹_1931-6" data-name="그룹 1931" transform="translate(5.429 1.124)">
        <g id="그룹_1930-6" data-name="그룹 1930">
          <path id="패스_1921-6" data-name="패스 1921" d="M14.78,25.119a5.772,5.772,0,0,0,5.78-5.78V7.78A5.78,5.78,0,1,0,9,7.78V19.339A5.772,5.772,0,0,0,14.78,25.119Z" transform="translate(-1.294 -2)" fill="#ff93bc"/>
          <path id="패스_1922-6" data-name="패스 1922" d="M28.119,11A9.633,9.633,0,1,1,8.853,11H5A13.477,13.477,0,0,0,16.559,24.332v5.934h3.853V24.332A13.477,13.477,0,0,0,31.972,11Z" transform="translate(-5 6.339)" fill="#ff93bc"/>
        </g>
      </g>
    </g>
    <g id="mic-24px-7" data-name="mic-24px" transform="translate(421.085 1.028)">
      <g id="그룹_1929-7" data-name="그룹 1929" transform="translate(-0.585 -0.573)">
        <rect id="사각형_514-7" data-name="사각형 514" width="40" height="40" transform="translate(-0.5 0)" fill="none"/>
        <rect id="사각형_515-7" data-name="사각형 515" width="40" height="40" transform="translate(-0.5 0)" fill="none"/>
        <rect id="사각형_516-7" data-name="사각형 516" width="40" height="40" transform="translate(-0.5 0)" fill="none"/>
      </g>
      <g id="그룹_1931-7" data-name="그룹 1931" transform="translate(5.429 1.124)">
        <g id="그룹_1930-7" data-name="그룹 1930">
          <path id="패스_1921-7" data-name="패스 1921" d="M14.78,25.119a5.772,5.772,0,0,0,5.78-5.78V7.78A5.78,5.78,0,1,0,9,7.78V19.339A5.772,5.772,0,0,0,14.78,25.119Z" transform="translate(-1.294 -2)" fill="#ba9fff"/>
          <path id="패스_1922-7" data-name="패스 1922" d="M28.119,11A9.633,9.633,0,1,1,8.853,11H5A13.477,13.477,0,0,0,16.559,24.332v5.934h3.853V24.332A13.477,13.477,0,0,0,31.972,11Z" transform="translate(-5 6.339)" fill="#ba9fff"/>
        </g>
      </g>
    </g>
    <g id="extension-24px" transform="translate(0 40.001)">
      <path id="패스_1919" data-name="패스 1919" d="M0,0H40V40H0Z" fill="none"/>
      <path id="패스_1920" data-name="패스 1920" d="M32.6,17.668H30.332v-10h-10V5.4A4.326,4.326,0,0,0,16.6,1.019,4.167,4.167,0,0,0,12,5.168v2.5H2.017v9.666H4.333a4.608,4.608,0,0,1,4.583,3.6,4.515,4.515,0,0,1-4.416,5.4H2V36h9.666V33.667a4.608,4.608,0,0,1,3.6-4.583,4.515,4.515,0,0,1,5.4,4.416V36h9.666V26h2.5a4.167,4.167,0,0,0,4.15-4.6A4.338,4.338,0,0,0,32.6,17.668Z" transform="translate(1.333 0.665)" fill="#34cc67"/>
    </g>
    <g id="extension-24px-2" data-name="extension-24px" transform="translate(119.998 40.001)">
      <path id="패스_1919-2" data-name="패스 1919" d="M0,0H40V40H0Z" fill="none"/>
      <path id="패스_1920-2" data-name="패스 1920" d="M32.6,17.668H30.332v-10h-10V5.4A4.326,4.326,0,0,0,16.6,1.019,4.167,4.167,0,0,0,12,5.168v2.5H2.017v9.666H4.333a4.608,4.608,0,0,1,4.583,3.6,4.515,4.515,0,0,1-4.416,5.4H2V36h9.666V33.667a4.608,4.608,0,0,1,3.6-4.583,4.515,4.515,0,0,1,5.4,4.416V36h9.666V26h2.5a4.167,4.167,0,0,0,4.15-4.6A4.338,4.338,0,0,0,32.6,17.668Z" transform="translate(1.333 0.665)" fill="#ffc84a"/>
    </g>
    <g id="extension-24px-3" data-name="extension-24px" transform="translate(239.992 40.001)">
      <path id="패스_1919-3" data-name="패스 1919" d="M0,0H40V40H0Z" fill="none"/>
      <path id="패스_1920-3" data-name="패스 1920" d="M32.6,17.668H30.332v-10h-10V5.4A4.326,4.326,0,0,0,16.6,1.019,4.167,4.167,0,0,0,12,5.168v2.5H2.017v9.666H4.333a4.608,4.608,0,0,1,4.583,3.6,4.515,4.515,0,0,1-4.416,5.4H2V36h9.666V33.667a4.608,4.608,0,0,1,3.6-4.583,4.515,4.515,0,0,1,5.4,4.416V36h9.666V26h2.5a4.167,4.167,0,0,0,4.15-4.6A4.338,4.338,0,0,0,32.6,17.668Z" transform="translate(1.333 0.665)" fill="#ffa4a1"/>
    </g>
    <g id="extension-24px-4" data-name="extension-24px" transform="translate(359.986 40.001)">
      <path id="패스_1919-4" data-name="패스 1919" d="M0,0H40V40H0Z" fill="none"/>
      <path id="패스_1920-4" data-name="패스 1920" d="M32.6,17.668H30.332v-10h-10V5.4A4.326,4.326,0,0,0,16.6,1.019,4.167,4.167,0,0,0,12,5.168v2.5H2.017v9.666H4.333a4.608,4.608,0,0,1,4.583,3.6,4.515,4.515,0,0,1-4.416,5.4H2V36h9.666V33.667a4.608,4.608,0,0,1,3.6-4.583,4.515,4.515,0,0,1,5.4,4.416V36h9.666V26h2.5a4.167,4.167,0,0,0,4.15-4.6A4.338,4.338,0,0,0,32.6,17.668Z" transform="translate(1.333 0.665)" fill="#ff93bc"/>
    </g>
    <g id="extension-24px-5" data-name="extension-24px" transform="translate(419.984 40.001)">
      <path id="패스_1919-5" data-name="패스 1919" d="M0,0H40V40H0Z" fill="none"/>
      <path id="패스_1920-5" data-name="패스 1920" d="M32.6,17.668H30.332v-10h-10V5.4A4.326,4.326,0,0,0,16.6,1.019,4.167,4.167,0,0,0,12,5.168v2.5H2.017v9.666H4.333a4.608,4.608,0,0,1,4.583,3.6,4.515,4.515,0,0,1-4.416,5.4H2V36h9.666V33.667a4.608,4.608,0,0,1,3.6-4.583,4.515,4.515,0,0,1,5.4,4.416V36h9.666V26h2.5a4.167,4.167,0,0,0,4.15-4.6A4.338,4.338,0,0,0,32.6,17.668Z" transform="translate(1.333 0.665)" fill="#ba9fff"/>
    </g>
    <g id="extension-24px-6" data-name="extension-24px" transform="translate(60 40.001)">
      <path id="패스_1919-6" data-name="패스 1919" d="M0,0H40V40H0Z" fill="none"/>
      <path id="패스_1920-6" data-name="패스 1920" d="M32.6,17.668H30.332v-10h-10V5.4A4.326,4.326,0,0,0,16.6,1.019,4.167,4.167,0,0,0,12,5.168v2.5H2.017v9.666H4.333a4.608,4.608,0,0,1,4.583,3.6,4.515,4.515,0,0,1-4.416,5.4H2V36h9.666V33.667a4.608,4.608,0,0,1,3.6-4.583,4.515,4.515,0,0,1,5.4,4.416V36h9.666V26h2.5a4.167,4.167,0,0,0,4.15-4.6A4.338,4.338,0,0,0,32.6,17.668Z" transform="translate(1.333 0.665)" fill="#bbb"/>
    </g>
    <g id="extension-24px-7" data-name="extension-24px" transform="translate(179.994 40.001)">
      <path id="패스_1919-7" data-name="패스 1919" d="M0,0H40V40H0Z" fill="none"/>
      <path id="패스_1920-7" data-name="패스 1920" d="M32.6,17.668H30.332v-10h-10V5.4A4.326,4.326,0,0,0,16.6,1.019,4.167,4.167,0,0,0,12,5.168v2.5H2.017v9.666H4.333a4.608,4.608,0,0,1,4.583,3.6,4.515,4.515,0,0,1-4.416,5.4H2V36h9.666V33.667a4.608,4.608,0,0,1,3.6-4.583,4.515,4.515,0,0,1,5.4,4.416V36h9.666V26h2.5a4.167,4.167,0,0,0,4.15-4.6A4.338,4.338,0,0,0,32.6,17.668Z" transform="translate(1.333 0.665)" fill="#6bd2f8"/>
    </g>
    <g id="extension-24px-8" data-name="extension-24px" transform="translate(299.988 40.001)">
      <path id="패스_1919-8" data-name="패스 1919" d="M0,0H40V40H0Z" fill="none"/>
      <path id="패스_1920-8" data-name="패스 1920" d="M32.6,17.668H30.332v-10h-10V5.4A4.326,4.326,0,0,0,16.6,1.019,4.167,4.167,0,0,0,12,5.168v2.5H2.017v9.666H4.333a4.608,4.608,0,0,1,4.583,3.6,4.515,4.515,0,0,1-4.416,5.4H2V36h9.666V33.667a4.608,4.608,0,0,1,3.6-4.583,4.515,4.515,0,0,1,5.4,4.416V36h9.666V26h2.5a4.167,4.167,0,0,0,4.15-4.6A4.338,4.338,0,0,0,32.6,17.668Z" transform="translate(1.333 0.665)" fill="#70da8b"/>
    </g>
    <g id="mic-24px-8" data-name="mic-24px" transform="translate(1.085 0.573)">
      <g id="그룹_1929-8" data-name="그룹 1929" transform="translate(-0.585 -0.573)">
        <rect id="사각형_514-8" data-name="사각형 514" width="40" height="40" transform="translate(-0.5 0)" fill="none"/>
        <rect id="사각형_515-8" data-name="사각형 515" width="40" height="40" transform="translate(-0.5 0)" fill="none"/>
        <rect id="사각형_516-8" data-name="사각형 516" width="40" height="40" transform="translate(-0.5 0)" fill="none"/>
      </g>
      <g id="그룹_1931-8" data-name="그룹 1931" transform="translate(5.429 1.124)">
        <g id="그룹_1930-8" data-name="그룹 1930">
          <path id="패스_1921-8" data-name="패스 1921" d="M14.78,25.119a5.772,5.772,0,0,0,5.78-5.78V7.78A5.78,5.78,0,1,0,9,7.78V19.339A5.772,5.772,0,0,0,14.78,25.119Z" transform="translate(-1.294 -2)" fill="#fba000"/>
          <path id="패스_1922-8" data-name="패스 1922" d="M28.119,11A9.633,9.633,0,1,1,8.853,11H5A13.477,13.477,0,0,0,16.559,24.332v5.934h3.853V24.332A13.477,13.477,0,0,0,31.972,11Z" transform="translate(-5 6.339)" fill="#fba000"/>
        </g>
      </g>
    </g>
  </g>
</svg>
