<svg xmlns="http://www.w3.org/2000/svg" xmlns:xlink="http://www.w3.org/1999/xlink" width="650" height="238" viewBox="0 0 650 238">
  <defs>
    <clipPath id="clip-하루한글_아이콘_1">
      <rect width="650" height="238"/>
    </clipPath>
  </defs>
  <g id="하루한글_아이콘_1" data-name="하루한글_아이콘 – 1" clip-path="url(#clip-하루한글_아이콘_1)">
    <g id="그룹_4195" data-name="그룹 4195">
      <g id="그룹_4183" data-name="그룹 4183" transform="translate(-475 -246.256)">
        <g id="그룹_850" data-name="그룹 850" transform="translate(-155.098 82)">
          <g id="그룹_834" data-name="그룹 834" transform="translate(866.669 164.256)">
            <path id="패스_1512" data-name="패스 1512" d="M220.918,106.783S213.891,96.243,208.62,98s1.757,15.811,1.757,15.811Z" transform="translate(-206.66 -97.802)" fill="#ffb612"/>
          </g>
          <g id="그룹_835" data-name="그룹 835" transform="translate(919.53 164.256)">
            <path id="패스_1513" data-name="패스 1513" d="M340.261,106.783s7.027-10.541,12.3-8.784-1.757,15.811-1.757,15.811Z" transform="translate(-340.261 -97.802)" fill="#ffb612"/>
          </g>
          <rect id="사각형_397" data-name="사각형 397" width="100" height="110" rx="50" transform="translate(850.097 168.256)" fill="#34cc67"/>
        </g>
        <path id="패스_4665" data-name="패스 4665" d="M-2.94-20.4H2.82V2.1A3.782,3.782,0,0,0,6.9,6.18,3.828,3.828,0,0,0,11.04,2.1V-42.66A3.828,3.828,0,0,0,6.9-46.74a3.782,3.782,0,0,0-4.08,4.08v14.52H-2.94V-42.18a3.647,3.647,0,0,0-4.02-3.96c-2.52,0-4.08,1.44-4.08,3.96V.54c0,2.52,1.56,3.96,4.08,3.96A3.647,3.647,0,0,0-2.94.54Z" transform="translate(745 325)" fill="#fff"/>
      </g>
      <g id="그룹_4190" data-name="그룹 4190" transform="translate(-475 -122.256)">
        <g id="그룹_850-2" data-name="그룹 850" transform="translate(-155.098 82)">
          <g id="그룹_834-2" data-name="그룹 834" transform="translate(866.669 164.256)">
            <path id="패스_1512-2" data-name="패스 1512" d="M220.918,106.783S213.891,96.243,208.62,98s1.757,15.811,1.757,15.811Z" transform="translate(-206.66 -97.802)" fill="#bbb"/>
          </g>
          <g id="그룹_835-2" data-name="그룹 835" transform="translate(919.53 164.256)">
            <path id="패스_1513-2" data-name="패스 1513" d="M340.261,106.783s7.027-10.541,12.3-8.784-1.757,15.811-1.757,15.811Z" transform="translate(-340.261 -97.802)" fill="#bbb"/>
          </g>
          <rect id="사각형_397-2" data-name="사각형 397" width="100" height="110" rx="50" transform="translate(850.097 168.256)" fill="#bbb"/>
        </g>
        <path id="패스_4665-2" data-name="패스 4665" d="M-2.94-20.4H2.82V2.1A3.782,3.782,0,0,0,6.9,6.18,3.828,3.828,0,0,0,11.04,2.1V-42.66A3.828,3.828,0,0,0,6.9-46.74a3.782,3.782,0,0,0-4.08,4.08v14.52H-2.94V-42.18a3.647,3.647,0,0,0-4.02-3.96c-2.52,0-4.08,1.44-4.08,3.96V.54c0,2.52,1.56,3.96,4.08,3.96A3.647,3.647,0,0,0-2.94.54Z" transform="translate(745 325)" fill="#fff"/>
      </g>
      <g id="그룹_4185" data-name="그룹 4185" transform="translate(-145 -536.256)">
        <g id="그룹_847" data-name="그룹 847" transform="translate(-155.098 372)">
          <g id="그룹_834-3" data-name="그룹 834" transform="translate(866.669 164.256)">
            <path id="패스_1512-3" data-name="패스 1512" d="M220.918,106.783S213.891,96.243,208.62,98s1.757,15.811,1.757,15.811Z" transform="translate(-206.66 -97.802)" fill="#ffb612"/>
          </g>
          <g id="그룹_835-3" data-name="그룹 835" transform="translate(919.53 164.256)">
            <path id="패스_1513-3" data-name="패스 1513" d="M340.261,106.783s7.027-10.541,12.3-8.784-1.757,15.811-1.757,15.811Z" transform="translate(-340.261 -97.802)" fill="#ffb612"/>
          </g>
          <rect id="사각형_397-3" data-name="사각형 397" width="100" height="110" rx="50" transform="translate(850.097 168.256)" fill="#9a73ff"/>
        </g>
        <path id="패스_4666" data-name="패스 4666" d="M-9.36-5.58A38.631,38.631,0,0,0-.54-6.36c2.16-.42,3.6-1.74,3.42-3.96C2.7-12.6.72-13.5-1.44-13.2a42.819,42.819,0,0,1-6.6.6h-3.3c-.3,0-.48-.06-.48-.36v-4.32a.49.49,0,0,1,.48-.54h5.82c3.72,0,4.86-1.2,4.86-4.8v-7.74c0-3.72-1.14-4.74-4.86-4.74H-16.08c-2.4,0-3.96,1.08-3.96,3.48,0,2.28,1.56,3.6,3.96,3.6h6.9a.428.428,0,0,1,.48.42v2.76c0,.3-.18.42-.48.42H-15c-3.72,0-4.98,1.02-4.98,4.74v9.24c0,3.66,1.26,4.86,4.98,4.86ZM21.6-30.48c0-3.06-1.44-4.62-5.28-4.62H4.92c-2.58,0-4.2,1.2-4.2,3.72,0,2.58,1.62,3.78,4.2,3.78H12c.6,0,.72.12.72.72v17.1a4.15,4.15,0,0,0,4.44,4.2,4.15,4.15,0,0,0,4.44-4.2Z" transform="translate(745 615)" fill="#fff"/>
      </g>
      <g id="그룹_4187" data-name="그룹 4187" transform="translate(-145 -412.256)">
        <g id="그룹_847-2" data-name="그룹 847" transform="translate(-155.098 372)">
          <g id="그룹_834-4" data-name="그룹 834" transform="translate(866.669 164.256)">
            <path id="패스_1512-4" data-name="패스 1512" d="M220.918,106.783S213.891,96.243,208.62,98s1.757,15.811,1.757,15.811Z" transform="translate(-206.66 -97.802)" fill="#bbb"/>
          </g>
          <g id="그룹_835-4" data-name="그룹 835" transform="translate(919.53 164.256)">
            <path id="패스_1513-4" data-name="패스 1513" d="M340.261,106.783s7.027-10.541,12.3-8.784-1.757,15.811-1.757,15.811Z" transform="translate(-340.261 -97.802)" fill="#bbb"/>
          </g>
          <rect id="사각형_397-4" data-name="사각형 397" width="100" height="110" rx="50" transform="translate(850.097 168.256)" fill="#bbb"/>
        </g>
        <path id="패스_4666-2" data-name="패스 4666" d="M-9.36-5.58A38.631,38.631,0,0,0-.54-6.36c2.16-.42,3.6-1.74,3.42-3.96C2.7-12.6.72-13.5-1.44-13.2a42.819,42.819,0,0,1-6.6.6h-3.3c-.3,0-.48-.06-.48-.36v-4.32a.49.49,0,0,1,.48-.54h5.82c3.72,0,4.86-1.2,4.86-4.8v-7.74c0-3.72-1.14-4.74-4.86-4.74H-16.08c-2.4,0-3.96,1.08-3.96,3.48,0,2.28,1.56,3.6,3.96,3.6h6.9a.428.428,0,0,1,.48.42v2.76c0,.3-.18.42-.48.42H-15c-3.72,0-4.98,1.02-4.98,4.74v9.24c0,3.66,1.26,4.86,4.98,4.86ZM21.6-30.48c0-3.06-1.44-4.62-5.28-4.62H4.92c-2.58,0-4.2,1.2-4.2,3.72,0,2.58,1.62,3.78,4.2,3.78H12c.6,0,.72.12.72.72v17.1a4.15,4.15,0,0,0,4.44,4.2,4.15,4.15,0,0,0,4.44-4.2Z" transform="translate(745 615)" fill="#fff"/>
      </g>
      <g id="그룹_4181" data-name="그룹 4181" transform="translate(215 -536.256)">
        <g id="그룹_852" data-name="그룹 852" transform="translate(-735.098 372)">
          <g id="그룹_834-5" data-name="그룹 834" transform="translate(866.669 164.256)">
            <path id="패스_1512-5" data-name="패스 1512" d="M220.918,106.783S213.891,96.243,208.62,98s1.757,15.811,1.757,15.811Z" transform="translate(-206.66 -97.802)" fill="#ffb612"/>
          </g>
          <g id="그룹_835-5" data-name="그룹 835" transform="translate(919.53 164.256)">
            <path id="패스_1513-5" data-name="패스 1513" d="M340.261,106.783s7.027-10.541,12.3-8.784-1.757,15.811-1.757,15.811Z" transform="translate(-340.261 -97.802)" fill="#ffb612"/>
          </g>
          <rect id="사각형_397-5" data-name="사각형 397" width="100" height="110" rx="50" transform="translate(850.097 168.256)" fill="#00b4f2"/>
        </g>
        <path id="패스_4668" data-name="패스 4668" d="M-18.24-11.1c0,3.72,1.92,5.52,5.64,5.52H12.66c3.72,0,5.58-1.8,5.58-5.52V-29.52q0-5.58-5.58-5.58H-12.6c-3.72,0-5.64,1.86-5.64,5.58ZM-9.3-27.18c0-.6.18-.78.78-.78H8.46c.66,0,.84.18.84.78v13.62c0,.66-.18.84-.84.84H-8.52c-.6,0-.78-.18-.78-.84Z" transform="translate(165 615)" fill="#fff"/>
      </g>
      <g id="그룹_4188" data-name="그룹 4188" transform="translate(215 -412.256)">
        <g id="그룹_852-2" data-name="그룹 852" transform="translate(-735.098 372)">
          <g id="그룹_834-6" data-name="그룹 834" transform="translate(866.669 164.256)">
            <path id="패스_1512-6" data-name="패스 1512" d="M220.918,106.783S213.891,96.243,208.62,98s1.757,15.811,1.757,15.811Z" transform="translate(-206.66 -97.802)" fill="#bbb"/>
          </g>
          <g id="그룹_835-6" data-name="그룹 835" transform="translate(919.53 164.256)">
            <path id="패스_1513-6" data-name="패스 1513" d="M340.261,106.783s7.027-10.541,12.3-8.784-1.757,15.811-1.757,15.811Z" transform="translate(-340.261 -97.802)" fill="#bbb"/>
          </g>
          <rect id="사각형_397-6" data-name="사각형 397" width="100" height="110" rx="50" transform="translate(850.097 168.256)" fill="#bbb"/>
        </g>
        <path id="패스_4668-2" data-name="패스 4668" d="M-18.24-11.1c0,3.72,1.92,5.52,5.64,5.52H12.66c3.72,0,5.58-1.8,5.58-5.52V-29.52q0-5.58-5.58-5.58H-12.6c-3.72,0-5.64,1.86-5.64,5.58ZM-9.3-27.18c0-.6.18-.78.78-.78H8.46c.66,0,.84.18.84.78v13.62c0,.66-.18.84-.84.84H-8.52c-.6,0-.78-.18-.78-.84Z" transform="translate(165 615)" fill="#fff"/>
      </g>
      <g id="그룹_4182" data-name="그룹 4182" transform="translate(-295 -246.256)">
        <g id="그룹_849" data-name="그룹 849" transform="translate(-445.098 82)">
          <g id="그룹_834-7" data-name="그룹 834" transform="translate(866.669 164.256)">
            <path id="패스_1512-7" data-name="패스 1512" d="M220.918,106.783S213.891,96.243,208.62,98s1.757,15.811,1.757,15.811Z" transform="translate(-206.66 -97.802)" fill="#fba000"/>
          </g>
          <g id="그룹_835-7" data-name="그룹 835" transform="translate(919.53 164.256)">
            <path id="패스_1513-7" data-name="패스 1513" d="M340.261,106.783s7.027-10.541,12.3-8.784-1.757,15.811-1.757,15.811Z" transform="translate(-340.261 -97.802)" fill="#fba000"/>
          </g>
          <rect id="사각형_397-7" data-name="사각형 397" width="100" height="110" rx="50" transform="translate(850.097 168.256)" fill="#fc615d"/>
        </g>
        <path id="패스_4664" data-name="패스 4664" d="M18.24-29.88c0-3.48-1.8-5.22-5.28-5.22H-13.98a3.433,3.433,0,0,0-3.66,3.66,3.433,3.433,0,0,0,3.66,3.66H8.04c.84,0,1.08.3,1.08,1.08v16.62a4.178,4.178,0,0,0,4.56,4.5,4.178,4.178,0,0,0,4.56-4.5Z" transform="translate(455 325)" fill="#fff"/>
      </g>
      <g id="그룹_4191" data-name="그룹 4191" transform="translate(-295 -122.256)">
        <g id="그룹_849-2" data-name="그룹 849" transform="translate(-445.098 82)">
          <g id="그룹_834-8" data-name="그룹 834" transform="translate(866.669 164.256)">
            <path id="패스_1512-8" data-name="패스 1512" d="M220.918,106.783S213.891,96.243,208.62,98s1.757,15.811,1.757,15.811Z" transform="translate(-206.66 -97.802)" fill="#bbb"/>
          </g>
          <g id="그룹_835-8" data-name="그룹 835" transform="translate(919.53 164.256)">
            <path id="패스_1513-8" data-name="패스 1513" d="M340.261,106.783s7.027-10.541,12.3-8.784-1.757,15.811-1.757,15.811Z" transform="translate(-340.261 -97.802)" fill="#bbb"/>
          </g>
          <rect id="사각형_397-8" data-name="사각형 397" width="100" height="110" rx="50" transform="translate(850.097 168.256)" fill="#bbb"/>
        </g>
        <path id="패스_4664-2" data-name="패스 4664" d="M18.24-29.88c0-3.48-1.8-5.22-5.28-5.22H-13.98a3.433,3.433,0,0,0-3.66,3.66,3.433,3.433,0,0,0,3.66,3.66H8.04c.84,0,1.08.3,1.08,1.08v16.62a4.178,4.178,0,0,0,4.56,4.5,4.178,4.178,0,0,0,4.56-4.5Z" transform="translate(455 325)" fill="#fff"/>
      </g>
      <g id="그룹_4184" data-name="그룹 4184" transform="translate(35 -536.256)">
        <g id="그룹_848" data-name="그룹 848" transform="translate(-445.098 372)">
          <g id="그룹_834-9" data-name="그룹 834" transform="translate(866.669 164.256)">
            <path id="패스_1512-9" data-name="패스 1512" d="M220.918,106.783S213.891,96.243,208.62,98s1.757,15.811,1.757,15.811Z" transform="translate(-206.66 -97.802)" fill="#ffb612"/>
          </g>
          <g id="그룹_835-9" data-name="그룹 835" transform="translate(919.53 164.256)">
            <path id="패스_1513-9" data-name="패스 1513" d="M340.261,106.783s7.027-10.541,12.3-8.784-1.757,15.811-1.757,15.811Z" transform="translate(-340.261 -97.802)" fill="#ffb612"/>
          </g>
          <rect id="사각형_397-9" data-name="사각형 397" width="100" height="110" rx="50" transform="translate(850.097 168.256)" fill="#ff5e9b"/>
        </g>
        <path id="패스_4667" data-name="패스 4667" d="M10.74-9.72a4.143,4.143,0,0,0,4.44,4.26,4.143,4.143,0,0,0,4.44-4.26V-30.48c0-3.06-1.44-4.62-5.34-4.62H3.24C.66-35.1-.9-33.78-.9-31.26c0,2.58,1.56,3.9,4.14,3.9H9.96c.66,0,.78.12.78.72ZM-3.96-30.48c0-3.06-1.44-4.62-5.28-4.62h-11.4c-2.58,0-4.2,1.32-4.2,3.84,0,2.58,1.62,3.9,4.2,3.9h7.08c.6,0,.72.12.72.72V-9.72A4.143,4.143,0,0,0-8.4-5.46,4.143,4.143,0,0,0-3.96-9.72Z" transform="translate(455 615)" fill="#fff"/>
      </g>
      <g id="그룹_4189" data-name="그룹 4189" transform="translate(35 -412.256)">
        <g id="그룹_848-2" data-name="그룹 848" transform="translate(-445.098 372)">
          <g id="그룹_834-10" data-name="그룹 834" transform="translate(866.669 164.256)">
            <path id="패스_1512-10" data-name="패스 1512" d="M220.918,106.783S213.891,96.243,208.62,98s1.757,15.811,1.757,15.811Z" transform="translate(-206.66 -97.802)" fill="#bbb"/>
          </g>
          <g id="그룹_835-10" data-name="그룹 835" transform="translate(919.53 164.256)">
            <path id="패스_1513-10" data-name="패스 1513" d="M340.261,106.783s7.027-10.541,12.3-8.784-1.757,15.811-1.757,15.811Z" transform="translate(-340.261 -97.802)" fill="#bbb"/>
          </g>
          <rect id="사각형_397-10" data-name="사각형 397" width="100" height="110" rx="50" transform="translate(850.097 168.256)" fill="#bbb"/>
        </g>
        <path id="패스_4667-2" data-name="패스 4667" d="M10.74-9.72a4.143,4.143,0,0,0,4.44,4.26,4.143,4.143,0,0,0,4.44-4.26V-30.48c0-3.06-1.44-4.62-5.34-4.62H3.24C.66-35.1-.9-33.78-.9-31.26c0,2.58,1.56,3.9,4.14,3.9H9.96c.66,0,.78.12.78.72ZM-3.96-30.48c0-3.06-1.44-4.62-5.28-4.62h-11.4c-2.58,0-4.2,1.32-4.2,3.84,0,2.58,1.62,3.9,4.2,3.9h7.08c.6,0,.72.12.72.72V-9.72A4.143,4.143,0,0,0-8.4-5.46,4.143,4.143,0,0,0-3.96-9.72Z" transform="translate(455 615)" fill="#fff"/>
      </g>
      <g id="그룹_4186" data-name="그룹 4186" transform="translate(-115 -246.256)">
        <g id="그룹_836" data-name="그룹 836" transform="translate(-735.098 82)">
          <rect id="사각형_397-11" data-name="사각형 397" width="100" height="110" rx="50" transform="translate(850.097 168.256)" fill="#ffb612"/>
          <g id="그룹_834-11" data-name="그룹 834" transform="translate(866.669 164.256)">
            <path id="패스_1512-11" data-name="패스 1512" d="M220.918,106.783S213.891,96.243,208.62,98s1.757,15.811,1.757,15.811Z" transform="translate(-206.66 -97.802)" fill="#ffb612"/>
          </g>
          <g id="그룹_835-11" data-name="그룹 835" transform="translate(919.53 164.256)">
            <path id="패스_1513-11" data-name="패스 1513" d="M340.261,106.783s7.027-10.541,12.3-8.784-1.757,15.811-1.757,15.811Z" transform="translate(-340.261 -97.802)" fill="#ffb612"/>
          </g>
        </g>
        <path id="패스_4663" data-name="패스 4663" d="M-5.22,1.98c0,2.7,1.86,4.2,4.56,4.2S3.9,4.68,3.9,1.98V-19.98h7.98c2.58,0,4.08-1.32,4.08-3.9s-1.5-3.9-4.08-3.9H3.9V-42.54c0-2.7-1.86-4.2-4.56-4.2s-4.56,1.5-4.56,4.2Z" transform="translate(165 325)" fill="#fff"/>
      </g>
      <g id="그룹_4192" data-name="그룹 4192" transform="translate(-115 -122.256)">
        <g id="그룹_836-2" data-name="그룹 836" transform="translate(-735.098 82)">
          <rect id="사각형_397-12" data-name="사각형 397" width="100" height="110" rx="50" transform="translate(850.097 168.256)" fill="#bbb"/>
          <g id="그룹_834-12" data-name="그룹 834" transform="translate(866.669 164.256)">
            <path id="패스_1512-12" data-name="패스 1512" d="M220.918,106.783S213.891,96.243,208.62,98s1.757,15.811,1.757,15.811Z" transform="translate(-206.66 -97.802)" fill="#bbb"/>
          </g>
          <g id="그룹_835-12" data-name="그룹 835" transform="translate(919.53 164.256)">
            <path id="패스_1513-12" data-name="패스 1513" d="M340.261,106.783s7.027-10.541,12.3-8.784-1.757,15.811-1.757,15.811Z" transform="translate(-340.261 -97.802)" fill="#bbb"/>
          </g>
        </g>
        <path id="패스_4663-2" data-name="패스 4663" d="M-5.22,1.98c0,2.7,1.86,4.2,4.56,4.2S3.9,4.68,3.9,1.98V-19.98h7.98c2.58,0,4.08-1.32,4.08-3.9s-1.5-3.9-4.08-3.9H3.9V-42.54c0-2.7-1.86-4.2-4.56-4.2s-4.56,1.5-4.56,4.2Z" transform="translate(165 325)" fill="#fff"/>
      </g>
    </g>
  </g>
</svg>
