<svg xmlns="http://www.w3.org/2000/svg" width="70" height="70" viewBox="0 0 70 70">
    <path fill="none" d="M0 0h70v70H0zm0 0h70v70H0zm0 0h70v70H0zm0 0h70v70H0z"/>
    <path fill="#999" d="M33.083 14.262A14.4 14.4 0 0 1 46.967 33.1l8.925 8.925a34.422 34.422 0 0 0 9.275-13.213 34.528 34.528 0 0 0-42.7-20.183l6.333 6.333a14.993 14.993 0 0 1 4.288-.7zM8.058 2.45L3.946 6.592l7.817 7.817A34.235 34.235 0 0 0 1 28.846a34.495 34.495 0 0 0 32.083 21.875 34.662 34.662 0 0 0 12.571-2.392l10 10 4.112-4.112zm25.025 40.979A14.589 14.589 0 0 1 18.5 28.846a14.324 14.324 0 0 1 1.429-6.246l4.579 4.579a10.015 10.015 0 0 0-.175 1.663 8.738 8.738 0 0 0 8.75 8.75 7.858 7.858 0 0 0 1.662-.2l4.579 4.579a14.037 14.037 0 0 1-6.241 1.458zm8.662-15.546a8.66 8.66 0 0 0-7.7-7.7z" transform="translate(1.917 4.696)"/>
</svg>
