<svg xmlns="http://www.w3.org/2000/svg" width="135.003" height="135.002" viewBox="0 0 135.003 135.002">
    <path fill="#50acdb" stroke="rgba(0,0,0,0)" stroke-miterlimit="10" d="M13810 8027a67 67 0 1 1 67 67 67 67 0 0 1-67-67zm2.965 0a64.042 64.042 0 1 0 64.044-64.044 64.12 64.12 0 0 0-64.046 64.044zm52.771 58.186l-11.534-3.59a2.236 2.236 0 0 1-1.389-.917 2.126 2.126 0 0 1 .014-1.638l.861-2.771a1.733 1.733 0 0 1 .836-1.092 1.789 1.789 0 0 1 1.382-.053 1.707 1.707 0 0 1 1.071.815 1.745 1.745 0 0 1 .056 1.372l-.479 1.54a.487.487 0 0 0-.027.329c.027.056.126.112.287.161l9.795 3.048a1.577 1.577 0 0 1 .979.728 1.381 1.381 0 0 1 .084 1.123 1.425 1.425 0 0 1-.71.889 1.339 1.339 0 0 1-.634.154 2.07 2.07 0 0 1-.594-.098zm18.8-1.771a1.8 1.8 0 0 1-.692-2.247 1.772 1.772 0 0 1 1.054-.735l3.327-1.025-.734-2.38-.462.144a2.289 2.289 0 0 1-1.62.063 2.09 2.09 0 0 1-.872-1.347l-1.06-3.437a2.053 2.053 0 0 1-.032-1.592 2.32 2.32 0 0 1 1.379-.847l9.187-2.828c.119-.038.161-.108.129-.21l-.42-1.365c-.031-.1-.108-.136-.224-.1l-9.585 2.95a1.681 1.681 0 0 1-1.225-.018 1.566 1.566 0 0 1-.63-2.05 1.68 1.68 0 0 1 1-.707l11.216-3.454a2.248 2.248 0 0 1 1.605-.063 2.142 2.142 0 0 1 .861 1.347l1.043 3.384a2.116 2.116 0 0 1 .038 1.575 2.267 2.267 0 0 1-1.364.854l-9.189 2.828c-.116.035-.154.122-.112.255l.431 1.4c.027.091.1.119.22.08l10.022-3.086a1.682 1.682 0 0 1 1.211.014 1.627 1.627 0 0 1 .638 2.072 1.672 1.672 0 0 1-.994.689l-1.323.409.735 2.376 3.328-1.022a1.758 1.758 0 0 1 1.28.014 1.793 1.793 0 0 1 .693 2.247 1.772 1.772 0 0 1-1.054.735l-16.521 5.088a2.367 2.367 0 0 1-.68.112 1.436 1.436 0 0 1-.603-.122zm6.216-7.391l.731 2.38 3.349-1.033-.731-2.376zm-24.06 3.521a1.826 1.826 0 0 1-1.092-.8 1.629 1.629 0 0 1-.08-1.33l3.6-11.556a1.608 1.608 0 0 1 .822-1.046 2.1 2.1 0 0 1 2.453.763 1.634 1.634 0 0 1 .069 1.326l-1.186 3.808 1.585.493a1.924 1.924 0 0 1 1.032.683 1.366 1.366 0 0 1 .084 1.235 1.33 1.33 0 0 1-.763.941 1.875 1.875 0 0 1-1.235-.021l-1.585-.494-1.529 4.91a1.612 1.612 0 0 1-.822 1.046 1.507 1.507 0 0 1-.676.15 2.284 2.284 0 0 1-.676-.108zm-2.48-3.506a14.147 14.147 0 0 1-2.93-.473c-1.021-.27-2.051-.563-3.094-.889l-5.3-1.652a2.043 2.043 0 0 1-1.035-.637 1.191 1.191 0 0 1-.105-1.13 1.242 1.242 0 0 1 .735-.889 1.905 1.905 0 0 1 1.218.039l3.7 1.151.493-1.582a5.61 5.61 0 0 1-2.586-2.359 4.2 4.2 0 0 1 2.25-5.718 8.6 8.6 0 0 1 8.363 2.6 3.876 3.876 0 0 1 .528 3.583 3.933 3.933 0 0 1-1.921 2.4 5.612 5.612 0 0 1-3.468.476l-.483 1.557c.654.171 1.281.329 1.883.465s1.229.263 1.89.371a1.885 1.885 0 0 1 1.019.451 1.075 1.075 0 0 1 .283.949 1.465 1.465 0 0 1-.44.948 1.288 1.288 0 0 1-.924.336.526.526 0 0 1-.075.003zm-4.721-11.482a1.581 1.581 0 0 0-.781 2.509 3.7 3.7 0 0 0 3.325 1.036 1.582 1.582 0 0 0 .78-2.509 3.224 3.224 0 0 0-1.533-.937 3.721 3.721 0 0 0-1.109-.182 2.71 2.71 0 0 0-.681.083zm16.472-3.538c-.486-.018-.966-.042-1.445-.081a31.71 31.71 0 0 1-25.176-16.122l-.2-.357v-7.251a27.818 27.818 0 0 1 10.754-22c-.879-1.939-3.069-7.346-.658-8.15 2.526-.843 5.771 3.363 6.649 4.584a27.934 27.934 0 0 1 22.1-.07c.948-1.309 4.123-5.34 6.6-4.514 2.366.784.312 5.988-.6 8.021a27.825 27.825 0 0 1 10.919 22.12v7.143c-.1.185-.2.375-.309.556a31.783 31.783 0 0 1-15.265 13.634 31.355 31.355 0 0 1-9.857 2.407q-.672.053-1.344.074c-.378.014-.756.024-1.138.024-.344-.001-.686-.008-1.029-.018zm4.073-11.422c.948 0 1.116-1.557 1.145-2.11a1.723 1.723 0 0 0 .8-1.435.665.665 0 1 0-1.329 0c0 .423-1.242 1.022-3.266 1.022s-3.269-.595-3.269-1.022a.663.663 0 1 0-1.326 0c0 .469.217 1.335 1.652 1.883a8.566 8.566 0 0 0 2.939.465 10.369 10.369 0 0 0 1.609-.119c.133.619.416 1.319 1.046 1.319zm-15.16-18.113a12.152 12.152 0 1 0 12.154-12.153 12.151 12.151 0 0 0-12.153 12.152zm12.165 7.128a7.151 7.151 0 0 1-6.394-10.344 2.653 2.653 0 1 0 2.939-3.062 7.148 7.148 0 1 1 3.454 13.41zm34.609-22.726a1.646 1.646 0 0 1-.213-.2l-9.467-11.678a2.8 2.8 0 0 1-.809-1.788 2.512 2.512 0 0 1 1.106-1.575l2.274-1.844a2.47 2.47 0 0 1 1.761-.746 2.867 2.867 0 0 1 1.567 1.169l7.37 9.1a.171.171 0 0 0 .027.039.175.175 0 0 0 .245-.011l.665-.539a.353.353 0 0 0 .039-.028.176.176 0 0 0-.015-.245l-7.888-9.736c-.007-.007-.011-.021-.021-.028l-.011-.014a1.545 1.545 0 0 1 2.4-1.946.148.148 0 0 0 .021.028l.014.014 9.134 11.272a2.712 2.712 0 0 1 .8 1.774 2.528 2.528 0 0 1-1.113 1.564l-2.12 1.722a2.57 2.57 0 0 1-1.764.766 2.727 2.727 0 0 1-1.571-1.151l-7.388-9.112a.141.141 0 0 0-.028-.039.173.173 0 0 0-.245.007l-.706.574a.11.11 0 0 0-.039.032.171.171 0 0 0 .011.241l8.122 10.023c.042.052.073.1.115.147l.008.007a1.594 1.594 0 0 1-2.282 2.208zm-79.421-2.663a6.84 6.84 0 1 1 4.05 1.334 6.843 6.843 0 0 1-4.049-1.334zm1.127-7.667a3.638 3.638 0 1 0 2.933-1.48 3.637 3.637 0 0 0-2.932 1.479zm90.27 3.856l-.015-.01-.014-.018a.545.545 0 0 1-.062-.063l-13.627-16.818c-.008 0-.011-.014-.015-.021a.325.325 0 0 1-.031-.035 1.57 1.57 0 0 1 2.443-1.974.279.279 0 0 1 .027.039c.008.007.015.01.018.017l9.617 11.867q.787-.426 1.561-.928a17.582 17.582 0 0 0 1.5-1.088l.808-.654c.15-.123.225-.224.218-.3a.816.816 0 0 0-.2-.357l-7.209-8.9a2.726 2.726 0 0 1-.672-1.375 1.71 1.71 0 0 1 1.942-1.575 2.738 2.738 0 0 1 1.207.941l8.511 10.5a2.943 2.943 0 0 1 .836 1.96 2.192 2.192 0 0 1-.909 1.543l-1.323 1.071a17.755 17.755 0 0 1-1.854 1.323q-.929.572-1.83 1.018l1.435 1.771a.408.408 0 0 0 .035.052 1.565 1.565 0 0 1-2.387 2.016zm-88.632.025a2.184 2.184 0 0 1-.549-.6.783.783 0 0 0 .966-.234.794.794 0 1 0-1.277-.945s0 .007-.007.01a2.134 2.134 0 1 1 .867 1.771zm-10.754-1.208a1.728 1.728 0 0 1-.367-2.418l2.17-2.95a2.12 2.12 0 0 1-.36-.217l-.234-.168a2.2 2.2 0 1 1 2.61-3.545l.23.172a1.951 1.951 0 0 1 .312.28l-2.558 3.479a2.2 2.2 0 0 0 .942.21 2.192 2.192 0 0 1-.939-.21l2.557-3.477 2.174-2.95a1.731 1.731 0 0 1 2.789 2.051l-6.905 9.378a1.727 1.727 0 0 1-2.418.368zm25.287-2.807a2.237 2.237 0 0 1-.249-.213 2.22 2.22 0 0 0 .26.224l-17.021-12.532a2.231 2.231 0 1 1 2.646-3.594l5.777 4.253a1.964 1.964 0 0 1 .209-.361l.9-1.218a2.033 2.033 0 1 1 3.275 2.408l-.9 1.218a2.033 2.033 0 0 1-1.636.826 2.027 2.027 0 0 0 1.355-.515l8.017 5.9.011.007.011.008a2.233 2.233 0 0 1-2.658 3.588zm45.165-7.461l-.028-.01h-.007l-13.4-4.364a2.707 2.707 0 0 1-1.67-1.137 2.6 2.6 0 0 1 .05-1.995l1.158-3.559.01-.024a2.256 2.256 0 0 1 4.294 1.365.178.178 0 0 1-.007.06l-.626 1.925a.608.608 0 0 0-.042.4.584.584 0 0 0 .347.2l10.988 3.58a.83.83 0 0 1 .087.025h.007a1.86 1.86 0 0 1-.576 3.628 1.842 1.842 0 0 1-.584-.094zm-32.031-3.03a2.25 2.25 0 0 1-.116-.714 2.214 2.214 0 0 0 .116.717l-1.617-4.832c-.408.115-.812.212-1.217.292-1.184.27-2.282.483-3.3.637s-1.946.255-2.765.3a11.039 11.039 0 0 1-1.894.042 1.76 1.76 0 0 1-.7-3.405 1.941 1.941 0 0 1 .9-.031 3.082 3.082 0 0 0 .567.039c.473-.024.948-.049 1.421-.084.57-.045 1.26-.129 2.075-.255s1.731-.312 2.768-.553 2.142-.56 3.324-.955a32.34 32.34 0 0 0 3.279-1.271 22.9 22.9 0 0 0 2.307-1.193q.918-.525 1.5-.938c.332-.238.676-.462 1.019-.682l.507-.329c.2-.129.386-.294.585-.437a1.72 1.72 0 0 1 1.693-.189 1.262 1.262 0 0 1 .424.255l.007.011a1.722 1.722 0 0 1 .479 2 .046.046 0 0 0-.007.021c-.018.035-.035.074-.057.112s-.034.066-.052.1l-.015.021a2.318 2.318 0 0 1-.531.578 11.6 11.6 0 0 1-1.421 1.085q-.971.65-2.292 1.375-1.349.735-2.982 1.466c-.454.207-.909.4-1.368.6l-.115-.34a2.221 2.221 0 0 0-.562-.894 2.215 2.215 0 0 1 .559.891l.115.336 1.609 4.819-.031-.086c.012.028.021.057.031.086a2.232 2.232 0 1 1-4.234 1.414zm33.042-3.542a2.242 2.242 0 0 1-.964-.627c-.04-.043-.078-.087-.113-.133a2.234 2.234 0 0 1-.447-1.642 2.23 2.23 0 0 0 .443 1.667 2.238 2.238 0 0 1-.364-2.068l4.511-13.848a2.233 2.233 0 1 1 4.245 1.386l-1.525 4.683a1.961 1.961 0 0 1 .413.087l1.435.469a2.032 2.032 0 0 1-1.26 3.864l-1.435-.466a1.927 1.927 0 0 1-.386-.175l-1.711 5.26a2.333 2.333 0 0 0 .052-.267 2.358 2.358 0 0 1-.048.242l-.009.025a.878.878 0 0 1-.023.111 2.231 2.231 0 0 1-2.813 1.432zm2.778-1.373c.009-.024.018-.048.025-.072-.006.025-.015.049-.024.073zm.857-7.82a2.038 2.038 0 0 0-.1.613 2.034 2.034 0 0 1 .555-1.377 2.02 2.02 0 0 0-.453.768zm-47.593 3.17a.45.45 0 0 1-.014-.049l-.668-1.995-.326-.973a2.417 2.417 0 0 1-.077-1.9 2.842 2.842 0 0 1 1.646-1.057l11.04-3.7c.141-.045.193-.129.151-.252l-.252-.756c-.042-.119-.134-.158-.273-.112l-11.514 3.853a.5.5 0 0 1-.073.018c-.038.018-.073.032-.111.045a.213.213 0 0 0-.042.014 1.705 1.705 0 0 1-1.04-3.248l.115-.031a.45.45 0 0 1 .07-.028l13.47-4.507a2.737 2.737 0 0 1 1.945-.129 2.546 2.546 0 0 1 1.074 1.589l1.025 3.059a2.5 2.5 0 0 1 .088 1.89 2.748 2.748 0 0 1-1.631 1.071l-11.037 3.692c-.14.045-.186.147-.133.3l.224.665q.888-.168 1.921-.409 1.548-.368 3.325-.959c.447-.15.878-.3 1.284-.452l.027-.01a24.4 24.4 0 0 0 2.373-1.053c.634-.315 1.151-.6 1.554-.847s.718-.448.945-.588c.262-.165.531-.318.8-.476a4.315 4.315 0 0 1 .776-.434 1.47 1.47 0 0 1 .21-.07 1.61 1.61 0 0 1 1.974 1.137 2.04 2.04 0 0 1 .1.759 1.742 1.742 0 0 1-.857 1.319 10.917 10.917 0 0 1-1.48.994q-1.008.593-2.369 1.235c-.16.077-.325.15-.489.224v.007l-.42.193q-.787.352-1.585.682l-.661.217-.13.049v-.007l-3.041.991c-.473.14-.949.255-1.418.354-1.179.269-2.278.49-3.3.644-.511.074-.955.14-1.288.171a1.673 1.673 0 0 1-.286.024 1.716 1.716 0 0 1-1.62-1.153zm35.923.756a9.551 9.551 0 0 1-4.585-1.491 5.856 5.856 0 0 1-1.557-1.47 4.15 4.15 0 0 1-.746-1.872 5.52 5.52 0 0 1 1.368-4.2 4.158 4.158 0 0 1 1.705-1.071 5.911 5.911 0 0 1 2.124-.273 9.549 9.549 0 0 1 4.584 1.495 5.874 5.874 0 0 1 1.558 1.47 4.136 4.136 0 0 1 .745 1.869 5.51 5.51 0 0 1-1.368 4.2 4.138 4.138 0 0 1-1.7 1.075 5.819 5.819 0 0 1-1.782.279c-.114 0-.231-.004-.344-.01zm-1.915-6.943a1.6 1.6 0 0 0-1.144 1.862 1.673 1.673 0 0 0 .314.679 2.134 2.134 0 0 0 .595.521 3.6 3.6 0 0 0 1.589.518 2.218 2.218 0 0 0 .788-.07 1.712 1.712 0 0 0 .654-.364 1.6 1.6 0 0 0 .171-2.18 2.189 2.189 0 0 0-.591-.518 3.63 3.63 0 0 0-1.593-.518c-.066-.006-.133-.009-.2-.009a2.2 2.2 0 0 0-.581.08zm8.287-1.631l-11.076-3.6a1.732 1.732 0 0 1 1.075-3.293l3.563 1.162a2.031 2.031 0 0 0-.017.287 2.031 2.031 0 0 1 .017-.287l4.1 1.337 3.405 1.109a1.73 1.73 0 1 1-1.071 3.29zm-2.372-4.333a2.2 2.2 0 0 1-1.885 1.069 2.2 2.2 0 0 0 1.887-1.069zm-4.066-1.4a2.006 2.006 0 0 1 .091-.41l.087-.276a2.2 2.2 0 0 1 4.189 1.361l-.091.276a2.426 2.426 0 0 1-.172.385z" transform="translate(-13809.498 -7959.499)"/>
</svg>
