<svg xmlns="http://www.w3.org/2000/svg" id="그룹_11504" width="1080" height="640" viewBox="0 0 1080 640">
    <defs>
        <style>
            .cls-1{fill:#34cc67}.cls-2{fill:transparent}
        </style>
    </defs>
    <g id="그룹_11225">
        <path id="사각형_1936" d="M0 0H200V200H0z" class="cls-2" transform="translate(880 440)"/>
        <path id="합치기_89" d="M11348.973 8042.553h-19.8a1.793 1.793 0 0 1-.542-.083h-.478q-3.16 0-6.277-.057a1.785 1.785 0 0 1-.7.14h-22.276a2.768 2.768 0 0 1 .13-1.687c-12.131-1.6-22.144-4.589-27.89-9.735a27.77 27.77 0 0 1-8.947-15.933c-.79-.08-1.455-1.4-1.923-2.71-2.379 1.446-4.881 2.634-5.434 1.878-.816-1.116 1.165-3.882 1.165-3.882s-3.616 2.428-4.644.762c-.876-1.417 2.45-4.071 2.45-4.071s-2.923 1.111-3.689-.128c-.739-1.2 2.2-3.914 5.4-6.041 1.26-3.086 3.539-8.5 5.345-11.772l.3-.54c-.383-.483-.569-.763-.569-.763a24.347 24.347 0 0 1-3.163-10.389v-.063-.06a.224.224 0 0 0 0-.046v-.006a15.589 15.589 0 0 1 5.819-12.98q.064.565.164 1.115l-1.764-12.13a50.843 50.843 0 0 1 15.708-45.327l-.026-.046a3.2 3.2 0 0 1 .556-3.819c-2.238-2.726-5.362-3.859-6.8-4.578.077-.109.157-.218.243-.321a16.855 16.855 0 0 0-3.452-.87c-2.651-.387-3.75-.057-4.357-3.195-.055-.286-.1-.581-.132-.888-.449-4.326 1.469-10.229 3.728-13.415a3.2 3.2 0 0 1 1.374-1.039c2.228-.97 5.835-.584 6.871-.446-.676-.685-1.271-1.271-1.7-1.687a.218.218 0 0 1-.022-.026.878.878 0 0 1-.117-.137 1.3 1.3 0 0 1-.114-.195 1.344 1.344 0 0 1-1.057.771 1.868 1.868 0 0 1-.361.037 1.394 1.394 0 0 1-1.291-1.031.1.1 0 0 0-.011-.02c-.292-.718-.378-1.595-.607-1.912a.387.387 0 0 0-.077-.078c-.192-.143-.747.009-1.408.161a3.685 3.685 0 0 1-2.477 0s-.006-.006-.009-.006a1.219 1.219 0 0 1-.44-.446.027.027 0 0 1-.012-.018.008.008 0 0 1 0-.005 1.628 1.628 0 0 1-.16-.4c-.323-1.166.478-1.721 1.469-2.042a14.265 14.265 0 0 1 1.7-.389c.387-.077.762-.149 1.113-.206-.1-.169-.2-.349-.306-.544a7.684 7.684 0 0 1-1.186-2.771 1.242 1.242 0 0 1 .787-1.17 2.659 2.659 0 0 1 .243-.115c1.5-.6 1.807 1.245 2.6 2.537.141.229.547-.029 1.475-.516q.24-.129.532-.275c1.014-.509 1.652-.761 2.164-.314.032-.038.063-.081.1-.118.354-.446.689-.867.931-1.162.04-.052.077-.1.111-.141.052-.063.111-.134.175-.214a3.842 3.842 0 0 1 .839-.822.871.871 0 0 1 .75-.134.884.884 0 0 1 .292.177c.063.054.12.106.175.157a1.05 1.05 0 0 1 .341.5c.091.369-.152.847-.939 1.783-1.045 1.237-1.365 1.644-.91 2.167v-.006a1.317 1.317 0 0 0 .108.117 3.636 3.636 0 0 0 .332.281c.851.658 1.44-.163 1.941-.891.089-.128.175-.257.261-.372.563-.758 1.214-1.732 2.007-1.085a1.771 1.771 0 0 1 .432.484c.261.47.066.936-.4 1.52-.627.788-1.815 2.265-2.265 2.832a2.011 2.011 0 0 1-.979.644 1.011 1.011 0 0 1 .068.22c.123.587.3 1.415.518 2.362.438-.947 2.233-4.609 4.44-5.809a2.97 2.97 0 0 1 1.309-.412c4.174-.206 10.761 1.586 14 4.649 1.153 1.09 1.518 1.826 1.46 2.588-.1 1.319-1.469 2.722-2.228 6.2.115-.012.235-.02.353-.023-.169 1.6-.891 4.844.206 8.2a3.207 3.207 0 0 1 3.33 1.281c.367-5.386 1.634-12.688 5.745-13.285 3.894-.567 7.205 6.639 9.061 11.806 27.826-.79 51.9 16.6 56.021 44.969l.132.907c.139-.257.708-.04 1.5.539-.108-.149-.217-.292-.326-.436 2.468 1.612 7.867 7.618 7.867 13.6v.209s0 .133-.008.387a32.967 32.967 0 0 0 1.241-6 5.772 5.772 0 0 1 .187-1.028 6.348 6.348 0 0 1-.172-2.124 17.819 17.819 0 0 0-.8-4.512c-.556-1.532-1.887-2.872-1.211-3.6a2.141 2.141 0 0 1 2.552-.292l-15.675-30.528c-2.693-5.242-8.76-2.6-9-2.488h-.006a1.1 1.1 0 1 1-1.011-1.964l14.561-7.478c-.742.332-1.463.647-1.993.9a2.212 2.212 0 0 1-1.666.058c-.058 1.208-1.973 1.932-3.942 2.877-1.15.55-1.9.452-2.5-.1a1.377 1.377 0 0 1-.847 1.563 1.574 1.574 0 0 1-.7.18c-1.377 0-1.884-2.342-2.441-2.559-.241-.095-.685.18-1.208.455-.879.461-1.981.922-2.731-.358-.987-1.689.406-2.221 1.758-2.88 1.706-.833 3.135-1.517 4-.5a1.3 1.3 0 0 1 .811-1.569c1.792-.885 2.044 1.156 2.871 2.582.163.284.725-.117 2.1-.758a3.916 3.916 0 0 1 1.635-.519c-.441-.942-.968-2.127-1.231-2.7-.424-.928-.269-1.529.406-2l-12.232 6.278a1.106 1.106 0 0 1-1.011-1.967l2.7-1.386a1.107 1.107 0 0 1-1.234-1.806 8.8 8.8 0 0 0-3.876-3.006 4 4 0 0 1 4.878-.878 3.826 3.826 0 0 1 6.748-3.467 4.007 4.007 0 0 1 3.559-3.452 8.815 8.815 0 0 0 .186 4.9 1.1 1.1 0 0 1 .722 2.067l-7.28 3.739 10.009-5.139a1.107 1.107 0 0 1 1.01 1.97l-3.062 1.569c.756-.347 1.285-.573 1.838-.825.687-.309 2.1-1.059 2.548.023.395.951.4 1.343-1.638 2.23s-1.537.633-.919 1.9 1.073.73 2.013.252 2.069-1.131 2.542-.091a1.171 1.171 0 0 1-.27 1.614l.3-.151a1.1 1.1 0 0 1 1.008 1.966s-5.978 3.418-3.231 8.766l-.055.029 17.4 33.884a2.488 2.488 0 0 1 2.7.973 2.8 2.8 0 0 1 .406 1.372 2.365 2.365 0 0 1 1.48 1.053 2.81 2.81 0 0 1 .277 2.494 2.085 2.085 0 0 1 1.211.91 2.547 2.547 0 0 1-.659 3.449c.006.1.01.208.01.311l9.47 18.441a1.052 1.052 0 0 1 .962 1.872l-4.094 2.1a1.073 1.073 0 0 1-.481.115 1.051 1.051 0 0 1-.5-1.975l-6.86-13.363a36.154 36.154 0 0 1-6.436 13.624 96.99 96.99 0 0 1 3.359 10.147c4.349 16.238 6.373 28.485 6.379 38.547 0 9.338-4.025 16.516-11.652 20.758-6.332 3.519-13.9 4.257-19.143 4.257-.934 0-3.281.138-6.253.309-2.988.174-6.029.337-9.1.481a3.542 3.542 0 0 1-.071.692zm-79.895-159.706a26.971 26.971 0 0 0-2.769 7.984c1.183-2.133 3.753-3.6 6.207-2.749a7.658 7.658 0 0 1 2.49-8.07l-.7.6h-.012c-.227-.004-3.776.031-5.216 2.235zm19.716-3.7c.6-2.531 3.221-3.914 5.654-3.762a27 27 0 0 0-8.223-1.953c-2.725.035-4.7 3.212-4.7 3.212l-.888.269a9.511 9.511 0 0 1 2.468-.338 7.3 7.3 0 0 1 5.689 2.576zm-15.854-6.367c-.1.048-.194.094-.286.134a.01.01 0 0 0 0 .006c.023.074.046.146.066.22a18.4 18.4 0 0 1 .79 3.035 8.183 8.183 0 0 1 4.088-2.445c-.756-.6-1.746-1.417-2.216-1.8-.046-.037-.092-.074-.132-.111a1.635 1.635 0 0 1-.16-.158c-.627.371-1.39.728-2.151 1.124z" class="cls-1" transform="translate(-10349 -7414)"/>
    </g>
    <g id="그룹_11224">
        <path id="사각형_1937" d="M0 0H200V200H0z" class="cls-2" transform="translate(660 440)"/>
        <path id="합치기_88" d="M11376.515 8040.7h-20.37a1.848 1.848 0 0 1-1.851-1.848v-7.491h-4.525v7.491a1.847 1.847 0 0 1-1.848 1.848H11325c-.222-1.124-.018-2.252 1.638-3.385l-4.031-10.347a49.2 49.2 0 0 1-28.838-44.794v-7.624a60.745 60.745 0 0 0-9.086-11.318 53.361 53.361 0 0 0-8.345-6.2 31.987 31.987 0 0 1-3.882.256c-2.515 0-4.515-.394-4.661-1.379-.224-1.485 2.813-2.552 2.813-2.552s-4.377.124-4.629-1.572c-.3-1.991 4.154-2.482 4.154-2.482s-3.394-.859-3.494-2.279c-.068-.959 2.687-1.687 5.515-2.129-.523-1.405-.888-2.957-.2-3.486 1.092-.848 4.937 2.141 6.379 3.325a6.436 6.436 0 0 1 .908.365 65.087 65.087 0 0 1 13.465 9.439q.539.5 1.063 1.014v-15.031c0-29.577 22.06-50.875 50.621-54.093 1.121-5.48 3.5-13.33 7.954-13.33 4.049 0 6.351 7.824 7.474 13.358 24.367 2.839 43.957 18.85 49.069 41.925a3.584 3.584 0 0 0 1.541-.628c.8-.8 1.161-4.8 1.161-4.8s.442 3.925 1.321 4.8 4.566 1.083 4.566 1.083-3.765.2-4.566 1.081-1.321 4.807-1.321 4.807-.359-3.925-1.161-4.807a2.932 2.932 0 0 0-1.345-.614 56.265 56.265 0 0 1 1.109 11.217v14.08l.063-.061a65.08 65.08 0 0 1 13.462-9.437 6.215 6.215 0 0 1 .908-.362c.359-.3.867-.7 1.445-1.135-.615-.059-1.04-.081-1.04-.081s.561-.041 1.329-.133c1.672-1.223 3.784-2.527 4.6-2.013a24.72 24.72 0 0 0 .854-4.635s.509 4.52 1.522 5.535 5.262 1.247 5.262 1.247-4.336.229-5.262 1.244a2.275 2.275 0 0 0-.337.542c1.9.433 3.371 1.012 3.322 1.716-.1 1.419-3.494 2.279-3.494 2.279s4.451.491 4.155 2.482c-.256 1.7-4.629 1.572-4.629 1.572s3.034 1.066 2.813 2.552c-.147.986-2.146 1.379-4.661 1.379a32.611 32.611 0 0 1-3.885-.256 53.106 53.106 0 0 0-8.342 6.2 58.57 58.57 0 0 0-8.086 9.767v9.175a49.2 49.2 0 0 1-28.724 44.743l-4.054 10.4c1.655 1.132 1.861 2.261 1.638 3.385zm-108.031-101.686c-.7-.77-4.129-.945-4.129-.945s3.431-.244 4.129-.945 1.015-4.2 1.015-4.2.385 3.428 1.155 4.2 3.988.945 3.988.945-3.29.175-3.988.945-1.155 4.2-1.155 4.2-.314-3.433-1.016-4.204zm172.954-12.448c-.923-1.014-5.445-1.244-5.445-1.244s4.522-.325 5.445-1.247 1.339-5.537 1.339-5.537.506 4.523 1.521 5.537 5.261 1.247 5.261 1.247-4.336.23-5.261 1.244-1.521 5.537-1.521 5.537-.418-4.526-1.339-5.54zm-182.643-8.192c-1.489-1.638-8.8-2.012-8.8-2.012s7.307-.523 8.8-2.011 2.16-8.945 2.16-8.945.822 7.3 2.46 8.945 8.5 2.011 8.5 2.011-7.006.374-8.5 2.012-2.46 8.945-2.46 8.945-.669-7.308-2.16-8.948zm24.168-4.922c-.925-1.015-5.445-1.244-5.445-1.244s4.521-.325 5.445-1.247 1.337-5.537 1.337-5.537.508 4.522 1.522 5.537 5.259 1.247 5.259 1.247-4.336.229-5.259 1.244-1.522 5.537-1.522 5.537-.417-4.524-1.337-5.541zm145.1-5.442c-1.488-1.641-8.793-2.012-8.793-2.012s7.3-.523 8.793-2.014 2.164-8.942 2.164-8.942.818 7.3 2.459 8.942 8.5 2.014 8.5 2.014-7.009.371-8.5 2.012-2.459 8.942-2.459 8.942-.671-7.306-2.163-8.946zm-161.811-16.6c-1.046-1.149-6.163-1.411-6.163-1.411s5.117-.365 6.163-1.408 1.515-6.27 1.515-6.27.574 5.121 1.724 6.27 5.954 1.408 5.954 1.408-4.911.261-5.954 1.411-1.724 6.267-1.724 6.267-.467-5.125-1.513-6.277zm19.508 4.6l-2.761-7.359a2.135 2.135 0 0 1 1.247-2.747l8.014-3.009a1.019 1.019 0 1 0-.716-1.908l-8.017 3.008a2.129 2.129 0 0 1-2.744-1.247l-.275-.727a2.135 2.135 0 0 1 1.247-2.747l11.694-4.391a2.133 2.133 0 0 1 2.747 1.247l2.762 7.359a2.127 2.127 0 0 1-1.247 2.744l-8.015 3.011a1.019 1.019 0 1 0 .719 1.908l8.014-3.008a2.133 2.133 0 0 1 2.747 1.247l.273.73a2.133 2.133 0 0 1-1.247 2.744l-11.7 4.391a2.128 2.128 0 0 1-2.747-1.247zm129.309 1.144l-2.333-1.129a2.374 2.374 0 0 1-1.1-3.169l3.451-7.115a1.421 1.421 0 0 0-.658-1.9l-6.626-3.212a2.371 2.371 0 0 1-1.1-3.167l1.135-2.333a2.367 2.367 0 0 1 3.164-1.1l10.592 5.132a4.354 4.354 0 0 1 2.017 5.813l-5.37 11.08a2.373 2.373 0 0 1-2.135 1.336 2.345 2.345 0 0 1-1.036-.243zm-113.045-7.595l-5.022-13.381a2.37 2.37 0 0 1 1.385-3.052l2.432-.914a2.37 2.37 0 0 1 3.051 1.385l.6 1.595a.712.712 0 0 0 .917.414l2.379-.894a.711.711 0 0 0 .417-.917l-.6-1.589a2.373 2.373 0 0 1 1.388-3.055l2.429-.911a2.37 2.37 0 0 1 3.051 1.385l5.023 13.382a2.37 2.37 0 0 1-1.385 3.052l-13.012 4.885a2.342 2.342 0 0 1-.833.152 2.369 2.369 0 0 1-2.219-1.544zm7.371-10.5l-2.383.894a.706.706 0 0 0-.413.914l.922 2.462a.712.712 0 0 0 .917.414l2.382-.894a.7.7 0 0 0 .414-.914l-.923-2.462a.713.713 0 0 0-.666-.46.692.692 0 0 0-.245.04zm88.355 9.894l-11.24-5.448a2.13 2.13 0 0 1-.989-2.848l3.429-7.074a2.133 2.133 0 0 1 2.851-.989l7.7 3.736a1.021 1.021 0 0 0 .891-1.836l-7.706-3.735a2.134 2.134 0 0 1-.988-2.848l.339-.7a2.133 2.133 0 0 1 2.851-.988l11.24 5.448a2.134 2.134 0 0 1 .989 2.851l-3.429 7.072a2.133 2.133 0 0 1-2.851.988l-7.7-3.732a1.019 1.019 0 0 0-.891 1.833l7.7 3.736a2.136 2.136 0 0 1 .991 2.85l-.339.7a2.137 2.137 0 0 1-1.922 1.2 2.1 2.1 0 0 1-.924-.223z" class="cls-1" transform="translate(-10590 -7413)"/>
    </g>
    <g id="그룹_11223">
        <path id="사각형_1926" d="M0 0H200V200H0z" class="cls-2" transform="translate(440 440)"/>
        <path id="합치기_87" d="M11380.5 8025.1h-23.551a2.084 2.084 0 0 1-1.98-1.44l-2.724-8.36-9.212-.413v8.128a2.086 2.086 0 0 1-2.083 2.086h-25.847c-.252-1.271-.022-2.545 1.846-3.822l-4.426-11.357a55.623 55.623 0 0 1-31.738-37.056 55.459 55.459 0 0 1-1.7-16.386l.081-1.794a23.287 23.287 0 0 1-8 1.573 15.322 15.322 0 0 1-5.423-.95 18.409 18.409 0 0 1-6.8-4.72l-.043.138-2.737-.858-.006.014-2.752-.864.006-.017-.006.017-2.751-.863 1.641-5.228a11.226 11.226 0 0 1-1.848-2.378 2.012 2.012 0 0 1-.278-2.069 2.438 2.438 0 0 1 2.043-1.44c.123-.1.25-.2.379-.3a1.832 1.832 0 0 1 .493-2.272 2.282 2.282 0 0 1 2.08-.677l.078-.244c-.479-1.558-.78-3.133-.78-3.133s-.468-3.6 1.139-4.129c.471-.155 1.05.164 1.673.792l3.4-10.834 4.717-6.754h.006l1.91-2.734a.915.915 0 0 1 1.621.514v3.328h.006l-.008 8.215-3.939 12.541a3.784 3.784 0 0 1 2.677-.215c1.13.568-.448 4.057-1.67 6.393 1.084 2.178 3.075 4.771 4.447 5.288 1.612.608 6.151-1.237 8.98-3.231q.214-.149.435-.281l.214-4.775a65.6 65.6 0 0 1 31.451-53.141c-1.222-5.943-2.152-14.595 2.555-15.333 4.389-.688 8.634 4.658 11.29 8.962a65.813 65.813 0 0 1 55.519 7.035c3.613-2.785 12.293-8.722 17.028-5.56 4.172 2.786-1 10.9-4.673 15.736a65.477 65.477 0 0 1 18.015 48.194l-.984 21.944q-.044.97-.12 1.93a35.946 35.946 0 0 0 3.435 4.566 21.559 21.559 0 0 0 6.06 4.622.044.044 0 0 0 .018 0c5.041-.3 11.451.393 11.511 2.324.052 1.69-3.488 2.482-3.488 2.482s4.915.445 4.975 2.376c.069 2.27-4.983 2.232-4.983 2.232s3.687 1.412 3.612 3.016c-.069 1.452-5.762 1.762-9.646 1.679.224 1.828.264 4.025-.743 4.444a.727.727 0 0 1-.3.058c-1.948 0-6.131-6.232-6.131-6.232l.089-.012a35.346 35.346 0 0 1-8.183-5.378 55.649 55.649 0 0 1-24.588 27.911l-.271 12.891c1.867 1.277 2.1 2.551 1.845 3.822zm-117.068-107.993h.009l-.015-.005z" class="cls-1" transform="translate(-10801 -7406)"/>
    </g>
    <g id="그룹_11222">
        <path id="사각형_1925" d="M0 0H200V200H0z" class="cls-2" transform="translate(220 440)"/>
        <path id="합치기_86" d="M11358.8 8042.326h-9.826l-10.771-1.773a1.843 1.843 0 0 1-1.541-1.816v-5.861h-4.512v5.861a1.84 1.84 0 0 1-1.541 1.816l-10.77 1.773h-12.358c-.224-1.123-.02-2.246 1.63-3.375l-4.105-10.54a48.971 48.971 0 0 1-7.433-4.245c-1.174 1.022-2.395 2.072-3.613 3.151-2.55 2.257-4.735 3.243-6.781 3.243-3.122 0-5.921-2.294-9.182-5.881-1.962-2.154-3.99-4.174-5.515-6.11a6.348 6.348 0 0 1-.6.59.038.038 0 0 0-.014.012c-.009.008-.021.017-.029.026a6.105 6.105 0 1 1-.363-9.611c.051-.058.1-.112.154-.169a6.106 6.106 0 0 1 7.782-8.749 48.933 48.933 0 0 1-2.955-16.8v-41.5a52.305 52.305 0 0 1 27.617-46.756c-.933-1.7-1.724-3.117-2.539-3.435-1.022-.4-3.4 1.06-6.223 2.524-4.482 2.326-10.078 4.649-13.1-.507-2.116-3.613-.741-6.377 1.849-8.577a6.159 6.159 0 0 1 9.311-5.289c.519-.249 1.028-.5 1.532-.736a6.16 6.16 0 0 1 11.611-2.673 6.223 6.223 0 0 1 3.254 2.79c2.327 3.771 4.848 7.511 6.484 10.884a64 64 0 0 1 10.638-2.114c1.117-5.458 3.492-13.282 7.925-13.282 4.033 0 6.328 7.8 7.447 13.31 28.34 3.3 50.188 24.479 50.188 53.863v41.5q0 1.252-.062 2.486a4.666 4.666 0 0 1 1.432 1.287 5.594 5.594 0 1 1 4.824 9.9 5.6 5.6 0 0 1 3.194 10.706 5.579 5.579 0 0 1-1.905.332h-.061c.284 2.375-.074 4.71-2.7 5.294-3.824.848-5.3.616-7.285-7.618-.379-1.571-.7-2.891-1.008-3.986a48.974 48.974 0 0 1-6.544 11.421c.329 2.265-.08 4.192-2.593 4.841a8.739 8.739 0 0 1-1.96.3 49.1 49.1 0 0 1-14 9.636l-4.084 10.482c1.65 1.128 1.854 2.251 1.631 3.375zm-77.328-32.18c1.6 1.759 3.2 3.939 5.01 5.692.377.365.874.252 1.618-.263a49.115 49.115 0 0 1-5.4-7.753 6.044 6.044 0 0 1-1.227 2.324zm115.714-12.4c.028.109.057.212.086.318a5.612 5.612 0 0 1 1.143-.467 5.465 5.465 0 0 1-1.228.153zm7.411 9.614a4.142 4.142 0 1 1 8.284 0 4.142 4.142 0 1 1-8.284 0zm-146.385 1.134a3.008 3.008 0 1 1 6.017 0 3.008 3.008 0 1 1-6.017 0zm-8.213-4.206a5.611 5.611 0 1 1 11.222 0 5.611 5.611 0 1 1-11.222 0zm156.643-2.948a4.143 4.143 0 0 1 8.285 0 4.143 4.143 0 0 1-8.285 0zm-8.287-49.1a8.286 8.286 0 0 1 16.572 0 8.286 8.286 0 0 1-16.572 0zm-140.689-21.489a8.285 8.285 0 0 1 16.57 0 8.285 8.285 0 1 1-16.57 0zm16.57-51.293a3.7 3.7 0 1 1 7.4 0 3.7 3.7 0 0 1-7.4 0zm31.729-9.76a3.7 3.7 0 1 1 7.4 0 3.7 3.7 0 0 1-7.4 0z" class="cls-1" transform="translate(-11012.871 -7414)"/>
    </g>
    <g id="그룹_11221">
        <path id="사각형_1924" d="M0 0H200V200H0z" class="cls-2" transform="translate(0 440)"/>
        <path id="합치기_85" d="M11335.7 8020.233h-6.355c-.241-1.222-.021-2.445 1.777-3.673l-.858-2.208-1.217 4.409a2.006 2.006 0 0 1-1.933 1.471h-25.347c-.243-1.222-.02-2.445 1.775-3.673l-4.507-11.575a53.593 53.593 0 0 1-22.179-19.541 6.051 6.051 0 0 1-2.266.49 4.034 4.034 0 0 1-3.071-1.386l-11.406-8.036-2.186-7.9q-.9.166-1.929.271a3.56 3.56 0 0 1-.384.02c-5.632 0-8.332-12.852-1.8-14.584l.148-.039-2.8-10.125 1.3.968-1.188-1.04.584-.02.533.375 4.148-.529a18.871 18.871 0 0 1 3.323 1.016l-.418-1.7a10.009 10.009 0 0 1 5.438 2.734c.267-5.539 2.162-9.9 3.6-11.572a63.148 63.148 0 0 1 30.311-52.783c-1.878-5.3-3.358-12.036.581-13.347 4.266-1.423 9.437 3.51 12.62 7.261a63.544 63.544 0 0 1 40.02.237c2.634-3.49 9.2-11.243 14.412-9.5 4.7 1.569 1.675 10.871-.526 16.233a63.348 63.348 0 0 1 25.266 31.851 25.645 25.645 0 0 1 16.761 24.055v14.032a25.644 25.644 0 0 1-16.9 24.1 53.563 53.563 0 0 1-29.3 29.581l-5.016 12.852a2.009 2.009 0 0 1-1.87 1.277z" class="cls-1" transform="translate(-11228.951 -7403)"/>
    </g>
    <g id="그룹_11226">
        <path id="사각형_1916" d="M0 0H200V200H0z" class="cls-2" transform="translate(880 220)"/>
        <path id="합치기_84" d="M11368.418 8025.046h-19.345a1.756 1.756 0 0 1-1.756-1.756V8016l-4.3.275v7.016a1.756 1.756 0 0 1-1.756 1.756h-21.761c-.215-1.07-.02-2.141 1.553-3.216l-3.443-8.843a46.719 46.719 0 0 1-28.156-36.873c-.379.049-.769.083-1.165.1-.31.014-.61.02-.906.02a13.782 13.782 0 0 1-9.558-3.509 14.275 14.275 0 0 1-3.4-4.837c-.261.017-.511.025-.746.025-1.17 0-1.994-.235-2.178-.8-.332-1.027 1.122-2.118 1.849-2.588l-.035-.169c-1.059.155-3.753.416-4.154-.824s1.364-2.165 2.535-2.633l-.054-.053a3.338 3.338 0 0 1-.243-.255c-.081-.092-.158-.187-.233-.285-.921-.225-1.956-.632-2.126-1.339-.086-.359.269-.755.893-1.157-1.09-3.407-.858-7.7-1.985-8.739a2.189 2.189 0 0 0-.814-.315 21.7 21.7 0 0 0-4.565.3c-2.568.3-5.572.6-8-.023h-.015l-.031-.009c-.006 0-.012 0-.018-.005a.16.16 0 0 1-.04-.012.086.086 0 0 1-.026-.006.044.044 0 0 1-.017-.005.087.087 0 0 1-.029-.006s-.008 0-.014-.006l-.1-.029a7.1 7.1 0 0 1-1.282-.511h-.006l-.029-.017h-.009c-.017-.008-.031-.017-.046-.026l-.014-.008-.018-.009a.1.1 0 0 0-.022-.011.061.061 0 0 1-.018-.012c-.009-.006-.018-.008-.028-.014l-.009-.006a.345.345 0 0 0-.04-.023l-.04-.023a5.447 5.447 0 0 1-2.6-4.088c-1.214-7.575 7.962-7.888 13.824-8.373 5.273-.437 9.928-.8 12.794.814l.014.006.026.017.02.009a.047.047 0 0 0 .021.012.052.052 0 0 0 .021.011.038.038 0 0 0 .014.012 5.29 5.29 0 0 1 1.859 1.811.019.019 0 0 1 .006.011.116.116 0 0 1 .015.026c.006.006.009.014.014.02a.054.054 0 0 0 .012.017.87.87 0 0 1 .049.089 6.846 6.846 0 0 1 .764 2.189c.557 3.03 1.211 6.086 1.635 8.9a28.194 28.194 0 0 1 .388 6.4 7.788 7.788 0 0 1 2.5 5.46l.149-.006v-.08a5.959 5.959 0 0 0 .731 2.341c.3.488.752 1.225 2.771 1.122a3.049 3.049 0 0 0 .9-.178l-2.014-31.364c-1.8-28.027 17.813-49.549 44.686-54.335.729-5.26 2.508-12.846 6.726-13.116 3.836-.244 6.493 7.03 7.894 12.206 27.157 1.409 49.23 20.223 51.024 48.172l1.426 22.223c1.016 3.133 3.337 7.082 5.3 7.179.881.046 1.1-.172 1.2-.267.918-.913 1.322-3.675 1.251-5.233a5.574 5.574 0 0 1 .611-2.9 7.893 7.893 0 0 1 1-1.934 15.56 15.56 0 0 1 .077-2.233c.795-7.787 2.729-21.528 3.217-23.654.691-3.013 2.5-5.974 6.812-5.538a5.57 5.57 0 0 1 3.8 1.75.134.134 0 0 1 .018.023 7.183 7.183 0 0 1 1.266 5.518c-.023.252-.063.591-.109.987-.158 1.386-.4 3.283-.68 5.4a40.492 40.492 0 0 1 5.661.921c2.258.52 4.484 1.73 4.969 4.338a.2.2 0 0 0 .006.038v.008a.1.1 0 0 1 .006.032v.009a.1.1 0 0 0 .006.031v.012c0 .011 0 .023.006.034v.006a.22.22 0 0 1 .006.04.032.032 0 0 1 0 .015.1.1 0 0 1 0 .028.049.049 0 0 1 0 .02.054.054 0 0 1 0 .018c0 .008 0 .017.006.026v.017a.078.078 0 0 1 0 .026.021.021 0 0 1 0 .014v.038c0 .011 0 .02.006.031a6.971 6.971 0 0 1-.009 1.4c-.4 3.908-3.291 4.955-6.616 4.614-2.031-.207-3.917-.454-5.612-.706-.433 2.955-.821 5.463-1.052 6.756 1.145.562 1.893 1.139 1.771 1.646-.208.868-1.726 1.284-2.731 1.467-.064.12-.134.239-.207.356 1.141.422 3.252 1.4 2.818 2.742-.376 1.153-2.74 1.007-3.917.855-.008.1-.017.2-.028.3.764.531 1.9 1.5 1.6 2.425-.181.557-.989.792-2.14.8a15.542 15.542 0 0 1-3.854 7.348 12.3 12.3 0 0 1-8.97 3.6c-.255 0-.511-.006-.771-.017a13.2 13.2 0 0 1-3.609-.683c.031.577.051 1.151.06 1.728 0 .118.006.238.006.355v1.064a.637.637 0 0 1 0 .075v.141a.768.768 0 0 0 0 .081v.462a46.73 46.73 0 0 1-22.98 38.864c-.037.023-.074.043-.112.066l-.008.006c-.038.02-.075.043-.112.063 0 0-.006.006-.009.006l-.1.063-.025.011a.9.9 0 0 1-.095.055l-.028.017-.089.052a.238.238 0 0 1-.038.02c-.028.017-.054.032-.083.046a.161.161 0 0 1-.04.023c-.025.018-.052.032-.077.046s-.037.02-.055.032-.043.023-.063.034l-.068.038-.052.029-.089.048-.032.018c-.037.023-.077.043-.117.066-.545.3-1.1.588-1.655.864l-4.336 11.133c1.572 1.076 1.768 2.146 1.553 3.216zm-78.859-129.232a2.324 2.324 0 0 1-1.42-.9 2.118 2.118 0 0 1-.4-1.635 1.906 1.906 0 0 1 .767-1.4 1.926 1.926 0 0 1 1.595-.3 2.129 2.129 0 0 1 1.446.881 2.2 2.2 0 0 1 .376 1.653 1.975 1.975 0 0 1-.809 1.395 1.846 1.846 0 0 1-1.1.347 2.579 2.579 0 0 1-.455-.041zm-3.242-5.409a2.235 2.235 0 0 1-.89-.471 3.64 3.64 0 0 1-.734-.838c-.212-.33-.388-.625-.531-.892a7.115 7.115 0 0 1-.628-2.006 9.944 9.944 0 0 1-.092-2.132c.034-.4.086-.772.152-1.125a8.106 8.106 0 0 0 .12-1.067 5.253 5.253 0 0 0-.063-1.064 3.584 3.584 0 0 0-.381-1.093 2.555 2.555 0 0 0-.746-.884 3.207 3.207 0 0 0-2.213-.663 2.312 2.312 0 0 0-1.1.368 3.6 3.6 0 0 0-.846.774 3.712 3.712 0 0 0-.6 1.062 2.956 2.956 0 0 0-.189 1.154 1.774 1.774 0 0 0 .4 1.042 4.294 4.294 0 0 0 .539.519 4.821 4.821 0 0 1 .543.5 1.939 1.939 0 0 1 .37.565 1.219 1.219 0 0 1 .037.749 1.515 1.515 0 0 1-.588 1.03 1.706 1.706 0 0 1-1 .3 2.892 2.892 0 0 1-1.119-.247 3.017 3.017 0 0 1-.952-.628 9.543 9.543 0 0 1-1.013-1.228 5.224 5.224 0 0 1-.7-1.458 4.619 4.619 0 0 1-.173-2.095 5.787 5.787 0 0 1 .669-1.994 8.659 8.659 0 0 1 1.3-1.768 7.167 7.167 0 0 1 1.661-1.285 7.461 7.461 0 0 1 1.939-.749 6.968 6.968 0 0 1 2.173-.138 5.234 5.234 0 0 1 2.227.708 6.035 6.035 0 0 1 1.7 1.492 7.494 7.494 0 0 1 1.552 4.241s0 .02.012.066a7.354 7.354 0 0 1-.224 1.693 12.6 12.6 0 0 0-.307 1.682 2.7 2.7 0 0 0 .181 1.586c.209.431.453.9.726 1.42a3.764 3.764 0 0 1 .5 1.435 1.284 1.284 0 0 1-.694 1.22 1.39 1.39 0 0 1-.751.255 1.068 1.068 0 0 1-.268-.035z" class="cls-1" transform="translate(-10361 -7626)"/>
    </g>
    <g id="그룹_11235">
        <path id="사각형_1915" d="M0 0H200V200H0z" class="cls-2" transform="translate(660 220)"/>
        <path id="합치기_83" d="M11255.86 8028.944c-.952-3.376-2.531-10.912-3.214-13.977-.06-.267-.111-.527-.148-.777-.686-2.734-.539-5.091.355-5.332.3-.08.642.083.994.438a4.86 4.86 0 0 1 .428-.33 5.248 5.248 0 0 1 7.329-7.261c.114-.361.284-.587.51-.648.45-.12 1.041.447 1.64 1.474a5.248 5.248 0 0 1 9.488-1.688 4.346 4.346 0 0 1 1.826 2.374c.141-.568.4-.949.766-1.049.854-.229 1.989 1.184 2.648 3.225a3.533 3.533 0 0 1 .5 1.3c.668 3.612.4 4.987-7.381 6.579s-9.032 1.935-7.806 6.845c.683 2.723 2.574 3.188 4.744 2.9-.409-2.024-.126-3.729.708-3.953.723-.2 1.651.791 2.316 2.339.1-.848.39-1.436.854-1.562.607-.164 1.355.5 1.975 1.628a24.2 24.2 0 0 1 4.242-.9c.023-1.126.333-1.94.889-2.092.874-.235 2.041 1.244 2.691 3.356a3.83 3.83 0 0 1 .56 1.359c.88 3.981-.946 5.446-4.861 6.346s-11.283 2.583-14.1 3.242a7.146 7.146 0 0 1-1.637.181c-2.584-.004-5.536-1.253-6.316-4.017zm141.087-.281c-7.74-2.279-7.883-6.756-5.854-14 .763-2.726 1.37-5.435 2.189-7.653a5.728 5.728 0 1 1 6.639-5.656 5.3 5.3 0 0 1-.034.613c.058.009.112.02.169.032a5.728 5.728 0 1 1 5.146 8.244 5.992 5.992 0 0 1-.822-.058c-.6 2.15-1.537 4.5-2.03 6.816a.753.753 0 0 0-.017.189c.674-1.729 1.677-2.867 2.453-2.657.688.186 1 1.39.852 2.946.514-.98 1.149-1.568 1.66-1.43.708.195.923 1.708.516 3.457q1.14.318 2.514.734a26.39 26.39 0 0 1 4.552 1.7c.619-1.129 1.368-1.792 1.976-1.625.923.249 1.166 2.325.542 4.635a7.125 7.125 0 0 1-.345 3.233c-.865 2.9-2.921 3.924-5.741 3.924-3.771-.007-8.905-1.836-14.365-3.444zm-91.939-6.547l-14.4-10.348-.3-.215-2.2-1.579-.3-.215-2.145-1.542c.493-1.086 1.351-1.915 3.435-1.863l2.2-8.556a51.342 51.342 0 0 1-11.644-15.62c-.021-.043-.043-.089-.063-.135a.012.012 0 0 1 0-.008l-.063-.132v-.006l-.258-.553a.134.134 0 0 0-.009-.02c-.018-.037-.034-.078-.052-.115a.311.311 0 0 1-.014-.029c-.018-.037-.032-.074-.049-.111-.006-.009-.009-.018-.015-.026-.015-.038-.034-.075-.049-.115a.057.057 0 0 1-.012-.023l-.184-.413a.116.116 0 0 1-.008-.023l-.049-.109-.018-.04c-.014-.031-.028-.069-.043-.1l-.017-.035-.046-.109a.266.266 0 0 0-.012-.026c-.018-.045-.037-.086-.055-.132v-.005l-.061-.144-.055-.132a.346.346 0 0 0-.015-.04c-.015-.032-.025-.06-.04-.095-.006-.014-.015-.031-.021-.048l-.034-.086-.022-.051c-.008-.017-.023-.058-.034-.086l-.021-.052-.037-.092-.018-.046c-.017-.037-.031-.074-.046-.112a.23.23 0 0 0-.009-.023c-.02-.046-.037-.092-.054-.135-.006-.017-.012-.028-.018-.043l-.037-.094-.021-.055c-.006-.017-.022-.054-.031-.08s-.015-.041-.025-.063-.018-.046-.026-.072-.017-.043-.025-.063-.021-.052-.029-.078-.014-.04-.022-.06l-.031-.081c-.01-.026-.015-.037-.021-.057-.017-.043-.034-.086-.049-.129l-.025-.066c-.009-.023-.018-.046-.026-.072l-.025-.072-.022-.063c-.007-.02-.021-.049-.029-.074s-.015-.041-.02-.061-.021-.054-.029-.08a.373.373 0 0 1-.02-.052c-.012-.028-.021-.054-.029-.083a.51.51 0 0 1-.02-.052l-.031-.086a.04.04 0 0 0-.006-.017l-.075-.215a.132.132 0 0 0-.011-.026.845.845 0 0 0-.032-.092.273.273 0 0 0-.014-.046c-.012-.029-.021-.057-.032-.089 0-.014-.011-.031-.017-.049s-.018-.057-.029-.086-.011-.034-.017-.052-.021-.057-.029-.086-.008-.025-.014-.04c-.012-.031-.021-.066-.034-.1a.127.127 0 0 0 0-.015c-.038-.117-.078-.232-.115-.347a.126.126 0 0 0-.012-.035c-.008-.031-.02-.06-.028-.091a.293.293 0 0 1-.015-.046c-.011-.032-.02-.063-.031-.092s-.009-.029-.012-.043l-.031-.095c0-.014-.009-.029-.012-.043-.011-.032-.022-.063-.031-.1a.163.163 0 0 1-.009-.023c-.034-.114-.071-.232-.108-.35 0-.008 0-.014-.006-.023-.012-.034-.021-.069-.031-.106l-.009-.029c-.012-.034-.021-.069-.032-.1a.23.23 0 0 1-.011-.034c-.009-.035-.021-.069-.029-.1a.1.1 0 0 1-.008-.028l-.035-.112a.011.011 0 0 0 0-.009c-.048-.167-.1-.333-.143-.5 0-.006 0-.015-.006-.02-.012-.038-.021-.075-.032-.112a.151.151 0 0 1 0-.023c-.012-.038-.023-.078-.032-.112a.219.219 0 0 0-.006-.023c-.011-.038-.022-.078-.031-.118a.011.011 0 0 1 0-.009c-.06-.215-.117-.433-.172-.647v-.009c-.009-.04-.022-.083-.031-.123v-.012c-.012-.043-.021-.083-.031-.123v-.009c-.066-.264-.129-.524-.192-.788a.011.011 0 0 0 0-.009c-.009-.043-.02-.083-.028-.129-.063-.264-.123-.533-.181-.8-.009-.043-.021-.086-.028-.132q-.431-2.012-.7-4.087c-.037-.275-.071-.55-.1-.828-.035-.324-.069-.648-.1-.972 0-.046-.006-.092-.012-.138v-.009c-.025-.272-.049-.544-.068-.82v-.023c0-.037-.006-.077-.009-.117a.08.08 0 0 1 0-.026c0-.04-.006-.083-.009-.121v-.02l-.025-.381a54.25 54.25 0 0 1-9.583-7.154 76.934 76.934 0 0 1-8.126-9.116.1.1 0 0 1-.029-.02c-3.755-2.749-7.894-7.014-6.8-8.416.957-1.233 3.936.289 3.936.289s-3.228-3.2-2.136-4.609c1.287-1.654 4.851 1.344 4.851 1.344s-1.786-3.167-.791-4.262c.673-.74 3.2.814 5.555 2.623.68-1.4 1.588-2.783 2.477-2.648 1.491.226 1.976 5.761 2.09 7.45q.189.215.361.447a66.374 66.374 0 0 0 6.979 7.911c.376.35.751.685 1.124 1.009v-8.238a60.208 60.208 0 0 1 7.261-28.762c.154-3.271.834-10.4 3.795-10.4a2.556 2.556 0 0 1 2.164 1.413 60.834 60.834 0 0 1 12.876-12.019c-.384-5.357-.49-15.789 4.521-15.74 3.8.034 6.7 4.77 8.5 8.9a60.372 60.372 0 0 1 20.6-3.878c.261-.006.521-.006.782-.006s.533 0 .8.006c.7.009 1.4.029 2.1.063.163.006.326.015.487.023.255.015.507.032.76.049a60.283 60.283 0 0 1 12.681 2.23c.247-3.827 1.049-7.926 3.354-7.926 1.829 0 2.678 3.271 3.067 6.7 1.5-3.024 3.577-5.627 6.292-5.856 5.205-.438 5.716 10.9 5.682 16.018a61.188 61.188 0 0 1 7.086 5.948c.157.155.317.313.473.47l.037.034c.287.29.57.579.852.872l.02.02a60.643 60.643 0 0 1 10.084 14.1 2.326 2.326 0 0 1 1.938-1.33c4.8 0 3.841 18.245 3.841 18.245h-.021a60.776 60.776 0 0 1 .97 10.835v8.64c.521-.441 1.055-.912 1.594-1.411a66.638 66.638 0 0 0 6.979-7.914c.114-.152.232-.3.358-.441.114-1.686.6-7.227 2.087-7.453.891-.135 1.8 1.25 2.477 2.648 2.361-1.809 4.884-3.362 5.558-2.623 1 1.095-.791 4.262-.791 4.262s3.563-3 4.85-1.344c1.093 1.4-2.135 4.609-2.135 4.609s2.978-1.522 3.936-.289c1.095 1.4-3.047 5.667-6.8 8.416a.08.08 0 0 1-.028.02 77.112 77.112 0 0 1-8.123 9.116 54.029 54.029 0 0 1-10.073 7.436c-.006.117-.015.241-.025.361v.052l-.009.132a.458.458 0 0 0-.006.063l-.009.126a.43.43 0 0 0-.006.061c0 .046-.008.094-.011.14 0 .015 0 .029-.006.043 0 .061-.009.121-.015.181 0 .017 0 .032-.006.046 0 .046-.006.089-.011.135 0 .023 0 .046-.006.072s-.009.075-.012.115a.546.546 0 0 0-.006.069c-.006.04-.009.08-.012.117a.5.5 0 0 0-.006.066c-.008.052-.011.1-.017.152a.43.43 0 0 0-.006.061c-.006.046-.012.094-.015.14 0 .029-.009.055-.011.083s-.006.066-.012.1l-.009.086c0 .032-.006.061-.009.092s-.009.06-.012.092-.008.055-.011.083-.006.063-.012.095v.04c-.009.075-.021.149-.028.224 0 .023-.006.052-.009.075s-.009.069-.015.1l-.009.072c-.006.034-.008.069-.014.106l-.009.066c-.006.037-.012.075-.015.112 0 .011 0 .023-.006.034-.011.089-.025.175-.037.264v.025l-.017.121c0 .02-.006.034-.009.054l-.018.115-.009.061c0 .037-.011.074-.017.114 0 .015-.006.032-.009.046-.021.141-.043.281-.066.421v.023c-.009.043-.015.086-.023.129a.186.186 0 0 1-.006.043c-.006.043-.014.086-.022.129v.028c-.034.2-.069.4-.106.6v.012l-.025.146a.026.026 0 0 0 0 .014l-.149.771a.011.011 0 0 1 0 .009c-.008.049-.02.1-.028.149a.011.011 0 0 0 0 .009q-.511 2.49-1.256 4.884a.029.029 0 0 1 0 .015c-.075.246-.155.49-.232.733 0 0 0 .009-.006.012l-.043.135a.263.263 0 0 0-.009.026l-.043.132s0 .008-.006.011c-.046.138-.092.275-.141.413 0 .008-.006.02-.011.031-.012.037-.026.075-.038.115 0 .014-.011.031-.017.046-.015.037-.026.074-.04.112l-.018.049-.037.112a.1.1 0 0 0-.012.025c-.025.075-.052.149-.077.221a.481.481 0 0 0-.021.058c-.014.029-.022.06-.034.089s-.02.051-.028.077-.021.058-.031.086-.021.052-.029.081-.02.054-.031.08-.021.058-.031.086-.021.052-.029.078l-.06.155c-.006.02-.015.037-.021.057s-.028.072-.04.106-.018.043-.025.066-.029.072-.041.106a.435.435 0 0 0-.022.057c-.018.04-.031.083-.049.123-.006.012-.009.026-.015.038-.046.115-.089.227-.135.338a.1.1 0 0 1-.008.022c-.021.049-.043.1-.063.152a.149.149 0 0 0-.006.02c-.022.051-.046.106-.065.158 0 0 0 .008-.006.011-.625 1.525-1.327 3.016-2.093 4.463 0 0 0 .006-.006.009-.014.032-.034.063-.049.1a.1.1 0 0 1-.011.017c-.029.057-.058.112-.089.166l-.018.035-.031.057-.015.023a.022.022 0 0 1-.006.015l-.017.028-.032.063c-.011.023-.02.035-.028.052s-.018.029-.026.046a.2.2 0 0 1-.011.02l-.015.026c-.018.031-.034.063-.052.1a.009.009 0 0 0 0 .006c-.011.015-.017.032-.025.046s-.028.052-.046.078c0 .005 0 .008-.006.014l-.034.06c-.012.02-.021.04-.031.061l-.006.005a51.29 51.29 0 0 1-7.785 10.506l2.654 11.142c2.086-.011 2.926.829 3.4 1.923l-4.894 3.388-.111.075-14.579 10.09a1.919 1.919 0 0 1-2.672-.487l-8.264-11.939a51.241 51.241 0 0 1-12.4 1.514h-18.761a51.557 51.557 0 0 1-9.8-.937l-8.252 11.48a1.92 1.92 0 0 1-2.681.438zm90.947-122.145c-7.347-3.8.914-12.621.229-15.2s-15.872-5.116-12.243-13.5a6.511 6.511 0 0 1 1.789-2.508c1.21-1.946 2.8-3.13 3.595-2.651.381.223.516.785.43 1.528a10.619 10.619 0 0 1 1.7.272 5.781 5.781 0 0 1 8.037 1.189c.866-.845 1.717-1.232 2.233-.926.556.333.587 1.388.166 2.672.585-.519 1.141-.743 1.493-.533.373.221.428.88.207 1.706a5.781 5.781 0 0 1 7.489 5.518 6.032 6.032 0 0 1-.057.823.658.658 0 0 1 .172.066c.6.355.378 1.823-.479 3.313a6.715 6.715 0 0 1-.53 2.351c-3.274 8.069-5.972 16.7-11.254 16.7a6.519 6.519 0 0 1-2.977-.82z" class="cls-1" transform="translate(-10575 -7629)"/>
    </g>
    <g id="그룹_11234">
        <path id="사각형_1914" d="M0 0H200V200H0z" class="cls-2" transform="translate(440 220)"/>
        <g id="그룹_11220">
            <path id="합치기_82" d="M11333.138 8043.645h-20.9a1.857 1.857 0 0 1-1.792-1.361l-1.124-4.079-.794 2.04c1.662 1.137 1.869 2.269 1.645 3.4h-23.609a1.856 1.856 0 0 1-1.729-1.18l-4.726-12.1a49.421 49.421 0 0 1-30.105-45.5v-41.838c0-29.712 22.159-51.106 50.854-54.34 1.126-5.5 3.521-13.39 7.989-13.39 4.066 0 6.38 7.859 7.508 13.418 28.574 3.328 50.605 24.685 50.605 54.312v11.789c2.662-1.806 5.657-4.014 7.489-5.4.138-.536.477-1.795.933-3.091q.476-4.722 1.169-9.42c.534-3.15 1.02-6.312 1.7-9.433.6-3.139 1.416-6.229 2.159-9.335l1.3-4.614c.224-.767.419-1.539.666-2.3l.62-1.915c.641-5.41-4.049-9.465-4.265-9.648l-1.412-1.2 2.383-2.834 1.413 1.189a18.294 18.294 0 0 1 4.244 5.58l.928-2.493a139.183 139.183 0 0 1 8.071-17.35q2.21-4.062 4.7-7.948a.415.415 0 0 1-.136-.816l.095-.017a.461.461 0 0 1-.037-.1.416.416 0 0 1 .313-.494 1.52 1.52 0 0 1 .3-.038.413.413 0 0 1-.061-.129v-.006a.407.407 0 0 1 .293-.5h.011a2.194 2.194 0 0 1 .624-.035c.108-.161.215-.324.324-.485a.417.417 0 0 1-.439-.25.4.4 0 0 1 .2-.531l.02-.009a3.2 3.2 0 0 1 .423-.118.432.432 0 0 1 .017-.178.409.409 0 0 1 .506-.267 1.061 1.061 0 0 1 .155.066q1.472-2.124 3.029-4.19l.376-.508.982.649-.308.551q-1.236 2.167-2.424 4.359c.058.04.115.083.17.126a.413.413 0 0 1 .077.58.451.451 0 0 1-.164.129.417.417 0 0 1-.416-.054.653.653 0 0 1-.061-.046.6.6 0 0 0-.034.063 5.163 5.163 0 0 1 .152.675.415.415 0 0 1-.247.442.394.394 0 0 1-.161.032.412.412 0 0 1-.293-.121c-.046.083-.089.169-.135.253a2.132 2.132 0 0 1 .207.588c.012.061.022.118.028.178a.413.413 0 0 1-.542.491c.057.129.114.267.166.414a.415.415 0 0 1-.229.517l-.026.011a.338.338 0 0 1-.141.023l.021.063a.41.41 0 0 1-.227.517l-.023.012a.468.468 0 0 1-.138.023.385.385 0 0 1-.178-.043c1.656 8.192 6.93 34.914 8.757 52.131l.217-.039a5.119 5.119 0 0 1 8.9.172c.477.041.944.081 1.4.124a7.678 7.678 0 0 1 10.572 6.389c.139 8.141 1.022 16.575-4.146 17.763a6.317 6.317 0 0 1-1.937.121 4.757 4.757 0 0 1-3.206-1.339 5.072 5.072 0 0 1-1.55 1.635c.876 1.771 1.651 3.876 2.7 5.694.561.97 2.479-.4 7.174-2.587s7.149-2.926 9.128 1.258c2.51 5.3-4.063 8.054-11.437 11.494a2.619 2.619 0 1 0 2.44 3.512 4.649 4.649 0 0 1 3.9 8.2c1.413 1.4 2.386 3.1.979 4.838-2.051 2.53-3.128 3.145-8.678-1.183s-6.5-4.97-9.1-1.318 2 5.729 4.753 7.615 6.271 4.049 4.095 6.935a4.756 4.756 0 0 1-2.6 1.987c-1.333.307-2.751-.342-4.466-1.611-2.859-2.119-8.232-6.114-10.294-7.627s-3.722-4.979-2-7.563 5.9-7.983 7.562-10.206c1.39-1.85 2.763-2.62 4.289-2.478-1.76-1.12-3.132-3.275-4.551-6.151-1.111-2.245-2.312-4.39-3.084-6.34a4.988 4.988 0 0 1-1.605.678 5.072 5.072 0 1 1 2.976-7.908c.043-.028.086-.054.132-.08-.023-.081-.046-.161-.063-.244a5.071 5.071 0 0 1 7.752-5.364c.055-1.945.188-3.651-.332-4.315-1.453-1.864-14.708 1.338-14.662-6.757a4.866 4.866 0 0 1 3.929-5.116c-1.774-16.831-6.888-42.911-8.652-51.654a226.272 226.272 0 0 0-10.5 24.155l-1.539 4.425c-.272.729-.488 1.485-.724 2.229l-.692 2.237-.691 2.237c-.232.747-.411 1.5-.62 2.257l-1.212 4.522c-.687 3.047-1.447 6.076-1.99 9.151-.648 3.056-1.1 6.145-1.605 9.227q-.511 3.6-.9 7.218a9.847 9.847 0 0 1 5.127.626c4.581 1.765 2.519 10.012-1.419 11.763a5.953 5.953 0 0 1-.974.94c-.146.111-1.715 1.313-3.833 2.866q-.138 4.706-.064 9.417a1.863 1.863 0 0 1 1.006.688 2.714 2.714 0 0 1 .179 2.6s1.243-.235 1.791 2.133a2.707 2.707 0 0 1-.881 2.665 2.613 2.613 0 0 1 .712 2.6 3.606 3.606 0 0 1-2.208 2.165l.074 1.054c.144 1.557.265 3.113.422 4.669.176 1.553.319 3.11.531 4.663.374 3.1.859 6.191 1.4 9.264q.41 2.3.876 4.594c.3 1.516.652 3.061 1.02 4.505l.451 1.8-3.509 1-.518-1.777c-.235-.818-.439-1.577-.637-2.363s-.391-1.559-.569-2.337q-.551-2.343-1-4.695c-.6-3.136-1.151-6.283-1.585-9.444-.244-1.58-.416-3.162-.62-4.744s-.342-3.173-.511-4.758v-.028c-1.2.219-4.627.831-8.248 1.349a49.423 49.423 0 0 1-28.826 43.826l-4.069 10.442c1.663 1.137 1.869 2.269 1.646 3.4zm93.545-68.333c.072.055.146.109.219.161a4.707 4.707 0 0 1 .547-.955 4.651 4.651 0 0 1-.766.794zm-59.728-1.349c1.54-.237 3.021-.483 4.25-.7.04-.034.081-.072.121-.109.42-1.7 1.674-6.312 3.033-6.581q0-1.221.014-2.442c-1.687 1.162-3.374 2.268-4.781 3.082-.806.465-1.7.961-2.637 1.469z" class="cls-1" transform="translate(-10806 -7635)"/>
        </g>
    </g>
    <g id="그룹_11233">
        <path id="사각형_1913" d="M0 0H200V200H0z" class="cls-2" transform="translate(220 220)"/>
        <g id="그룹_11219">
            <path id="합치기_81" d="M11393.271 8034.567c-1-3.569-2.675-11.539-3.4-14.778-.694-3.1-.109-5.068 1.72-6.344a5.962 5.962 0 0 0 9.879-5.53 5.548 5.548 0 1 1 11.1 0c0 .086 0 .172-.006.258 2.365-.2 4.667.238 5.154 2.864.708 3.821.428 5.275-7.806 6.955s-9.549 2.047-8.251 7.239 6.754 2.626 10.6 1.588 8.537-2.548 9.469 1.663-1 5.759-5.143 6.711-11.929 2.732-14.9 3.428a7.59 7.59 0 0 1-1.729.189c-2.74 0-5.858-1.322-6.687-4.243zm8.469-24.235v.135c.105-.026.212-.049.318-.075a5.354 5.354 0 0 1-.425-1.155 5.528 5.528 0 0 1 .106 1.095zm-61.222 28c-8.528-.235-9.888-4.77-9.778-12.728.028-2.135-.021-4.24.036-6.175h-21.517c-.235-1.192-.018-2.385 1.731-3.583l-4.263-10.942a52.21 52.21 0 0 1-25.015-24.106s-.006-.006-.006-.009l-.138-.275a.008.008 0 0 0 0-.005l-.061-.124a.3.3 0 0 0-.017-.031c-.015-.035-.032-.069-.049-.1-.006-.014-.009-.023-.015-.034-.022-.043-.043-.086-.062-.129 0-.008-.009-.017-.012-.025l-.049-.1a.41.41 0 0 1-.023-.055c-.014-.025-.025-.048-.037-.074l-.028-.058c-.009-.02-.021-.046-.028-.066-.023-.043-.043-.086-.063-.129l-.018-.04-.037-.083a.173.173 0 0 1-.02-.041c-.015-.025-.026-.057-.04-.086l-.009-.017-.141-.31s0-.006-.006-.009a51.853 51.853 0 0 1-4.621-21.463v-20.594a61.468 61.468 0 0 1 24.857-49.425c-.347-2.97-1.887-18.742 4.326-18.694 4.478.035 7.736 6.49 9.457 10.971a61.787 61.787 0 0 1 45.343-.2c1.886-4.412 5.395-10.791 9.89-10.656 5.8.175 4.32 13.863 3.727 18.092a61.472 61.472 0 0 1 25.517 49.91v12.444c4.742 3.357 11.938 11.825 8.824 22.286-2.219 7.451-9.357 12.241-10.165 12.766a6.49 6.49 0 0 1-1.044.539 4.359 4.359 0 0 1-.806.579 32.55 32.55 0 0 1-7.04 2.964 52.2 52.2 0 0 1-20.145 16.329l-4.283 11c1.749 1.2 1.967 2.391 1.731 3.583h-23.391a53.9 53.9 0 0 0-.153 5.519c.068 1.336 2.85.926 9.03 1.149s9.19.771 9.021 6.292c-.161 5.249-4.966 6.2-11.45 6.2-2.757.005-5.822-.167-8.96-.253zm-4.229-28.085c.061-.006.12-.012.184-.015a5.9 5.9 0 0 1 .177-.682h-.509a6.063 6.063 0 0 1 .148.701zm-60.261 25.92c-8.352-2.6-1.379-13.31-2.569-15.87s-17.47-2.394-15.242-11.8c.958-4.042 3.839-5.08 7.2-4.885a6.109 6.109 0 0 1 10.306 2.591c.542.172 1.075.347 1.6.519a6.11 6.11 0 0 1 10.157 6.043 6.172 6.172 0 0 1 .421 4.231c-2.023 9.506-3.262 19.548-9.592 19.548a7.693 7.693 0 0 1-2.281-.372zm-4.126-142.16a2.406 2.406 0 0 1-1.471-.929 2.2 2.2 0 0 1-.412-1.688 1.969 1.969 0 0 1 .791-1.448 1.992 1.992 0 0 1 1.651-.307 2.2 2.2 0 0 1 1.493.909 2.28 2.28 0 0 1 .39 1.708 2.037 2.037 0 0 1-.837 1.439 1.89 1.89 0 0 1-1.135.361 2.494 2.494 0 0 1-.472-.04zm-3.351-5.59a2.339 2.339 0 0 1-.921-.481 3.948 3.948 0 0 1-.759-.869c-.219-.338-.4-.648-.548-.923a7.149 7.149 0 0 1-.648-2.073 9.9 9.9 0 0 1-.1-2.2q.056-.615.157-1.164a7.817 7.817 0 0 0 .123-1.1 5.439 5.439 0 0 0-.062-1.1 3.776 3.776 0 0 0-.393-1.132 2.648 2.648 0 0 0-.774-.915 3.375 3.375 0 0 0-2.285-.685 2.379 2.379 0 0 0-1.141.381 3.7 3.7 0 0 0-.874.8 3.918 3.918 0 0 0-.625 1.1 2.992 2.992 0 0 0-.192 1.19 1.8 1.8 0 0 0 .41 1.078 3.975 3.975 0 0 0 .559.536 5.177 5.177 0 0 1 .56.513 1.942 1.942 0 0 1 .381.585 1.278 1.278 0 0 1 .04.774 1.567 1.567 0 0 1-.607 1.066 1.775 1.775 0 0 1-1.038.307 2.979 2.979 0 0 1-1.158-.255 3.1 3.1 0 0 1-.98-.65 9.68 9.68 0 0 1-1.049-1.27 5.348 5.348 0 0 1-.72-1.5 4.762 4.762 0 0 1-.181-2.162 5.926 5.926 0 0 1 .694-2.064 8.748 8.748 0 0 1 1.341-1.823 7.318 7.318 0 0 1 1.718-1.33 7.615 7.615 0 0 1 2-.771 7.079 7.079 0 0 1 2.244-.146 5.446 5.446 0 0 1 2.3.734 6.211 6.211 0 0 1 1.758 1.542 7.477 7.477 0 0 1 1.138 2.062 7.644 7.644 0 0 1 .468 2.319l.009.069a7.436 7.436 0 0 1-.229 1.751 12.874 12.874 0 0 0-.318 1.734 2.8 2.8 0 0 0 .189 1.643c.215.441.464.932.748 1.465a3.908 3.908 0 0 1 .513 1.485 1.326 1.326 0 0 1-.717 1.258 1.428 1.428 0 0 1-.776.262 1.048 1.048 0 0 1-.254-.036z" class="cls-1" transform="translate(-11016 -7632)"/>
        </g>
    </g>
    <g id="그룹_11232">
        <path id="사각형_1912" d="M0 0H200V200H0z" class="cls-2" transform="translate(0 220)"/>
        <path id="합치기_80" d="M11313.39 8045.651a1.724 1.724 0 0 1-1.194-1.535l-.958-15.378a45.9 45.9 0 0 1-4.764-3.552l-.012-.011-.154-.131-.016-.014-.148-.128-.03-.026-.133-.116-.057-.05-.105-.093-.082-.072-.081-.073-.1-.091-.062-.055a45.532 45.532 0 0 1-8.473-10.254l-.489.858c.189 1.217.937 6.423-.292 7.078l-.061.029c-.752.29-1.816-.744-2.687-1.84-1.713 2.046-3.619 3.9-4.354 3.381-1.085-.766-.138-3.889-.138-3.889s-2.535 3.318-3.984 2.124c-1.231-1.019.971-4.454.971-4.454s-2.311 1.911-3.39 1.021c-1.191-.987 1.4-5.278 4.063-8.4.811-1.439 2.921-5.14 5.011-8.42l-11.152-33.753c-8.65-26.183 4.652-51.488 29-62.691-.61-5.177-.8-12.826 3.143-14.127 3.584-1.183 7.911 5.069 10.523 9.64 26.151-5.386 51.782 7.022 60.407 33.13l3.389 10.257c.268-.334.523-.658.762-.967 1.949-2.523 5.043-7.574 6.63-10.25-.045-.33-.125-.954-.193-1.7l-4.539-5.365-17.666-20.88a4 4 0 0 1 .471-5.637l2.879-2.437 8.757-7.408 12.941-10.949a.518.518 0 0 1 .046-.038l5.887-4.982a4 4 0 0 1 5.64.471l5.869 6.937a4 4 0 0 1-.471 5.64l-14.586 12.339 9.213 10.889 8.653-7.322c.018-.014.035-.032.052-.043l5.881-4.977a4 4 0 0 1 5.637.471l5.872 6.937a4 4 0 0 1-.471 5.64l-5.892 4.982c-.015.011-.026.023-.04.034l-8.261 6.989-12.144 10.274a27.909 27.909 0 0 1-3.766 5.282c-1.177 1.995-5 8.383-7.677 11.848-1.508 1.951-3.538 4.363-5.416 6.538l4.724 14.3a45.833 45.833 0 0 1-8.36 43.811l1.226 10.414c1.857.207 2.521 1.044 2.83 2.069l-2.1 1.113-.292.158-2.142 1.136-.293.155-14.407 7.66a1.718 1.718 0 0 1-2.058-.336l-6.8-7.184-12.753 4.214a46.341 46.341 0 0 1-5.924 1.532l-10.937 13.487c1.147 1.478 1.007 2.537.49 3.473zm-52.491-104.434l7.5-3.989-2.762-9.994 8.645-2.858-.622-10.008 11.219-4.4 1.409 3.588-8.607 3.378.635 10.172-7.987 2.638 2.608 9.439-7.5 3.989 2.758 9.979-3.717 1.027z" class="cls-1" transform="translate(-11246 -7643)"/>
    </g>
    <g id="그룹_11227">
        <path id="사각형_1839" d="M0 0H200V200H0z" class="cls-2" transform="translate(880)"/>
        <g id="그룹_11215">
            <path id="합치기_75" d="M11269.877 8039.1l-.385-.683a.461.461 0 0 1-.132-.146l-10.975-19.383a.457.457 0 0 1 .215-.643l1.022-.454-.13-.227.457-.2-.354-.62.456-.2-.35-.623 10.926-4.827a5.058 5.058 0 0 0 6.661-3.771l5.773-4.072-.154-.275 1.365-.961.155.275 2.623-1.851.351.62.407-.287.35.62.408-.287.129.229.913-.646a.458.458 0 0 1 .662.149l.46.81.034-.023 10.994 19.423a.454.454 0 0 1-.132.6l-12.9 9.1a2.425 2.425 0 0 1-3.831 2.17l-14.438 6.379a.463.463 0 0 1-.184.038.458.458 0 0 1-.396-.234zm104.8-8.621h-20.835a1.888 1.888 0 0 1-1.889-1.889v-7.634l-12.479-1.228c-.052-.006-.1-.009-.149-.015-.017 0-.034 0-.051-.005l-.1-.009-.061-.009-.092-.008a.384.384 0 0 0-.058-.006c-.034-.006-.063-.009-.1-.012-.017 0-.037 0-.055-.005l-.141-.018a.343.343 0 0 1-.052-.005l-.095-.009-.065-.009c-.029 0-.058-.005-.089-.011a.425.425 0 0 0-.063-.006.619.619 0 0 0-.083-.011l-.066-.009c-.028 0-.057-.006-.086-.012s-.043 0-.061-.005l-.141-.021c-.02 0-.043-.005-.062-.005s-.055-.009-.083-.012-.049-.006-.072-.011l-.071-.009c-.026 0-.052-.006-.078-.011l-.071-.009-.072-.012a.6.6 0 0 1-.077-.011l-.135-.017c-.021 0-.046-.009-.069-.012s-.052-.006-.08-.011l-.063-.009c-.028 0-.054-.009-.083-.012s-.04-.008-.063-.011l-.08-.012-.061-.008c-.028-.006-.057-.009-.083-.015l-.062-.008c-.049-.009-.1-.017-.149-.023a.483.483 0 0 0-.063-.012c-.028-.005-.058-.008-.086-.014l-.055-.009c-.031-.005-.061-.011-.089-.014l-.052-.009-.092-.017a.25.25 0 0 0-.043-.006c-.112-.02-.221-.04-.33-.057a.167.167 0 0 0-.034-.006c-.034-.009-.063-.012-.1-.02a.216.216 0 0 1-.043-.006l-.095-.017-.046-.009-.1-.017-.015-.006c-.123-.02-.241-.046-.364-.069h-.018l-.114-.02a.042.042 0 0 0-.021-.006c-.037-.005-.077-.014-.114-.023a.032.032 0 0 1-.015 0l-.5-.1a.011.011 0 0 0-.009 0l-.124-.026c-.21-.043-.422-.092-.632-.138a.01.01 0 0 1-.006 0c-.4-.092-.8-.187-1.205-.287l-6.3 9.014a1.889 1.889 0 0 1-2.631.465l-14.416-10.079-.181-.126-2.219-1.552-.258-.181-2.132-1.489c.473-1.076 1.306-1.9 3.357-1.88l1.756-7.218a50.2 50.2 0 0 1-14.76-39.053c-.628.238-1.26.5-1.888.795a34.371 34.371 0 0 0-7.034 4.672l-.031.072c-.293 1.292-1.7 7.117-3.255 7.117h-.006a.938.938 0 0 1-.221-.034l1.667 2.474.006-.006v2.213l-.089.057v.012l-.187.115-.126.083-18.063 11.365a.368.368 0 0 1-.2.061.384.384 0 0 1-.322-.175L11250 7972.88v-.413l.161-.1-.084-.124v-1.007l.023-.011-.1-.146v-.413l18.1-10.972a.605.605 0 0 1 .814.178l3.857 5.722a34.472 34.472 0 0 1 4.287-2.689 46.561 46.561 0 0 1 10.148-6.75 42.623 42.623 0 0 1 8.254-2.821l.826-8.415a59.434 59.434 0 0 1 27.563-44.575c-2.2-5.048-4.71-12.67-.635-14.212 4.678-1.771 10.88 4.753 13.649 8.07a59.84 59.84 0 0 1 37.957.209.085.085 0 0 1 .012-.023l15.534-26.8.046.035.648-1.12a.634.634 0 0 1 .919-.195l1.257.907.184-.313.56.4.5-.855.563.4.494-.855 3.613 2.6.221-.382 1.883 1.354-.222.382 7.956 5.731a7.017 7.017 0 0 0 9.188 5.327l15.1 6.853-.5.855.631.287-.5.855.629.287-.182.313 1.415.64a.634.634 0 0 1 .284.9l-15.5 26.747a.62.62 0 0 1-.184.2l-.545.938a.63.63 0 0 1-.546.315.618.618 0 0 1-.264-.057l-16.878-7.663a59.35 59.35 0 0 1 13.641 44.1l-1.418 14.433a45.68 45.68 0 0 1 8.926 10.1 46.636 46.636 0 0 1 4.9 11.158c2.189 3.892 4.023 8.925 2.555 9.729-1.347.738-3.441-1.8-3.441-1.8s1.665 4.155.129 5c-1.8.99-3.854-3.108-3.854-3.108s.376 3.559-.95 4.159a.517.517 0 0 1-.216.046c-.933 0-2.462-2.219-3.779-4.583-1.162 1-2.52 1.9-3.271 1.427-1.32-.824.643-6.5 1.094-7.749 0-.026.011-.054.014-.08a34.37 34.37 0 0 0-3.4-7.729c-.354-.565-.729-1.1-1.113-1.627a49.737 49.737 0 0 1-3.545 8.736 50.461 50.461 0 0 1-20.27 20.79l-.018.008-.117.066c-.078.043-.158.086-.238.132l-.021.009-.108.06s-.006 0-.009.006c-.04.02-.08.04-.118.063a.128.128 0 0 0-.017.009l-.1.051-.026.015-.095.052a.1.1 0 0 0-.022.011c-.04.02-.077.04-.115.061a.081.081 0 0 1-.022.011c-.029.014-.058.032-.086.046l-.043.023c-.023.012-.049.023-.072.038l-.052.025c-.031.018-.062.032-.092.049l-.058.029c-.02.009-.034.017-.051.026s-.041.02-.061.032l-.055.026-.095.051-.061.029-.065.035a.305.305 0 0 0-.04.02c-.023.011-.046.023-.072.034a.367.367 0 0 1-.034.018c-.043.023-.089.043-.135.066a.322.322 0 0 1-.032.017l-.071.035-.037.017c-.023.011-.046.026-.072.037a.28.28 0 0 0-.031.015l-.135.066-.037.017-.069.035-.04.017-.069.034-.034.018-.144.069-.025.011a.6.6 0 0 0-.075.038.114.114 0 0 0-.031.014l-.08.035a.185.185 0 0 1-.021.011c-.046.023-.1.046-.146.066a.131.131 0 0 1-.037.018l-.071.034-.032.014-.267.124h-.009l-.086.04-.021.009-.272.121s-.009 0-.014.006c-.029.011-.058.025-.087.04 0 0-.008 0-.014.006l-.382.164h-.006c-.095.043-.192.083-.287.123q-.981.413-1.98.787c-.13.048-.259.1-.388.143l-.018.006-.092.035h-.009l-.287.1s-.011 0-.017.006l-.385.135-.022.006-.379.129-.029.009-.049.017-3.036 7.8c1.693 1.157 1.9 2.311 1.673 3.461zm-94.826-54.381l.353.525c-.068-.2-.132-.4-.192-.608-.056.026-.112.054-.162.08zm10.676-77.288a6.329 6.329 0 0 1 4.417-7.766 5.863 5.863 0 0 1 6.913 3.1 6.256 6.256 0 0 1 .321.964 5 5 0 0 1-3.532 6.3 4.361 4.361 0 0 1-5.264-3.211 3.618 3.618 0 0 1 2.666-4.368 3.024 3.024 0 0 1 3.647 2.227 2.453 2.453 0 0 1-.481 2.144 1.968 1.968 0 0 1-1.705.689.642.642 0 1 1 .109-1.28.69.69 0 0 0 .622-.247 1.158 1.158 0 0 0 .207-1 1.739 1.739 0 0 0-2.1-1.28 2.335 2.335 0 0 0-1.72 2.818 3.076 3.076 0 0 0 3.714 2.268 3.706 3.706 0 0 0 2.586-4.75c-.678-2.789-3.372-3.682-5.686-3.122a4.985 4.985 0 0 0-3.473 6.213c.672 2.772 3.315 5.29 7.542 4.268a.642.642 0 0 1 .3 1.249 9.1 9.1 0 0 1-2.138.264 7.043 7.043 0 0 1-6.947-5.483zm-15.735-15.1a8.722 8.722 0 0 1 4.979-11.279 7.234 7.234 0 0 1 9.355 4.13 6.038 6.038 0 0 1-3.452 7.815 4.894 4.894 0 0 1-4.368-.388 3.937 3.937 0 0 1-1.816-3.194 1.283 1.283 0 1 1 2.563-.124 1.407 1.407 0 0 0 .651 1.168 2.337 2.337 0 0 0 2.046.146 3.48 3.48 0 0 0 1.986-4.5 4.665 4.665 0 0 0-6.038-2.664 6.152 6.152 0 0 0-3.513 7.958c1.521 3.917 5.763 5.544 10.09 3.868 5.353-2.075 6.409-7.651 4.689-12.088-1.957-5.054-7.769-7.355-13.229-5.24-5.312 2.061-9.6 7.964-6.466 16.065a1.282 1.282 0 1 1-2.391.927c-3.607-9.31 1.263-16.8 7.929-19.383 6.69-2.591 14.114.416 16.551 6.7 1.923 4.962.936 11.374-4.33 14.519a11.938 11.938 0 0 1-1.825.887 11.759 11.759 0 0 1-4.262.821 9.59 9.59 0 0 1-9.151-6.146z" class="cls-1" transform="translate(-10363 -7853)"/>
        </g>
    </g>
    <g id="그룹_11228">
        <path id="사각형_1836" d="M0 0H200V200H0z" class="cls-2" transform="translate(660)"/>
        <path id="합치기_76" d="M11361.481 8027.134c-2.348 0-4.3-2.087-4.713-4.845h-1.306c-.412 2.757-2.365 4.845-4.713 4.845h-2.74c-2.349 0-4.3-2.087-4.716-4.845h-1.561a1.511 1.511 0 0 1-.819.24h-8.994c-.489 2.637-2.4 4.6-4.673 4.6h-2.74c-2.279 0-4.186-1.967-4.676-4.6h-6.062a1.513 1.513 0 0 1-.421-2.966v-4.223a1.453 1.453 0 0 1-.243-.808 1.435 1.435 0 0 1 .35-.942 7.878 7.878 0 0 1 .7-2.193 48.5 48.5 0 0 1-8.538-7.308c-.639 4.095-1.581 8.6-1.953 10.328-.074 4.313-1.025 9.489-2.648 9.435-1.469-.049-1.959-3.161-1.959-3.161s-.649 4.18-2.3 4.18h-.031c-1.974-.065-1.658-4.444-1.658-4.444s-1.429 3.118-2.814 2.964c-.937-.1-1.148-2.886-1.074-5.689-1.445.257-3 .332-3.393-.421-.679-1.317 3.656-5 4.67-5.835.676-3.2 1.881-9.3 2.17-12.639.315-3.625.473-9.057.545-12.6-.312-.976-.6-1.97-.851-2.978-.2-.8-.384-1.6-.544-2.422l-7.952-40.01c-4.738-23.854 6.568-45.066 26.191-56.319-.733-4.519-2.26-16.776 2.494-18.3 4.8-1.541 10.167 7.562 12.516 12.141q2.121-.571 4.314-1.008c30.885-6.136 60.19 10.376 66.327 41.261l7.951 40.009a48.094 48.094 0 0 1-10.663 40.734 5.287 5.287 0 0 1 4.1 2.66l5.915 10.457.009-.009.172.3-.009.008 1.257 2.219c0-.006.009-.008.012-.014l.172.3-.012.015 2.675 4.73c-3.155 2.462-7.665-1.157-7.665-1.157l-23.929 2.05c-.407-.029-.813-.072-1.212-.132a2.179 2.179 0 0 1-2.145 1.784h-.363a2.165 2.165 0 0 1-1-.24h-3.989c-.415 2.757-2.368 4.845-4.716 4.845zm-89.078-.447h-14.254a1.5 1.5 0 0 1-1.5-1.5v-12.232a1.5 1.5 0 0 1 1.1-1.449h-2.159a2.175 2.175 0 0 1-2.176-2.176v-11.737a2.178 2.178 0 0 1 2.113-2.176h-5.312a.99.99 0 0 1 .074-1.323l10.405-10.4a.973.973 0 0 1 .756-.292h8.078a1.044 1.044 0 0 1 .953.3l10.268 10.273a1.06 1.06 0 0 1 .083 1.435h-4.692a2.4 2.4 0 0 1 2.328 2.394v11.3a2.4 2.4 0 0 1-1.888 2.339h2.555a2.4 2.4 0 0 1 2.4 2.4v10.428a2.4 2.4 0 0 1-2.4 2.4z" class="cls-1" transform="translate(-10569.906 -7846.799)"/>
    </g>
    <g id="그룹_11229">
        <path id="사각형_1837" d="M0 0H200V200H0z" class="cls-2" transform="translate(440)"/>
        <g id="그룹_11217" transform="translate(6.994)">
            <path id="합치기_77" d="M11361.434 8024.741c-.407 0-.812 0-1.222-.006v.006h-.4v-.009q-1.449-.017-2.9-.06l-.017.069h-.4c.009-.029.021-.055.029-.081a149.653 149.653 0 0 1-19.464-1.913 2.068 2.068 0 0 1-1.735-2.042v-6.424h-5.067v6.424a2.067 2.067 0 0 1-1.734 2.042 149.653 149.653 0 0 1-19.464 1.913c.009.026.021.052.028.081h-.4l-.017-.069q-1.45.042-2.9.06a.011.011 0 0 0 0 .009h-.4v-.006c-.407 0-.814.006-1.222.006h-1.626c-.249-1.262-.02-2.524 1.833-3.792l-4.514-11.585c-.006 0-.009-.006-.012-.006a.177.177 0 0 0-.031-.015l-.127-.06-.017-.006-.293-.135-.025-.014c-.04-.017-.078-.035-.118-.055a.314.314 0 0 1-.031-.014c-.04-.02-.077-.037-.117-.055l-.029-.014-.135-.063h-.006c-.049-.026-.1-.049-.148-.072 0 0-.006-.006-.009-.006-.046-.02-.089-.043-.132-.063l-.029-.014c-.037-.017-.074-.038-.114-.055l-.031-.017c-.04-.02-.081-.04-.121-.058l-.02-.011-.29-.144-.017-.008-.124-.063-.031-.014c-.037-.02-.074-.037-.109-.057l-.034-.018-.117-.06a.1.1 0 0 1-.023-.011c-.095-.049-.189-.095-.283-.146-.009 0-.015-.009-.023-.011l-.117-.061-.029-.017c-.037-.02-.077-.04-.114-.057a.258.258 0 0 0-.029-.018l-.28-.149s-.009 0-.012-.006l-.126-.069-.035-.017c-.031-.017-.065-.037-.1-.055a.467.467 0 0 0-.043-.023c-.035-.02-.069-.04-.106-.057a.256.256 0 0 0-.028-.017c-.092-.049-.187-.1-.278-.152a.085.085 0 0 0-.021-.011c-.04-.023-.077-.043-.114-.066l-.034-.017-.106-.061-.031-.017-.118-.069-.02-.009c-.046-.025-.092-.054-.138-.08a.031.031 0 0 0-.015-.006l-.12-.072a.343.343 0 0 1-.038-.02c-.031-.02-.065-.037-.1-.057l-.043-.023c-.032-.02-.063-.038-.1-.058l-.035-.023-.132-.074c-.043-.029-.089-.055-.135-.081-.011-.008-.02-.011-.031-.02l-.1-.06-.04-.026-.095-.055c-.014-.008-.028-.017-.04-.026-.031-.02-.065-.04-.1-.057-.011-.009-.025-.014-.037-.023-.046-.026-.086-.052-.132-.08h-.006l-.123-.078a.334.334 0 0 1-.043-.026c-.031-.017-.061-.034-.092-.054a.5.5 0 0 0-.046-.029l-.089-.055-.043-.026c-.034-.02-.069-.043-.1-.066l-.025-.017c-.046-.026-.089-.054-.135-.08l-.018-.015c-.037-.023-.074-.046-.108-.069l-.044-.025c-.028-.021-.06-.038-.089-.058l-.046-.029c-.028-.02-.06-.037-.089-.057-.014-.009-.025-.015-.04-.026-.04-.026-.08-.049-.12-.078a.014.014 0 0 1-.009-.005l-.129-.083a.329.329 0 0 1-.037-.026c-.031-.017-.061-.037-.092-.057-.015-.011-.031-.02-.046-.032l-.086-.054-.043-.029c-.032-.023-.061-.04-.092-.06a.3.3 0 0 1-.037-.026l-.127-.083c-.011-.006-.02-.015-.028-.021l-.1-.066c-.014-.008-.028-.02-.043-.028l-.083-.058-.049-.031-.083-.058a.438.438 0 0 1-.043-.029l-.1-.069-.028-.02c-.04-.026-.083-.057-.124-.086l-.037-.023-.089-.063c-.014-.009-.031-.02-.046-.032s-.057-.037-.083-.057-.028-.02-.046-.032-.055-.04-.083-.057a.4.4 0 0 0-.043-.032l-.109-.077a.286.286 0 0 1-.025-.018c-.037-.025-.074-.051-.112-.08-.014-.012-.031-.023-.046-.035a.842.842 0 0 1-.077-.054.576.576 0 0 1-.052-.038l-.074-.051-.052-.038-.074-.051a.388.388 0 0 0-.052-.038l-.115-.086c-.017-.011-.031-.023-.049-.034s-.048-.038-.074-.055a.648.648 0 0 0-.055-.04c-.022-.017-.043-.035-.065-.049s-.04-.032-.061-.043a.543.543 0 0 0-.065-.049l-.055-.043a.61.61 0 0 1-.072-.055l-.06-.043-.106-.08a.546.546 0 0 1-.049-.038l-.071-.051-.055-.043-.066-.052-.057-.04-.066-.052-.055-.043c-.028-.02-.06-.043-.086-.066s-.046-.038-.071-.055-.049-.037-.075-.057l-.057-.046c-.017-.014-.04-.032-.061-.046l-.061-.049-.06-.046a.49.49 0 0 1-.061-.049.789.789 0 0 1-.063-.049c-.017-.014-.037-.028-.054-.043-.038-.029-.075-.057-.109-.086l-.058-.046-.062-.049-.061-.049c-.021-.018-.037-.031-.058-.046s-.04-.034-.06-.048a.466.466 0 0 0-.058-.046l-.061-.052c-.02-.014-.034-.029-.052-.043l-.129-.1a.486.486 0 0 1-.04-.034l-.068-.055a.466.466 0 0 1-.049-.04c-.023-.017-.043-.037-.066-.055l-.049-.04c-.022-.02-.043-.037-.065-.054l-.052-.043-.066-.055c-.014-.012-.028-.026-.043-.037-.043-.038-.086-.072-.129-.109a.485.485 0 0 1-.043-.037l-.068-.055-.049-.043c-.017-.015-.043-.034-.063-.054s-.034-.026-.049-.04l-.065-.058a.481.481 0 0 1-.046-.04c-.084-.069-.161-.138-.244-.209a.35.35 0 0 0-.037-.031c-.026-.023-.046-.043-.072-.063s-.025-.023-.04-.034l-.071-.063c-.012-.012-.026-.023-.037-.035-.026-.023-.049-.043-.075-.063a.18.18 0 0 0-.025-.023c-.052-.046-.106-.095-.155-.141a.275.275 0 0 1-.028-.023c-.023-.023-.046-.043-.069-.063l-.04-.037-.071-.063-.04-.034c-.014-.011-.046-.043-.069-.063s-.025-.023-.037-.035c-.086-.077-.172-.155-.255-.232a.171.171 0 0 0-.023-.02l-.074-.069c-.012-.011-.023-.023-.034-.031-.026-.026-.049-.046-.075-.069l-.031-.032-.077-.069c-.006-.008-.015-.014-.021-.023l-.258-.241a.372.372 0 0 0-.028-.026c-.023-.023-.049-.049-.075-.072l-.031-.028-.074-.072-.026-.026c-.12-.115-.243-.232-.364-.35a.037.037 0 0 0-.015-.014l-.083-.083-.02-.018c-.026-.028-.058-.057-.086-.083 0 0 0-.006-.006-.009-.123-.12-.247-.244-.37-.367l-.018-.018c-.028-.028-.057-.054-.083-.083a.058.058 0 0 1-.012-.014c-.123-.124-.249-.25-.369-.376l-.006-.005c-.029-.029-.058-.061-.089-.089l-.009-.012-.089-.092c-.123-.126-.244-.255-.367-.384l-.009-.011c-.028-.029-.057-.061-.086-.089l-.009-.012c-.154-.164-.3-.324-.456-.487v-.006c-.183-.2-.366-.4-.544-.6a54.862 54.862 0 0 1-13.924-36.6v-21.8a65.041 65.041 0 0 1 23.381-50.011c-2.093-5.589-4.089-13.344.229-14.784 4.062-1.354 8.919 2.879 12.226 6.582a65.332 65.332 0 0 1 57.688-.49c3.3-3.814 8.442-8.546 12.7-7.126 4.439 1.48 2.205 9.639.052 15.251a65.05 65.05 0 0 1 24.069 50.579v15.408a31.321 31.321 0 0 0 3-1.984 38.5 38.5 0 0 0 7.485-7.812c.061-.089.123-.175.187-.258.015-.066.031-.132.049-.2a7.318 7.318 0 0 1 1-3.267 20.335 20.335 0 0 0 1.4-5.03c.184-1.85-.517-3.883.536-4.3 1.614-.637 3.14.952 3.788 2.744a9.581 9.581 0 0 1 .49 3.178c2.911-.187 4.33 1.093 4.431 2.182a2.434 2.434 0 0 1-.206 1.282c.063.135.123.275.181.418a2.132 2.132 0 0 1 .677 1.3 2.923 2.923 0 0 1-.1 1.107 12.322 12.322 0 0 1-.812 6.57 4.709 4.709 0 0 1-.318.548 6.66 6.66 0 0 1-.579 1.047 51.424 51.424 0 0 1-10.419 10.877 46.6 46.6 0 0 1-11.4 6.2 54.638 54.638 0 0 1-6.2 18.328l-.4.723c-.025.043-.052.089-.077.135l-.009.015c-.108.189-.215.373-.327.562l-.008.014-.075.126a.035.035 0 0 0-.008.014c-.026.046-.055.092-.081.135l-.172.281s0 .006-.006.009c-.025.043-.052.086-.077.126a.047.047 0 0 1-.012.021c-.022.04-.049.08-.074.12a.054.054 0 0 1-.012.017c-.022.043-.052.086-.077.126l-.006.011c-.083.135-.169.272-.255.407l-.018.029c-.023.035-.046.069-.066.106-.008.009-.014.02-.022.032-.021.034-.043.069-.066.1a.215.215 0 0 1-.017.029c-.058.092-.115.178-.175.27l-.009.015c-.026.037-.049.077-.075.115a.274.274 0 0 0-.02.031c-.021.032-.046.066-.066.1l-.025.037c-.021.032-.043.063-.063.095a.23.23 0 0 1-.022.034l-.077.118-.009.012c-.029.046-.061.092-.089.135 0 0-.006.005-.006.008l-.077.115c-.012.017-.021.032-.032.046s-.037.058-.057.083l-.029.045c-.022.032-.04.061-.061.089a.428.428 0 0 0-.028.04l-.068.1-.021.029c-.028.04-.058.083-.086.126l-.021.028-.068.1-.025.034c-.021.032-.044.061-.063.092l-.031.043-.058.083c-.012.014-.023.031-.034.046l-.058.08c-.02.026-.021.032-.031.049-.029.04-.061.08-.089.121a.1.1 0 0 1-.021.028c-.021.032-.043.063-.066.095s-.025.035-.037.049-.037.052-.055.078l-.037.051c-.015.02-.034.049-.054.072l-.035.052c-.02.029-.04.054-.06.08s-.023.032-.035.046l-.086.118-.031.043-.058.081a.513.513 0 0 0-.043.057c-.017.02-.031.04-.049.063a.613.613 0 0 0-.046.063l-.046.061c-.018.023-.028.04-.043.057l-.052.069c-.014.017-.028.038-.043.055l-.083.109-.04.055-.055.069c-.017.023-.031.046-.049.066a.617.617 0 0 1-.043.054c-.017.023-.034.043-.049.066s-.028.038-.043.055-.034.046-.052.066-.028.037-.043.057l-.051.063-.035.046-.114.146-.026.035c-.02.023-.037.043-.054.066s-.029.037-.043.054l-.055.066a.347.347 0 0 1-.037.049c-.018.023-.038.049-.058.072l-.034.043-.061.075-.018.023-.227.278a.357.357 0 0 0-.025.031c-.023.029-.046.058-.069.083a.285.285 0 0 0-.022.028c-.023.026-.049.058-.071.086a.182.182 0 0 0-.021.026l-.327.393-.017.017c-.026.029-.052.06-.075.089-.006.009-.014.015-.02.023-.023.029-.049.058-.075.086a.133.133 0 0 1-.02.026c-.023.029-.049.058-.075.086l-.008.009-.25.292a.15.15 0 0 1-.02.02l-.072.086a.143.143 0 0 0-.022.023c-.023.029-.049.055-.072.083-.009.008-.017.02-.025.029l-.075.086-.264.3a.062.062 0 0 0-.014.017c-.026.029-.055.057-.081.089a.09.09 0 0 1-.017.017c-.026.032-.052.061-.08.089a.051.051 0 0 0-.012.015l-.364.4v.006l-.083.089a.076.076 0 0 0-.015.017l-.08.086-.021.02c-.184.2-.37.4-.559.588a55.23 55.23 0 0 1-16.791 11.927l-4.534 11.643c1.853 1.268 2.082 2.529 1.833 3.792zm-95.893-10.554a8.9 8.9 0 0 1 17.795 0 8.9 8.9 0 1 1-17.795 0zm147.814-49.228a6.782 6.782 0 0 1 13.564 0 6.782 6.782 0 0 1-13.564 0zM11250 7874.9a8.9 8.9 0 0 1 17.794 0 8.9 8.9 0 0 1-17.794 0z" class="cls-1" transform="translate(-10798.914 -7845.333)"/>
        </g>
    </g>
    <g id="그룹_11230">
        <path id="사각형_1835" d="M0 0H200V200H0z" class="cls-2" transform="translate(220)"/>
        <path id="합치기_78" d="M11317.268 8041.965h-6.2c-.235-1.193-.02-2.39 1.733-3.589l-4.327-11.108a52.134 52.134 0 0 1-29.143-38.559c-.009-.046-.018-.092-.022-.138a.1.1 0 0 1-.006-.029l-.018-.112c0-.014-.006-.034-.009-.052s-.009-.049-.012-.074-.011-.061-.014-.089 0-.025-.006-.04c-.006-.04-.012-.08-.021-.121v-.011a52.205 52.205 0 0 1-.585-6.84l-.04-1.937a42.905 42.905 0 0 1-7.052-3.084 49.6 49.6 0 0 1-11.413-8.994 6.232 6.232 0 0 1-.949-1.375 4.907 4.907 0 0 1-1.722-.935c-4.117-3.426-8.567-8.613-7.213-10.147 1.188-1.346 4.5.611 4.5.611s-3.478-3.91-2.123-5.442c1.595-1.8 5.471 1.888 5.471 1.888s-1.827-3.764-.605-4.949c.826-.8 3.612 1.159 6.194 3.405.881-1.561 2.02-3.084 3.032-2.866 1.779.385 1.871 7.419 1.868 8.963a6.019 6.019 0 0 1 .077 1.727 6.321 6.321 0 0 1 .743.7 37.079 37.079 0 0 0 8.191 6.446c.24.135.484.261.726.388l-.577-28.506c-.637-31.436 22.433-54.516 52.77-58.418 1.193-5.641 3.528-12.583 7.817-12.669 3.905-.081 6.418 6.745 7.824 12.374 30.377 2.749 54.258 24.848 54.892 56.214l.494 24.317a29.468 29.468 0 0 0 2.521-1.641 37.149 37.149 0 0 0 7.327-7.434 6 6 0 0 1 .531-.657c.017-.161.043-.324.074-.485 0-1.543.089-8.578 1.868-8.959 1.013-.221 2.151 1.305 3.032 2.863 2.582-2.243 5.368-4.206 6.191-3.405 1.222 1.185-.6 4.952-.6 4.952s3.876-3.695 5.471-1.891c1.354 1.535-2.123 5.445-2.123 5.445s3.312-1.959 4.5-.614c1.354 1.535-3.1 6.725-7.213 10.147a4.812 4.812 0 0 1-2.447 1.1 49.361 49.361 0 0 1-9.235 9.069 44.5 44.5 0 0 1-9.616 5.267l.123 6.04a52 52 0 0 1-2.737 17.791l-.043.129a.191.191 0 0 0-.009.023c-.014.037-.025.075-.04.112 0 .014-.008.029-.011.04-.012.032-.023.066-.035.095s-.014.038-.02.058-.021.057-.029.083-.017.046-.022.069l-.026.069c-.011.029-.02.055-.028.083s-.015.04-.022.06l-.032.092-.02.052-.035.1c0 .015-.011.032-.017.046-.015.037-.026.074-.04.109 0 .011-.009.023-.012.031l-.043.121c0 .009-.009.02-.012.029l-.046.126c0 .006-.006.009-.006.015l-.052.141a51.95 51.95 0 0 1-6.982 12.727l2.607 5.669c2.08-.427 3.09.247 3.784 1.248l-1.873 1.934-.262.27-1.916 1.982-.261.27-12.561 12.994a1.961 1.961 0 0 1-2.769.049l-7.944-7.68a51.889 51.889 0 0 1-19.523 4.208l-13.607.278v7.878a1.958 1.958 0 0 1-1.957 1.959zM11268 8026a2.606 2.606 0 0 1-2.028-3.079l.222-1.07-.844.557a2.606 2.606 0 1 1-2.863-4.355l.668-.439-.786-.164a2.606 2.606 0 0 1 1.051-5.1l1.013.207-.437-.7a2.606 2.606 0 1 1 4.424-2.754l.3.482.114-.554a2.606 2.606 0 1 1 5.1 1.05l-.1.5.5-.33a2.606 2.606 0 1 1 2.866 4.353l-.671.441.786.161a2.607 2.607 0 1 1-1.051 5.107l-1-.207.646 1.039a2.606 2.606 0 1 1-4.424 2.754l-.3-.482-.114.556a2.6 2.6 0 0 1-2.548 2.08 2.561 2.561 0 0 1-.524-.053zm138.121-123.759a2.913 2.913 0 0 1-2.264-3.44l.247-1.193-.94.62a2.913 2.913 0 0 1-3.205-4.866l.749-.494-.878-.181a2.913 2.913 0 0 1 1.176-5.706l1.128.232-.485-.781a2.912 2.912 0 1 1 4.943-3.078l.336.539.129-.623a2.912 2.912 0 0 1 5.7 1.176l-.115.563.557-.367a2.912 2.912 0 1 1 3.205 4.863l-.749.494.878.181a2.913 2.913 0 0 1-1.174 5.707l-1.113-.229.721 1.159a2.912 2.912 0 1 1-4.943 3.079l-.336-.537-.129.62a2.911 2.911 0 0 1-2.849 2.327 2.792 2.792 0 0 1-.588-.063z" class="cls-1" transform="translate(-11020.98 -7853)"/>
    </g>
    <g id="그룹_11231">
        <path id="사각형_1791" d="M0 0H200V200H0z" class="cls-2"/>
        <g id="그룹_11218">
            <path id="합치기_79" d="M11406.266 8042.792c-2.642 0-5.578-.163-8.581-.247-8.17-.223-9.471-4.567-9.367-12.189.04-2.866-.066-5.674.16-8.058q-.283.026-.576.026a5.8 5.8 0 1 1 5.734-6.677c.057-.005.114-.008.172-.014a5.712 5.712 0 0 1 .386-1.218 6.775 6.775 0 0 1-1.168-1.045 46.613 46.613 0 0 1-4.877-6.834 52.968 52.968 0 0 1-7.293 8.055s-.006 0-.006.006c-.034.029-.068.06-.1.092l-.009.008c-.034.029-.065.058-.1.086-.006.006-.009.006-.014.012-.035.031-.072.063-.109.1s-.068.06-.1.089c-.011.009-.022.017-.031.026l-.074.066c-.009.009-.021.017-.031.029s-.046.037-.069.06a.415.415 0 0 0-.04.034l-.095.081a.5.5 0 0 1-.046.04l-.052.046-.057.048c-.015.012-.029.026-.046.038s-.04.034-.061.051a.088.088 0 0 1-.025.023l-.249.212a52.816 52.816 0 0 1-18.734 10.158l-2.837 7.287c1.776 1.215 2 2.424 1.757 3.633h-24.591a1.984 1.984 0 0 1-1.983-1.983v-7.6l-4.859-.438v8.043a1.983 1.983 0 0 1-1.982 1.983h-24.591c-.238-1.209-.018-2.418 1.759-3.633l-5.957-15.29a53 53 0 0 1-14.192-13.585l-.011-.015-.078-.109c0-.008-.008-.011-.014-.02-.058-.083-.118-.163-.175-.249l-.006-.006-.077-.112a.237.237 0 0 1-.023-.034c-.022-.029-.04-.058-.06-.086a.4.4 0 0 1-.029-.04l-.06-.086a.355.355 0 0 0-.023-.035c-.025-.037-.052-.077-.08-.115l-.031-.048c-.01-.017-.032-.046-.046-.069l-.043-.06c-.012-.02-.026-.038-.037-.058s-.029-.043-.046-.066a.42.42 0 0 0-.029-.043c-.06-.089-.12-.178-.178-.267a.1.1 0 0 0-.017-.022c-.021-.032-.037-.061-.058-.089l-.015-.023c-.022-.032-.043-.063-.062-.095a.01.01 0 0 0 0-.006 52.553 52.553 0 0 1-8.43-33.686l1.877-20.811a62.737 62.737 0 0 1 1.69-9.895 27.88 27.88 0 0 1-13.324-14.524c-3.37-8.843-.634-17.4.361-19.986-.006-4.373.733-9.023 2.338-9.06s2.341 3.335 2.341 3.335.453-4.674 2.289-4.717c2.164-.051 2.092 4.757 2.092 4.757s1.367-3.5 2.895-3.416c1.031.054 1.436 3.086 1.53 6.155 1.564-.373 3.264-.55 3.736.249.831 1.407-3.736 5.748-4.763 6.694a5.621 5.621 0 0 1-.393.476l.683.3.022-.052c-.055.132-2.258 5.576-.412 10.416a13.733 13.733 0 0 0 5.461 6.493 62.69 62.69 0 0 1 21.88-24.164c-1.567-4.51-5.366-17.009.175-18.315 5.8-1.37 12.192 8.65 13.912 11.564a62.137 62.137 0 0 1 22.585-3.106c.54-3.145 1.886-6.263 1.32-7.476-1.14-2.45-16.728-2.292-14.6-11.3.917-3.871 3.676-4.866 6.9-4.676a5.848 5.848 0 0 1 9.868 2.479c.521.169 1.032.332 1.536.5a5.854 5.854 0 0 1 9.729 5.788 5.9 5.9 0 0 1 .4 4.052c-.937 4.4-1.7 8.919-2.92 12.416a62.016 62.016 0 0 1 14.5 5.607c2.387-2.73 10.267-11.081 15.628-8.739 5.106 2.229-.513 13.413-2.954 17.783a62.378 62.378 0 0 1 19.914 51.577l-1.877 20.814a52.992 52.992 0 0 1-1.9 10.075 33.519 33.519 0 0 0 1.72 5.659 34.6 34.6 0 0 0 4.32 7.35c3.972 1.6 7.825 3.917 7.284 5.387-.556 1.51-3.963.952-3.963.952s4.181 2.137 3.547 3.862c-.588 1.6-3.488.8-4.68.387a5.708 5.708 0 0 1 .395.774c.737.871 1.6 2.142 1.211 2.982-.119.26-.432.391-.884.424a5.8 5.8 0 0 1-5.016 4.587c-.032 2.264-.336 4.808-.218 7.2.063 1.281 2.728.886 8.647 1.1s8.8.739 8.639 6.026c-.151 5.026-4.75 5.937-10.957 5.937zm-152.739-4.275c-.963-3.418-2.562-11.052-3.255-14.152-.662-2.969-.106-4.854 1.647-6.078a5.315 5.315 0 1 1 9.562-4.255 5.443 5.443 0 0 1-.1-1.04 5.315 5.315 0 1 1 10.63 0v.246c2.264-.192 4.467.229 4.934 2.745.68 3.659.41 5.052-7.473 6.659s-9.146 1.96-7.9 6.932 6.468 2.516 10.152 1.524 8.175-2.444 9.066 1.59-.96 5.513-4.923 6.424-11.427 2.619-14.275 3.284a7.342 7.342 0 0 1-1.659.184c-2.633 0-5.619-1.264-6.407-4.063zm8.109-23.213v.129c.1-.023.2-.046.3-.071a5.167 5.167 0 0 1-.4-1.1 5.419 5.419 0 0 1 .1 1.038z" class="cls-1" transform="translate(-11234.969 -7857)"/>
        </g>
    </g>
</svg>
