<svg xmlns="http://www.w3.org/2000/svg" width="918" height="518" viewBox="0 0 918 518">
    <defs>
        <clipPath id="clip-path">
            <rect id="사각형_463-2" width="900" height="500" class="cls-1" rx="40" transform="translate(124 1697)"/>
        </clipPath>
        <clipPath id="clip-path-2">
            <path id="SVGID" d="M1045.41 874.434l-19.826-2.884a54.6 54.6 0 0 1-46.167-61.886l6.655-45.748c5.137-35.313 37.338-55.715 72.651-50.579 35.313 5.137 60.366 33.869 55.229 69.182l-6.655 45.747a54.6 54.6 0 0 1-61.887 46.168z" class="cls-1" transform="translate(-978.841 -712.551)"/>
        </clipPath>
        <clipPath id="clip-path-3">
            <path id="SVGID-2" d="M856.191 880.436l-19.537-4.443a54.6 54.6 0 0 1-41.131-65.341l4.793-21.077a64.612 64.612 0 0 1 77.331-48.675 64.613 64.613 0 0 1 48.678 77.331l-4.792 21.077a54.6 54.6 0 0 1-65.342 41.128z" class="cls-1" transform="translate(-794.153 -739.274)"/>
        </clipPath>
        <clipPath id="clip-path-4">
            <path id="SVGID-3" d="M880.451 851.4c-3.164-4.5-8.388-3.208-12.27-4.932s-6.424-6.467-11.887-5.795c-5.045.621-9.1 18.166 3.842 23.912s23.238-9.026 20.315-13.185z" class="cls-1" transform="translate(-851.471 -840.608)"/>
        </clipPath>
        <filter id="패스_6405" width="918" height="518" x="0" y="0" filterUnits="userSpaceOnUse">
            <feOffset/>
            <feGaussianBlur result="blur" stdDeviation="3"/>
            <feFlood flood-opacity=".502"/>
            <feComposite in2="blur" operator="in"/>
            <feComposite in="SourceGraphic"/>
        </filter>
        <style>
            .cls-1{fill:none}.cls-2{fill:#dd335c}.cls-9{fill:#fff}.cls-10{fill:#4c4847}.cls-11{fill:#92d749}.cls-12{fill:#01b8fe}.cls-13{fill:#3d4459}.cls-14{fill:#fbe6b9}.cls-15{fill:#ffb612}.cls-17{fill:#2c303a}.cls-18{fill:#00aaed}
        </style>
    </defs>
    <g id="그룹_3057" transform="translate(-181 -101)">
        <g filter="url(#패스_6405)" transform="translate(181 101)">
            <path id="패스_6405-2" fill="#d8f2ff" d="M40 0h820a40 40 0 0 1 40 40v420a40 40 0 0 1-40 40H40a40 40 0 0 1-40-40V40A40 40 0 0 1 40 0z" transform="translate(9 9)"/>
        </g>
        <g id="그룹_2268" transform="translate(66 -1587)">
            <g id="그룹_2267" clip-path="url(#clip-path)">
                <path id="패스_4592" fill="#a8e25e" d="M275.167 0c151.97 0 275.167 90.438 275.167 202s-123.2 202-275.167 202S0 313.562 0 202 123.2 0 275.167 0z" transform="translate(602.667 2029)"/>
                <circle id="타원_203" cx="43" cy="43" r="43" fill="#fed654" transform="translate(69 1751)"/>
            </g>
        </g>
        <g id="그룹_2363">
            <text id="안녕_" fill="#50acdb" font-family="TmoneyRoundWind-ExtraBold, Tmoney RoundWind" font-size="32px" font-weight="800" transform="rotate(-5.13 4535.53 -9889.286)">
                <tspan x="0" y="0">안녕!</tspan>
            </text>
            <g id="그룹_2270" transform="translate(-551.449 -356.506)">
                <path id="패스_4552" fill="#fa0" d="M1596.3 713.163c-6.264-2.057-15.88-5.734-17.931 2.62-2.48 10.1 15.035 10.064 16.295 12.828s-6.337 14.226 2.627 17.1 10.439-9.185 12.952-20.521c1.524-6.89-5.45-9.238-13.943-12.027z" transform="translate(0 -1.708)"/>
                <circle id="타원_187" cx="6.573" cy="6.573" r="6.573" class="cls-9" transform="translate(1582.524 706.579)"/>
                <circle id="타원_188" cx="6.573" cy="6.573" r="6.573" class="cls-9" transform="translate(1595.168 710.173)"/>
                <circle id="타원_189" cx="3.776" cy="3.776" r="3.776" class="cls-10" transform="translate(1584.177 710.449)"/>
                <circle id="타원_190" cx="3.776" cy="3.776" r="3.776" class="cls-10" transform="translate(1596.189 714.011)"/>
            </g>
            <ellipse id="타원_217" cx="42" cy="12.5" class="cls-11" rx="42" ry="12.5" transform="translate(799 542)"/>
            <ellipse id="타원_218" cx="60.5" cy="12.5" class="cls-11" rx="60.5" ry="12.5" transform="translate(914 542)"/>
            <g id="그룹_2262" transform="translate(3.824 -320.595)">
                <g id="기본" transform="translate(895.771 692)">
                    <g id="그룹_2237" transform="translate(123.768 94.075)">
                        <g id="그룹_2236" transform="translate(34.093)">
                            <path id="패스_4553" d="M1213.52 856.008c4.909.789 11.254.734 11.5-1.15.216-1.653-3.175-2.774-3.175-2.774s4.858.045 5.1-1.839c.29-2.217-4.662-2.673-4.662-2.673s3.748-1.022 3.831-2.6-6.692-2.464-10.413-2.66c-7.363-.388-8.762 12.638-2.181 13.696z" class="cls-12" transform="translate(-1209.296 -838.696)"/>
                            <path id="패스_4554" d="M1214.214 841.255s6.094-5.483 7.617-4.347-1.413 6.786-1.413 6.786z" class="cls-12" transform="translate(-1211.018 -836.753)"/>
                        </g>
                        <path id="패스_4555" d="M1163.4 864.867a6.565 6.565 0 0 1-1.926-12.84c.094-.029 9.446-2.9 16.048-4.784a124.246 124.246 0 0 1 17.809-3.735 6.564 6.564 0 0 1 1.53 13.038 113.223 113.223 0 0 0-15.737 3.32c-6.475 1.848-15.7 4.681-15.8 4.709a6.572 6.572 0 0 1-1.924.292z" class="cls-12" transform="translate(-1156.837 -839.102)"/>
                    </g>
                    <g id="그룹_2238" transform="translate(27.329 154.85)">
                        <path id="패스_4556" d="M1042.908 961.854h-25.435c-.248-1.25-.02-2.5 1.818-3.758l-10.843-27.83h36.512V959.8a2.051 2.051 0 0 1-2.052 2.054z" class="cls-13" transform="translate(-1008.448 -930.266)"/>
                        <path id="패스_4557" d="M1031.686 977.766a2.227 2.227 0 0 1 .459-2.051h.41a1.88 1.88 0 0 0-.474 2.051z" class="cls-14" transform="translate(-1016.556 -946.177)"/>
                        <path id="패스_4558" d="M1026.636 977.766a2.227 2.227 0 0 1 .459-2.051h.41a1.88 1.88 0 0 0-.474 2.051z" class="cls-14" transform="translate(-1014.788 -946.177)"/>
                    </g>
                    <g id="그룹_2239" transform="translate(83.618 140.05)">
                        <path id="패스_4559" d="M1114.885 953.145l20.819-14.612c-.515-1.165-1.421-2.06-3.647-2.032l-7.113-29.008-29.885 20.975 16.968 24.177a2.051 2.051 0 0 0 2.858.5z" class="cls-13" transform="translate(-1095.059 -907.493)"/>
                        <path id="패스_4560" d="M1148.892 959.889a2.227 2.227 0 0 0-1.554-1.415l-.336.235a1.88 1.88 0 0 1 1.567 1.407z" class="cls-14" transform="translate(-1113.244 -925.341)"/>
                        <path id="패스_4561" d="M1153.025 956.988a2.226 2.226 0 0 0-1.554-1.415l-.335.235a1.88 1.88 0 0 1 1.566 1.407z" class="cls-14" transform="translate(-1114.691 -924.326)"/>
                    </g>
                    <g id="그룹_2240" transform="translate(74.056)">
                        <path id="패스_4562" d="M1099.365 712.975s-1.889-20.831-8.841-20.974c-7.581-.155-10.178 20.348-10.178 20.348z" class="cls-15" transform="translate(-1080.346 -692)"/>
                    </g>
                    <path id="패스_4563" d="M1045.41 874.434l-19.826-2.884a54.6 54.6 0 0 1-46.167-61.886l6.655-45.748c5.137-35.313 37.338-55.715 72.651-50.579 35.313 5.137 60.366 33.869 55.229 69.182l-6.655 45.747a54.6 54.6 0 0 1-61.887 46.168z" class="cls-12" transform="translate(-970.753 -699.195)"/>
                    <g id="그룹_2242" transform="translate(8.088 13.357)">
                        <g id="그룹_2241" clip-path="url(#clip-path-2)">
                            <path id="패스_4564" d="M1108.953 886.584s-11.063-10.58-36.777-7.941c-28.409 2.915-37.447 10.769-61.44 5.572-29.137-6.312-41.067-26.184-41.067-26.184l-9.08 62.417 140.465 20.434z" class="cls-13" transform="translate(-972.451 -763.484)"/>
                        </g>
                    </g>
                    <g id="그룹_2243" transform="translate(36.576 42.71)">
                        <circle id="타원_193" cx="23.627" cy="23.627" r="23.627" class="cls-9"/>
                        <circle id="타원_194" cx="23.627" cy="23.627" r="23.627" class="cls-9" transform="translate(52.065 7.574)"/>
                    </g>
                    <path id="패스_4565" d="M1098.679 832.814c-1.083-1.634-17.022-4.445-17.755-3.288-1.4 2.213 3.182 18.476 6.118 19.348s13.176-13.738 11.637-16.06z" class="cls-2" transform="translate(-1006.401 -740.052)"/>
                    <circle id="타원_195" cx="14.064" cy="14.064" r="14.064" class="cls-17" transform="translate(41.618 52.817)"/>
                    <circle id="타원_196" cx="4.567" cy="4.567" r="4.567" class="cls-9" transform="translate(44.459 54.249)"/>
                    <circle id="타원_197" cx="14.064" cy="14.064" r="14.064" class="cls-17" transform="translate(93.462 60.862)"/>
                    <circle id="타원_198" cx="4.567" cy="4.567" r="4.567" class="cls-9" transform="translate(96.303 62.293)"/>
                    <g id="그룹_2245" transform="translate(0 25.065)">
                        <g id="그룹_2244">
                            <path id="패스_4566" d="M973.114 747.467c-3.746-3.268-7.762-8.182-6.471-9.576 1.132-1.223 4.163.667 4.163.667s-3.142-3.705-1.852-5.1c1.519-1.641 5.037 1.874 5.037 1.874s-1.612-3.535-.452-4.608 6.174 3.569 8.7 6.3c5.016 5.42-4.103 14.826-9.125 10.443z" class="cls-12" transform="translate(-966.397 -730.566)"/>
                            <path id="패스_4567" d="M989.748 740.518s.318-8.191-1.529-8.637-4.313 5.427-4.313 5.427z" class="cls-12" transform="translate(-972.527 -731.018)"/>
                        </g>
                        <path id="패스_4568" d="M987.817 787.44a6.565 6.565 0 0 1-6.508-5.78c-.014-.116-1.415-11.706-2.693-18.125-.848-4.259-3.506-12.47-4.459-15.274a6.564 6.564 0 0 1 12.429-4.224c.151.445 3.715 10.958 4.9 16.935 1.376 6.916 2.791 18.625 2.85 19.12a6.571 6.571 0 0 1-6.525 7.348z" class="cls-12" transform="translate(-968.991 -733.723)"/>
                    </g>
                </g>
                <g id="안녕" transform="translate(764.666 711.982)">
                    <g id="그룹_2247" transform="translate(0 34.011)">
                        <g id="그룹_2246">
                            <path id="패스_4569" d="M772.98 792.9c-4.3-2.493-9.182-6.548-8.182-8.163.877-1.417 4.213-.141 4.213-.141s-3.792-3.037-2.792-4.652c1.178-1.9 5.3.877 5.3.877s-2.258-3.162-1.324-4.437 6.743 2.323 9.749 4.525c5.956 4.359-1.197 15.334-6.964 11.991z" class="cls-18" transform="translate(-764.666 -775.443)"/>
                            <path id="패스_4570" d="M787.727 783.264s-1.254-8.1-3.151-8.184-3.2 6.15-3.2 6.15z" class="cls-18" transform="translate(-770.517 -775.079)"/>
                        </g>
                        <path id="패스_4571" d="M797.645 823.946a6.567 6.567 0 0 1-6.06-4.035c-.051-.12-2.306-5.374-8.461-14.788a137.637 137.637 0 0 0-8.375-11.277 6.564 6.564 0 0 1 10.061-8.433 148.932 148.932 0 0 1 9.3 12.527c6.965 10.653 9.49 16.677 9.594 16.929a6.567 6.567 0 0 1-6.061 9.078z" class="cls-18" transform="translate(-767.659 -777.875)"/>
                    </g>
                    <g id="그룹_2248" transform="translate(10.642 101.43)">
                        <path id="패스_4572" d="M791.748 923.373L781.04 900.3c1.029-.751 2.26-1.071 4.174.066l20.678-21.552 15.372 33.118-26.792 12.438a2.051 2.051 0 0 1-2.724-.997z" class="cls-13" transform="translate(-781.04 -878.816)"/>
                        <path id="패스_4573" d="M784.994 920.1a2.228 2.228 0 0 1 2.054-.447l.172.372a1.88 1.88 0 0 0-2.06.433z" class="cls-14" transform="translate(-782.424 -893.075)"/>
                        <path id="패스_4574" d="M782.868 915.518a2.229 2.229 0 0 1 2.054-.447l.173.372a1.879 1.879 0 0 0-2.06.433z" class="cls-14" transform="translate(-781.68 -891.471)"/>
                    </g>
                    <g id="그룹_2249" transform="translate(75.038 132.459)">
                        <path id="패스_4575" d="M881.817 955.682l11.8 1.941h13.541c.244-1.23.02-2.46-1.787-3.7l10.662-27.367h-35.9v27.132a2.018 2.018 0 0 0 1.684 1.994z" class="cls-13" transform="translate(-880.127 -926.56)"/>
                        <path id="패스_4576" d="M912.019 973.27a2.19 2.19 0 0 0-.452-2.017h-.4a1.848 1.848 0 0 1 .467 2.017z" class="cls-14" transform="translate(-890.993 -942.207)"/>
                        <path id="패스_4577" d="M916.985 973.27a2.19 2.19 0 0 0-.452-2.017h-.4a1.849 1.849 0 0 1 .467 2.017z" class="cls-14" transform="translate(-892.732 -942.207)"/>
                    </g>
                    <g id="그룹_2250" transform="translate(75.075)">
                        <path id="패스_4578" d="M896.52 740.319s-1.649-16.336-8.751-17.523-7.584 19.172-7.584 19.172z" class="cls-15" transform="translate(-880.184 -722.746)"/>
                    </g>
                    <g id="그룹_2251" transform="translate(136.192 31.297)">
                        <path id="패스_4579" d="M974.223 776.454s13.777-8.933 19.145-4.135-10.213 17.911-10.213 17.911z" class="cls-15" transform="translate(-974.223 -770.903)"/>
                    </g>
                    <path id="패스_4580" d="M856.191 880.436l-19.537-4.443a54.6 54.6 0 0 1-41.131-65.341l4.793-21.077a64.612 64.612 0 0 1 77.331-48.675 64.613 64.613 0 0 1 48.678 77.331l-4.792 21.077a54.6 54.6 0 0 1-65.342 41.128z" class="cls-18" transform="translate(-774.989 -728.533)"/>
                    <g id="그룹_2253" transform="translate(19.163 10.742)">
                        <g id="그룹_2252" clip-path="url(#clip-path-3)">
                            <path id="패스_4581" d="M764.77 862.346s13.307-5.389 35.262 8.255c24.256 15.075 31.579 25.168 55.883 28.628 22.7 3.233 46.933-2.658 46.933-2.658l-16.236 50.8-135.206-43.213z" class="cls-13" transform="translate(-779.187 -781.994)"/>
                        </g>
                    </g>
                    <g id="그룹_2254" transform="translate(55.061 31.599)">
                        <circle id="타원_199" cx="28.165" cy="28.165" r="28.165" class="cls-9"/>
                        <circle id="타원_200" cx="16.567" cy="16.567" r="16.567" class="cls-17" transform="translate(16.108 12.452)"/>
                        <circle id="타원_201" cx="6.154" cy="6.154" r="6.154" class="cls-9" transform="translate(19.849 12.733)"/>
                    </g>
                    <path id="패스_4583" d="M846.9 832.868s9.562-4.564 23.224 1.484 17.235 16.429 17.235 16.429l-3.257 7.356-40.458-17.913z" class="cls-18" transform="translate(-792.317 -760.721)"/>
                    <g id="그룹_2259" transform="translate(56.414 76.599)">
                        <path id="패스_4586" d="M880.451 851.4c-3.164-4.5-8.388-3.208-12.27-4.932s-6.424-6.467-11.887-5.795c-5.045.621-9.1 18.166 3.842 23.912s23.238-9.026 20.315-13.185z" class="cls-2" transform="translate(-851.471 -840.608)"/>
                        <g id="그룹_2258">
                            <g id="그룹_2257" clip-path="url(#clip-path-4)">
                                <path id="패스_4587" d="M888.673 856.319c-2.243-1-.251-5.483-.251-5.483l4.486 1.992s-1.992 4.486-4.235 3.491z" class="cls-9" transform="translate(-864.122 -844.189)"/>
                            </g>
                        </g>
                    </g>
                    <g id="그룹_2261" transform="translate(132.918 99.959)">
                        <g id="그룹_2260" transform="translate(7.486 27.241)">
                            <path id="패스_4588" d="M989.393 918.945c4.462 2.192 9.61 5.9 8.722 7.582-.779 1.474-4.194.43-4.194.43s3.992 2.77 3.1 4.45c-1.044 1.976-5.349-.512-5.349-.512s2.469 3 1.625 4.336-6.886-1.855-10.036-3.845c-6.234-3.94.15-15.379 6.132-12.441z" class="cls-18" transform="translate(-980.705 -918.468)"/>
                            <path id="패스_4589" d="M981.4 934.376s1.806 8 3.705 7.949 2.767-6.355 2.767-6.355z" class="cls-18" transform="translate(-980.947 -924.037)"/>
                        </g>
                        <path id="패스_4590" d="M982.309 917.136a6.543 6.543 0 0 1-5.438-2.891 49.962 49.962 0 0 1-6.069-13.534c-2.22-8.306-1.516-17.71-1.486-18.106a6.564 6.564 0 0 1 13.088 1.014 48.667 48.667 0 0 0 1.08 13.7 36.858 36.858 0 0 0 4.284 9.6 6.568 6.568 0 0 1-5.458 10.211z" class="cls-18" transform="translate(-969.186 -876.552)"/>
                    </g>
                </g>
                <path id="패스_4591" d="M1008.38 791.149s10.929-.033 18.771 12.514c8.939 14.3 3.576 26.816 3.576 26.816l-8.939-.894-17.877-32.179z" class="cls-12" transform="translate(-83.759 -34.712)"/>
            </g>
            <g id="그룹_3884" transform="translate(745.667 538.258)">
                <g id="그룹_3883">
                    <path id="패스_8259" fill="#ff4d8d" d="M1442.593 902.56c-7.176-.114-6.236 7.21-6.342 14.932s1.213 12.122 9.486 12.348c10.2.279 19.583 1.5 19.8-5.765.164-5.356-2.753-5.89-8.751-6.106s-8.7.183-8.762-1.115c-.324-6.522 2.476-14.169-5.431-14.294z" transform="translate(-1429.954 -897.606)"/>
                    <circle id="타원_470" cx="5.875" cy="5.875" r="5.875" class="cls-9" transform="translate(11.748 .241)"/>
                    <circle id="타원_471" cx="5.875" cy="5.875" r="5.875" class="cls-9"/>
                    <circle id="타원_472" cx="3.375" cy="3.375" r="3.375" class="cls-10" transform="translate(15.636 1.495)"/>
                    <circle id="타원_473" cx="3.375" cy="3.375" r="3.375" class="cls-10" transform="translate(4.312 .863)"/>
                </g>
            </g>
        </g>
        <g id="그룹_3939" transform="translate(923.333 167.828)">
            <g id="그룹_3808">
                <path id="패스_8168" d="M385.3 151.55a23.65 23.65 0 0 1 2.841.172 21.28 21.28 0 0 1 38 4.668c.269-.011.538-.017.808-.017a19.714 19.714 0 0 1 19.714 19.714q0 .366-.014.728a16.442 16.442 0 0 1-16.53 15.655H379.4a17.615 17.615 0 0 1-17.546-17.228v-.241A23.449 23.449 0 0 1 385.3 151.55z" class="cls-9" transform="translate(-361.85 -142)"/>
                <rect id="사각형_1469" width="89.307" height="10.841" class="cls-9" rx="5.42" transform="translate(10.477 39.628)"/>
                <rect id="사각형_1470" width="19.616" height="10.841" class="cls-9" rx="5.42" transform="translate(112.173 39.628)"/>
            </g>
        </g>
        <g id="그룹_3946" transform="translate(803.333 243.044)">
            <g id="그룹_3808-2">
                <path id="패스_8168-2" d="M398.633 147.724a14.178 14.178 0 0 0-1.7.1 12.756 12.756 0 0 0-22.779 2.8c-.161-.007-.322-.01-.485-.01a11.817 11.817 0 0 0-11.817 11.817q0 .219.008.436a9.856 9.856 0 0 0 9.909 9.384h30.4a10.559 10.559 0 0 0 10.518-10.327v-.145a14.056 14.056 0 0 0-14.054-14.055z" class="cls-9" transform="translate(-333.691 -142)"/>
                <rect id="사각형_1469-2" width="53.533" height="6.498" class="cls-9" rx="3.249" transform="translate(19.185 23.754)"/>
                <rect id="사각형_1470-2" width="11.759" height="6.498" class="cls-9" rx="3.249" transform="translate(0 23.754)"/>
            </g>
        </g>
    </g>
</svg>
