<svg xmlns="http://www.w3.org/2000/svg" width="758" height="568.001" viewBox="0 0 758 568.001">
    <defs>
        <clipPath id="clip-path">
            <path id="SVGID" fill="none" d="M34.674 79.758l11.253-1.015a30.791 30.791 0 0 0 27.9-33.431l-1.092-12.141A36.44 36.44 0 0 0 33.171.149 36.44 36.44 0 0 0 .149 39.714l1.095 12.141a30.791 30.791 0 0 0 33.43 27.903z"/>
        </clipPath>
        <clipPath id="clip-path-2">
            <path id="SVGID-2" d="M9.7.158C8.848-.552.235 1.315.025 2.058c-.4 1.422 4.233 8.652 5.96 8.652S10.9 1.166 9.7.158z" class="cls-2"/>
        </clipPath>
        <filter id="합치기_59" width="758" height="568.001" x="0" y="0" filterUnits="userSpaceOnUse">
            <feOffset/>
            <feGaussianBlur result="blur" stdDeviation="3"/>
            <feFlood flood-opacity=".502"/>
            <feComposite in2="blur" operator="in"/>
            <feComposite in="SourceGraphic"/>
        </filter>
        <style>
            .cls-2{fill:#dd335c}.cls-3{fill:#00aaed}.cls-4{fill:#3d4459}.cls-5{fill:#fbe6b9}.cls-6{fill:#f5a200}.cls-8{fill:#fff}
        </style>
    </defs>
    <g id="그룹_11506" transform="translate(-261.001 -51.002)">
        <g id="안녕" transform="rotate(-21 581.383 -1922.222)">
            <g id="그룹_2216" transform="translate(74.762 25.988)">
                <g id="그룹_2215" transform="translate(6.553)">
                    <path id="패스_4520" d="M7.557 7.954c.8-2.688 1.223-6.241.187-6.515-.909-.24-1.78 1.576-1.78 1.576S6.339.3 5.3.026C4.084-.3 3.472 2.441 3.472 2.441S3.171.271 2.294.11.433 3.676.055 5.743c-.749 4.093 6.435 5.816 7.502 2.211z" class="cls-3" transform="translate(1.697)"/>
                    <path id="패스_4521" d="M2.015 4.747S-.612.943.133.173s3.693 1.28 3.693 1.28z" class="cls-3" transform="translate(0 2.857)"/>
                </g>
                <path id="패스_4522" d="M.066 18.526c.351 0 8.661-.122 13.3-6.908A16.764 16.764 0 0 0 15.761 0L8.474 1.312a9.571 9.571 0 0 1-1.227 6.132C4.832 10.98.048 11.122 0 11.123l.047 3.7z" class="cls-3" transform="translate(0 6.515)"/>
            </g>
            <g id="그룹_2218" transform="translate(0 55.038)">
                <g id="그룹_2217" transform="translate(0 14.673)">
                    <path id="패스_4523" d="M5.475.138C2.816 1.028-.34 2.715.03 3.721c.324.882 2.312.555 2.312.555S-.1 5.524.272 6.53c.435 1.183 3.028.116 3.028.116s-1.606 1.491-1.234 2.3 3.988-.52 5.9-1.395C11.748 5.819 9.04-1.055 5.475.138z" class="cls-3"/>
                    <path id="패스_4524" d="M3.737 0s-1.61 4.334-2.668 4.165S0 .4 0 .4z" class="cls-3" transform="translate(5.601 6.269)"/>
                </g>
                <path id="패스_4525" d="M3.7 22.265a3.684 3.684 0 0 0 2.762-1.24 28.173 28.173 0 0 0 4.41-7.109 34.773 34.773 0 0 0 2.192-10.009 3.7 3.7 0 0 0-7.392-.417 27.412 27.412 0 0 1-1.633 7.578 20.778 20.778 0 0 1-3.117 5.046A3.7 3.7 0 0 0 3.7 22.265z" class="cls-3" transform="translate(3.008)"/>
            </g>
            <g id="그룹_2219" transform="translate(47.432 72.1)">
                <path id="패스_4526" d="M1.157 17.815H15.5a1.909 1.909 0 0 0-1.025-2.12L20.591 0H0v16.659a1.157 1.157 0 0 0 1.157 1.156z" class="cls-4"/>
                <path id="패스_4527" d="M.49 1.157A1.256 1.256 0 0 0 .231 0H0a1.06 1.06 0 0 1 .268 1.157z" class="cls-5" transform="translate(11.568 16.658)"/>
                <path id="패스_4528" d="M.49 1.157A1.256 1.256 0 0 0 .231 0H0a1.06 1.06 0 0 1 .268 1.157z" class="cls-5" transform="translate(13.419 16.658)"/>
            </g>
            <g id="그룹_2220" transform="translate(24.006 72.1)">
                <path id="패스_4529" d="M19.435 17.815H5.09A1.909 1.909 0 0 1 6.115 15.7L0 0h20.591v16.659a1.157 1.157 0 0 1-1.156 1.156z" class="cls-4"/>
                <path id="패스_4530" d="M.045 1.157A1.256 1.256 0 0 1 .3 0h.235a1.06 1.06 0 0 0-.267 1.157z" class="cls-5" transform="translate(8.488 16.658)"/>
                <path id="패스_4531" d="M.045 1.157A1.256 1.256 0 0 1 .3 0h.235a1.06 1.06 0 0 0-.267 1.157z" class="cls-5" transform="translate(6.637 16.658)"/>
            </g>
            <g id="그룹_2221" transform="translate(53.125)">
                <path id="패스_4532" d="M0 7.276S4.424-.858 8.376.075 8.135 11.7 8.135 11.7z" class="cls-6"/>
            </g>
            <g id="그룹_2222" transform="translate(14.281 3.983)">
                <path id="패스_4533" d="M10.741 5.826S4.933-1.386 1.212.238s2.316 11.4 2.316 11.4z" class="cls-6"/>
            </g>
            <path id="패스_4534" d="M34.674 79.758l11.253-1.015a30.791 30.791 0 0 0 27.9-33.431l-1.092-12.141A36.44 36.44 0 0 0 33.171.149 36.44 36.44 0 0 0 .149 39.714l1.095 12.141a30.791 30.791 0 0 0 33.43 27.903z" class="cls-3" transform="translate(5.45 4.969)"/>
            <g id="그룹_2224" transform="translate(5.45 4.969)">
                <g id="그룹_2223" clip-path="url(#clip-path)">
                    <path id="패스_4535" d="M80.207 1.982s-6.663-4.6-20.423.215c-15.2 5.319-20.473 9.976-34.276 8.9C12.613 10.087 0 3.869 0 3.869l2.7 29.956 79.729-7.187z" class="cls-4" transform="translate(-3.278 54.516)"/>
                </g>
            </g>
            <g id="그룹_2225" transform="translate(25.337 18.082)">
                <circle id="타원_180" cx="15.884" cy="15.884" r="15.884" class="cls-8"/>
                <circle id="타원_181" cx="9.344" cy="9.344" r="9.344" fill="#2c303a" transform="translate(6.52 6.516)"/>
                <ellipse id="타원_182" cx="3.47" cy="3.471" class="cls-8" rx="3.47" ry="3.471" transform="translate(16.885 7.227)"/>
            </g>
            <g id="이빨_있는" transform="translate(37.448 52.193)">
                <path id="패스_4537" fill="#bc2f24" d="M9.7.158C8.848-.552.235 1.315.025 2.058c-.4 1.422 4.233 8.652 5.96 8.652S10.9 1.166 9.7.158z"/>
                <g id="그룹_2227">
                    <path id="SVGID-3" d="M9.7.158C8.848-.552.235 1.315.025 2.058c-.4 1.422 4.233 8.652 5.96 8.652S10.9 1.166 9.7.158z" class="cls-2"/>
                    <g id="그룹_2226" clip-path="url(#clip-path-2)">
                        <path id="패스_4538" d="M2.356 3.325C3.787 2.862 2.862 0 2.862 0L0 .925s.925 2.862 2.356 2.4z" class="cls-8" transform="translate(-.44 .879)"/>
                    </g>
                </g>
            </g>
        </g>
        <g filter="url(#합치기_59)" transform="translate(261 51)">
            <path id="합치기_59-2" fill="#d8f2ff" d="M15250 6670a40 40 0 0 1-40-40v-411.07a40 40 0 0 1 40-40h490.875a39.788 39.788 0 0 1 38.9-31.427h7.445a39.585 39.585 0 0 1 23.434 7.629 47.655 47.655 0 0 1 45.978-35.129h6.733a47.635 47.635 0 0 1 47.578 45.309 54.017 54.017 0 0 1 39.057 51.9V6630a40 40 0 0 1-40 40z" transform="translate(-15201 -6111)"/>
        </g>
        <g id="그룹_2228" transform="rotate(-17 753.661 -2397.748)">
            <path id="패스_4539" d="M15.411 6.071c-.779 5-2.418 7.286-4.6 6.83s-2.185-1.369-2.185-1.369-.546.913-2.732.456c-2.311-.482-2.234-1.355-2.234-1.355s-.5.442-2.136-.014c-2.076-.578-1.795-3.99-.557-7.141C3.418-2.76 16.328.188 15.411 6.071z" class="cls-3"/>
        </g>
    </g>
</svg>
