<svg xmlns="http://www.w3.org/2000/svg" width="26" height="30" viewBox="0 0 26 30">
    <path fill="#fff" d="M731.1 273.226h-3.063v-1.953a8.3 8.3 0 0 0-16.59 0v1.953H709.1a1.986 1.986 0 0 0-2 1.976v15.944a1.986 1.986 0 0 0 2 1.976h22a1.986 1.986 0 0 0 2-1.976V275.2a1.986 1.986 0 0 0-2-1.974zm-10.563 9.026l.487 5h-2.636l.575-5.032a2.259 2.259 0 0 1-1.515-2.122 2.341 2.341 0 0 1 4.682 0 2.263 2.263 0 0 1-1.588 2.154zm3.118-9.026h-7.513v-1.574a3.762 3.762 0 1 1 7.513 0z" transform="translate(-707.101 -263.123)"/>
</svg>
