<svg xmlns="http://www.w3.org/2000/svg" width="81" height="43.747" viewBox="0 0 81 43.747">
    <defs>
        <clipPath id="clip-path">
            <path id="사각형_2186" d="M0 0H81V40.406H0z" class="cls-1" transform="translate(1239.972 753.05)"/>
        </clipPath>
        <clipPath id="clip-path-2">
            <path id="SVGID" d="M1267.067 826.89l7.64 2.226a21.686 21.686 0 0 0 26.893-14.742l5.145-17.624c3.972-13.608-4.3-26.293-17.9-30.265-13.606-3.971-27.4 2.275-31.372 15.883l-5.145 17.627a21.686 21.686 0 0 0 14.74 26.894z" class="cls-1"/>
        </clipPath>
        <style>
            .cls-1{fill:none}.cls-3{fill:#404a5e}.cls-4{fill:#fbe6b9}.cls-6{fill:#01b8fe}.cls-8{fill:#fff}.cls-9{fill:#2c303a}
        </style>
    </defs>
    <g id="그룹_11502" transform="translate(-1239.972 -753.65)">
        <g id="그룹_11501" transform="translate(0 .6)">
            <g id="그룹_11500" clip-path="url(#clip-path)">
                <g id="기본">
                    <g id="그룹_873">
                        <path id="패스_1562" d="M1274.381 833.045l10 1.405a1.345 1.345 0 0 0-.507-1.579l5.8-10.348-14.359-2.018-1.633 11.619a.816.816 0 0 0 .694.921z" class="cls-3"/>
                        <path id="패스_1563" d="M1281.984 834.113a.879.879 0 0 0-.067-.832l-.161-.023a.747.747 0 0 1 .073.833z" class="cls-4"/>
                        <path id="패스_1564" d="M1283.275 834.295a.887.887 0 0 0-.067-.833l-.162-.023a.749.749 0 0 1 .073.834z" class="cls-4"/>
                    </g>
                    <g id="그룹_874">
                        <path id="패스_1565" d="M1270.79 832.54l-10-1.406a1.344 1.344 0 0 1 .922-1.378l-2.726-11.547 14.359 2.018-1.633 11.619a.815.815 0 0 1-.922.694z" class="cls-3"/>
                        <path id="패스_1566" d="M1263.187 831.471a.882.882 0 0 1 .294-.781l.161.022a.75.75 0 0 0-.3.781z" class="cls-4"/>
                        <path id="패스_1567" d="M1261.9 831.29a.886.886 0 0 1 .293-.782l.162.023a.75.75 0 0 0-.3.781z" class="cls-4"/>
                    </g>
                    <g id="그룹_875">
                        <path id="패스_1568" fill="#ffb612" d="M1284.435 767.873s3.2-7.669 5.849-6.9c2.89.844 1.433 8.924 1.433 8.924z"/>
                    </g>
                    <path id="패스_1569" d="M1267.067 826.89l7.64 2.226a21.686 21.686 0 0 0 26.893-14.742l5.145-17.624c3.972-13.608-4.3-26.293-17.9-30.265-13.606-3.971-27.4 2.275-31.372 15.883l-5.145 17.627a21.686 21.686 0 0 0 14.74 26.894z" class="cls-6"/>
                    <g id="그룹_877">
                        <g id="그룹_11499">
                            <g id="그룹_11498" clip-path="url(#clip-path-2)">
                                <g id="그룹_876">
                                    <path id="패스_1570" d="M1248.2 801.337s5.743-2 14.6 3.2c9.783 5.741 11.753 10.071 21.28 12.152 11.569 2.528 19.16-2.684 19.16-2.684l-7.015 24.052-54.128-15.8z" class="cls-3"/>
                                </g>
                            </g>
                        </g>
                    </g>
                    <g id="그룹_878">
                        <circle id="타원_23" cx="9.385" cy="9.385" r="9.385" class="cls-8" transform="translate(1283.137 781.573)"/>
                        <circle id="타원_24" cx="5.521" cy="5.521" r="5.521" class="cls-9" transform="translate(1286.592 785.078)"/>
                        <circle id="타원_25" cx="9.385" cy="9.385" r="9.385" class="cls-8" transform="translate(1263.075 775.718)"/>
                        <circle id="타원_26" cx="5.521" cy="5.521" r="5.521" class="cls-9" transform="translate(1267.116 779.395)"/>
                        <circle id="타원_27" cx="1.793" cy="1.793" r="1.793" class="cls-8" transform="translate(1293.716 786.5)"/>
                        <circle id="타원_28" cx="1.793" cy="1.793" r="1.793" class="cls-8" transform="translate(1274.397 780.861)"/>
                    </g>
                    <path id="패스_1571" fill="#dd335c" d="M1276.894 794.508c.66-.412 6.485 1.735 6.56 2.273.142 1.03-3.8 5.62-5.007 5.451s-2.493-7.139-1.553-7.724z"/>
                </g>
            </g>
        </g>
        <g id="그룹_11497">
            <ellipse id="타원_64" cx="7" cy="4" class="cls-6" rx="7" ry="4" transform="translate(1245.972 789.397)"/>
            <ellipse id="타원_65" cx="7" cy="4" class="cls-6" rx="7" ry="4" transform="translate(1300.972 789.397)"/>
        </g>
    </g>
</svg>
