<svg xmlns="http://www.w3.org/2000/svg" width="138" height="133.146" viewBox="0 0 138 133.146">
    <defs>
        <style>
            .cls-1{fill:#cfcfcf}
        </style>
    </defs>
    <g id="baby_boy">
        <g id="그룹_2180" transform="translate(0 28.695)">
            <path id="패스_4463" d="M136 217.015a53.829 53.829 0 0 1-51.711-38.655h-.039a17.18 17.18 0 1 1 0-34.36h2.156a2.148 2.148 0 1 1 0 4.3H84.25a12.885 12.885 0 1 0 0 25.77h1.684a2.155 2.155 0 0 1 2.087 1.611 49.6 49.6 0 0 0 95.97 0 2.155 2.155 0 0 1 2.087-1.611h1.671a12.885 12.885 0 1 0 0-25.77h-2.156a2.148 2.148 0 1 1 0-4.3h2.156a17.18 17.18 0 1 1 0 34.36h-.026A53.837 53.837 0 0 1 136 217.015z" class="cls-1" transform="translate(-67 -112.564)"/>
            <path id="패스_4464" d="M142.113 175.83a2.149 2.149 0 0 1-2.128-1.881 49.724 49.724 0 0 0-32.558-40.412 2.148 2.148 0 0 1 1.43-4.05 54.059 54.059 0 0 1 35.391 43.927 2.15 2.15 0 0 1-1.866 2.4 2.291 2.291 0 0 1-.269.016z" class="cls-1" transform="translate(-21.695 -129.362)"/>
        </g>
        <g id="그룹_2181" transform="translate(47.525 70.868)">
            <path id="패스_4465" d="M93.3 157.59a4.3 4.3 0 1 1 4.3-4.3 4.3 4.3 0 0 1-4.3 4.3zm0-4.3z" class="cls-1" transform="translate(-89 -149)"/>
            <path id="패스_4466" d="M109.3 157.59a4.3 4.3 0 1 1 4.3-4.3 4.3 4.3 0 0 1-4.3 4.3zm0-4.3z" class="cls-1" transform="translate(-70.64 -149)"/>
            <path id="패스_4467" d="M107.5 171.145a28.372 28.372 0 0 1-14.541-4.209 2.148 2.148 0 0 1 2.382-3.576c.511.337 11.91 7.654 23.388 0a2.148 2.148 0 0 1 2.384 3.573 24.152 24.152 0 0 1-13.613 4.212z" class="cls-1" transform="translate(-85.557 -132.936)"/>
        </g>
        <path id="패스_4468" d="M76.336 191.163a2.291 2.291 0 0 1-.268-.017 2.15 2.15 0 0 1-1.866-2.4 53.48 53.48 0 0 1 46.873-46.546 17.369 17.369 0 0 0 8.07-3.105c4.654-3.346 6.79-6.715 6.722-10.6a8.2 8.2 0 0 0-8.163-8.2 6.395 6.395 0 0 0-6.024 6.954 4.46 4.46 0 0 0 2.437 3.157 2.149 2.149 0 0 1-1.873 3.868 8.787 8.787 0 0 1-4.783-6.211A10.668 10.668 0 0 1 127.7 116a12.464 12.464 0 0 1 12.458 12.421c.094 5.347-2.689 9.982-8.511 14.165a21.668 21.668 0 0 1-10.07 3.883 49.191 49.191 0 0 0-43.112 42.811 2.149 2.149 0 0 1-2.129 1.883z" class="cls-1" transform="translate(-58.755 -116)"/>
    </g>
</svg>
