<svg xmlns="http://www.w3.org/2000/svg" width="50" height="50" viewBox="0 0 50 50">
    <defs>
        <style>
            .cls-3{fill:#999}
        </style>
    </defs>
    <g id="그룹_2188" transform="translate(.161)">
        <g id="그룹_2077">
            <circle id="타원_159" cx="18.5" cy="18.5" r="18.5" fill="#fff" transform="translate(6.839 12)"/>
            <g id="그룹_2076">
                <path id="사각형_1245" fill="rgba(255,255,255,0)" d="M0 0H50V50H0z" transform="translate(-.161)"/>
                <g id="그룹_1846" transform="translate(5.851 2)">
                    <path id="패스_2759" d="M155.354 276.606a19.16 19.16 0 1 0 21.067-18.928V256.3h.873a.579.579 0 0 0 .581-.576V250.2a.579.579 0 0 0-.581-.576h-5.561a.579.579 0 0 0-.581.576v5.521a.579.579 0 0 0 .581.576h.873v1.376a19.116 19.116 0 0 0-7.76 2.511l-.7-1.031.453-.3a.358.358 0 0 0 .1-.5l-1.932-2.863a.364.364 0 0 0-.5-.1l-2.883 1.919a.358.358 0 0 0-.1.5l1.932 2.863a.364.364 0 0 0 .5.1l.453-.3.7 1.036a18.954 18.954 0 0 0-7.515 15.098zm2.776 0a16.384 16.384 0 1 1 16.384 16.266 16.344 16.344 0 0 1-16.384-16.266z" class="cls-3" transform="translate(-155.354 -249.628)"/>
                    <path id="패스_2760" fill="#ff4747" d="M0 16.609l1.21-.009L.683.18A.186.186 0 0 0 .5 0a.186.186 0 0 0-.189.182z" transform="rotate(42 -7.22 44.846)"/>
                    <circle id="타원_95" cx="1.571" cy="1.571" r="1.571" class="cls-3" transform="rotate(-82.858 24.758 4.309)"/>
                </g>
            </g>
        </g>
    </g>
</svg>
