<svg xmlns="http://www.w3.org/2000/svg" id="그룹_4399" width="304" height="71.477" viewBox="0 0 304 71.477">
    <defs>
        <style>
            .cls-1{fill:#00aaed}.cls-3{fill:#fff}.cls-5{fill:#404a5e}
        </style>
    </defs>
    <circle id="타원_44" cx="19.107" cy="19.107" r="19.107" class="cls-1" transform="translate(1.98 20.082)"/>
    <path id="패스_8554" d="M1451.527 652.045a11.62 11.62 0 0 0-3.593-4.322 16.557 16.557 0 0 0-5.406-2.554 26.639 26.639 0 0 0-13.464 0 16.552 16.552 0 0 0-5.406 2.554 11.61 11.61 0 0 0-3.593 4.322 15.391 15.391 0 0 0 0 12.338 11.592 11.592 0 0 0 3.593 4.322 16.518 16.518 0 0 0 5.406 2.554 26.65 26.65 0 0 0 13.464 0 16.523 16.523 0 0 0 5.406-2.554 11.6 11.6 0 0 0 3.593-4.322 15.392 15.392 0 0 0 0-12.338zm-9.941 8.37a4.734 4.734 0 0 1-1.43 1.533 6.112 6.112 0 0 1-2.023.864 10.054 10.054 0 0 1-4.674 0 6.1 6.1 0 0 1-2.023-.864 4.717 4.717 0 0 1-1.43-1.533 4.619 4.619 0 0 1 0-4.4 4.724 4.724 0 0 1 1.43-1.533 6.129 6.129 0 0 1 2.023-.864 10.067 10.067 0 0 1 4.674 0 6.138 6.138 0 0 1 2.023.864 4.741 4.741 0 0 1 1.43 1.533 4.619 4.619 0 0 1 0 4.4z" class="cls-1" transform="translate(-1252.912 -625.207)"/>
    <path id="패스_8556" d="M1191.8 701.2v.008l.01-.005z" class="cls-1" transform="translate(-1109.836 -663.314)"/>
    <rect id="사각형_1607" width="42.173" height="9.662" class="cls-1" rx="4.831" transform="translate(0 8.121)"/>
    <rect id="사각형_1609" width="13.095" height="12.288" class="cls-1" rx="6.144" transform="rotate(-90 14.019 -.924)"/>
    <rect id="사각형_1623" width="13.095" height="12.288" fill="#ffb612" rx="6.144" transform="rotate(-90 95.026 -81.931)"/>
    <rect id="사각형_1610" width="15.567" height="11.348" class="cls-1" rx="5.674" transform="translate(56.176 26.152)"/>
    <rect id="사각형_1611" width="53.122" height="12.467" class="cls-1" rx="6.234" transform="rotate(-90 131.193 -78.071)"/>
    <rect id="사각형_1612" width="15.567" height="11.348" class="cls-1" rx="5.674" transform="translate(217.229 19.861)"/>
    <g id="그룹_4233" transform="translate(10.929 29.031)">
        <circle id="타원_44-2" cx="10.157" cy="10.157" r="10.157" class="cls-3"/>
        <circle id="타원_45" cx="5.974" cy="5.974" r="5.974" fill="#2c303a" transform="translate(4.183 4.183)"/>
        <circle id="타원_46" cx="2.219" cy="2.219" r="2.219" class="cls-3" transform="translate(4.533 5.273)"/>
    </g>
    <circle id="타원_541" cx="6.234" cy="6.234" r="6.234" class="cls-5" transform="translate(209.303 40.684)"/>
    <g id="그룹_4234" transform="translate(48.211)">
        <rect id="사각형_1613" width="71.477" height="12.467" class="cls-1" rx="6.234" transform="rotate(-90 35.739 35.739)"/>
        <circle id="타원_542" cx="6.234" cy="6.234" r="6.234" class="cls-5" transform="translate(0 59.01)"/>
    </g>
    <g id="그룹_4236" transform="translate(73.273 36.583)">
        <g id="그룹_4235">
            <rect id="사각형_1614" width="27.658" height="12.467" class="cls-1" rx="6.234" transform="rotate(-90 32.002 2.892)"/>
            <path id="패스_8557" d="M1237.7 709.594l-.014-.037a3.542 3.542 0 0 0-.893-1.046 4.818 4.818 0 0 0-4.653-1c-.65.2-1.277.476-1.939.645l-1.633.415c-1.105.283-2.209.574-3.3.906q-1.906.58-4.8 1.159a66.662 66.662 0 0 1-7.162 1.118 91.8 91.8 0 0 1-9.811.456q-5.216 0-9.645-.414t-7.824-.994q-3.4-.578-5.713-1.159c-1.286-.321-2.562-.682-3.84-1.035-1.343-.371-2.407-1.318-3.862-1.318a4.913 4.913 0 0 0-1.156 9.639 31.007 31.007 0 0 0 5.05 1.573q3.311.912 7.576 1.656t9.315 1.242q1.716.214 3.494.3l12.467.061q2.079-.153 4.158-.364 4.968-.5 9.191-1.242 4.138-.745 7.286-1.614a31.122 31.122 0 0 0 4.719-1.615 6.269 6.269 0 0 0 1.922-1.055l.053-.043c.08-.068.156-.137.23-.209s.168-.167.247-.254c.013-.014.026-.027.037-.041a4.805 4.805 0 0 0 .506-5.729z" class="cls-1" transform="translate(-1167.773 -707.287)"/>
        </g>
        <circle id="타원_543" cx="6.234" cy="6.234" r="6.234" class="cls-5" transform="translate(29.109 22.427)"/>
    </g>
    <path id="패스_8558" d="M1247.63 637.822a4.5 4.5 0 0 0-4.836-4.756 11.919 11.919 0 0 0-2.445.457c-.843.179-1.688.349-2.526.551q-1.094.264-3.028.724t-4.861.864a67.557 67.557 0 0 1-7.215.689h-.085q-1.815.057-3.81.057-5.216 0-9.645-.407-2.961-.272-5.455-.618v-1.961c0-.451.206-.676.623-.676h32.492q3.817 0 5.26-1.386t1.441-5.081v-9.006q0-3.771-1.441-5.157t-5.26-1.386h-39.661a1.55 1.55 0 0 0-.209.017c-.112-.008-.223-.017-.336-.017a4.756 4.756 0 1 0 0 9.512c.114 0 .225-.009.336-.017a1.54 1.54 0 0 0 .209.017h33.9c.415 0 .623.18.623.538v2.224c0 .359-.208.537-.623.537h-32.493q-3.818 0-5.3 1.343t-1.48 5.1v2.858s0 5.871.008 5.872c0 .049-.008.1-.008.145a4.781 4.781 0 0 0 4.051 4.693c.9.211 2.139.428 3.556.682 2.839.508 5.947.9 9.314 1.222q1.988.244 4.057.326l8.927.064v.017l.391-.014 1.942.014q2.4-.162 4.8-.407.646-.064 1.278-.132v-.02c.5-.051 1-.1 1.491-.159q4.175-.5 7.367-1.17a31.494 31.494 0 0 0 4.8-1.317 4.864 4.864 0 0 0 3.438-2.742 5.924 5.924 0 0 0 .413-2.094z" class="cls-1" transform="translate(-1109.836 -608.7)"/>
    <path id="패스_8559" d="M1678.6 622c-.057-.006-.116-.017-.172-.017h-6.366q.623-2.748 1.012-5.759a49.6 49.6 0 0 0 .389-6.354v-4.756a6.093 6.093 0 0 0-1.751-4.682q-1.75-1.634-5.719-1.635h-37.736a7.709 7.709 0 0 0-4.163.966 4.779 4.779 0 0 0 0 6.985 7.7 7.7 0 0 0 4.163.966h31.978a2.273 2.273 0 0 1 1.128.185q.272.186.272 1v2.9a48.929 48.929 0 0 1-.272 5.165q-.274 2.564-.739 5.016h-42.632c-.023 0-.048.005-.071.007-.044 0-.087-.007-.132-.007a4.387 4.387 0 1 0 0 8.769c.044 0 .088-.005.132-.006.023 0 .048.006.071.006h60.436a2.108 2.108 0 0 0 .246-.021l.065-.006.044-.007a4.368 4.368 0 0 0-.183-8.715z" class="cls-1" transform="translate(-1378.801 -596.769)"/>
    <path id="패스_8560" d="M1487.281 742.307c-.087 0-.171.009-.256.013h-32.264a1.663 1.663 0 0 1-1.091-.235 1.7 1.7 0 0 1-.234-1.1v-5.659a.428.428 0 0 0-.035-.164 6.3 6.3 0 0 0-12.573.093.445.445 0 0 0-.015.071v10.452q0 3.772 1.6 5.344t5.416 1.572h39.455a5.193 5.193 0 1 0 0-10.386z" class="cls-5" transform="translate(-1268.755 -681.216)"/>
    <path id="패스_8561" d="M1691.194 730.8a4.438 4.438 0 0 0-4.471-4.432c-.175 0-.332 0-.517-.008h-36.016a.479.479 0 0 1-.544-.539v-2.544a.479.479 0 0 1 .544-.54h32.757q3.812 0 5.252-1.388t1.439-5.165v-7.633q0-3.776-1.439-5.165t-5.253-1.386h-40.51c-.015 0-.033 0-.049.005-.034 0-.066-.005-.1-.005a4.314 4.314 0 0 0 0 8.627h.052c.031 0 .066.01.1.01h34.986a.48.48 0 0 1 .545.54v2.39a.48.48 0 0 1-.545.54h-32.679q-3.813 0-5.291 1.349t-1.478 5.127v8.172q0 3.776 1.478 5.165t5.291 1.387h41.979a4.562 4.562 0 0 0 .806-.11 4.458 4.458 0 0 0 3.665-4.393z" class="cls-5" transform="translate(-1394.584 -663.827)"/>
    <rect id="사각형_1624" width="42.173" height="9.662" class="cls-1" rx="4.831" transform="translate(161.775 8.121)"/>
</svg>
