<svg xmlns="http://www.w3.org/2000/svg" xmlns:xlink="http://www.w3.org/1999/xlink" width="1280" height="720" viewBox="0 0 1280 720">
    <defs>
        <clipPath id="clip-path">
            <path id="SVGID" d="M0 0H1280V720H0z" class="cls-1" transform="translate(0 .025)"/>
        </clipPath>
        <clipPath id="clip-path-2">
            <path id="SVGID-2" d="M324 626.141l-15.471 7.364a46.691 46.691 0 0 1-62.229-22.094l-7.947-16.692a55.257 55.257 0 0 1 26.151-73.638 55.258 55.258 0 0 1 73.642 26.148l7.944 16.692a46.692 46.692 0 0 1-22.09 62.22z" class="cls-1"/>
        </clipPath>
        <clipPath id="clip-path-3">
            <path id="SVGID-3" d="M304.688 579.3c.718-1.568 14.1-4.712 14.892-3.807 1.519 1.732-.163 15.019-2.594 16.177s-13.319-10.14-12.298-12.37z" class="cls-1"/>
        </clipPath>
        <clipPath id="clip-path-4">
            <path id="SVGID-4" d="M867.279 597.228l9.621-.566a26.261 26.261 0 0 0 24.674-27.757l-1.3-22.2c-1.008-17.135-15.6-28.239-32.734-27.232-17.135 1.008-30.325 13.745-29.317 30.88l1.3 22.2a26.259 26.259 0 0 0 27.754 24.675z" class="cls-1"/>
        </clipPath>
        <linearGradient id="linear-gradient" x1="-96.157" x2="-95.541" y1="-87.484" y2="-87.747" gradientUnits="objectBoundingBox">
            <stop offset="0" stop-color="#01b8fe"/>
            <stop offset=".325" stop-color="#02b5fb"/>
            <stop offset=".528" stop-color="#06adf2"/>
            <stop offset=".697" stop-color="#0ca0e4"/>
            <stop offset=".848" stop-color="#168dcf"/>
            <stop offset=".985" stop-color="#2275b5"/>
            <stop offset="1" stop-color="#2472b2"/>
        </linearGradient>
        <linearGradient id="linear-gradient-2" x1="-106.818" x2="-106.253" y1="-89.46" y2="-89.725" xlink:href="#linear-gradient"/>
        <style>
            .cls-1,.cls-45,.cls-48{fill:none}.cls-3{fill:#fff}.cls-4{fill:#d8f2ff}.cls-6{fill:#a1dd43}.cls-8{fill:#4c4847}.cls-9{fill:#a86427}.cls-10{fill:#ce8645}.cls-11{fill:#e2452b}.cls-12{fill:#f7563c}.cls-15{fill:#54b71a}.cls-17{fill:#00aaed}.cls-19{fill:#fbe6b9}.cls-20{fill:#3d4459}.cls-21{fill:#f5a200}.cls-23{fill:#2c303a}.cls-25{fill:#dd335c}.cls-27{fill:#ed9200}.cls-28{fill:#ffab15}.cls-29{fill:#c98141}.cls-45,.cls-48{stroke:#54b71a;stroke-linecap:round;stroke-linejoin:round}.cls-38{fill:#fffdee}.cls-40{fill:#01b8fe}.cls-45{stroke-width:1.938px}.cls-46{fill:#feffee}.cls-47{fill:#ffe757}.cls-48{stroke-width:1.905px}
        </style>
    </defs>
    <g id="그룹_4438" transform="translate(0 -.025)">
        <g id="그룹_4437" clip-path="url(#clip-path)">
            <g id="그룹_4423">
                <path id="사각형_1668" d="M0 0H1280V720H0z" class="cls-3" transform="translate(0 .025)"/>
                <g id="그룹_2230">
                    <g id="구름_앞">
                        <path id="패스_4544" d="M1364.927 332.115s-25.855-30.747-67.782-16.072-35.237 58.329-35.237 58.329-53.328.675-66.085 44.391c-11.025 37.78 14.675 60.1 14.675 60.1s-12.717 6.22-10.481 20.265c0 0-33.287-12.019-58.264 7.557-22.974 18.007-19.3 39.262-19.3 39.262s-30.047-6.289-45.42 18.867 0 51.71 0 51.71L1144.454 720l251.114-19.576 4.3-170.546z" class="cls-4"/>
                        <path id="패스_4546" d="M480.918 630.031s25.633-30.717 29.332-48.508c5.964-28.687-18.4-58.985-47.608-57.137-25.648 1.622-40.833 24.886-40.833 24.886s-9.3-18.8-30.611-14.161a31.412 31.412 0 0 0-18.973-25.624 37.888 37.888 0 0 0-33.2 1.281c-4.256-8.271-28-29.594-53.44-9.1-21.308 17.165-6.8 47.3 1.391 50.2 0 0-19.667 8.749-17.621 28.388 0 0-13.129-9.043-23.838 6.681 0 0-6.4-15.716-33.293-12.834s-29.175 19.747-29.175 19.747-9.121-24.793-37.565-29.01-38.036 26.88-38.036 26.88-3.535-18.8-24.533-8.153c0 0 5.985-8.051 5.649-17.885-.486-14.332-13.535-35.345-38.813-34.773-30.347.689-46.905 32.054-33.791 60.657l16.427 129.048z" class="cls-4"/>
                        <path id="패스_4547" d="M-38.388 336.217s38.555-11.571 61.3 9.093 17.248 52.678 17.248 52.678 12.244-4.417 18.527 4.054c6.778 9.138-.666 18.2-.666 18.2s15-6.858 28.221 9.877c11.636 14.74-2.911 34.743-2.911 34.743s16.361-17.093 47.826-18.12 56.772 21.635 62.96 45.731c0 0 26.455-11.122 28.035 23.474 19.82 6.192 38.756 18.349 38.756 18.349s18.944-36.4 58.7-29.725c41.263 6.932 40.08 36.849 40.08 36.849s17.662-11.34 30.1 9.546-4.665 33.75-4.665 33.75l-10.9 46.5-384.456 67.79z" class="cls-4"/>
                        <path id="패스_4545" d="M590.831 658.929s-28.631-84.218 34.186-90.469c34.4-3.422 48.031 22.428 48.031 22.428s2.354-18.053 24.054-20.981c23.29-3.142 31.856 11.2 31.856 11.2s5.978-8.888 19.968-3.492c0 0-2.938-19.91 15.164-26.959 0 0-16.4-30.289 5.959-45.852 23.353-16.249 44.013 7.445 44.013 7.445s15.562-8.675 30.694 1c14.689 9.39 10.779 25.216 10.779 25.216s18.54-5.883 29.029 11.463c0 0-.9-28.653 33-26.2s26.837 37.55 26.837 37.55 12.943-5.914 27.515 4.584l-7.439 134.17z" class="cls-4"/>
                    </g>
                </g>
                <g id="그룹_3929">
                    <path id="패스_4548" d="M67.377 252.479c-4.856 6.888 1.5 15.2 6.725 15 .424 4.1 5.174 5.7 6.038 5.447 0 0-8.1 1.478-7.264 8.817-5.043.541-9.042 10.476-1.729 16.642 7.686 6.478 17.32-.028 16.512-5.669 0 0 4.132.468 8.947-4.859a10.391 10.391 0 0 0 2.749-8.948 18.8 18.8 0 0 0 8.947-4.859c3.2-3.146 3.493-7.565 3.454-10.121 3.955-.911 7.672-6.244 7.78-10.339.228-8.678-11.932-16.34-19.575-5.825a13.9 13.9 0 0 0-6.611 4.243c-2.557 3.209-2.392 5.69-2.392 5.69s-1.206-4.937-8.959-4.473c-2.238-4.998-11.278-5.489-14.622-.746z" class="cls-4"/>
                    <path id="패스_8301" d="M1217.879 224.071c7.7-5.975 3.484-17.31-2.364-18.863.917-4.675-3.792-8.058-4.835-8.065 0 0 9.452 1.1 11.014-7.3 5.76 1.107 13.539-8.527 7.539-17.815-6.308-9.762-19.162-5.825-20.176.687 0 0-4.411-1.914-11.536 2.348a12.019 12.019 0 0 0-6.065 8.965 21.749 21.749 0 0 0-11.536 2.349c-4.6 2.4-6.419 7.185-7.24 10.024-4.683-.332-10.6 4.312-12.1 8.8-3.186 9.519 7.67 22.1 19.677 13.059a16.058 16.058 0 0 0 8.744-2.456c3.913-2.683 4.566-5.483 4.566-5.483s-.334 5.869 8.4 7.975c.785 6.29 10.616 9.889 15.912 5.775z" class="cls-4"/>
                    <path id="패스_4549" d="M1137.307 460.393c2.579 3.026 6.96 1.559 7.527-.976 1.758 1.057 4.855-.909 5.308-2.161-.079 1.507 1.6 4.013 2.98 3.63-3.084-.972-4.785 2.756-4.072 4.018-3.279.781-4.145 5.7-1.663 8.265 3.6 3.725 9.164.968 9.646-2.213 1.644.854 4.1-1.257 3.1-2.6.254.921 2.014 3.005 3.271 3.1a7.117 7.117 0 0 0 11.679 2.4c5.067-5.188.963-11.866-3.2-12.587 0 0 1.343-3.28-2.271-7.092-3.216-3.393-6.055-3.2-6.055-3.2s.875-3.086-2.27-7.093a11.079 11.079 0 0 0-6.8-3.864c-.115-2.966-3.441-6.365-6.369-7-6.206-1.349-12.972 6.272-6.46 13.2a2.3 2.3 0 0 0 1.685 2.509c-1.75-.6-3.2 1.552-2.85 3.353a5.041 5.041 0 0 0-3.182 8.307z" class="cls-4"/>
                </g>
                <path id="패스_2774" fill="#b3ea5c" d="M-.96 719.99h1280v-83.271S1099.6 565.177 631.064 564-.96 636.718-.96 636.718z" transform="translate(.96)"/>
                <g id="그룹_3884">
                    <rect id="사각형_1520" width="43.336" height="9.005" class="cls-6" rx="4.502" transform="translate(356.197 660.965)"/>
                    <g id="그룹_3883">
                        <path id="패스_8259" fill="#ff4d8d" d="M386.872 635.392c7.795-.124 6.773 7.832 6.889 16.219s-1.318 13.167-10.3 13.413c-11.081.3-21.272 1.625-21.512-6.262-.178-5.817 2.99-6.4 9.506-6.633s9.447.2 9.517-1.211c.347-7.086-2.685-15.386 5.9-15.526z"/>
                        <circle id="타원_470" cx="6.382" cy="6.382" r="6.382" class="cls-3" transform="translate(375.076 630.273)"/>
                        <circle id="타원_471" cx="6.382" cy="6.382" r="6.382" class="cls-3" transform="translate(387.837 630.011)"/>
                        <circle id="타원_472" cx="3.666" cy="3.666" r="3.666" class="cls-8" transform="translate(379.66 631.635)"/>
                        <circle id="타원_473" cx="3.666" cy="3.666" r="3.666" class="cls-8" transform="translate(391.961 630.949)"/>
                    </g>
                </g>
                <g id="그룹_3913">
                    <g id="그룹_3854">
                        <path id="사각형_1508" d="M142.372 622.284h45.341a6.353 6.353 0 0 1 6.353 6.353 6.353 6.353 0 0 1-6.353 6.353h-45.341a6.353 6.353 0 0 1-6.353-6.353 6.353 6.353 0 0 1 6.353-6.353z" class="cls-6"/>
                        <g id="그룹_3853">
                            <path id="패스_8231" d="M144.5 628.808h-2.146a1.648 1.648 0 0 1-1.648-1.648v-45.877h5.442v45.877a1.648 1.648 0 0 1-1.648 1.648z" class="cls-9"/>
                            <path id="패스_8232" d="M160.459 628.8h-2.145a1.647 1.647 0 0 1-1.647-1.648v-14.307h5.442v14.314a1.648 1.648 0 0 1-1.65 1.646z" class="cls-10"/>
                            <path id="패스_8233" d="M186.944 628.8H184.8a1.648 1.648 0 0 1-1.648-1.648v-14.307h5.442v14.314a1.648 1.648 0 0 1-1.65 1.641z" class="cls-10"/>
                            <path id="패스_8234" d="M170.981 628.808h-2.147a1.648 1.648 0 0 1-1.648-1.648v-45.877h5.442v45.877a1.647 1.647 0 0 1-1.647 1.648z" class="cls-9"/>
                            <rect id="사각형_1509" width="39" height="28.479" class="cls-11" rx="13.171" transform="translate(135.442 569.567)"/>
                            <rect id="사각형_1510" width="39" height="28.479" class="cls-12" rx="13.171" transform="translate(141.065 569.567)"/>
                            <path id="사각형_1511" d="M139.523 608.492h34.465a3.538 3.538 0 0 1 3.537 3.537 3.537 3.537 0 0 1-3.537 3.537h-34.465a3.537 3.537 0 0 1-3.537-3.537 3.538 3.538 0 0 1 3.537-3.537z" class="cls-11"/>
                            <path id="사각형_1512" d="M154.216 608.492h34.465a3.538 3.538 0 0 1 3.537 3.537 3.537 3.537 0 0 1-3.537 3.537h-34.465a3.537 3.537 0 0 1-3.537-3.537 3.538 3.538 0 0 1 3.537-3.537z" class="cls-12"/>
                        </g>
                    </g>
                    <g id="그룹_3855">
                        <path id="패스_8235" fill="#5f7eff" d="M137.989 554.806c-.828-3.7.6-5.416 4.205-6.271s8.454-2 10.712-2.495 6.96-1.844 7.614 1.684c.573 3.091.346 4.268-6.315 5.628s-7.727 1.656-6.676 5.857 5.463 2.124 8.576 1.286 6.907-2.064 7.661 1.344-.811 4.66-4.161 5.43-9.654 2.211-12.061 2.774-5.992-.392-6.805-3.28-2.165-9.337-2.75-11.957z"/>
                        <circle id="타원_429" cx="4.49" cy="4.49" r="4.49" class="cls-3" transform="translate(147.374 540.707)"/>
                        <circle id="타원_430" cx="4.49" cy="4.49" r="4.49" class="cls-3" transform="translate(138.609 542.663)"/>
                        <circle id="타원_431" cx="2.579" cy="2.579" r="2.579" class="cls-8" transform="translate(150.129 542.343)"/>
                        <circle id="타원_432" cx="2.579" cy="2.579" r="2.579" class="cls-8" transform="translate(141.834 544.08)"/>
                    </g>
                    <g id="그룹_3856">
                        <path id="패스_8236" fill="#fc0" d="M177.588 584.074c-4.723-1.508-11.976-4.214-13.467 2.081-1.8 7.608 11.368 7.475 12.332 9.546s-4.678 10.736 2.08 12.841 7.793-6.971 9.613-15.51c1.106-5.193-4.153-6.913-10.558-8.958z"/>
                        <circle id="타원_433" cx="4.942" cy="4.942" r="4.942" class="cls-3" transform="translate(168.581 580.673)"/>
                        <circle id="타원_434" cx="4.942" cy="4.942" r="4.942" class="cls-3" transform="translate(178.111 583.298)"/>
                        <circle id="타원_435" cx="2.839" cy="2.839" r="2.839" class="cls-8" transform="translate(172.154 582.96)"/>
                        <circle id="타원_436" cx="2.839" cy="2.839" r="2.839" class="cls-8" transform="translate(181.626 585.272)"/>
                    </g>
                    <path id="패스_8237" d="M147.993 629.871a3.76 3.76 0 0 0-3.516-2.008 4.669 4.669 0 0 0-.488.025 4.26 4.26 0 0 0-8.1-.538 6.185 6.185 0 0 0-3.036-.77c-2.509 0-4.611 1.4-5.155 3.291z" class="cls-15"/>
                </g>
                <g id="그룹_3926">
                    <g id="그룹_3833">
                        <rect id="사각형_1495" width="128.135" height="20.243" class="cls-6" rx="10.121" transform="translate(194.066 669.748)"/>
                        <g id="그룹_3832">
                            <path id="패스_8202" d="M228.929 679.74h-3.582a2.544 2.544 0 0 1-2.547-2.54v-73.175h8.67V677.2a2.544 2.544 0 0 1-2.544 2.544z" class="cls-9"/>
                            <path id="패스_8203" d="M254.36 679.739h-3.586a2.543 2.543 0 0 1-2.543-2.544v-22.886h8.67V677.2a2.544 2.544 0 0 1-2.541 2.539z" class="cls-10"/>
                            <path id="패스_8204" d="M296.553 679.739h-3.583a2.544 2.544 0 0 1-2.544-2.544v-22.886h8.67V677.2a2.543 2.543 0 0 1-2.543 2.539z" class="cls-10"/>
                            <path id="패스_8205" d="M271.122 679.74h-3.583a2.545 2.545 0 0 1-2.544-2.544v-73.171h8.67V677.2a2.545 2.545 0 0 1-2.543 2.54z" class="cls-9"/>
                            <rect id="사각형_1496" width="62.133" height="45.372" class="cls-11" rx="13.171" transform="translate(214.422 585.36)"/>
                            <rect id="사각형_1497" width="62.133" height="45.372" class="cls-12" rx="13.171" transform="translate(223.381 585.36)"/>
                            <rect id="사각형_1498" width="66.179" height="11.271" class="cls-11" rx="5.635" transform="translate(215.289 647.374)"/>
                            <rect id="사각형_1499" width="66.179" height="11.271" fill="#ed5937" rx="5.635" transform="translate(238.697 647.374)"/>
                        </g>
                    </g>
                    <g id="정_측면">
                        <g id="그룹_3901">
                            <g id="그룹_3900">
                                <path id="패스_8280" d="M355.032 543.822c1.18-4.085 1.793-9.477.219-9.881-1.38-.355-2.684 2.407-2.684 2.407s.544-4.119-1.03-4.524c-1.852-.477-2.754 3.68-2.754 3.68s-.478-3.288-1.809-3.523-2.787 5.425-3.34 8.563c-1.096 6.213 9.816 8.756 11.398 3.278z" class="cls-17"/>
                                <path id="패스_8281" d="M344.053 543.362s-4.021-5.743-2.9-6.917 5.613 1.9 5.613 1.9z" class="cls-17"/>
                            </g>
                            <path id="패스_8282" d="M340.882 570.7a5.614 5.614 0 0 1-4.138-9.4 32.056 32.056 0 0 0 5.918-10.326 33.285 33.285 0 0 0 1.315-8.637 5.618 5.618 0 0 1 5.613-5.587h.021a5.609 5.609 0 0 1 5.592 5.619 43.7 43.7 0 0 1-1.865 12.076 43.208 43.208 0 0 1-8.328 14.451 5.6 5.6 0 0 1-4.128 1.804z" class="cls-17"/>
                        </g>
                        <g id="그룹_3902">
                            <path id="패스_8283" fill="#333a47" d="M340.2 634.622l14.814-16.49c-.654-.873-1.58-1.443-3.43-.993l-11.505-22.8-25.846 28.761 23.88 11.918a1.753 1.753 0 0 0 2.087-.396z"/>
                            <path id="패스_8284" d="M351.526 622.014a1.9 1.9 0 0 0-1.567-.88l-.235.261a1.607 1.607 0 0 1 1.576.871z" class="cls-19"/>
                            <path id="패스_8285" d="M353.4 619.927a1.9 1.9 0 0 0-1.567-.881l-.234.261a1.607 1.607 0 0 1 1.576.871z" class="cls-19"/>
                        </g>
                        <g id="그룹_3903">
                            <path id="패스_8286" d="M274.885 648.234l22.307.185c.221-1.067.035-2.139-1.527-3.228l9.466-23.725-41.737-.26 9.862 25.894a1.756 1.756 0 0 0 1.629 1.134z" class="cls-20"/>
                            <path id="패스_8287" d="M291.97 648.376a1.9 1.9 0 0 0-.377-1.757h-.351a1.608 1.608 0 0 1 .391 1.757z" class="cls-19"/>
                            <path id="패스_8288" d="M294.778 648.4a1.9 1.9 0 0 0-.378-1.757h-.351a1.606 1.606 0 0 1 .391 1.757z" class="cls-19"/>
                        </g>
                        <g id="그룹_3904">
                            <path id="패스_8289" d="M283.977 521.078s2.011-13.9 8.123-14.649 5.773 16.661 5.773 16.661z" class="cls-21"/>
                        </g>
                        <path id="패스_8290" d="M324 626.141l-15.471 7.364a46.691 46.691 0 0 1-62.225-22.094l-7.947-16.692a55.257 55.257 0 0 1 26.151-73.638 55.258 55.258 0 0 1 73.642 26.148l7.944 16.692A46.692 46.692 0 0 1 324 626.141z" class="cls-17"/>
                        <g id="그룹_3906">
                            <g id="그룹_4432">
                                <g id="그룹_4431" clip-path="url(#clip-path-2)">
                                    <g id="그룹_3905">
                                        <path id="패스_8291" d="M250.9 628.4s7.163-12.734 33.09-18.469c23.847-5.273 35.689-3.387 52.872-15.45 16.052-11.269 20.18-25.539 20.18-25.539l19.6 41.183-109.61 52.168z" class="cls-20"/>
                                    </g>
                                </g>
                            </g>
                        </g>
                        <g id="그룹_3907">
                            <ellipse id="타원_480" cx="23.894" cy="24.091" class="cls-3" rx="23.894" ry="24.091" transform="rotate(-25.45 1331.82 -321.564)"/>
                            <ellipse id="타원_481" cx="14.055" cy="14.171" class="cls-23" rx="14.055" ry="14.171" transform="rotate(-25.45 1348.969 -367.46)"/>
                            <ellipse id="타원_482" cx="5.519" cy="5.263" class="cls-3" rx="5.519" ry="5.263" transform="rotate(-25.45 1353.02 -367.254)"/>
                        </g>
                        <g id="그룹_3909">
                            <g id="그룹_3908">
                                <path id="패스_8292" d="M233 613.7c-3.253 2.736-6.764 6.874-5.682 8.086.948 1.064 3.57-.5 3.57-.5s-2.745 3.12-1.663 4.332c1.273 1.426 4.336-1.524 4.336-1.524s-1.434 3-.458 3.934 5.335-2.956 7.541-5.255c4.368-4.558-3.283-12.743-7.644-9.073z" class="cls-17"/>
                                <path id="패스_8293" d="M241.864 620.192s.144 7.009-1.443 7.36-3.6-4.707-3.6-4.707z" class="cls-17"/>
                            </g>
                            <path id="패스_8294" d="M236.694 623.56a5.613 5.613 0 0 1-4.652-8.742 43.729 43.729 0 0 1 8.272-8.993 43.258 43.258 0 0 1 14.963-7.37 5.614 5.614 0 0 1 2.638 10.913 32.088 32.088 0 0 0-10.664 5.284 33.3 33.3 0 0 0-5.9 6.443 5.619 5.619 0 0 1-4.657 2.465z" class="cls-17"/>
                        </g>
                        <g id="그룹_3910">
                            <path id="패스_8295" d="M247.415 534.918s-12.054-7.2-16.492-2.933 9.29 14.987 9.29 14.987c5.148 3.073 12.351-8.978 7.202-12.054z" class="cls-21"/>
                        </g>
                        <g id="이빨_있는">
                            <path id="패스_8296" fill="#bc2f24" d="M304.688 579.3c.718-1.568 14.1-4.712 14.892-3.807 1.519 1.732-.163 15.019-2.594 16.177s-13.319-10.14-12.298-12.37z"/>
                            <g id="그룹_3912">
                                <path id="SVGID-4-2" d="M304.688 579.3c.718-1.568 14.1-4.712 14.892-3.807 1.519 1.732-.163 15.019-2.594 16.177s-13.319-10.14-12.298-12.37z" class="cls-25"/>
                                <g id="그룹_4434">
                                    <g id="그룹_4433" clip-path="url(#clip-path-3)">
                                        <g id="그룹_3911">
                                            <path id="패스_8297" d="M318.353 579.786c-2.325.308-2.94-4.342-2.94-4.342l4.65-.615s.615 4.65-1.71 4.957z" class="cls-3"/>
                                        </g>
                                    </g>
                                </g>
                            </g>
                        </g>
                    </g>
                </g>
                <g id="그룹_3928">
                    <g id="그룹_3916">
                        <g id="그룹_3818">
                            <path id="패스_8169" d="M1024.276 606.374H871.157a5.92 5.92 0 0 1-6.125-5.692 5.921 5.921 0 0 1 6.125-5.693h153.119a5.921 5.921 0 0 1 6.125 5.693 5.92 5.92 0 0 1-6.125 5.692z" class="cls-6"/>
                            <g id="그룹_3817">
                                <g id="그룹_3813">
                                    <g id="그룹_3809">
                                        <path id="패스_8170" d="M981.673 502.768s3.634-11.265 6.9-11.265 6.177 11.265 6.177 11.265z" class="cls-27"/>
                                        <path id="패스_8171" d="M986.131 491.386l2.594.128-1.076 1.769-1.518-.38z" class="cls-27"/>
                                        <path id="패스_8172" d="M979.4 502.648s3.634-11.265 6.9-11.265 6.178 11.265 6.178 11.265z" class="cls-28"/>
                                    </g>
                                    <g id="그룹_3810">
                                        <path id="패스_8173" d="M928.237 502.768s3.634-11.265 6.9-11.265 6.177 11.265 6.177 11.265z" class="cls-27"/>
                                        <path id="패스_8174" d="M932.694 491.386l2.594.128-1.076 1.769-1.518-.38z" class="cls-27"/>
                                        <path id="패스_8175" d="M925.96 502.648s3.634-11.265 6.9-11.265 6.178 11.265 6.178 11.265z" class="cls-28"/>
                                    </g>
                                    <g id="그룹_3811">
                                        <rect id="사각형_1471" width="6.695" height="48.159" class="cls-9" rx="3.258" transform="translate(901.515 550.069)"/>
                                        <rect id="사각형_1472" width="5.615" height="48.159" class="cls-29" rx="2.807" transform="translate(899.787 550.069)"/>
                                    </g>
                                    <g id="그룹_3812">
                                        <rect id="사각형_1473" width="6.695" height="48.159" class="cls-9" rx="3.258" transform="translate(1016.62 550.069)"/>
                                        <rect id="사각형_1474" width="5.615" height="48.159" class="cls-29" rx="2.807" transform="translate(1014.892 550.069)"/>
                                    </g>
                                    <rect id="사각형_1475" width="121.368" height="83.36" class="cls-9" rx="10.699" transform="translate(901.946 500.831)"/>
                                    <rect id="사각형_1476" width="121.368" height="83.36" class="cls-29" rx="10.699" transform="translate(899.787 500.831)"/>
                                    <rect id="사각형_1477" width="112.73" height="74.721" fill="#474f4f" rx="6.502" transform="translate(904.106 505.15)"/>
                                    <path id="패스_8176" d="M1018.156 584.191h-117.4a3.131 3.131 0 0 1-3.131-3.131 3.132 3.132 0 0 1 3.131-3.131h120.4v3.264a3 3 0 0 1-3 2.998z" class="cls-9"/>
                                    <rect id="사각형_1478" width="123.528" height="6.263" fill="#d88d4a" rx="3.131" transform="translate(893.308 577.928)"/>
                                    <rect id="사각형_1479" width="15.259" height="5.183" class="cls-29" rx="2.591" transform="translate(1010.141 594.125)"/>
                                    <rect id="사각형_1480" width="10.422" height="5.183" class="cls-9" rx="2.591" transform="translate(1016.564 594.125)"/>
                                    <rect id="사각형_1481" width="15.259" height="5.183" class="cls-29" rx="2.591" transform="translate(895.684 594.125)"/>
                                    <rect id="사각형_1482" width="10.422" height="5.183" class="cls-9" rx="2.591" transform="translate(902.106 594.125)"/>
                                </g>
                                <g id="그룹_3814">
                                    <path id="사각형_1483" fill="#efab00" d="M992 575.768h5.83a1.081 1.081 0 0 1 1.08 1.08 1.08 1.08 0 0 1-1.08 1.08H992a1.08 1.08 0 0 1-1.08-1.08 1.081 1.081 0 0 1 1.08-1.08z"/>
                                    <path id="사각형_1484" fill="#f2cc2f" d="M990.705 575.768h5.83a1.081 1.081 0 0 1 1.08 1.08 1.08 1.08 0 0 1-1.08 1.08h-5.83a1.08 1.08 0 0 1-1.08-1.08 1.081 1.081 0 0 1 1.08-1.08z"/>
                                </g>
                                <g id="그룹_3815">
                                    <path id="사각형_1485" fill="#e23f33" d="M981.419 575.768h5.83a1.081 1.081 0 0 1 1.08 1.08 1.08 1.08 0 0 1-1.08 1.08h-5.83a1.08 1.08 0 0 1-1.08-1.08 1.081 1.081 0 0 1 1.08-1.08z"/>
                                    <path id="사각형_1486" fill="#ff5f4a" d="M980.123 575.768h5.83a1.081 1.081 0 0 1 1.08 1.08 1.08 1.08 0 0 1-1.08 1.08h-5.83a1.08 1.08 0 0 1-1.08-1.08 1.081 1.081 0 0 1 1.08-1.08z"/>
                                </g>
                                <g id="그룹_3816">
                                    <path id="사각형_1487" fill="#ccc5ba" d="M919.576 575.768h5.83a1.081 1.081 0 0 1 1.08 1.08 1.08 1.08 0 0 1-1.08 1.08h-5.83a1.08 1.08 0 0 1-1.08-1.08 1.081 1.081 0 0 1 1.08-1.08z"/>
                                    <path id="사각형_1488" d="M918.28 575.768h5.83a1.081 1.081 0 0 1 1.08 1.08 1.08 1.08 0 0 1-1.08 1.08h-5.83a1.08 1.08 0 0 1-1.08-1.08 1.081 1.081 0 0 1 1.08-1.08z" class="cls-3"/>
                                </g>
                                <path id="패스_8177" d="M930.319 518.813l-9.683.927a2.582 2.582 0 0 0-2.324 2.816l.269 2.814a2.582 2.582 0 0 0 2.816 2.324l8.146-.78a1.546 1.546 0 0 1 1.685 1.391l.821 8.576a2.582 2.582 0 0 0 2.816 2.324l2.814-.27a2.581 2.581 0 0 0 2.321-2.816L939.034 526l-.31-3.238a4.737 4.737 0 0 0-5.167-4.264z" class="cls-3"/>
                                <path id="패스_8178" d="M956.093 561.859l9.668 1.081a2.582 2.582 0 0 0 2.853-2.279l.314-2.809a2.582 2.582 0 0 0-2.279-2.852l-8.132-.909a1.544 1.544 0 0 1-1.363-1.707l.957-8.561a2.582 2.582 0 0 0-2.279-2.853l-2.809-.314a2.581 2.581 0 0 0-2.853 2.277l-1.129 10.1-.361 3.233a4.737 4.737 0 0 0 4.181 5.234z" class="cls-3"/>
                                <path id="패스_8179" d="M998.654 532.445l.241-1.426a3.224 3.224 0 0 0-2.642-3.716l-7.472-1.262-4.541-.767a3.722 3.722 0 0 0-4.289 3.049l-.767 4.541-.787 4.66-.767 4.541a3.722 3.722 0 0 0 3.049 4.289l4.542.767 7.473 1.262a3.223 3.223 0 0 0 3.716-2.642l.241-1.426a3.224 3.224 0 0 0-2.642-3.716l-6.659-1.124a1.274 1.274 0 0 1-1.045-1.467l.506-3a1.274 1.274 0 0 1 1.468-1.045l6.659 1.124a3.223 3.223 0 0 0 3.716-2.642z" class="cls-3"/>
                            </g>
                        </g>
                        <g id="그룹_3831">
                            <g id="그룹_3830">
                                <path id="패스_8199" fill="none" stroke="#54b71a" stroke-linecap="round" stroke-linejoin="round" stroke-width="2.048px" d="M1024.656 587.152a45.394 45.394 0 0 0-2.643 11.252"/>
                                <path id="패스_8200" d="M1022.607 595.407s-.384-1.96 1.176-2.674a3.89 3.89 0 0 1 3.021-.037 3.948 3.948 0 0 1-1.571 2.6 4.309 4.309 0 0 1-2.626.111z" class="cls-15"/>
                                <rect id="사각형_1490" width="10.622" height="2.854" class="cls-38" rx="1.426" transform="rotate(-78.342 873.627 -332.474)"/>
                                <rect id="사각형_1491" width="2.855" height="10.626" class="cls-38" rx="1.427" transform="rotate(-31.894 1528.343 -1496.018)"/>
                                <rect id="사각형_1492" width="2.855" height="10.626" class="cls-38" rx="1.427" transform="rotate(-78.362 869.082 -332.7)"/>
                                <rect id="사각형_1493" width="10.626" height="2.855" class="cls-38" rx="1.427" transform="rotate(-33.362 1489.47 -1408.275)"/>
                                <circle id="타원_425" cx="2.062" cy="2.062" r="2.062" class="cls-27" transform="translate(1023.133 583.258)"/>
                            </g>
                            <path id="패스_8201" fill="#4ea813" d="M1036.475 599.928a3.37 3.37 0 0 0-3.151-1.8 4.246 4.246 0 0 0-.437.023 3.817 3.817 0 0 0-7.261-.482 5.548 5.548 0 0 0-2.72-.69 4.644 4.644 0 0 0-4.619 2.949z"/>
                        </g>
                    </g>
                    <g id="그룹_3899">
                        <path id="사각형_1521" d="M843.793 598.7h65.115a5.646 5.646 0 0 1 5.646 5.646 5.646 5.646 0 0 1-5.646 5.646h-65.115a5.646 5.646 0 0 1-5.646-5.646 5.646 5.646 0 0 1 5.646-5.646z" class="cls-6"/>
                        <g id="기본">
                            <g id="그룹_3890">
                                <path id="패스_8261" d="M902.26 567.819a17.121 17.121 0 0 1-3.518-.369 3.157 3.157 0 0 1 1.344-6.169c1.749.37 3.982.239 4.508-.266a6.239 6.239 0 0 0 .961-3.363 3.158 3.158 0 0 1 3.156-3.123h.035a3.157 3.157 0 0 1 3.126 3.188c-.009.856-.192 5.255-2.908 7.855a9.587 9.587 0 0 1-6.704 2.247z" class="cls-40"/>
                                <g id="그룹_3889">
                                    <path id="패스_8262" d="M905.888 556.212a1.921 1.921 0 0 1 2-1.628s4.9.211 4.991 1.522a5.626 5.626 0 0 1-1.586 3.476c-2.093 1.399-6.093.118-5.405-3.37z" class="cls-40"/>
                                    <path id="패스_8263" d="M906.966 555.049c-.034-1.885.318-3.937 1.008-4 .8-.068 1.265 1.585 1.265 1.585a9.248 9.248 0 0 1 .228 2.857 4.249 4.249 0 0 1-2.501-.442z" class="cls-40"/>
                                    <path id="패스_8264" d="M905.8 558.311s-1.776-3.834-.921-4.157 2.78 1.2 2.78 1.2z" class="cls-40"/>
                                    <path id="패스_8265" fill="url(#linear-gradient)" d="M910.594 554.145c-.962-.33-1.435.36-1.56 1.047s-.07 1.546.705 1.633a1.279 1.279 0 0 0 1.21-.818c.264-.484.608-1.532-.355-1.862z"/>
                                    <path id="패스_8266" fill="url(#linear-gradient-2)" d="M912.609 555.35a1.1 1.1 0 0 0-1.556.021 1.148 1.148 0 0 0-.17.228c-.335.612-.524 1.628.1 2.031s1.23-.084 1.633-.7a1.22 1.22 0 0 0-.007-1.58z"/>
                                </g>
                            </g>
                            <g id="그룹_3892">
                                <g id="그룹_3891">
                                    <path id="패스_8267" d="M833.092 572.72c-2.387-.143-5.421.186-5.449 1.1-.025.8 1.652 1.176 1.652 1.176s-2.327.21-2.355 1.124c-.033 1.075 2.359 1.057 2.359 1.057s-1.745.668-1.71 1.427 3.321.86 5.111.776c3.545-.167 3.593-6.468.392-6.66z" class="cls-40"/>
                                    <path id="패스_8268" d="M835.548 578.578s-2.2 3.274-3.042 2.923-.138-3.331-.138-3.331z" class="cls-40"/>
                                </g>
                                <path id="패스_8269" d="M833.888 578.995a3.158 3.158 0 0 1-1.174-6.09 10.208 10.208 0 0 0 3.253-2.373 17.219 17.219 0 0 0 3.243-5.4 3.157 3.157 0 1 1 6.016 1.918 23.378 23.378 0 0 1-4.539 7.677 16.269 16.269 0 0 1-5.627 4.04 3.136 3.136 0 0 1-1.172.228z" class="cls-40"/>
                            </g>
                            <g id="그룹_3893">
                                <path id="패스_8270" d="M873.259 602.005h12.235a1.629 1.629 0 0 0-.875-1.808l5.216-13.386h-17.562v14.208a.985.985 0 0 0 .986.986z" class="cls-20"/>
                                <path id="패스_8271" d="M882.557 602.006a1.072 1.072 0 0 0-.221-.987h-.2a.9.9 0 0 1 .228.987z" class="cls-19"/>
                                <path id="패스_8272" d="M884.136 602.006a1.072 1.072 0 0 0-.221-.987h-.2a.9.9 0 0 1 .228.987z" class="cls-19"/>
                            </g>
                            <g id="그룹_3894">
                                <path id="패스_8273" d="M865.242 602.083h-12.5a1.628 1.628 0 0 1 .874-1.808l-.282-13.338H870.9l-4.715 14.463a.988.988 0 0 1-.943.683z" class="cls-20"/>
                                <path id="패스_8274" d="M855.677 602.083a1.072 1.072 0 0 1 .221-.987h.2a.9.9 0 0 0-.228.987z" class="cls-19"/>
                                <path id="패스_8275" d="M854.1 602.083a1.072 1.072 0 0 1 .221-.987h.2a.9.9 0 0 0-.228.987z" class="cls-19"/>
                            </g>
                            <g id="그룹_3895">
                                <path id="패스_8276" fill="#ffb612" d="M862.025 523.636s-1.824-9.894 1.378-10.861c3.492-1.055 7.351 8.107 7.351 8.107z"/>
                            </g>
                            <path id="패스_8277" d="M867.278 597.228l9.621-.566a26.261 26.261 0 0 0 24.674-27.757l-1.3-22.2c-1.008-17.135-15.6-28.239-32.734-27.232-17.135 1.008-30.325 13.745-29.317 30.88l1.3 22.2a26.259 26.259 0 0 0 27.754 24.675z" class="cls-40"/>
                            <g id="그룹_3897">
                                <g id="그룹_4436">
                                    <g id="그룹_4435" clip-path="url(#clip-path-4)">
                                        <g id="그룹_3896">
                                            <path id="패스_8278" d="M907.183 572.34s-6.169-4.018-18.091-.487c-13.171 3.9-16.746 8.417-28.549 8.091-14.335-.4-21.74-8.73-21.74-8.73l1.252 30.313 68.217-2.817z" class="cls-20"/>
                                        </g>
                                    </g>
                                </g>
                            </g>
                            <g id="그룹_3898">
                                <circle id="타원_474" cx="11.365" cy="11.365" r="11.365" class="cls-3" transform="translate(874.272 532.799)"/>
                                <circle id="타원_475" cx="6.685" cy="6.685" r="6.685" class="cls-23" transform="translate(875.533 537.311)"/>
                                <circle id="타원_476" cx="11.365" cy="11.365" r="11.365" class="cls-3" transform="translate(849.008 534.285)"/>
                                <circle id="타원_477" cx="6.685" cy="6.685" r="6.685" class="cls-23" transform="translate(850.154 539.246)"/>
                                <circle id="타원_478" cx="2.171" cy="2.171" r="2.171" class="cls-3" transform="translate(877.113 537.812)"/>
                                <circle id="타원_479" cx="2.171" cy="2.171" r="2.171" class="cls-3" transform="translate(851.538 539.736)"/>
                            </g>
                            <path id="패스_8279" d="M869.086 554.812c.631-.848 9.051-1.022 9.411-.378.689 1.232-2.017 8.98-3.622 9.363s-6.686-7.781-5.789-8.985z" class="cls-25"/>
                        </g>
                    </g>
                </g>
                <g id="그룹_3932">
                    <g id="그룹_3864">
                        <g id="그룹_3861">
                            <path id="선_108" d="M0 0L0 6.774" class="cls-45" transform="translate(113.794 674.217)"/>
                            <ellipse id="타원_443" cx="5.645" cy="3.011" class="cls-46" rx="5.645" ry="3.011" transform="translate(107.961 671.206)"/>
                            <ellipse id="타원_444" cx="2.258" cy="1.129" class="cls-47" rx="2.258" ry="1.129" transform="translate(111.348 672.711)"/>
                        </g>
                        <g id="그룹_3862">
                            <path id="선_109" d="M0 0L0 6.661" class="cls-48" transform="translate(122.729 668.897)"/>
                            <ellipse id="타원_445" cx="5.551" cy="2.96" class="cls-46" rx="5.551" ry="2.96" transform="translate(116.993 665.937)"/>
                            <ellipse id="타원_446" cx="2.22" cy="1.11" class="cls-47" rx="2.22" ry="1.11" transform="translate(120.323 667.417)"/>
                        </g>
                        <g id="그룹_3863">
                            <path id="선_110" d="M0 0L0 6.774" class="cls-45" transform="translate(128.094 677.227)"/>
                            <ellipse id="타원_447" cx="5.645" cy="3.011" class="cls-46" rx="5.645" ry="3.011" transform="translate(122.261 674.216)"/>
                            <ellipse id="타원_448" cx="2.258" cy="1.129" class="cls-47" rx="2.258" ry="1.129" transform="translate(125.648 675.721)"/>
                        </g>
                    </g>
                    <g id="그룹_3930">
                        <g id="그룹_3861-2">
                            <path id="선_108-2" d="M0 0L0 5.315" class="cls-45" transform="translate(481.538 584.519)"/>
                            <ellipse id="타원_443-2" cx="4.429" cy="2.362" class="cls-46" rx="4.429" ry="2.362" transform="translate(476.961 582.157)"/>
                            <ellipse id="타원_444-2" cx="1.772" cy=".886" class="cls-47" rx="1.772" ry=".886" transform="translate(479.619 583.338)"/>
                        </g>
                        <g id="그룹_3862-2">
                            <path id="선_109-2" d="M0 0L0 5.226" class="cls-48" transform="translate(488.549 580.346)"/>
                            <ellipse id="타원_445-2" cx="4.355" cy="2.323" class="cls-46" rx="4.355" ry="2.323" transform="translate(484.048 578.023)"/>
                            <ellipse id="타원_446-2" cx="1.742" cy=".871" class="cls-47" rx="1.742" ry=".871" transform="translate(486.661 579.184)"/>
                        </g>
                        <g id="그룹_3863-2">
                            <path id="선_110-2" d="M0 0L0 5.315" class="cls-45" transform="translate(492.759 586.881)"/>
                            <ellipse id="타원_447-2" cx="4.429" cy="2.362" class="cls-46" rx="4.429" ry="2.362" transform="translate(488.182 584.519)"/>
                            <ellipse id="타원_448-2" cx="1.772" cy=".886" class="cls-47" rx="1.772" ry=".886" transform="translate(490.84 585.7)"/>
                        </g>
                    </g>
                    <g id="그룹_3931">
                        <g id="그룹_3861-3">
                            <path id="선_108-3" d="M0 0L0 6.778" class="cls-45" transform="translate(984.949 685.199)"/>
                            <ellipse id="타원_443-3" cx="5.649" cy="3.013" class="cls-46" rx="5.649" ry="3.013" transform="translate(979.489 682.186)"/>
                            <ellipse id="타원_444-3" cx="2.259" cy="1.13" class="cls-47" rx="2.259" ry="1.13" transform="translate(982.878 683.692)"/>
                        </g>
                        <g id="그룹_3862-3">
                            <path id="선_109-3" d="M0 0L0 6.665" class="cls-48" transform="translate(976.009 679.876)"/>
                            <ellipse id="타원_445-3" cx="5.555" cy="2.962" class="cls-46" rx="5.555" ry="2.962" transform="translate(970.64 676.914)"/>
                            <ellipse id="타원_446-3" cx="2.222" cy="1.111" class="cls-47" rx="2.222" ry="1.111" transform="translate(973.973 678.395)"/>
                        </g>
                        <g id="그룹_3863-3">
                            <path id="선_110-3" d="M0 0L0 6.778" class="cls-45" transform="translate(970.639 688.212)"/>
                            <ellipse id="타원_447-3" cx="5.649" cy="3.013" class="cls-46" rx="5.649" ry="3.013" transform="translate(965.179 685.199)"/>
                            <ellipse id="타원_448-3" cx="2.259" cy="1.13" class="cls-47" rx="2.259" ry="1.13" transform="translate(968.568 686.705)"/>
                        </g>
                    </g>
                </g>
            </g>
        </g>
    </g>
</svg>
