<svg xmlns="http://www.w3.org/2000/svg" width="1280" height="720" viewBox="0 0 1280 720">
    <defs>
        <clipPath id="clip-path">
            <path id="SVGID" fill="none" d="M0 0H1280V720H0z" transform="translate(-.229)"/>
        </clipPath>
        <style>
            .cls-5{fill:#fff}.cls-6{fill:#4c4847}.cls-7{fill:#d6f6ff}.cls-8{fill:#c0f0fe}.cls-9{fill:#bceffe}.cls-11{fill:#d4f6fe}.cls-12{fill:#e9fafe}.cls-13{fill:#d8f6fe}
        </style>
    </defs>
    <g id="그룹_4445" transform="translate(.229)">
        <g id="그룹_4444" clip-path="url(#clip-path)">
            <g id="그룹_4438">
                <g id="그룹_4443">
                    <g id="그룹_4423">
                        <g id="그룹_4444-2">
                            <path id="패스_4550" fill="#a8eaff" d="M1279.05 720H0L.946 0H1280z"/>
                            <g id="그룹_3884">
                                <g id="그룹_3883">
                                    <path id="패스_8259" fill="#ff4d8d" d="M245.272 165.1c7.795-.124 6.773 7.832 6.889 16.219s-1.318 13.167-10.3 13.413c-11.081.3-21.272 1.625-21.512-6.262-.178-5.817 2.99-6.4 9.506-6.633s9.447.2 9.517-1.211c.347-7.09-2.685-15.39 5.9-15.526z"/>
                                    <circle id="타원_470" cx="6.382" cy="6.382" r="6.382" class="cls-5" transform="translate(233.476 159.977)"/>
                                    <circle id="타원_471" cx="6.382" cy="6.382" r="6.382" class="cls-5" transform="translate(246.237 159.715)"/>
                                    <circle id="타원_472" cx="3.666" cy="3.666" r="3.666" class="cls-6" transform="translate(238.06 161.339)"/>
                                    <circle id="타원_473" cx="3.666" cy="3.666" r="3.666" class="cls-6" transform="translate(250.361 160.653)"/>
                                </g>
                            </g>
                            <g id="그룹_3887">
                                <g id="그룹_3938">
                                    <g id="그룹_3888">
                                        <g id="그룹_3808">
                                            <path id="패스_8168" d="M994.548 64.252a15.414 15.414 0 0 0-1.86.113 13.931 13.931 0 0 0-24.878 3.056c-.176-.007-.352-.011-.529-.011a12.906 12.906 0 0 0-12.906 12.906q0 .24.009.477a10.764 10.764 0 0 0 10.822 10.248h33.206a11.532 11.532 0 0 0 11.488-11.278v-.158a15.351 15.351 0 0 0-15.35-15.353z" class="cls-7"/>
                                            <path id="사각형_1469" d="M948.123 83.943h51.368a3.549 3.549 0 0 1 3.549 3.549 3.549 3.549 0 0 1-3.549 3.548h-51.368a3.549 3.549 0 0 1-3.549-3.548 3.549 3.549 0 0 1 3.549-3.549z" class="cls-7"/>
                                            <path id="사각형_1470" d="M927.17 83.943h5.744a3.549 3.549 0 0 1 3.549 3.549 3.549 3.549 0 0 1-3.549 3.548h-5.744a3.549 3.549 0 0 1-3.549-3.548 3.549 3.549 0 0 1 3.549-3.549z" class="cls-7"/>
                                        </g>
                                    </g>
                                    <g id="그룹_3944">
                                        <g id="그룹_3808-2">
                                            <path id="패스_8168-2" d="M22.433 567.365a49.93 49.93 0 0 1 6 .363 44.912 44.912 0 0 1 80.2 9.852c.567-.023 1.135-.037 1.706-.037a41.606 41.606 0 0 1 41.607 41.6q0 .773-.029 1.537c-.673 18.546-16.329 33.038-34.887 33.038H9.978c-20 0-36.829-16.358-37.031-36.359v-.51a49.489 49.489 0 0 1 49.486-49.484z" class="cls-8"/>
                                            <rect id="사각형_1469-2" width="188.481" height="22.879" class="cls-8" rx="8.374" transform="translate(-4.945 630.845)"/>
                                        </g>
                                    </g>
                                    <g id="그룹_3942">
                                        <g id="그룹_3808-3">
                                            <path id="패스_8168-3" d="M1011.885 543.516a23.5 23.5 0 0 1 2.819.171 21.114 21.114 0 0 1 37.706 4.632q.4-.016.8-.017a19.561 19.561 0 0 1 19.561 19.561q0 .363-.013.723a16.314 16.314 0 0 1-16.4 15.533h-50.329a17.479 17.479 0 0 1-17.41-17.094v-.24a23.267 23.267 0 0 1 23.265-23.269z" class="cls-9"/>
                                            <rect id="사각형_1469-3" width="88.614" height="10.757" class="cls-9" rx="5.378" transform="translate(999.013 573.362)"/>
                                            <rect id="사각형_1470-2" width="19.464" height="10.757" class="cls-9" rx="5.378" transform="translate(1099.92 573.362)"/>
                                        </g>
                                    </g>
                                    <g id="그룹_3943" opacity="0.5">
                                        <g id="그룹_3808-4">
                                            <path id="패스_8168-4" d="M159.688 222a24.05 24.05 0 0 0-2.889.175 21.642 21.642 0 0 0-38.647 4.747c-.273-.011-.547-.018-.822-.018a20.049 20.049 0 0 0-20.05 20.048q0 .372.014.741a16.721 16.721 0 0 0 16.811 15.921h51.585a17.915 17.915 0 0 0 17.845-17.514v-.246A23.849 23.849 0 0 0 159.688 222z" class="cls-11"/>
                                            <path id="사각형_1469-4" d="M87.568 252.591h79.8a5.513 5.513 0 0 1 5.513 5.513 5.512 5.512 0 0 1-5.513 5.512h-79.8a5.512 5.512 0 0 1-5.513-5.512 5.513 5.513 0 0 1 5.513-5.513z" class="cls-11"/>
                                            <path id="사각형_1470-3" d="M55.017 252.591h8.924a5.513 5.513 0 0 1 5.513 5.513 5.512 5.512 0 0 1-5.513 5.512h-8.924A5.512 5.512 0 0 1 49.5 258.1a5.513 5.513 0 0 1 5.517-5.509z" class="cls-11"/>
                                        </g>
                                    </g>
                                    <g id="그룹_3939">
                                        <g id="그룹_3808-5">
                                            <path id="패스_8168-5" d="M1115.6 392.265a27.2 27.2 0 0 1 3.265.2 24.458 24.458 0 0 1 43.676 5.365c.309-.013.618-.02.929-.02a22.659 22.659 0 0 1 22.659 22.659q0 .422-.016.837a18.9 18.9 0 0 1-19 17.993h-58.3a20.247 20.247 0 0 1-20.167-19.8v-.278a26.952 26.952 0 0 1 26.948-26.956z" class="cls-12"/>
                                            <path id="사각형_1469-5" d="M1106.921 426.836h90.186a6.23 6.23 0 0 1 6.23 6.23 6.23 6.23 0 0 1-6.23 6.23h-90.186a6.23 6.23 0 0 1-6.23-6.23 6.23 6.23 0 0 1 6.23-6.23z" class="cls-12"/>
                                            <path id="사각형_1470-4" d="M1223.807 426.836h10.087a6.23 6.23 0 0 1 6.23 6.23 6.23 6.23 0 0 1-6.23 6.23h-10.087a6.23 6.23 0 0 1-6.23-6.23 6.23 6.23 0 0 1 6.23-6.23z" class="cls-12"/>
                                        </g>
                                    </g>
                                    <g id="그룹_3940">
                                        <g id="그룹_3808-6">
                                            <path id="패스_8168-6" d="M189.993 635.982a26.741 26.741 0 0 0-3.213.2 24.069 24.069 0 0 0-42.982 5.28c-.3-.012-.608-.02-.914-.02a22.3 22.3 0 0 0-22.3 22.3q0 .414.015.824a18.6 18.6 0 0 0 18.7 17.706h57.371a19.924 19.924 0 0 0 19.844-19.485v-.273a26.523 26.523 0 0 0-26.519-26.527z" class="cls-13"/>
                                            <path id="사각형_1469-6" d="M109.783 670h88.751a6.131 6.131 0 0 1 6.131 6.131 6.131 6.131 0 0 1-6.131 6.131h-88.751a6.131 6.131 0 0 1-6.131-6.131 6.131 6.131 0 0 1 6.131-6.131z" class="cls-13"/>
                                            <path id="사각형_1470-5" d="M73.582 670h9.926a6.131 6.131 0 0 1 6.131 6.131 6.131 6.131 0 0 1-6.131 6.131h-9.926a6.131 6.131 0 0 1-6.131-6.131A6.131 6.131 0 0 1 73.582 670z" class="cls-13"/>
                                        </g>
                                    </g>
                                </g>
                            </g>
                            <g id="그룹_3855">
                                <path id="패스_8235" fill="#5f7eff" d="M1167 536.871c-1.284-5.744.925-8.4 6.523-9.727s13.114-3.1 16.616-3.87 10.8-2.86 11.81 2.612c.89 4.8.536 6.621-9.8 8.729s-11.986 2.568-10.356 9.086 8.475 3.295 13.3 1.994 10.715-3.2 11.884 2.084-1.258 7.229-6.454 8.424-14.975 3.429-18.708 4.3-9.3-.609-10.556-5.088-3.359-14.477-4.259-18.544z"/>
                                <circle id="타원_429" cx="6.965" cy="6.965" r="6.965" class="cls-5" transform="translate(1181.554 515)"/>
                                <circle id="타원_430" cx="6.965" cy="6.965" r="6.965" class="cls-5" transform="translate(1167.958 518.033)"/>
                                <circle id="타원_431" cx="4.001" cy="4.001" r="4.001" class="cls-6" transform="translate(1185.828 517.538)"/>
                                <circle id="타원_432" cx="4.001" cy="4.001" r="4.001" class="cls-6" transform="translate(1172.961 520.233)"/>
                            </g>
                            <g id="그룹_3941">
                                <path id="패스_8236" fill="#fc0" d="M1195.583 563.951c-8.861-2.829-22.467-7.906-25.265 3.9-3.381 14.272 21.326 14.024 23.134 17.909s-8.776 20.141 3.9 24.09 14.62-13.078 18.033-29.1c2.079-9.737-7.785-12.963-19.802-16.799z"/>
                                <circle id="타원_433" cx="9.272" cy="9.272" r="9.272" class="cls-5" transform="translate(1178.684 557.57)"/>
                                <circle id="타원_434" cx="9.272" cy="9.272" r="9.272" class="cls-5" transform="translate(1196.562 562.494)"/>
                                <circle id="타원_435" cx="5.326" cy="5.326" r="5.326" class="cls-6" transform="translate(1185.387 561.86)"/>
                                <circle id="타원_436" cx="5.326" cy="5.326" r="5.326" class="cls-6" transform="translate(1203.156 566.198)"/>
                            </g>
                        </g>
                        <g id="그룹_4443-2">
                            <path id="합치기_72-2" d="M200 195.005h880a20 20 0 0 1 20 20v260a20 20 0 0 1-20 20H200a20 20 0 0 1-20-20v-260a20 20 0 0 1 20-20z" class="cls-5"/>
                        </g>
                    </g>
                </g>
            </g>
        </g>
    </g>
</svg>
