<svg xmlns="http://www.w3.org/2000/svg" width="50" height="50" viewBox="0 0 50 50">
    <defs>
        <style>
            .cls-3{fill:#999}
        </style>
    </defs>
    <g id="그룹_3934" transform="translate(-1032.667 -571.667)">
        <g id="그룹_2077" transform="translate(1033 572)">
            <circle id="타원_159" cx="18.5" cy="18.5" r="18.5" fill="#fff" transform="translate(6.667 11.667)"/>
            <g id="그룹_2076">
                <path id="사각형_1245" fill="rgba(255,255,255,0)" d="M0 0H50V50H0z" transform="translate(-.333 -.333)"/>
                <g id="그룹_1846" transform="translate(4.139)">
                    <path id="패스_2759" d="M155.354 278.757a20.538 20.538 0 1 0 22.582-20.436v-1.486h.936a.622.622 0 0 0 .622-.622v-5.963a.622.622 0 0 0-.622-.622h-5.961a.622.622 0 0 0-.622.622v5.961a.622.622 0 0 0 .622.622h.936v1.486a20.389 20.389 0 0 0-8.319 2.711l-.746-1.113.486-.325a.388.388 0 0 0 .106-.539l-2.072-3.091a.389.389 0 0 0-.539-.106l-3.091 2.071a.388.388 0 0 0-.106.539l2.072 3.091a.388.388 0 0 0 .539.106l.485-.325.749 1.118a20.515 20.515 0 0 0-8.057 16.301zm2.976 0a17.562 17.562 0 1 1 17.562 17.562 17.582 17.582 0 0 1-17.562-17.562z" class="cls-3" transform="translate(-155.354 -249.628)"/>
                    <path id="패스_2760" fill="#f84d4d" d="M0 17.8l1.3-.009L.732.193A.2.2 0 0 0 .531 0a.2.2 0 0 0-.2.2z" transform="rotate(42 -7.971 48.16)"/>
                    <circle id="타원_95" cx="1.685" cy="1.685" r="1.685" class="cls-3" transform="rotate(-82.858 26.66 4.725)"/>
                </g>
            </g>
        </g>
    </g>
</svg>
