<svg xmlns="http://www.w3.org/2000/svg" width="40" height="40" viewBox="0 0 40 40">
    <g>
        <path fill="none" d="M0 0H40V40H0z" transform="translate(-50 -592.783) translate(50 592.783)"/>
        <path fill="#50acdb" d="M217.549 94.2s4.392-1.73 4.392-1.966v-3.518c0-.243-4.4-1.839-4.4-1.839l-.806-1.962a36.436 36.436 0 0 0 1.714-4.5l-2.49-2.482c-.172-.17-4.412 1.807-4.412 1.807l-1.956-.808s-1.73-4.389-1.967-4.389h-3.51c-.247 0-1.846 4.4-1.846 4.4l-1.952.81s-4.33-1.88-4.5-1.711l-2.484 2.482c-.171.174 1.807 4.417 1.807 4.417l-.808 1.956a36.3 36.3 0 0 0-4.39 1.96v3.516c0 .246 4.4 1.846 4.4 1.846l.805 1.955a36.373 36.373 0 0 0-1.714 4.494l2.49 2.488c.166.169 4.41-1.81 4.41-1.81l1.959.811s1.726 4.387 1.967 4.387h3.512c.241 0 1.843-4.4 1.843-4.4l1.959-.809s4.321 1.881 4.49 1.714l2.484-2.484c.172-.174-1.805-4.415-1.805-4.415zm-11.607 1.479a5.126 5.126 0 1 1 5.126-5.128 5.138 5.138 0 0 1-5.126 5.123z" transform="translate(-50 -592.783) translate(-135.942 522.237)"/>
    </g>
</svg>
