<svg xmlns="http://www.w3.org/2000/svg" width="32" height="32" viewBox="0 0 32 32">
    <g>
        <g>
            <path fill="none" d="M0 0H32V32H0z" transform="translate(0 -.333) translate(0 .333)"/>
        </g>
        <g>
            <path fill="#ff4747" d="M30.639 15.646l-3.287-3.759.458-4.971-4.863-1.1L20.4 1.5l-4.58 1.967L11.239 1.5 8.693 5.8 3.829 6.889l.458 4.985L1 15.646 4.287 19.4l-.458 4.985 4.863 1.1 2.546 4.3 4.581-1.98 4.581 1.973 2.546-4.3 4.863-1.1-.457-4.978zM13.246 22l-5.119-5.128 1.994-1.994 3.126 3.139 7.881-7.908 1.994 1.991z" transform="translate(0 -.333) translate(1.347 2.021) translate(-1 -1.5)"/>
        </g>
    </g>
</svg>
