<svg xmlns="http://www.w3.org/2000/svg" id="date_range-24px" width="40" height="40" viewBox="0 0 40 40">
    <defs>
        <style>
            .cls-2{fill:#fff}
        </style>
    </defs>
    <path id="패스_1458" fill="none" d="M0 0h40v40H0z"/>
    <g id="그룹_1568" transform="translate(3.009 5.352)">
        <g id="그룹_1565" transform="translate(0 3.155)">
            <path id="패스_1460" d="M998.985 127.1h-28.992a2.624 2.624 0 0 1-2.651-2.589v-23.1a2.624 2.624 0 0 1 2.651-2.59h28.992a2.624 2.624 0 0 1 2.651 2.59v23.1a2.623 2.623 0 0 1-2.651 2.589zm-28.992-26.193a.519.519 0 0 0-.518.507v23.1a.519.519 0 0 0 .518.506h28.992a.519.519 0 0 0 .519-.506v-23.1a.519.519 0 0 0-.519-.507z" class="cls-2" transform="translate(-967.342 -98.825)"/>
        </g>
        <path id="패스_1461" d="M995.112 94.63a1.5 1.5 0 0 1-1.431 1.557 1.5 1.5 0 0 1-1.43-1.557v-4.2a1.5 1.5 0 0 1 1.43-1.557 1.5 1.5 0 0 1 1.431 1.557z" class="cls-2" transform="translate(-984.35 -88.876)"/>
        <path id="패스_1462" d="M1045.227 94.63a1.5 1.5 0 0 1-1.431 1.557 1.5 1.5 0 0 1-1.43-1.557v-4.2a1.5 1.5 0 0 1 1.43-1.557 1.5 1.5 0 0 1 1.431 1.557z" class="cls-2" transform="translate(-1018.567 -88.876)"/>
        <path id="패스_1463" d="M1020.169 94.63a1.5 1.5 0 0 1-1.431 1.557 1.5 1.5 0 0 1-1.43-1.557v-4.2a1.5 1.5 0 0 1 1.43-1.557 1.5 1.5 0 0 1 1.431 1.557z" class="cls-2" transform="translate(-1001.458 -88.876)"/>
        <g id="그룹_1566" transform="translate(.305 8.127)">
            <path id="패스_1464" d="M1000.922 117.215h-31.553a1.066 1.066 0 0 1 0-2.132h31.553a1.066 1.066 0 0 1 0 2.132z" class="cls-2" transform="translate(-968.303 -115.083)"/>
        </g>
        <g id="그룹_1569" transform="translate(11.138 14.44)">
            <path id="패스_1466" d="M1822.928 134.827h-.012a1.373 1.373 0 0 1-1.1-.56l-4.043-5.486a1.376 1.376 0 1 1 2.215-1.632l2.954 4.009 5.72-7.493a1.376 1.376 0 1 1 2.187 1.669l-6.833 8.951a1.375 1.375 0 0 1-1.088.542z" class="cls-2" transform="translate(-1817.51 -123.125)"/>
        </g>
    </g>
</svg>
