<svg xmlns="http://www.w3.org/2000/svg" xmlns:xlink="http://www.w3.org/1999/xlink" width="388" height="349.951" viewBox="0 0 388 349.951">
    <defs>
        <linearGradient id="linear-gradient" x1="-65.59" x2="-64.206" y1="177.326" y2="178.053" gradientUnits="objectBoundingBox">
            <stop offset="0" stop-color="#00aaed"/>
            <stop offset=".356" stop-color="#01a7ea"/>
            <stop offset=".578" stop-color="#06a0e1"/>
            <stop offset=".763" stop-color="#0f93d3"/>
            <stop offset=".927" stop-color="#1b81be"/>
            <stop offset="1" stop-color="#2277b3"/>
        </linearGradient>
        <linearGradient id="linear-gradient-2" x1="-45.47" x2="-44.153" y1="81.02" y2="81.745" xlink:href="#linear-gradient"/>
        <clipPath id="clip-path">
            <path id="SVGID" d="M325.642 800.863l-44.742-2.01a122.032 122.032 0 0 1-116.43-127.385l2.169-48.265A144.422 144.422 0 0 1 317.4 485.41a144.421 144.421 0 0 1 137.795 150.758l-2.169 48.265a122.03 122.03 0 0 1-127.384 116.43z" class="cls-1" transform="translate(-164.349 -485.262)"/>
        </clipPath>
        <clipPath id="clip-path-2">
            <path id="SVGID-2" d="M282.549 634.756c-7.329-.329-13.422 4.536-14.08 19.193-.4 8.795 1.974 20.421 12.279 20.884s13.707-10.9 14.1-19.7c.661-14.655-4.971-20.048-12.299-20.377z" class="cls-1" transform="translate(-268.428 -634.74)"/>
        </clipPath>
        <style>
            .cls-1{fill:none}.cls-2{fill:#00aaed}.cls-5{fill:#3d4459}.cls-6{fill:#fbe6b9}.cls-7{fill:#f5a200}.cls-9{fill:#fff}
        </style>
    </defs>
    <g id="말" transform="translate(-120.665 -474.089)">
        <g id="그룹_2203" transform="translate(120.665 601.804)">
            <path id="패스_4499" d="M169.508 661.367c-10.04 0-22.4-2.056-31.145-10.427-12.619-12.083-13.47-32.527-13.514-36.5a14.672 14.672 0 1 1 29.342-.315c.11 5.439 1.971 13.236 4.466 15.624 2.734 2.617 13.509 2.811 20.958 1.234a14.671 14.671 0 0 1 6.234 28.672 79.716 79.716 0 0 1-16.341 1.712z" class="cls-2" transform="translate(-120.053 -583.453)"/>
            <g id="그룹_2202">
                <path id="패스_4500" d="M153.244 607.4a8.929 8.929 0 0 0-9.274-7.563s-22.761.982-23.193 7.071c-.257 3.615 3.562 13.6 7.371 16.151 9.713 6.506 28.303.56 25.096-15.659z" class="cls-2" transform="translate(-120.65 -583.42)"/>
                <path id="패스_4501" d="M146.247 604.1c.156-8.758-1.478-18.3-4.683-18.572-3.711-.317-5.877 7.366-5.877 7.366s-2.091 9.542-1.058 13.278a19.794 19.794 0 0 0 11.618-2.072z" class="cls-2" transform="translate(-118.665 -585.514)"/>
                <path id="패스_4502" d="M150.574 617.437s8.253-17.817 4.28-19.318-12.921 5.573-12.921 5.573z" class="cls-2" transform="translate(-117.555 -583.701)"/>
                <path id="패스_4503" fill="url(#linear-gradient)" d="M130.4 598.109c4.47-1.533 6.671 1.671 7.251 4.861s.326 7.184-3.277 7.589c-2.547.285-4.389-1.553-5.621-3.8s-2.826-7.115 1.647-8.65z" transform="translate(-119.674 -583.73)"/>
                <path id="패스_4504" fill="url(#linear-gradient-2)" d="M122.024 603.126a5.1 5.1 0 0 1 8.021 1.156c1.555 2.845 2.437 7.567-.448 9.438s-5.717-.391-7.589-3.277c-1.393-2.15-2.156-5.432.016-7.317z" transform="translate(-120.665 -583.149)"/>
            </g>
        </g>
        <g id="그룹_2205" transform="translate(422.996 665.079)">
            <g id="그룹_2204" transform="translate(45.663 45.29)">
                <path id="패스_4505" d="M435.613 680.38c11.092-.667 25.192.863 25.322 5.107.113 3.723-7.677 5.464-7.677 5.464s10.816.977 10.946 5.221c.152 5-10.962 4.911-10.962 4.911s8.111 3.1 7.945 6.633-15.432 4-23.752 3.607c-16.472-.769-16.694-30.05-1.822-30.943z" class="cls-2" transform="translate(-424.199 -680.23)"/>
                <path id="패스_4506" d="M424.27 704.356s10.213 15.214 14.135 13.584.642-15.478.642-15.478z" class="cls-2" transform="translate(-424.27 -676.98)"/>
            </g>
            <path id="패스_4507" d="M437.823 715.322a14.664 14.664 0 0 1-5.464-1.057 75.691 75.691 0 0 1-26.148-18.775 108.73 108.73 0 0 1-21.092-35.675 14.672 14.672 0 0 1 27.958-8.908A80.129 80.129 0 0 0 428.142 676a47.368 47.368 0 0 0 15.206 11.062 14.664 14.664 0 0 1-5.525 28.264z" class="cls-2" transform="translate(-384.432 -640.717)"/>
        </g>
        <g id="그룹_2206" transform="translate(229.907 753.434)">
            <path id="패스_4508" d="M293 788.408h-56.854c-.554-2.794-.046-5.592 4.062-8.4l-24.235-62.2h81.61v66.021a4.585 4.585 0 0 1-4.583 4.579z" class="cls-5" transform="translate(-215.973 -717.802)"/>
            <path id="패스_4509" d="M245.5 779.987a4.978 4.978 0 0 1 1.026-4.585h.917a4.2 4.2 0 0 0-1.06 4.585z" class="cls-6" transform="translate(-211.682 -709.38)"/>
            <path id="패스_4510" d="M239.1 779.987a4.977 4.977 0 0 1 1.026-4.585h.917a4.2 4.2 0 0 0-1.06 4.585z" class="cls-6" transform="translate(-212.618 -709.38)"/>
        </g>
        <g id="그룹_2207" transform="translate(315.873 753.661)">
            <path id="패스_4511" d="M317.226 788.379h58.108c.554-2.795.045-5.592-4.063-8.4L372.583 718h-81.61l21.893 67.214a4.587 4.587 0 0 0 4.36 3.165z" class="cls-5" transform="translate(-290.973 -718)"/>
            <path id="패스_4512" d="M352.916 779.987a4.977 4.977 0 0 0-1.026-4.585h-.917a4.2 4.2 0 0 1 1.059 4.585z" class="cls-6" transform="translate(-282.201 -709.607)"/>
            <path id="패스_4513" d="M359.316 779.987a4.977 4.977 0 0 0-1.026-4.585h-.917a4.2 4.2 0 0 1 1.059 4.585z" class="cls-6" transform="translate(-281.265 -709.607)"/>
        </g>
        <g id="그룹_2208" transform="translate(240.032 474.089)">
            <path id="패스_4514" d="M263.527 505.212s-15.027-33.483-30.927-30.99-2.559 46.014-2.559 46.014z" class="cls-7" transform="translate(-224.806 -474.089)"/>
        </g>
        <g id="그룹_2209" transform="translate(391.166 495.192)">
            <path id="패스_4515" d="M356.662 509.639s27.688-24.086 41.073-15.152-16.987 42.841-16.987 42.841z" class="cls-7" transform="translate(-356.662 -492.5)"/>
        </g>
        <path id="패스_4516" d="M325.642 800.863l-44.742-2.01a122.032 122.032 0 0 1-116.43-127.385l2.169-48.265A144.422 144.422 0 0 1 317.4 485.41a144.421 144.421 0 0 1 137.795 150.758l-2.169 48.265a122.03 122.03 0 0 1-127.384 116.43z" class="cls-2" transform="translate(6.387 1.633)"/>
        <g id="그룹_2211" transform="translate(170.735 486.895)">
            <g id="그룹_2210" clip-path="url(#clip-path)">
                <path id="패스_4517" d="M156.055 688.764s23.505-22.737 65.915-12.421c62.023 15.086 60.749 48.141 132.96 48.141 66.48 0 119.022-42.547 119.022-42.547L468.6 801.021 151.651 786.78z" class="cls-5" transform="translate(-166.205 -457.717)"/>
            </g>
        </g>
        <g id="그룹_2212" transform="translate(246.513 521.578)">
            <circle id="타원_177" cx="62.953" cy="62.953" r="62.953" class="cls-9" transform="translate(.152)"/>
            <circle id="타원_178" cx="37.031" cy="37.031" r="37.031" fill="#2c303a" transform="translate(26.152 12.833)"/>
            <circle id="타원_179" cx="13.754" cy="13.754" r="13.754" class="cls-9" transform="translate(44.152 5.474)"/>
        </g>
        <path id="패스_4518" fill="#dd335c" d="M282.549 634.756c-7.329-.329-13.422 4.536-14.08 19.193-.4 8.795 1.974 20.421 12.279 20.884s13.707-10.9 14.1-19.7c.661-14.655-4.971-20.048-12.299-20.377z" transform="translate(21.604 23.488)"/>
        <g id="그룹_2214" transform="translate(290.032 658.228)">
            <g id="그룹_2213" clip-path="url(#clip-path-2)">
                <path id="패스_4519" d="M288.539 647.036c-5.954-.267-5.419-12.176-5.419-12.176l11.908.535s-.535 11.905-6.489 11.641z" class="cls-9" transform="translate(-266.282 -634.723)"/>
            </g>
        </g>
    </g>
</svg>
