<svg xmlns="http://www.w3.org/2000/svg" width="80" height="80" viewBox="0 0 80 80">
    <defs>
        <style>
            .cls-3{fill:#542000}.cls-4{fill:#401800}
        </style>
    </defs>
    <g id="_2" transform="translate(.44 -.095)">
        <g id="그룹_1810" transform="translate(-.44 .095)">
            <circle id="타원_95" cx="40" cy="40" r="40" fill="#ffdc00"/>
            <path id="패스_1859" fill="#ffb400" d="M200.728 67.05c0 22.128-17.689 40.048-39.5 40.048a39.334 39.334 0 0 1-33.283-18.458 39.22 39.22 0 0 0 29.741 13.676c21.816 0 39.5-17.92 39.5-40.048a40.218 40.218 0 0 0-6.21-21.568 40.209 40.209 0 0 1 9.752 26.35z" transform="translate(-121.192 -27.102)"/>
        </g>
        <g id="그룹_1814" transform="translate(17.529 22.66)">
            <g id="그룹_1813">
                <g id="그룹_1811" transform="translate(32.92)">
                    <path id="패스_1860" d="M176.4 55.895c0 4.25-2.49 7.7-5.56 7.7s-5.56-3.445-5.56-7.7 2.489-7.694 5.56-7.694 5.56 3.444 5.56 7.694z" class="cls-3" transform="translate(-165.283 -48.201)"/>
                    <path id="패스_1861" d="M176.324 55.533c0 4.256-2.487 7.7-5.559 7.7-2.271 0-4.232-1.889-5.081-4.591a4.881 4.881 0 0 0 3.885 2.2c3.072 0 5.559-3.443 5.559-7.7a9.753 9.753 0 0 0-.49-3.12 9.289 9.289 0 0 1 1.686 5.511z" class="cls-4" transform="translate(-165.205 -47.845)"/>
                </g>
                <g id="그룹_1812">
                    <path id="패스_1862" d="M148.865 55.895c0 4.25-2.489 7.7-5.56 7.7s-5.56-3.445-5.56-7.7 2.489-7.694 5.56-7.694 5.56 3.444 5.56 7.694z" class="cls-3" transform="translate(-137.745 -48.201)"/>
                    <path id="패스_1863" d="M148.786 55.533c0 4.256-2.487 7.7-5.559 7.7-2.271 0-4.232-1.889-5.081-4.591a4.881 4.881 0 0 0 3.885 2.2c3.072 0 5.559-3.443 5.559-7.7a9.753 9.753 0 0 0-.49-3.12 9.289 9.289 0 0 1 1.686 5.511z" class="cls-4" transform="translate(-137.667 -47.845)"/>
                </g>
            </g>
            <path id="패스_1864" d="M178.788 69.731a16.7 16.7 0 0 1-7.426 12.875 21.435 21.435 0 0 1-24.024 0 16.7 16.7 0 0 1-7.438-12.9 18.128 18.128 0 0 0 6.429 6.922 24.841 24.841 0 0 0 26.029 0 18.249 18.249 0 0 0 6.43-6.897z" class="cls-4" transform="translate(-137.324 -43.998)"/>
        </g>
    </g>
</svg>
