<svg xmlns="http://www.w3.org/2000/svg" id="_4" width="80" height="80" viewBox="0 0 80 80">
    <defs>
        <style>
            .cls-6{fill:#f21b2d}.cls-7{fill:#d91828}
        </style>
    </defs>
    <g id="그룹_1805">
        <ellipse id="타원_94" cx="39.952" cy="40" fill="#ffdc00" rx="39.952" ry="40"/>
        <path id="패스_1851" fill="#ffb400" d="M383.139 67.05a39.989 39.989 0 0 1-73.687 21.59 40.022 40.022 0 0 0 63.813-47.94 39.921 39.921 0 0 1 9.874 26.35z" transform="translate(-303.139 -27.102)"/>
    </g>
    <g id="그룹_1806" transform="translate(22.697 47.909)">
        <path id="패스_1852" fill="#401800" d="M357.805 69.4a17.256 17.256 0 0 1-6.575 13.592c-.012.012-.036.024-.048.036a17.334 17.334 0 0 1-21.363 0c-.012-.012-.012-.012-.024-.012A17.288 17.288 0 0 1 323.2 69.4z" transform="translate(-323.197 -69.402)"/>
        <path id="패스_1853" fill="#cc0a17" d="M350.095 81.575a17.295 17.295 0 0 1-21.357 0c1.205-4.3 7.32-6.771 10.679-2.7 3.157-4.034 9.473-1.6 10.678 2.7z" transform="translate(-322.114 -67.956)"/>
        <path id="패스_1854" fill="#fff" d="M355.816 69.4v1.064c0 1.566-1.291 2.558-2.833 2.833a74.387 74.387 0 0 1-25.523 0c-1.53-.287-2.833-1.267-2.833-2.833V69.4z" transform="translate(-322.917 -69.402)"/>
    </g>
    <g id="그룹_1809" transform="translate(11.586 18.112)">
        <g id="그룹_1807">
            <path id="패스_1855" d="M335.18 53.7c-.026.039-.065.091-.091.129L328.147 63.9a.635.635 0 0 1-.862.178l-10.363-6.5-.122-.078a6.21 6.21 0 0 1-2.671-3.462 4.7 4.7 0 0 1-.195-.816c-.907-5.668 6.471-8.806 10.27-4.513l.467.519.207-.661a6.036 6.036 0 0 1 7.625-3.8 5.321 5.321 0 0 1 3.606 3.865 6.257 6.257 0 0 1-.929 5.068z" class="cls-6" transform="translate(-313.863 -44.476)"/>
            <path id="패스_1856" d="M335.136 53.654c-.026.039-.065.091-.091.129L328.1 63.85a.635.635 0 0 1-.862.178l-10.363-6.5-.117-.078a6.21 6.21 0 0 1-2.671-3.462c2.671 3.462 9.772 5.68 14.2 3.3 5.957-3.2 7.97-9.24 4.178-12.574a5.321 5.321 0 0 1 3.606 3.865 6.257 6.257 0 0 1-.935 5.075z" class="cls-7" transform="translate(-313.819 -44.429)"/>
        </g>
        <g id="그룹_1808" transform="translate(34.389 .146)">
            <path id="패스_1857" d="M343.832 53.822c.026.039.065.091.091.13l6.941 10.066a.637.637 0 0 0 .863.178l10.363-6.5.116-.078a6.219 6.219 0 0 0 2.672-3.463 4.679 4.679 0 0 0 .195-.816c.907-5.666-6.471-8.8-10.27-4.513l-.467.519-.208-.661a6.036 6.036 0 0 0-7.625-3.8 5.318 5.318 0 0 0-3.6 3.864 6.257 6.257 0 0 0 .929 5.074z" class="cls-6" transform="translate(-342.71 -44.598)"/>
            <path id="패스_1858" d="M362.2 57.017c-.039.026-10.5 6.563-10.5 6.563a.638.638 0 0 1-.863-.179s-6.979-10.158-7-10.2a6.217 6.217 0 0 1-1.076-4.239c1.076 4.239 6.711 9.095 11.715 8.671 6.739-.571 10.985-5.311 8.831-9.878a5.322 5.322 0 0 1 1.773 4.978 6.259 6.259 0 0 1-2.88 4.284z" class="cls-7" transform="translate(-342.711 -43.981)"/>
        </g>
    </g>
</svg>
