<svg xmlns="http://www.w3.org/2000/svg" width="80" height="80" viewBox="0 0 80 80">
    <defs>
        <style>
            .cls-3{fill:#fa0}.cls-4{fill:#401800}
        </style>
    </defs>
    <g id="_9" transform="translate(.001 -.5)">
        <g id="그룹_1815">
            <circle id="타원_96" cx="40" cy="40" r="40" fill="#ffdc00" transform="translate(-.001 .5)"/>
            <path id="패스_1865" fill="#ffb400" d="M383.235 160.677a40.052 40.052 0 0 1-73.783 21.59 40.053 40.053 0 0 0 63.9-47.938 39.891 39.891 0 0 1 9.883 26.348z" transform="translate(-303.48 -120.729)"/>
        </g>
        <g id="그룹_1820" transform="translate(11.245 39.733)">
            <g id="그룹_1819">
                <g id="그룹_1817">
                    <circle id="타원_97" cx="7.065" cy="7.065" r="7.065" class="cls-3"/>
                    <circle id="타원_98" cx="7.065" cy="7.065" r="7.065" class="cls-3" transform="translate(42.795)"/>
                </g>
                <g id="그룹_1818" transform="translate(11.157 8.176)">
                    <path id="패스_1868" d="M357.8 163.029a17.256 17.256 0 0 1-6.575 13.592c-.012.012-.036.024-.048.036a17.334 17.334 0 0 1-21.363 0c-.012-.012-.012-.012-.024-.012a17.289 17.289 0 0 1-6.6-13.616z" class="cls-4" transform="translate(-323.196 -163.029)"/>
                    <path id="패스_1869" fill="#cc0a17" d="M350.095 175.2a17.3 17.3 0 0 1-21.358 0c1.206-4.3 7.32-6.771 10.679-2.7 3.157-4.032 9.473-1.6 10.679 2.7z" transform="translate(-322.113 -161.583)"/>
                </g>
            </g>
        </g>
        <g id="그룹_1823" transform="translate(13.144 21.423)">
            <path id="패스_1871" d="M453.365 237.766c-3.872 1.207-12 3.015-17.685 6.252a.66.66 0 0 0-.083 1.152c4.265 3.49 8.479 6.183 16.155 10.118a.343.343 0 0 0 .421-.525l-5.987-7.169a1.757 1.757 0 0 1 .123-2.385l7.266-7.073a.219.219 0 0 0-.21-.37z" class="cls-4" transform="translate(-400.519 -237.755)"/>
            <path id="패스_1872" d="M406.485 237.766c3.873 1.207 12 3.015 17.687 6.252a.66.66 0 0 1 .082 1.152c-4.267 3.49-8.479 6.183-16.155 10.118a.343.343 0 0 1-.421-.525l5.987-7.169a1.758 1.758 0 0 0-.123-2.385l-7.266-7.073a.218.218 0 0 1 .209-.37z" class="cls-4" transform="translate(-406.206 -237.755)"/>
        </g>
    </g>
</svg>
