<svg xmlns="http://www.w3.org/2000/svg" width="80" height="80" viewBox="0 0 80 80">
    <defs>
        <style>
            .cls-3{fill:#542000}.cls-4{fill:#401800}
        </style>
    </defs>
    <g id="_1" transform="translate(-.219 -.095)">
        <g id="그룹_1800">
            <circle id="타원_93" cx="40" cy="40" r="40" fill="#ffdc00" transform="translate(.218 .095)"/>
            <path id="패스_1844" fill="#ffb400" d="M110.975 67.05a40.052 40.052 0 0 1-73.783 21.59 40.053 40.053 0 0 0 63.9-47.938 39.891 39.891 0 0 1 9.883 26.348z" transform="translate(-30.878 -27.007)"/>
        </g>
        <g id="그룹_1803" transform="translate(18.028 22.66)">
            <g id="그룹_1801" transform="translate(32.92)">
                <path id="패스_1845" d="M85.649 55.895c0 4.25-2.489 7.7-5.56 7.7s-5.56-3.445-5.56-7.7 2.489-7.694 5.56-7.694 5.56 3.444 5.56 7.694z" class="cls-3" transform="translate(-74.529 -48.201)"/>
                <path id="패스_1846" d="M85.571 55.533c0 4.256-2.487 7.7-5.559 7.7-2.273 0-4.232-1.889-5.081-4.591a4.881 4.881 0 0 0 3.885 2.2c3.072 0 5.559-3.443 5.559-7.7a9.787 9.787 0 0 0-.49-3.12 9.289 9.289 0 0 1 1.686 5.511z" class="cls-4" transform="translate(-74.45 -47.845)"/>
            </g>
            <g id="그룹_1802">
                <path id="패스_1847" d="M58.111 55.895c0 4.25-2.489 7.7-5.56 7.7s-5.56-3.445-5.56-7.7 2.49-7.694 5.56-7.694 5.56 3.444 5.56 7.694z" class="cls-3" transform="translate(-46.991 -48.201)"/>
                <path id="패스_1848" d="M58.033 55.533c0 4.256-2.487 7.7-5.559 7.7-2.271 0-4.232-1.889-5.081-4.591a4.881 4.881 0 0 0 3.885 2.2c3.072 0 5.559-3.443 5.559-7.7a9.753 9.753 0 0 0-.49-3.12 9.289 9.289 0 0 1 1.686 5.511z" class="cls-4" transform="translate(-46.912 -47.845)"/>
            </g>
        </g>
        <g id="그룹_1804" transform="translate(22.745 48.001)">
            <path id="패스_1849" d="M85.545 69.4a17.3 17.3 0 1 1-34.608 0z" class="cls-4" transform="translate(-50.937 -69.399)"/>
            <path id="패스_1850" fill="#cc0a17" d="M77.837 82.022a17.3 17.3 0 0 1-21.358 0c1.206-4.3 5.535-7.482 10.679-7.482s9.473 3.181 10.679 7.482z" transform="translate(-49.854 -68.394)"/>
        </g>
    </g>
</svg>
