<svg xmlns="http://www.w3.org/2000/svg" width="30" height="30" viewBox="0 0 30 30">
    <g transform="translate(0 -.5)">
        <circle cx="15" cy="15" r="15" fill="#ffb612" transform="translate(0 .5)"/>
        <path fill="#fff" d="M9.148 1.385a1 1 0 0 1 1.7 0l2.432 3.954a1 1 0 0 0 .618.448l4.515 1.088a1 1 0 0 1 .53 1.625l-3.011 3.53a1 1 0 0 0-.236.726l.359 4.625a1 1 0 0 1-1.378 1l-4.295-1.771a1 1 0 0 0-.763 0l-4.295 1.77a1 1 0 0 1-1.378-1l.354-4.627a1 1 0 0 0-.236-.726L1.057 8.5a1 1 0 0 1 .526-1.621L6.1 5.788a1 1 0 0 0 .618-.448z" transform="translate(5 5.5)"/>
    </g>
</svg>
