<svg xmlns="http://www.w3.org/2000/svg" id="_9" width="80" height="80" viewBox="0 0 80 80">
    <defs>
        <style>
            .cls-3{fill:#401800}
        </style>
    </defs>
    <g id="그룹_1815">
        <ellipse id="타원_96" cx="39.793" cy="40" fill="#ffdc00" rx="39.793" ry="40"/>
        <path id="패스_1865" fill="#ffb400" d="M382.821 160.677a39.785 39.785 0 0 1-73.369 21.59 39.92 39.92 0 0 0 63.538-47.938 40.021 40.021 0 0 1 9.831 26.348z" transform="translate(-302.821 -120.729)"/>
    </g>
    <g id="그룹_1820" transform="translate(12.89 22.579)">
        <g id="그룹_1816">
            <path id="패스_1866" d="M324.69 141.841a10.34 10.34 0 0 1 8.3 3.78c4.016 4.722 2.127 7.3 1.155 5.91-1.829-2.618-4.964-5.855-9.247-5.66-4.941.225-6.984 3.322-8.544 5.7-.632.964-2.157.354-1.162-2.395a10.715 10.715 0 0 1 9.498-7.335z" class="cls-3" transform="translate(-314.863 -141.84)"/>
            <path id="패스_1867" d="M354.02 141.841a10.34 10.34 0 0 0-8.3 3.78c-4.016 4.722-2.127 7.3-1.155 5.91 1.828-2.618 4.964-5.855 9.247-5.66 4.941.225 6.984 3.322 8.544 5.7.632.964 2.157.354 1.162-2.395a10.715 10.715 0 0 0-9.498-7.335z" class="cls-3" transform="translate(-309.313 -141.84)"/>
        </g>
        <g id="그룹_1822" transform="translate(9.962 25.33)">
            <path id="패스_1868" d="M357.8 163.029a17.256 17.256 0 0 1-6.575 13.592c-.012.012-.036.024-.048.036a17.334 17.334 0 0 1-21.363 0c-.012-.012-.012-.012-.024-.012a17.289 17.289 0 0 1-6.6-13.616z" class="cls-3" transform="translate(-323.196 -163.029)"/>
            <path id="패스_1869" fill="#cc0a17" d="M350.095 175.2a17.3 17.3 0 0 1-21.358 0c1.206-4.3 7.32-6.771 10.679-2.7 3.157-4.032 9.473-1.6 10.679 2.7z" transform="translate(-322.113 -161.583)"/>
        </g>
    </g>
</svg>
