<svg xmlns="http://www.w3.org/2000/svg" width="168.097" height="97" viewBox="0 0 168.097 97">
    <defs>
        <clipPath id="clip-path">
            <path id="SVGID" d="M609.544 146.049l-5.136-.463a14.044 14.044 0 0 1-12.735-15.244l.5-5.536a16.628 16.628 0 0 1 18.058-15.057 16.621 16.621 0 0 1 15.069 18.04l-.5 5.536a14.05 14.05 0 0 1-15.256 12.724z" class="cls-1" transform="translate(-591.615 -109.68)"/>
        </clipPath>
        <clipPath id="clip-path-2">
            <path id="SVGID-2" d="M702.369 273.04c.387-.324 4.314.527 4.41.866.184.648-1.93 3.945-2.718 3.945s-2.242-4.351-1.692-4.811z" class="cls-2" transform="translate(-702.248 -272.968)"/>
        </clipPath>
        <style>
            .cls-1{fill:none}.cls-2{fill:#dd335c}.cls-3{fill:#00aaed}.cls-4{fill:#3d4459}.cls-5{fill:#fbe6b9}.cls-6{fill:#fba000}.cls-8{fill:#fff}
        </style>
    </defs>
    <g id="그룹_4419" transform="translate(-240 -553)">
        <g id="그룹_1837" transform="translate(-788 -10)">
            <g id="그룹_1834" transform="translate(751.661)">
                <g id="안녕" transform="rotate(14 -1505.78 -705.5)">
                    <g id="그룹_1780" transform="translate(583.42 117.597)">
                        <g id="그룹_1779" transform="translate(2.865 6.691)">
                            <path id="패스_1809" d="M834.285 333.605c1.213.406 2.651 1.175 2.483 1.634-.148.4-1.054.253-1.054.253s1.112.569.944 1.028c-.2.54-1.381.053-1.381.053s.732.68.563 1.049-1.819-.237-2.69-.636c-1.725-.786-.49-3.925 1.135-3.381z" class="cls-3" transform="translate(-832.316 -333.542)"/>
                            <path id="패스_1810" d="M833.89 355.22s.734 1.976 1.217 1.9.487-1.715.487-1.715z" class="cls-3" transform="translate(-833.683 -352.361)"/>
                        </g>
                        <path id="패스_1811" d="M814.859 292.958a1.68 1.68 0 0 1-1.259-.565 12.846 12.846 0 0 1-2.011-3.242 15.859 15.859 0 0 1-1-4.564 1.688 1.688 0 0 1 3.371-.19 12.508 12.508 0 0 0 .745 3.455 9.479 9.479 0 0 0 1.421 2.3 1.689 1.689 0 0 1-1.267 2.8z" class="cls-3" transform="translate(-810.587 -282.806)"/>
                    </g>
                    <g id="그룹_1781" transform="translate(559.712 125.377)">
                        <path id="패스_1812" d="M639.835 349.926h-6.541a.87.87 0 0 1 .467-.967l-2.788-7.157h9.39v7.6a.528.528 0 0 1-.528.524z" class="cls-4" transform="translate(-630.973 -341.802)"/>
                        <path id="패스_1813" d="M660.344 399.93a.573.573 0 0 1 .118-.527h.105a.483.483 0 0 0-.122.527z" class="cls-5" transform="translate(-656.453 -391.806)"/>
                        <path id="패스_1814" d="M653.944 399.93a.573.573 0 0 1 .118-.527h.105a.483.483 0 0 0-.122.527z" class="cls-5" transform="translate(-650.897 -391.806)"/>
                    </g>
                    <g id="그룹_1782" transform="translate(570.404 125.377)">
                        <path id="패스_1815" d="M712.5 349.926h6.541a.871.871 0 0 0-.467-.967l2.788-7.157h-9.389v7.6a.527.527 0 0 0 .527.524z" class="cls-4" transform="translate(-711.973 -341.802)"/>
                        <path id="패스_1816" d="M752.2 399.93a.573.573 0 0 0-.118-.527h-.105a.483.483 0 0 1 .122.527z" class="cls-5" transform="translate(-746.698 -391.806)"/>
                        <path id="패스_1817" d="M758.6 399.93a.572.572 0 0 0-.118-.527h-.105a.483.483 0 0 1 .122.527z" class="cls-5" transform="translate(-752.254 -391.806)"/>
                    </g>
                    <g id="그룹_1783" transform="translate(561.913 92.5)">
                        <path id="패스_1818" d="M652.255 95.818s-2.017-3.709-3.819-3.284.11 5.3.11 5.3z" class="cls-6" transform="translate(-647.662 -92.5)"/>
                    </g>
                    <g id="그룹_1784" transform="translate(579.336 94.317)">
                        <path id="패스_1819" d="M779.66 108.93s2.648-3.289 4.345-2.548-1.056 5.2-1.056 5.2z" class="cls-6" transform="translate(-779.66 -106.274)"/>
                    </g>
                    <path id="패스_1820" d="M609.544 146.049l-5.136-.463a14.044 14.044 0 0 1-12.735-15.244l.5-5.536a16.628 16.628 0 0 1 18.058-15.057 16.621 16.621 0 0 1 15.069 18.04l-.5 5.536a14.05 14.05 0 0 1-15.256 12.724z" class="cls-3" transform="translate(-37.105 -14.914)"/>
                    <g id="그룹_1786" transform="translate(554.511 94.766)">
                        <g id="그룹_1785" clip-path="url(#clip-path)">
                            <path id="패스_1821" d="M574.665 299.085s3.041-2.1 9.322.1c6.938 2.426 9.344 4.549 15.644 4.057a36.924 36.924 0 0 0 11.642-3.295l-1.232 13.66-36.39-3.277z" class="cls-4" transform="translate(-576.022 -273.322)"/>
                        </g>
                    </g>
                    <g id="그룹_1787" transform="translate(564.698 100.746)">
                        <circle id="타원_82" cx="7.243" cy="7.243" r="7.243" class="cls-8"/>
                        <circle id="타원_83" cx="4.261" cy="4.261" r="4.261" fill="#2c303a" transform="translate(2.992 2.971)"/>
                        <circle id="타원_84" cx="1.582" cy="1.582" r="1.582" class="cls-8" transform="translate(3.622 3.295)"/>
                    </g>
                    <g id="이빨_있는" transform="translate(569.118 116.3)">
                        <path id="패스_1823" fill="#bc2f24" d="M702.369 273.04c.387-.324 4.314.527 4.41.866.184.648-1.93 3.945-2.718 3.945s-2.242-4.351-1.692-4.811z" transform="translate(-702.248 -272.968)"/>
                        <g id="그룹_1789">
                            <path id="SVGID-3" d="M702.369 273.04c.387-.324 4.314.527 4.41.866.184.648-1.93 3.945-2.718 3.945s-2.242-4.351-1.692-4.811z" class="cls-2" transform="translate(-702.248 -272.968)"/>
                            <g id="그룹_1788" clip-path="url(#clip-path-2)">
                                <path id="패스_1824" d="M727.667 277.524c-.652-.211-.231-1.516-.231-1.516l1.305.422s-.422 1.305-1.074 1.094z" class="cls-8" transform="translate(-723.998 -275.607)"/>
                            </g>
                        </g>
                    </g>
                </g>
                <g id="그룹_1831" transform="translate(330 565)">
                    <path id="사각형_496" fill="#cfcfcf" d="M.833 0a.833.833 0 0 1 .833.833V22.9H0V.833A.833.833 0 0 1 .833 0z" transform="translate(1.135)"/>
                    <path id="패스_1874" fill="#ff4747" d="M390.874 147.941l-22.636 6.952c-.642.168-1.243-.463-1.243-1.306v-12.461c0-.843.6-1.474 1.243-1.305l22.636 6.951a.58.58 0 0 1 .371.584.58.58 0 0 1-.371.585z" transform="translate(-366.995 -138.398)"/>
                </g>
            </g>
            <path id="사각형_497" d="M0 0H79V27H0z" class="cls-1" transform="translate(1028 563)"/>
        </g>
        <path id="패스_1788" fill="#70da8b" d="M258.523 1451.079H106.584v-70h151.939l16.159 35z" transform="translate(133.416 -801.079)"/>
        <ellipse id="타원_103" cx="7" cy="4" class="cls-3" rx="7" ry="4" transform="translate(288.661 575.559)"/>
    </g>
</svg>
