<svg xmlns="http://www.w3.org/2000/svg" width="80" height="80" viewBox="0 0 80 80">
    <defs>
        <style>
            .cls-3{fill:#333}
        </style>
    </defs>
    <g id="_2" transform="translate(-.096 -.095)">
        <g id="그룹_1810">
            <circle id="타원_95" cx="40" cy="40" r="40" fill="#cfcfcf" transform="translate(.096 .095)"/>
            <path id="패스_1859" fill="#bbb" d="M201.728 67.05a40.052 40.052 0 0 1-73.783 21.59 40.053 40.053 0 0 0 63.9-47.938 39.891 39.891 0 0 1 9.883 26.348z" transform="translate(-121.632 -27.007)"/>
        </g>
        <g id="그룹_1814" transform="translate(18.028 22.66)">
            <g id="그룹_1813">
                <g id="그룹_1811" transform="translate(32.92)">
                    <path id="패스_1860" d="M176.4 55.895c0 4.25-2.49 7.7-5.56 7.7s-5.56-3.445-5.56-7.7 2.489-7.694 5.56-7.694 5.56 3.444 5.56 7.694z" class="cls-3" transform="translate(-165.283 -48.201)"/>
                    <path id="패스_1861" d="M176.324 55.533c0 4.256-2.487 7.7-5.559 7.7-2.271 0-4.232-1.889-5.081-4.591a4.881 4.881 0 0 0 3.885 2.2c3.072 0 5.559-3.443 5.559-7.7a9.753 9.753 0 0 0-.49-3.12 9.289 9.289 0 0 1 1.686 5.511z" class="cls-3" transform="translate(-165.205 -47.845)"/>
                </g>
                <g id="그룹_1812">
                    <path id="패스_1862" d="M148.865 55.895c0 4.25-2.489 7.7-5.56 7.7s-5.56-3.445-5.56-7.7 2.489-7.694 5.56-7.694 5.56 3.444 5.56 7.694z" class="cls-3" transform="translate(-137.745 -48.201)"/>
                    <path id="패스_1863" d="M148.786 55.533c0 4.256-2.487 7.7-5.559 7.7-2.271 0-4.232-1.889-5.081-4.591a4.881 4.881 0 0 0 3.885 2.2c3.072 0 5.559-3.443 5.559-7.7a9.753 9.753 0 0 0-.49-3.12 9.289 9.289 0 0 1 1.686 5.511z" class="cls-3" transform="translate(-137.667 -47.845)"/>
                </g>
            </g>
            <path id="패스_1864" d="M178.788 69.731a16.7 16.7 0 0 1-7.426 12.875 21.435 21.435 0 0 1-24.024 0 16.7 16.7 0 0 1-7.438-12.9 18.128 18.128 0 0 0 6.429 6.922 24.841 24.841 0 0 0 26.029 0 18.249 18.249 0 0 0 6.43-6.897z" class="cls-3" transform="translate(-137.324 -43.998)"/>
        </g>
    </g>
</svg>
