<svg xmlns="http://www.w3.org/2000/svg" width="32" height="32" viewBox="0 0 32 32">
    <g>
        <g>
            <path fill="none" d="M0 0H32V32H0z" transform="translate(0 -.333) translate(0 .333)"/>
        </g>
        <path fill="#9a73ff" d="M214.1 91.741a31.455 31.455 0 0 0 3.843-1.72v-3.075a29.635 29.635 0 0 0-3.852-1.609l-.706-1.717a31.883 31.883 0 0 0 1.5-3.935l-2.179-2.172a29.834 29.834 0 0 0-3.861 1.582l-1.712-.707a31.283 31.283 0 0 0-1.721-3.841h-3.071a29.15 29.15 0 0 0-1.615 3.849l-1.709.709a31.122 31.122 0 0 0-3.935-1.5l-2.174 2.172a29.731 29.731 0 0 0 1.581 3.865l-.707 1.712a31.764 31.764 0 0 0-3.842 1.715v3.077a29.353 29.353 0 0 0 3.852 1.615l.7 1.71a31.828 31.828 0 0 0-1.5 3.933l2.179 2.177A30.247 30.247 0 0 0 199.035 98l1.714.709a30.707 30.707 0 0 0 1.721 3.839h3.073a29.946 29.946 0 0 0 1.613-3.85l1.714-.708a31.269 31.269 0 0 0 3.929 1.5l2.174-2.173a29.54 29.54 0 0 0-1.58-3.863zm-10.157 1.294a4.486 4.486 0 1 1 4.486-4.488 4.5 4.5 0 0 1-4.486 4.488z" transform="translate(0 -.333) translate(-187.942 -72.213)"/>
    </g>
</svg>
