<svg xmlns="http://www.w3.org/2000/svg" width="361" height="278.388" viewBox="0 0 361 278.388">
    <defs>
        <clipPath id="clip-path">
            <path id="SVGID" fill="none" d="M643.216 214.349l-14.783-1.331a40.419 40.419 0 0 1-36.652-43.872l1.438-15.933a47.855 47.855 0 0 1 51.972-43.336 47.835 47.835 0 0 1 43.377 51.923l-1.437 15.933a40.436 40.436 0 0 1-43.915 36.616z" transform="translate(-591.615 -109.68)"/>
        </clipPath>
        <clipPath id="clip-path-2">
            <path id="SVGID-2" d="M702.6 273.176c1.113-.931 12.417 1.518 12.693 2.493.528 1.866-5.555 11.354-7.822 11.354s-6.456-12.523-4.871-13.847z" class="cls-2" transform="translate(-702.248 -272.968)"/>
        </clipPath>
        <style>
            .cls-2{fill:#dd335c}.cls-3{fill:#edf7fc}.cls-4{fill:#00aaed}.cls-5{fill:#3d4459}.cls-6{fill:#fbe6b9}.cls-7{fill:#fba000}.cls-9{fill:#fff}
        </style>
    </defs>
    <g id="그룹_4406" transform="translate(-849 -301)">
        <rect id="사각형_489" width="361" height="177" class="cls-3" rx="30" transform="translate(849 301)"/>
        <path id="패스_1789" d="M-316.977 1262.743s-4.424 40 61.939 40c0 0-18.434-22.222-18.434-40z" class="cls-3" transform="translate(1334.039 -800.409)"/>
        <g id="안녕" transform="translate(539.746 368.887)">
            <g id="그룹_1778" transform="translate(550.253 126.606)">
                <g id="그룹_1777">
                    <path id="패스_1806" d="M551.3 192.8c-1.044-3.528-1.6-8.191-.245-8.55 1.193-.315 2.336 2.068 2.336 2.068s-.493-3.562.866-3.921c1.6-.423 2.4 3.169 2.4 3.169s.4-2.848 1.546-3.059 2.442 4.679 2.939 7.392c.989 5.369-8.442 7.63-9.842 2.901z" class="cls-4" transform="translate(-550.253 -182.36)"/>
                    <path id="패스_1807" d="M574.159 198.468s3.448-4.992 2.47-6-4.847 1.68-4.847 1.68z" class="cls-4" transform="translate(-563.611 -188.489)"/>
                </g>
                <path id="패스_1808" d="M573.337 229.2c-.461 0-11.367-.16-17.448-9.066-4.533-6.64-3.3-14.386-3.149-15.247l9.563 1.721c0 .01-.724 4.627 1.611 8.047 3.169 4.641 9.447 4.827 9.51 4.829l-.062 4.858z" class="cls-4" transform="translate(-551.631 -196.337)"/>
            </g>
            <g id="그룹_1780" transform="translate(649.153 164.729)">
                <g id="그룹_1779" transform="translate(8.247 19.257)">
                    <path id="패스_1809" d="M837.984 333.724c3.49 1.167 7.631 3.381 7.146 4.7-.425 1.158-3.034.729-3.034.729s3.2 1.638 2.716 2.958c-.571 1.553-3.974.152-3.974.152s2.107 1.957 1.62 3.02-5.234-.682-7.742-1.831c-4.964-2.273-1.41-11.294 3.268-9.728z" class="cls-4" transform="translate(-832.316 -333.542)"/>
                    <path id="패스_1810" d="M833.89 355.22s2.114 5.687 3.5 5.465 1.4-4.934 1.4-4.934z" class="cls-4" transform="translate(-833.293 -346.992)"/>
                </g>
                <path id="패스_1811" d="M822.883 312.025a4.834 4.834 0 0 1-3.625-1.628 36.961 36.961 0 0 1-5.787-9.329 45.633 45.633 0 0 1-2.876-13.135 4.858 4.858 0 0 1 9.7-.547 35.989 35.989 0 0 0 2.144 9.945 27.276 27.276 0 0 0 4.09 6.621 4.861 4.861 0 0 1-3.647 8.072z" class="cls-4" transform="translate(-810.587 -282.806)"/>
            </g>
            <g id="그룹_1781" transform="translate(580.92 187.121)">
                <path id="패스_1812" d="M656.478 365.182h-18.825A2.505 2.505 0 0 1 639 362.4l-8.025-20.6H658v21.862a1.518 1.518 0 0 1-1.522 1.52z" class="cls-5" transform="translate(-630.973 -341.802)"/>
                <path id="패스_1813" d="M660.382 400.92a1.648 1.648 0 0 1 .34-1.518h.3a1.391 1.391 0 0 0-.351 1.518z" class="cls-6" transform="translate(-649.184 -377.54)"/>
                <path id="패스_1814" d="M653.982 400.92a1.648 1.648 0 0 1 .34-1.518h.3a1.391 1.391 0 0 0-.351 1.518z" class="cls-6" transform="translate(-645.213 -377.54)"/>
            </g>
            <g id="그룹_1782" transform="translate(611.694 187.121)">
                <path id="패스_1815" d="M713.491 365.182h18.825a2.506 2.506 0 0 0-1.346-2.782l8.03-20.6h-27.027v21.862a1.518 1.518 0 0 0 1.518 1.52z" class="cls-5" transform="translate(-711.973 -341.802)"/>
                <path id="패스_1816" d="M752.616 400.92a1.648 1.648 0 0 0-.34-1.518h-.3a1.391 1.391 0 0 1 .351 1.518z" class="cls-6" transform="translate(-736.791 -377.54)"/>
                <path id="패스_1817" d="M759.016 400.92a1.648 1.648 0 0 0-.34-1.518h-.3a1.391 1.391 0 0 1 .351 1.518z" class="cls-6" transform="translate(-740.762 -377.54)"/>
            </g>
            <g id="그룹_1783" transform="translate(587.256 92.5)">
                <path id="패스_1818" d="M660.88 102.049s-5.806-10.676-10.992-9.451.317 15.257.317 15.257z" class="cls-7" transform="translate(-647.662 -92.5)"/>
            </g>
            <g id="그룹_1784" transform="translate(637.399 97.728)">
                <path id="패스_1819" d="M779.66 113.919s7.622-9.465 12.506-7.333-3.04 14.954-3.04 14.954z" class="cls-7" transform="translate(-779.66 -106.274)"/>
            </g>
            <path id="패스_1820" d="M643.216 214.349l-14.783-1.331a40.419 40.419 0 0 1-36.652-43.872l1.438-15.933a47.855 47.855 0 0 1 51.972-43.336 47.835 47.835 0 0 1 43.377 51.923l-1.437 15.933a40.436 40.436 0 0 1-43.915 36.616z" class="cls-4" transform="translate(-25.663 -10.66)"/>
            <g id="그룹_1786" transform="translate(565.952 99.021)">
                <g id="그룹_1785" clip-path="url(#clip-path)">
                    <path id="패스_1821" d="M576.571 300.782s8.753-6.037 26.828.282c19.969 6.981 26.893 13.092 45.025 11.676 16.938-1.323 33.507-9.482 33.507-9.482l-3.547 39.313-104.733-9.431z" class="cls-5" transform="translate(-580.476 -226.637)"/>
                </g>
            </g>
            <g id="그룹_1787" transform="translate(595.271 116.231)">
                <circle id="타원_82" cx="20.846" cy="20.846" r="20.846" class="cls-9"/>
                <circle id="타원_83" cx="12.262" cy="12.262" r="12.262" fill="#2c303a" transform="translate(8.61 8.551)"/>
                <circle id="타원_84" cx="4.554" cy="4.554" r="4.554" class="cls-9" transform="translate(10.423 9.484)"/>
            </g>
            <g id="이빨_있는" transform="translate(607.992 160.995)">
                <path id="패스_1823" fill="#bc2f24" d="M702.6 273.176c1.113-.931 12.417 1.518 12.693 2.493.528 1.866-5.555 11.354-7.822 11.354s-6.456-12.523-4.871-13.847z" transform="translate(-702.248 -272.968)"/>
                <g id="그룹_1789">
                    <path id="SVGID-3" d="M702.6 273.176c1.113-.931 12.417 1.518 12.693 2.493.528 1.866-5.555 11.354-7.822 11.354s-6.456-12.523-4.871-13.847z" class="cls-2" transform="translate(-702.248 -272.968)"/>
                    <g id="그룹_1788" clip-path="url(#clip-path-2)">
                        <path id="패스_1824" d="M728.352 280.371c-1.878-.607-.664-4.363-.664-4.363l3.756 1.214s-1.214 3.756-3.092 3.149z" class="cls-9" transform="translate(-717.793 -274.854)"/>
                    </g>
                </g>
            </g>
        </g>
    </g>
</svg>
