<svg xmlns="http://www.w3.org/2000/svg" width="293" height="337" viewBox="0 0 293 337">
    <defs>
        <clipPath id="clip-path">
            <path id="SVGID" fill="none" d="M629.413 757.022l-17.132 2.489a47.17 47.17 0 0 1-53.47-39.874l-5.746-39.507c-4.435-30.5 17.215-55.3 47.729-59.737 30.514-4.433 58.336 13.189 62.772 43.684l5.746 39.507a47.151 47.151 0 0 1-39.899 53.438z" transform="translate(-552.487 -619.715)"/>
        </clipPath>
        <style>
            .cls-2{fill:#edf7fc}.cls-4{fill:#01b8fe}.cls-5{fill:#404a5e}.cls-6{fill:#fbe6b9}.cls-9{fill:#fff}.cls-10{fill:#2c303a}
        </style>
    </defs>
    <g id="그룹_4408" transform="translate(-917 -333)">
        <rect id="사각형_489" width="293" height="177" class="cls-2" rx="30" transform="translate(917 333)"/>
        <path id="패스_1789" d="M-316.977 1262.743s-4.424 40 61.939 40c0 0-18.434-22.222-18.434-40z" class="cls-2" transform="translate(1318.039 -768.409)"/>
        <g id="그룹_2365" transform="translate(4 -3)">
            <g id="그룹_2364">
                <ellipse id="타원_218" cx="42.5" cy="12.5" fill="#e6e6e6" rx="42.5" ry="12.5" transform="translate(1090 648)"/>
            </g>
            <g id="기본" transform="translate(531.134 -93.416)">
                <g id="그룹_1592" transform="translate(527.866 684.06)">
                    <g id="그룹_1591" transform="translate(0 26.766)">
                        <path id="패스_1790" d="M535.058 859.073c-3.72 2.148-7.942 5.646-7.079 7.043.756 1.225 3.64.127 3.64.127s-3.28 2.619-2.418 4.016c1.015 1.644 4.582-.751 4.582-.751s-1.954 2.729-1.149 3.833 5.829-2 8.429-3.9c5.149-3.757-1.018-13.248-6.005-10.368z" class="cls-4" transform="translate(-527.866 -858.537)"/>
                        <path id="패스_1791" d="M554.524 877.855s-1.093 7-2.733 7.067-2.754-5.318-2.754-5.318z" class="cls-4" transform="translate(-539.657 -869.296)"/>
                    </g>
                    <path id="패스_1792" d="M542.856 836.559a5.675 5.675 0 0 1-5.28-7.74c.148-.378 3.652-9.307 6.2-13.917 2.943-5.334 8.532-13.855 8.768-14.215a5.671 5.671 0 0 1 9.482 6.226c-.055.085-5.587 8.519-8.319 13.47-1.813 3.285-4.631 10.189-5.565 12.572a5.673 5.673 0 0 1-5.286 3.604z" class="cls-4" transform="translate(-533.056 -798.128)"/>
                </g>
                <g id="그룹_1594" transform="translate(642.313 648.305)">
                    <g id="그룹_1593" transform="translate(17.506)">
                        <path id="패스_1793" d="M836.46 731.758c2.837-3.226 5.718-7.89 4.454-8.937-1.109-.919-3.489 1.044-3.489 1.044s2.27-3.531 1.006-4.579c-1.487-1.233-4.1 2.178-4.1 2.178s.979-3.211-.137-4-4.883 3.759-6.74 6.389c-3.676 5.209 5.203 12.23 9.006 7.905z" class="cls-4" transform="translate(-826.173 -717.376)"/>
                        <path id="패스_1794" d="M826.11 728.641s-1.2-6.98.329-7.57 4.31 4.157 4.31 4.157z" class="cls-4" transform="translate(-825.661 -719.405)"/>
                    </g>
                    <path id="패스_1795" d="M791.815 763.15a5.672 5.672 0 0 1-.85-11.278c1.315-.212 5.184-1.265 7.345-3.58 3.942-4.224 5.411-11.822 5.644-14.393a5.671 5.671 0 0 1 11.3.976c-.113 1.338-1.323 13.3-8.653 21.156-5.259 5.634-13.077 6.928-13.951 7.058a5.746 5.746 0 0 1-.835.061z" class="cls-4" transform="translate(-786.15 -723.7)"/>
                </g>
                <g id="그룹_1595" transform="translate(568.306 726.123)">
                    <path id="패스_1796" d="M648.905 920.4h-21.976c-.214-1.08-.017-2.162 1.571-3.248l-9.369-24.052h31.546v25.521a1.772 1.772 0 0 1-1.772 1.779z" class="cls-5" transform="translate(-619.131 -893.102)"/>
                    <path id="패스_1797" d="M648.55 952.474a1.924 1.924 0 0 1 .4-1.772h.354a1.624 1.624 0 0 0-.409 1.772z" class="cls-6" transform="translate(-635.477 -925.181)"/>
                    <path id="패스_1798" d="M642.15 952.474a1.924 1.924 0 0 1 .4-1.772h.354a1.624 1.624 0 0 0-.409 1.772z" class="cls-6" transform="translate(-631.913 -925.181)"/>
                </g>
                <g id="그룹_1596" transform="translate(604.197 726.123)">
                    <path id="패스_1799" d="M701.9 920.4h21.976c.214-1.08.018-2.162-1.57-3.248l9.368-24.045h-31.543v25.521a1.772 1.772 0 0 0 1.769 1.772z" class="cls-5" transform="translate(-700.131 -893.102)"/>
                    <path id="패스_1800" d="M740.882 952.474a1.924 1.924 0 0 0-.4-1.772h-.355a1.624 1.624 0 0 1 .41 1.772z" class="cls-6" transform="translate(-722.408 -925.181)"/>
                    <path id="패스_1801" d="M747.282 952.474a1.924 1.924 0 0 0-.4-1.772h-.354a1.624 1.624 0 0 1 .41 1.772z" class="cls-6" transform="translate(-725.973 -925.181)"/>
                </g>
                <g id="그룹_1597" transform="translate(579.833 593.416)">
                    <path id="패스_1802" fill="#ffb612" d="M661.466 610.069s-4.565-17.486-10.51-16.622c-6.483.942-5.789 18.787-5.789 18.787z" transform="translate(-645.146 -593.416)"/>
                </g>
                <path id="패스_1803" d="M629.413 757.022l-17.132 2.489a47.17 47.17 0 0 1-53.47-39.874l-5.746-39.507c-4.435-30.5 17.215-55.3 47.729-59.737 30.514-4.433 58.336 13.189 62.772 43.684l5.746 39.507a47.151 47.151 0 0 1-39.899 53.438z" class="cls-4" transform="translate(-13.712 -14.647)"/>
                <g id="그룹_1599" transform="translate(538.775 605.068)">
                    <g id="그룹_1598" clip-path="url(#clip-path)">
                        <path id="패스_1804" d="M681.45 815.829s-11.767-6.037-32.416 2.471c-22.814 9.4-28.367 18.125-49.519 19.723-25.688 1.942-40.46-11.574-40.46-11.574l7.84 53.9L688.27 862.72z" class="cls-5" transform="translate(-556.145 -727.826)"/>
                    </g>
                </g>
                <g id="그룹_1600" transform="translate(551.331 630.37)">
                    <circle id="타원_76" cx="20.414" cy="20.414" r="20.414" class="cls-9" transform="translate(0 6.539)"/>
                    <circle id="타원_77" cx="12.008" cy="12.008" r="12.008" class="cls-10" transform="translate(9.395 14.295)"/>
                    <circle id="타원_78" cx="20.414" cy="20.414" r="20.414" class="cls-9" transform="translate(44.986)"/>
                    <circle id="타원_79" cx="12.008" cy="12.008" r="12.008" class="cls-10" transform="translate(53.066 7.947)"/>
                    <circle id="타원_80" cx="3.899" cy="3.899" r="3.899" class="cls-9" transform="translate(10.889 16.407)"/>
                    <circle id="타원_81" cx="3.899" cy="3.899" r="3.899" class="cls-9" transform="translate(54.209 10.11)"/>
                </g>
                <path id="패스_1805" fill="#dd335c" d="M681.772 765.342c-1.3-1.087-14.5 1.772-14.818 2.911-.617 2.178 6.485 13.255 9.131 13.255s7.532-14.622 5.687-16.166z" transform="translate(-77.437 -95.656)"/>
            </g>
        </g>
    </g>
</svg>
