<svg xmlns="http://www.w3.org/2000/svg" width="333" height="337" viewBox="0 0 333 337">
    <defs>
        <clipPath id="clip-path">
            <path id="SVGID" fill="none" d="M236.657 996.042l-18.51 1.637a50.6 50.6 0 0 1-54.911-45.836l-1.771-19.913a59.807 59.807 0 0 1 54.4-64.8 59.879 59.879 0 0 1 64.986 54.246l1.771 19.913a50.535 50.535 0 0 1-45.965 54.753z" transform="translate(-161.228 -866.889)"/>
        </clipPath>
        <style>
            .cls-2{fill:#edf7fc}.cls-4{fill:#00aaed}.cls-5{fill:#3d4459}.cls-6{fill:#fbe6b9}.cls-7{fill:#f5a200}.cls-9{fill:#fff}.cls-13{fill:#999}
        </style>
    </defs>
    <g id="그룹_4409" transform="translate(-877 -333)">
        <rect id="사각형_489" width="333" height="177" class="cls-2" rx="30" transform="translate(877 333)"/>
        <path id="패스_1789" d="M-316.977 1262.743s-4.424 40 61.939 40c0 0-18.434-22.222-18.434-40z" class="cls-2" transform="translate(1314.039 -768.409)"/>
        <g id="그룹_2366" transform="translate(-7)">
            <g id="그룹_2364" transform="translate(0 -3)">
                <ellipse id="타원_218" cx="42.5" cy="12.5" fill="#e6e6e6" rx="42.5" ry="12.5" transform="translate(1090 648)"/>
            </g>
            <g id="_" transform="translate(933.164 -335.14)">
                <g id="그룹_1887" transform="translate(246.776 917.089)">
                    <g id="그룹_1886" transform="translate(20.729)">
                        <path id="패스_1898" d="M434.5 1016.648c4.344 1.547 10.14 2.567 10.682.889.475-1.47-2.429-3.064-2.429-3.064s4.423.86 4.965-.817c.638-1.973-3.8-3.224-3.8-3.224s3.591-.3 3.933-1.725-5.688-3.375-9.049-4.181c-6.651-1.596-10.122 10.048-4.302 12.122z" class="cls-4" transform="translate(-431.542 -1001.852)"/>
                        <path id="패스_1899" d="M440.338 1002.01s6.482-3.974 7.68-2.681-2.433 5.95-2.433 5.95z" class="cls-4" transform="translate(-436.155 -999.07)"/>
                    </g>
                    <path id="패스_1900" d="M403.653 1030.65c-.4 0-.814-.011-1.234-.031-9.973-.5-14.112-8.023-14.462-12.961l12.145-.859a1.452 1.452 0 0 0-.02-.206c.235 1.535 1.7 1.8 2.941 1.865 4.41.218 5.564-1.859 5.813-2.5a1.5 1.5 0 0 0-.067.208l11.683 3.429c-1.152 3.916-6.116 11.055-16.799 11.055z" class="cls-4" transform="translate(-387.958 -1007.925)"/>
                </g>
                <g id="그룹_1889" transform="translate(118.726 929.894)">
                    <g id="그룹_1888">
                        <path id="패스_1901" d="M132.09 1043.648c-4.343 1.547-10.14 2.566-10.682.889-.476-1.471 2.428-3.064 2.428-3.064s-4.423.86-4.965-.817c-.638-1.973 3.8-3.224 3.8-3.224s-3.591-.3-3.933-1.726 5.689-3.375 9.049-4.181c6.656-1.595 10.127 10.049 4.303 12.123z" class="cls-4" transform="translate(-118.726 -1028.853)"/>
                        <path id="패스_1902" d="M135.522 1029.01s-6.482-3.974-7.68-2.681 2.432 5.95 2.432 5.95z" class="cls-4" transform="translate(-123.379 -1026.07)"/>
                    </g>
                    <path id="패스_1903" d="M145.114 1057.65c-10.685 0-15.651-7.139-16.8-11.056l11.686-3.429a1.5 1.5 0 0 0-.067-.208c.249.643 1.4 2.722 5.813 2.5 1.246-.062 2.705-.33 2.941-1.865a1.455 1.455 0 0 0-.02.206l12.145.858c-.349 4.938-4.489 12.465-14.462 12.961-.422.023-.834.033-1.236.033z" class="cls-4" transform="translate(-123.753 -1034.925)"/>
                </g>
                <g id="그룹_1890" transform="translate(164.978 964.842)">
                    <path id="패스_1904" d="M247.934 1129.1h-23.59c-.23-1.16-.019-2.321 1.686-3.486l-10.057-25.814h33.864v27.4a1.9 1.9 0 0 1-1.903 1.9z" class="cls-5" transform="translate(-215.973 -1099.802)"/>
                    <path id="패스_1905" d="M245.4 1159.3a2.065 2.065 0 0 1 .426-1.9h.38a1.743 1.743 0 0 0-.44 1.9z" class="cls-6" transform="translate(-231.364 -1130.007)"/>
                    <path id="패스_1906" d="M239 1159.3a2.065 2.065 0 0 1 .426-1.9h.38a1.743 1.743 0 0 0-.44 1.9z" class="cls-6" transform="translate(-228.008 -1130.007)"/>
                </g>
                <g id="그룹_1891" transform="translate(203.502 964.842)">
                    <path id="패스_1907" d="M298.875 1129.1h23.59c.23-1.16.019-2.321-1.686-3.486l10.057-25.811h-33.863v27.4a1.9 1.9 0 0 0 1.902 1.897z" class="cls-5" transform="translate(-296.973 -1099.802)"/>
                    <path id="패스_1908" d="M337.779 1159.3a2.065 2.065 0 0 0-.426-1.9h-.38a1.743 1.743 0 0 1 .44 1.9z" class="cls-6" transform="translate(-317.948 -1130.007)"/>
                    <path id="패스_1909" d="M344.179 1159.3a2.065 2.065 0 0 0-.426-1.9h-.38a1.743 1.743 0 0 1 .439 1.9z" class="cls-6" transform="translate(-321.305 -1130.007)"/>
                </g>
                <g id="그룹_1892" transform="translate(150.371 856.655)">
                    <path id="패스_1910" d="M203.986 877.315s-12.4-8.841-17.571-4.615 8.73 17.014 8.73 17.014z" class="cls-7" transform="translate(-185.262 -871.557)"/>
                </g>
                <g id="그룹_1893" transform="translate(218.655 850.59)">
                    <path id="패스_1911" d="M328.833 866.94s10.731-10.8 16.54-7.511-5.736 18.242-5.736 18.242z" class="cls-7" transform="translate(-328.833 -858.804)"/>
                </g>
                <path id="패스_1912" d="M236.657 996.042l-18.51 1.637a50.6 50.6 0 0 1-54.911-45.836l-1.771-19.913a59.807 59.807 0 0 1 54.4-64.8 59.879 59.879 0 0 1 64.986 54.246l1.771 19.913a50.535 50.535 0 0 1-45.965 54.753z" class="cls-4" transform="translate(-22.288 -12.453)"/>
                <g id="그룹_1895" transform="translate(138.94 854.435)">
                    <g id="그룹_1894" clip-path="url(#clip-path)">
                        <path id="패스_1913" d="M161.767 1063.488s9.442-9.363 33.117-5.595c26.156 4.163 36.045 10.145 58.07 4.388 20.575-5.378 39.175-19.081 39.175-19.081l4.369 49.132-131.135 11.6z" class="cls-5" transform="translate(-161.51 -959.58)"/>
                    </g>
                </g>
                <g id="그룹_1896" transform="translate(171.663 875.877)">
                    <circle id="타원_115" cx="26.122" cy="26.122" r="26.122" class="cls-9"/>
                    <circle id="타원_116" cx="15.366" cy="15.366" r="15.366" fill="#2c303a" transform="translate(10.116 3.011)"/>
                    <circle id="타원_117" cx="5.707" cy="5.707" r="5.707" class="cls-9" transform="translate(10.999 5.626)"/>
                </g>
                <path id="패스_1916" d="M268.156 903.832c3.5 7.023 24.66 15.241 32.476 12.614l2.1-5.412-32.474-12.614z" class="cls-4" transform="translate(-78.359 -29.061)"/>
                <path id="패스_1914" d="M297.147 1038.64c-2.469.137-2.745-4.8-2.745-4.8l4.939-.275s.275 4.935-2.194 5.075z" class="cls-9" transform="rotate(-31 75.454 1146.324)"/>
                <path id="패스_1915" fill="#ad1c45" d="M278.3 1037.034a1.656 1.656 0 0 1-1.773-1.347c-.312-4.492 4.339-7.058 9.095-7.271s9.732 1.922 10.044 6.414a1.584 1.584 0 0 1-1.675 1.5 1.68 1.68 0 0 1-1.873-1.345c-.219-3.152-4.066-3.825-6.3-3.724s-5.962 1.111-5.743 4.263a1.582 1.582 0 0 1-1.675 1.5c-.035.01-.069.01-.1.01z" transform="rotate(180 243.526 984.03)"/>
            </g>
            <g id="그룹_2075" transform="translate(-11.666 -7.667)">
                <g id="그룹_2077" transform="translate(1033 572)">
                    <circle id="타원_159" cx="18.5" cy="18.5" r="18.5" class="cls-9" transform="translate(6.667 11.667)"/>
                    <g id="그룹_2076">
                        <path id="사각형_1245" fill="rgba(255,255,255,0)" d="M0 0H50V50H0z" transform="translate(-.333 -.333)"/>
                        <g id="그룹_1846" transform="translate(4.139)">
                            <path id="패스_2759" d="M155.354 278.757a20.538 20.538 0 1 0 22.582-20.436v-1.486h.936a.622.622 0 0 0 .622-.622v-5.963a.622.622 0 0 0-.622-.622h-5.961a.622.622 0 0 0-.622.622v5.961a.622.622 0 0 0 .622.622h.936v1.486a20.389 20.389 0 0 0-8.319 2.711l-.746-1.113.486-.325a.388.388 0 0 0 .106-.539l-2.072-3.091a.389.389 0 0 0-.539-.106l-3.091 2.071a.388.388 0 0 0-.106.539l2.072 3.091a.388.388 0 0 0 .539.106l.485-.325.749 1.118a20.515 20.515 0 0 0-8.057 16.301zm2.976 0a17.562 17.562 0 1 1 17.562 17.562 17.582 17.582 0 0 1-17.562-17.562z" class="cls-13" transform="translate(-155.354 -249.628)"/>
                            <path id="패스_2760" fill="#f84d4d" d="M0 17.8l1.3-.009L.732.193A.2.2 0 0 0 .531 0a.2.2 0 0 0-.2.2z" transform="rotate(42 -7.971 48.16)"/>
                            <circle id="타원_95" cx="1.685" cy="1.685" r="1.685" class="cls-13" transform="rotate(-82.858 26.66 4.725)"/>
                        </g>
                    </g>
                </g>
                <ellipse id="타원_158" cx="3.104" cy="5.587" class="cls-4" rx="3.104" ry="5.587" transform="rotate(-31 1626.363 -1626.874)"/>
            </g>
        </g>
    </g>
</svg>
