<svg xmlns="http://www.w3.org/2000/svg" xmlns:xlink="http://www.w3.org/1999/xlink" width="361" height="334" viewBox="0 0 361 334">
    <defs>
        <linearGradient id="linear-gradient" x2="1" y1=".5" y2=".5" gradientUnits="objectBoundingBox">
            <stop offset="0" stop-color="#01b8fe"/>
            <stop offset=".325" stop-color="#02b5fb"/>
            <stop offset=".528" stop-color="#06adf2"/>
            <stop offset=".697" stop-color="#0ca0e4"/>
            <stop offset=".848" stop-color="#168dcf"/>
            <stop offset=".985" stop-color="#2275b5"/>
            <stop offset="1" stop-color="#2472b2"/>
        </linearGradient>
        <linearGradient id="linear-gradient-2" x1="1.191" x2="-.291" y1=".595" y2=".392" xlink:href="#linear-gradient"/>
        <clipPath id="clip-path">
            <path id="SVGID" fill="none" d="M1080.089 582.462h-17.157a46.76 46.76 0 0 1-46.752-46.769v-39.6c0-30.569 24.772-51.836 55.33-51.836s55.33 21.267 55.33 51.836v39.6a46.76 46.76 0 0 1-46.751 46.769z" transform="translate(-1016.18 -444.254)"/>
        </clipPath>
        <style>
            .cls-3{fill:#3d4459}.cls-4{fill:#fbe6b9}.cls-6{fill:#01b8fe}.cls-8{fill:#fff}.cls-9{fill:#2c303a}.cls-14{fill:#ffd41d}.cls-15{fill:#edf7fc}
        </style>
    </defs>
    <g id="그룹_4407" transform="translate(-849 -336)">
        <g id="그룹_2364" transform="translate(0 .5)">
            <ellipse id="타원_218" cx="42.5" cy="12.5" fill="#e6e6e6" rx="42.5" ry="12.5" transform="translate(1090 644.5)"/>
            <g id="기본" transform="translate(82 81.183)">
                <g id="그룹_1790" transform="translate(1017.754 548.757)">
                    <path id="패스_1825" d="M1095.778 743.171l-10.278 1.692h-11.8c-.212-1.071-.018-2.143 1.557-3.22l-9.288-23.84h31.277v23.635a1.757 1.757 0 0 1-1.468 1.733z" class="cls-3" transform="translate(-1065.973 -717.802)"/>
                    <path id="패스_1826" d="M1095.391 777.159a1.907 1.907 0 0 1 .393-1.757h.351a1.61 1.61 0 0 0-.406 1.757z" class="cls-4" transform="translate(-1082.43 -750.099)"/>
                    <path id="패스_1827" d="M1088.991 777.159a1.908 1.908 0 0 1 .393-1.757h.352a1.61 1.61 0 0 0-.406 1.757z" class="cls-4" transform="translate(-1078.841 -750.099)"/>
                </g>
                <g id="그룹_1791" transform="translate(1053.324 548.757)">
                    <path id="패스_1828" d="M1148.445 743.171l10.278 1.692h11.8c.212-1.071.017-2.143-1.557-3.22l9.289-23.84h-31.278v23.635a1.757 1.757 0 0 0 1.468 1.733z" class="cls-3" transform="translate(-1146.973 -717.802)"/>
                    <path id="패스_1829" d="M1187.718 777.159a1.908 1.908 0 0 0-.393-1.757h-.351a1.61 1.61 0 0 1 .406 1.757z" class="cls-4" transform="translate(-1169.401 -750.099)"/>
                    <path id="패스_1830" d="M1194.118 777.159a1.908 1.908 0 0 0-.393-1.757h-.351a1.61 1.61 0 0 1 .406 1.757z" class="cls-4" transform="translate(-1172.99 -750.099)"/>
                </g>
                <g id="그룹_1792" transform="translate(1043.21 416.317)">
                    <path id="패스_1831" fill="#ffb612" d="M1140.235 434.125s-1.985-17.808-7.941-17.808c-6.5 0-8.359 17.607-8.359 17.607z" transform="translate(-1123.935 -416.317)"/>
                </g>
                <path id="패스_1832" d="M1080.089 582.462h-17.157a46.76 46.76 0 0 1-46.752-46.769v-39.6c0-30.569 24.772-51.836 55.33-51.836s55.33 21.267 55.33 51.836v39.6a46.76 46.76 0 0 1-46.751 46.769z" class="cls-6" transform="translate(-20.286 -15.664)"/>
                <g id="그룹_1794" transform="translate(995.894 428.589)">
                    <g id="그룹_1793" clip-path="url(#clip-path)">
                        <path id="패스_1833" d="M1130.531 645.427s-10.679-7.6-32.144-2.2c-23.715 5.974-30.405 13.747-51.378 12.3-25.469-1.757-38.029-17.132-38.029-17.132v54.033h121.551z" class="cls-3" transform="translate(-1012.142 -553.112)"/>
                    </g>
                </g>
                <g id="그룹_1795" transform="translate(1008.91 457.007)">
                    <circle id="타원_85" cx="20.24" cy="20.24" r="20.24" class="cls-8"/>
                    <circle id="타원_86" cx="11.906" cy="11.906" r="11.906" class="cls-9" transform="translate(8.519 8.277)"/>
                    <circle id="타원_87" cx="20.24" cy="20.24" r="20.24" class="cls-8" transform="translate(44.632)"/>
                    <circle id="타원_88" cx="11.906" cy="11.906" r="11.906" class="cls-9" transform="translate(53.151 8.277)"/>
                    <circle id="타원_89" cx="3.866" cy="3.866" r="3.866" class="cls-8" transform="translate(10.924 9.489)"/>
                    <circle id="타원_90" cx="2.706" cy="2.706" r="2.706" class="cls-8" transform="translate(23.505 19.434)"/>
                    <circle id="타원_91" cx="3.866" cy="3.866" r="3.866" class="cls-8" transform="translate(55.204 9.489)"/>
                    <circle id="타원_92" cx="2.706" cy="2.706" r="2.706" class="cls-8" transform="translate(68.225 19.434)"/>
                </g>
                <path id="패스_1834" d="M1054 581.15s5.272-6.15 16.693-6.15 17.132 6.15 17.132 6.15v6.15H1054z" class="cls-6" transform="translate(-41.504 -88.975)"/>
                <path id="패스_1835" d="M1155 581.15s5.271-6.15 16.693-6.15 17.132 6.15 17.132 6.15v6.15H1155z" class="cls-6" transform="translate(-98.152 -88.975)"/>
                <path id="패스_1836" fill="#dd335c" d="M1134.581 593.521c-4.262-2.842-8.347.439-12.3.439s-7.937-3.124-12.3-.439c-5.711 3.514-.879 18.89 12.3 18.89s17.571-15.375 12.3-18.89z" transform="translate(-71.574 -98.71)"/>
                <path id="패스_1837" fill="#ed727e" d="M1136.747 614.19c-2.789-.93-5.112 1.859-5.112 1.859s-2.324-2.789-5.112-1.859-2.789 4.183-.93 6.507a7.94 7.94 0 0 0 12.084 0c1.858-2.324 1.858-5.578-.93-6.507z" transform="translate(-80.928 -110.843)"/>
                <g id="그룹_1797" transform="translate(999.797 497.432)">
                    <path id="패스_1838" d="M1038.188 629.88c-4.147 0-8.154-1.349-10.729-5.028-5.588-7.983.268-19.592.954-20.89a5.623 5.623 0 0 1 9.95 5.241c-1.6 3.082-2.69 7.772-1.691 9.2.687.474 3.879.178 6.45-.867a5.623 5.623 0 1 1 4.3 10.39 24.666 24.666 0 0 1-9.234 1.954z" class="cls-6" transform="translate(-1025.065 -600.967)"/>
                    <g id="그룹_1796" transform="translate(16.203 15.148)">
                        <path id="패스_1839" fill="url(#linear-gradient)" d="M1067.3 647.646c4.85-.264 7.106-2.262 6.969-3.609-.183-1.8-1.319-1.44-1.319-1.44s1.186-.289.88-2.074c-.324-1.888-1.443-1.973-1.443-1.973s.9-.194.564-1.541c-.429-1.7-4.17-1.9-7.269-1.132-6.132 1.515-4.082 12.079 1.618 11.769z" transform="translate(-1061.951 -635.449)"/>
                    </g>
                </g>
                <g id="그룹_1799" transform="translate(1073.976 497.437)">
                    <path id="패스_1840" d="M1213.042 630.162a26.779 26.779 0 0 1-10.223-2.25 5.623 5.623 0 1 1 4.427-10.338c2.8 1.176 6.217 1.62 7.2 1.187.726-1.326-.45-5.949-2.4-9.349a5.623 5.623 0 0 1 9.728-5.642c1.281 2.2 7.391 13.588 1.832 21.529-2.486 3.548-6.415 4.863-10.564 4.863z" class="cls-6" transform="translate(-1197.032 -600.979)"/>
                    <g id="그룹_1798" transform="translate(0 15.142)">
                        <path id="패스_1841" fill="url(#linear-gradient-2)" d="M1200.641 647.646c-4.85-.264-6.641-1.8-6.641-3.609 0-1.318.991-1.44.991-1.44s-.991-.317-.991-2.074a1.827 1.827 0 0 1 1.555-1.973s-1.015-.194-.676-1.541c.429-1.7 4.281-1.9 7.381-1.132 6.135 1.515 4.083 12.079-1.619 11.769z" transform="translate(-1194 -635.449)"/>
                    </g>
                </g>
                <path id="패스_1842" d="M987.907 482.814a7.907 7.907 0 0 0-7.907-7.907 7.907 7.907 0 0 0 7.907-7.907 7.907 7.907 0 0 0 7.907 7.907 7.907 7.907 0 0 0-7.907 7.907z" class="cls-14" transform="translate(0 -28.418)"/>
                <path id="패스_1843" d="M1288.907 552.815a7.907 7.907 0 0 0-7.907-7.907 7.907 7.907 0 0 0 7.907-7.907 7.907 7.907 0 0 0 7.907 7.907 7.907 7.907 0 0 0-7.907 7.907z" class="cls-14" transform="translate(-168.814 -67.668)"/>
            </g>
        </g>
        <rect id="사각형_489" width="361" height="143" class="cls-15" rx="30" transform="translate(849 336)"/>
        <path id="패스_1789" d="M-316.977 1262.743s-4.424 40 61.939 40c0 0-18.434-22.222-18.434-40z" class="cls-15" transform="translate(1334.039 -800.409)"/>
    </g>
</svg>
