<svg xmlns="http://www.w3.org/2000/svg" id="그룹_4400" width="230" height="54.084" viewBox="0 0 230 54.084">
    <defs>
        <style>
            .cls-1{fill:#00aaed}.cls-3{fill:#fff}.cls-5{fill:#404a5e}
        </style>
    </defs>
    <circle id="타원_44" cx="14.469" cy="14.469" r="14.469" class="cls-1" transform="translate(1.499 15.181)"/>
    <path id="패스_8554" d="M1443.577 650.166a8.8 8.8 0 0 0-2.721-3.273 12.539 12.539 0 0 0-4.094-1.934 20.176 20.176 0 0 0-10.2 0 12.538 12.538 0 0 0-4.094 1.934 8.794 8.794 0 0 0-2.721 3.273 11.656 11.656 0 0 0 0 9.344 8.779 8.779 0 0 0 2.721 3.273 12.509 12.509 0 0 0 4.094 1.934 20.176 20.176 0 0 0 10.2 0 12.51 12.51 0 0 0 4.094-1.934 8.788 8.788 0 0 0 2.721-3.273 11.657 11.657 0 0 0 0-9.344zm-7.528 6.338a3.585 3.585 0 0 1-1.083 1.161 4.628 4.628 0 0 1-1.532.655 7.615 7.615 0 0 1-3.539 0 4.62 4.62 0 0 1-1.532-.655 3.569 3.569 0 0 1-1.083-1.161 3.5 3.5 0 0 1 0-3.333 3.575 3.575 0 0 1 1.083-1.161 4.64 4.64 0 0 1 1.532-.655 7.624 7.624 0 0 1 3.539 0 4.648 4.648 0 0 1 1.532.655 3.591 3.591 0 0 1 1.083 1.161 3.5 3.5 0 0 1 0 3.333z" class="cls-1" transform="translate(-1293.301 -629.862)"/>
    <path id="패스_8556" d="M1191.8 701.2v.006h.007z" class="cls-1" transform="translate(-1129.788 -672.532)"/>
    <rect id="사각형_1607" width="31.938" height="7.317" class="cls-1" rx="3.659" transform="translate(0 6.15)"/>
    <rect id="사각형_1609" width="9.917" height="9.306" class="cls-1" rx="4.653" transform="rotate(-90 10.617 -.7)"/>
    <rect id="사각형_1623" width="9.917" height="9.306" fill="#ffb612" rx="4.653" transform="rotate(-90 71.897 -61.98)"/>
    <rect id="사각형_1610" width="11.789" height="8.594" class="cls-1" rx="4.297" transform="translate(42.5 19.785)"/>
    <rect id="사각형_1611" width="40.229" height="9.441" class="cls-1" rx="4.721" transform="rotate(-90 99.273 -59.045)"/>
    <rect id="사각형_1612" width="11.789" height="8.594" class="cls-1" rx="4.297" transform="translate(164.343 15.026)"/>
    <g id="그룹_4233" transform="translate(8.277 21.959)">
        <circle id="타원_44-2" cx="7.692" cy="7.692" r="7.692" class="cls-3"/>
        <circle id="타원_45" cx="4.524" cy="4.524" r="4.524" fill="#2c303a" transform="translate(3.168 3.168)"/>
        <circle id="타원_46" cx="1.68" cy="1.68" r="1.68" class="cls-3" transform="translate(3.433 3.993)"/>
    </g>
    <circle id="타원_541" cx="4.721" cy="4.721" r="4.721" class="cls-5" transform="translate(158.348 30.779)"/>
    <g id="그룹_4234" transform="translate(36.51)">
        <rect id="사각형_1613" width="54.084" height="9.441" class="cls-1" rx="4.721" transform="rotate(-90 27.042 27.042)"/>
        <circle id="타원_542" cx="4.721" cy="4.721" r="4.721" class="cls-5" transform="translate(0 44.643)"/>
    </g>
    <g id="그룹_4236" transform="translate(55.421 27.659)">
        <g id="그룹_4235">
            <rect id="사각형_1614" width="20.945" height="9.441" class="cls-1" rx="4.721" transform="rotate(-90 24.235 2.19)"/>
            <path id="패스_8557" d="M1220.726 709.034c0-.009-.007-.019-.011-.028a2.681 2.681 0 0 0-.677-.792 3.648 3.648 0 0 0-3.523-.759c-.492.155-.967.361-1.469.489l-1.237.314c-.837.214-1.673.435-2.5.686q-1.443.439-3.637.878a50.5 50.5 0 0 1-5.424.846 69.488 69.488 0 0 1-7.43.345q-3.95 0-7.3-.314t-5.925-.753q-2.572-.438-4.327-.878c-.974-.243-1.94-.516-2.908-.784-1.017-.281-1.823-1-2.925-1a3.72 3.72 0 0 0-.876 7.3 23.483 23.483 0 0 0 3.824 1.191q2.508.691 5.737 1.254t7.054.94q1.3.162 2.646.23l9.441.046q1.574-.116 3.149-.276 3.762-.376 6.96-.94 3.134-.564 5.517-1.223a23.568 23.568 0 0 0 3.573-1.223 4.75 4.75 0 0 0 1.455-.8l.04-.033q.091-.077.174-.159c.065-.062.127-.126.187-.193l.028-.031a3.639 3.639 0 0 0 .383-4.339z" class="cls-1" transform="translate(-1167.773 -707.287)"/>
        </g>
        <circle id="타원_543" cx="4.721" cy="4.721" r="4.721" class="cls-5" transform="translate(22.044 16.984)"/>
    </g>
    <path id="패스_8558" d="M1234.08 631.247a3.407 3.407 0 0 0-3.662-3.6 9.023 9.023 0 0 0-1.852.346c-.638.136-1.279.264-1.913.417q-.828.2-2.293.549t-3.681.655a51.179 51.179 0 0 1-5.464.522h-.064q-1.375.043-2.885.044-3.95 0-7.3-.309-2.242-.206-4.131-.468v-1.485c0-.341.156-.512.472-.512h24.606q2.891 0 3.983-1.049t1.092-3.848v-6.82q0-2.856-1.092-3.905t-3.983-1.049h-30.035a1.178 1.178 0 0 0-.158.013c-.084-.006-.168-.013-.255-.013a3.6 3.6 0 1 0 0 7.2c.086 0 .17-.007.255-.013a1.188 1.188 0 0 0 .158.013h25.669c.314 0 .472.136.472.407v1.684c0 .272-.158.406-.472.406h-24.606q-2.892 0-4.013 1.017t-1.121 3.863v2.165s0 4.446.006 4.447c0 .037-.006.073-.006.11a3.62 3.62 0 0 0 3.068 3.554c.684.16 1.62.324 2.692.516 2.15.384 4.5.679 7.054.926q1.505.185 3.072.247l6.76.049v.013l.3-.011 1.47.011q1.818-.122 3.636-.309.49-.048.969-.1v-.015c.381-.038.759-.078 1.129-.121q3.162-.375 5.579-.886a23.865 23.865 0 0 0 3.639-1 3.685 3.685 0 0 0 2.6-2.077 4.486 4.486 0 0 0 .305-1.584z" class="cls-1" transform="translate(-1129.801 -609.193)"/>
    <path id="패스_8559" d="M1662.738 616.372c-.044 0-.088-.013-.131-.013h-4.821q.471-2.081.766-4.361a37.552 37.552 0 0 0 .295-4.812v-3.6a4.614 4.614 0 0 0-1.326-3.545 6.235 6.235 0 0 0-4.331-1.238h-28.577a5.841 5.841 0 0 0-3.153.732 3.619 3.619 0 0 0 0 5.29 5.833 5.833 0 0 0 3.153.732h24.217a1.722 1.722 0 0 1 .854.14q.206.141.206.76v2.195a37.041 37.041 0 0 1-.206 3.911q-.207 1.941-.56 3.8h-32.284c-.018 0-.036 0-.054.005-.033 0-.066-.005-.1-.005a3.323 3.323 0 1 0 0 6.641H1662.607a1.637 1.637 0 0 0 .187-.015h.05l.033-.005a3.308 3.308 0 0 0-.139-6.6z" class="cls-1" transform="translate(-1435.919 -597.262)"/>
    <path id="패스_8560" d="M1476 739.138c-.065 0-.129.007-.194.01h-24.433a1.26 1.26 0 0 1-.826-.178 1.287 1.287 0 0 1-.177-.833v-4.285a.321.321 0 0 0-.027-.124 4.768 4.768 0 0 0-9.522.07.346.346 0 0 0-.011.054v7.915q0 2.857 1.21 4.047t4.1 1.19H1476a3.933 3.933 0 1 0 0-7.866z" class="cls-5" transform="translate(-1310.663 -692.919)"/>
    <path id="패스_8561" d="M1678.277 723.81a3.36 3.36 0 0 0-3.386-3.356c-.132 0-.251 0-.392-.006h-27.274a.363.363 0 0 1-.412-.409v-1.927a.363.363 0 0 1 .412-.409h24.807q2.886 0 3.977-1.051t1.09-3.911v-5.78q0-2.859-1.09-3.911t-3.978-1.05h-30.791a3.267 3.267 0 0 0 0 6.533h.04c.024 0 .05.008.073.008h26.495a.363.363 0 0 1 .412.409v1.81a.363.363 0 0 1-.412.409H1643.1q-2.887 0-4.007 1.022t-1.119 3.882v6.189q0 2.859 1.119 3.912t4.007 1.051h31.791a3.463 3.463 0 0 0 .61-.084 3.377 3.377 0 0 0 2.776-3.327z" class="cls-5" transform="translate(-1453.874 -673.137)"/>
    <rect id="사각형_1624" width="31.938" height="7.317" class="cls-1" rx="3.659" transform="translate(122.377 6.15)"/>
</svg>
