<svg xmlns="http://www.w3.org/2000/svg" width="52" height="52" viewBox="0 0 52 52">
    <g>
        <g transform="translate(-1063 -38) translate(1063.001 38)">
            <circle cx="26" cy="26" r="26" fill="#34cc67" transform="translate(-.001)"/>
        </g>
        <path fill="#fff" d="M108.04 246.045a4.1 4.1 0 1 0-5.582-4.989c-.018.058-.03.117-.047.174l-17.789-5.715c.021-.058.045-.111.063-.17a4.1 4.1 0 1 0-7.405.871 4.1 4.1 0 1 0 5.448 5.19l17.794 5.717a4.1 4.1 0 1 0 7.517-1.079z" transform="translate(-1063 -38) translate(996.211 -176.991)"/>
    </g>
</svg>
