<svg xmlns="http://www.w3.org/2000/svg" width="64" height="64" viewBox="0 0 64 64">
    <g transform="translate(123.524 -12.525)">
        <circle cx="32" cy="32" r="32" fill="#fff" transform="translate(-123.524 12.525)"/>
        <g>
            <path fill="#07abf1" d="M-79.294 26.525v1.231a2.462 2.462 0 0 1-2.462 2.462 2.462 2.462 0 0 1-2.462-2.462v-1.231H-91.6v1.231a2.462 2.462 0 0 1-2.462 2.462 2.462 2.462 0 0 1-2.462-2.462v-1.231h-7.385v1.231a2.462 2.462 0 0 1-2.462 2.462 2.462 2.462 0 0 1-2.462-2.462v-1.231h-3.692v29.539H-75.6V26.525zm-12.843 22.243a1.661 1.661 0 0 1-.434 1.2 1.584 1.584 0 0 1-1.2.453 1.593 1.593 0 0 1-1.191-.453 1.641 1.641 0 0 1-.443-1.2V38.546h-1.318a2.07 2.07 0 0 1-1.222-.334 1.235 1.235 0 0 1-.471-1.083 1.233 1.233 0 0 1 .471-1.083 2.062 2.062 0 0 1 1.222-.336h2.7a1.91 1.91 0 0 1 1.447.473 2.1 2.1 0 0 1 .444 1.477z" transform="translate(-109.986 29.756) translate(112.525 -26.525)"/>
        </g>
    </g>
</svg>
