<svg xmlns="http://www.w3.org/2000/svg" width="52" height="52" viewBox="0 0 52 52">
    <g transform="translate(123.525 -12.525)">
        <circle cx="26" cy="26" r="26" fill="#00b4f2" transform="translate(-123.525 12.525)"/>
        <g>
            <path fill="#fff" d="M-85.525 26.525v1a2 2 0 0 1-2 2 2 2 0 0 1-2-2v-1h-6v1a2 2 0 0 1-2 2 2 2 0 0 1-2-2v-1h-6v1a2 2 0 0 1-2 2 2 2 0 0 1-2-2v-1h-3v24h30v-24zM-95.96 44.6a1.35 1.35 0 0 1-.353.975 1.287 1.287 0 0 1-.976.368 1.294 1.294 0 0 1-.968-.368 1.333 1.333 0 0 1-.36-.975v-8.308h-1.071a1.682 1.682 0 0 1-.993-.271 1 1 0 0 1-.383-.88 1 1 0 0 1 .383-.88 1.675 1.675 0 0 1 .993-.273h2.188a1.552 1.552 0 0 1 1.176.384 1.708 1.708 0 0 1 .361 1.2z"/>
        </g>
    </g>
</svg>
