<svg xmlns="http://www.w3.org/2000/svg" width="64" height="64" viewBox="0 0 64 64">
    <defs>
        <clipPath id="clip-path">
            <path id="사각형_293" d="M0 0H26.795V34.299H0z" class="cls-1"/>
        </clipPath>
        <style>
            .cls-1{fill:#50acdb}
        </style>
    </defs>
    <g id="parents_열쇠" transform="translate(-625.587 -12.467)">
        <circle id="타원_1039" cx="32" cy="32" r="32" fill="#fff" transform="translate(625.587 12.467)"/>
        <g id="그룹_651" transform="translate(644.189 27.415)">
            <g id="그룹_651-2" clip-path="url(#clip-path)">
                <path id="패스_1494" d="M23.7 13.456V8.174C23.7 4.37 18.863 0 14.347 0H12.6C7.83 0 3.247 4.37 3.247 8.174v5.268A3.248 3.248 0 0 0 0 16.6v14.537A3.26 3.26 0 0 0 3.349 34.3h20.1a3.26 3.26 0 0 0 3.351-3.163V16.6a3.235 3.235 0 0 0-3.1-3.144M13.346 4.208h.054c2.779 0 5.465 2.254 5.465 5.033v4.19H7.83V9.242c0-2.779 2.737-5.033 5.516-5.033m1.225 20.25v3.288a1.07 1.07 0 0 1-1.172.926 1.071 1.071 0 0 1-1.172-.926v-3.288a2.707 2.707 0 1 1 2.345 0" class="cls-1"/>
            </g>
        </g>
    </g>
</svg>
