<svg xmlns="http://www.w3.org/2000/svg" width="64" height="64" viewBox="0 0 64 64">
    <g>
        <g transform="translate(-1057 -189) translate(119.453 147.323)">
            <circle cx="32" cy="32" r="32" fill="#fff" transform="translate(937.547 41.677)"/>
        </g>
        <path fill="#34cc67" d="M115.713 249.749a5.043 5.043 0 1 0-6.87-6.14c-.022.072-.037.144-.057.214l-21.894-7.034c.026-.071.055-.136.078-.209a5.045 5.045 0 1 0-9.114 1.072 5.042 5.042 0 1 0 6.706 6.387l21.9 7.037a5.043 5.043 0 1 0 9.251-1.327z" transform="translate(-1057 -189) translate(992.057 -22.53)"/>
    </g>
</svg>
