<svg xmlns="http://www.w3.org/2000/svg" width="52" height="52" viewBox="0 0 52 52">
    <g>
        <g transform="translate(-1063 -38) translate(1063.001 38)">
            <circle cx="26" cy="26" r="26" fill="#ffb612" transform="translate(-.001)"/>
        </g>
        <g>
            <path fill="none" d="M0 0h32.5v32.5H0z" transform="translate(-1063 -38) rotate(90 529.562 577.312)"/>
            <path fill="#fff" d="M24.861 13.545H23.02V5.42H14.9V3.579A3.515 3.515 0 0 0 11.862.018a3.386 3.386 0 0 0-3.737 3.371V5.42H.014v7.854H1.9A3.744 3.744 0 0 1 5.62 16.2a3.668 3.668 0 0 1-3.588 4.387H0v7.853h7.854v-1.9a3.744 3.744 0 0 1 2.925-3.724 3.668 3.668 0 0 1 4.387 3.588v2.036h7.854v-8.124h2.031a3.386 3.386 0 0 0 3.372-3.737 3.525 3.525 0 0 0-3.562-3.034z" transform="translate(-1063 -38) rotate(90 529.562 577.312) translate(2.708 1.35)"/>
        </g>
    </g>
</svg>
