<svg xmlns="http://www.w3.org/2000/svg" id="그룹_4333" width="74.804" height="76" viewBox="0 0 74.804 76">
    <defs>
        <style>
            .cls-1{fill:#00aaed}.cls-3{fill:#fff}.cls-5{fill:#404a5e}
        </style>
    </defs>
    <circle id="타원_44" cx="9.931" cy="9.931" r="9.931" class="cls-1" transform="translate(1.029 10.438)"/>
    <path id="패스_8554" d="M1435.8 648.328a6.039 6.039 0 0 0-1.867-2.247 8.6 8.6 0 0 0-2.81-1.328 13.847 13.847 0 0 0-7 0 8.6 8.6 0 0 0-2.81 1.328 6.032 6.032 0 0 0-1.867 2.247 8 8 0 0 0 0 6.413 6.024 6.024 0 0 0 1.867 2.247 8.586 8.586 0 0 0 2.81 1.328 13.85 13.85 0 0 0 7 0 8.588 8.588 0 0 0 2.81-1.328 6.031 6.031 0 0 0 1.867-2.247 8 8 0 0 0 0-6.413zm-5.167 4.35a2.461 2.461 0 0 1-.743.8 3.178 3.178 0 0 1-1.052.449 5.225 5.225 0 0 1-2.43 0 3.172 3.172 0 0 1-1.052-.449 2.452 2.452 0 0 1-.743-.8 2.4 2.4 0 0 1 0-2.287 2.456 2.456 0 0 1 .743-.8 3.186 3.186 0 0 1 1.052-.449 5.233 5.233 0 0 1 2.43 0 3.192 3.192 0 0 1 1.052.449 2.465 2.465 0 0 1 .743.8 2.4 2.4 0 0 1 0 2.287z" class="cls-1" transform="translate(-1416.322 -595.53)"/>
    <path id="패스_8556" d="M1191.8 701.2h.005z" class="cls-1" transform="translate(-1149.198 -681.506)"/>
    <rect id="사각형_1607" width="21.921" height="5.022" class="cls-1" rx="2.511" transform="translate(0 4.221)"/>
    <rect id="사각형_1609" width="6.807" height="6.387" class="cls-1" rx="3.194" transform="rotate(-90 7.287 -.48)"/>
    <rect id="사각형_1623" width="6.807" height="6.387" fill="#ffb612" rx="3.194" transform="rotate(-90 26.937 18.718)"/>
    <rect id="사각형_1610" width="8.091" height="5.899" class="cls-1" rx="2.949" transform="translate(29.199 13.593)"/>
    <rect id="사각형_1611" width="27.612" height="6.48" class="cls-1" rx="3.24" transform="rotate(-90 45.736 20.723)"/>
    <rect id="사각형_1612" width="8.091" height="5.899" class="cls-1" rx="2.949" transform="translate(29.152 49.171)"/>
    <g id="그룹_4233" transform="translate(5.681 15.09)">
        <circle id="타원_44-2" cx="5.28" cy="5.28" r="5.28" class="cls-3"/>
        <circle id="타원_45" cx="3.105" cy="3.105" r="3.105" fill="#2c303a" transform="translate(2.174 2.174)"/>
        <circle id="타원_46" cx="1.153" cy="1.153" r="1.153" class="cls-3" transform="translate(2.356 2.741)"/>
    </g>
    <circle id="타원_541" cx="3.24" cy="3.24" r="3.24" class="cls-5" transform="translate(25.032 59.994)"/>
    <g id="그룹_4234" transform="translate(25.059)">
        <rect id="사각형_1613" width="37.152" height="6.48" class="cls-1" rx="3.24" transform="rotate(-90 18.576 18.576)"/>
        <circle id="타원_542" cx="3.24" cy="3.24" r="3.24" class="cls-5" transform="translate(0 30.672)"/>
    </g>
    <g id="그룹_4236" transform="translate(38.086 19.015)">
        <g id="그룹_4235">
            <rect id="사각형_1614" width="14.376" height="6.48" class="cls-1" rx="3.24" transform="rotate(-90 16.634 1.503)"/>
            <path id="패스_8557" d="M1204.118 708.486l-.007-.019a1.841 1.841 0 0 0-.464-.544 2.5 2.5 0 0 0-2.418-.521c-.338.106-.664.248-1.008.335l-.849.215c-.574.147-1.148.3-1.715.471q-.99.3-2.5.6a34.638 34.638 0 0 1-3.723.581 47.682 47.682 0 0 1-5.1.237q-2.711 0-5.013-.215t-4.067-.517q-1.766-.3-2.97-.6c-.668-.167-1.332-.355-2-.538-.7-.193-1.251-.685-2.008-.685a2.554 2.554 0 0 0-.6 5.01 16.127 16.127 0 0 0 2.625.817q1.721.474 3.938.861t4.842.645q.892.111 1.816.158l6.48.032q1.081-.079 2.161-.189 2.582-.258 4.777-.645 2.151-.387 3.787-.839a16.185 16.185 0 0 0 2.453-.839 3.26 3.26 0 0 0 1-.549l.028-.022c.042-.035.081-.071.12-.109s.087-.087.128-.132l.019-.021a2.5 2.5 0 0 0 .263-2.978z" class="cls-1" transform="translate(-1167.773 -707.287)"/>
        </g>
        <circle id="타원_543" cx="3.24" cy="3.24" r="3.24" class="cls-5" transform="translate(15.13 11.657)"/>
    </g>
    <path id="패스_8558" d="M1220.82 624.813a2.339 2.339 0 0 0-2.514-2.472 6.2 6.2 0 0 0-1.271.238c-.438.093-.878.181-1.313.286l-1.574.377q-1.006.24-2.527.449a35.108 35.108 0 0 1-3.75.358h-.044q-.944.029-1.98.03-2.711 0-5.013-.212-1.539-.141-2.835-.321v-1.02c0-.234.107-.351.324-.351h16.889a3.961 3.961 0 0 0 2.734-.72 3.624 3.624 0 0 0 .749-2.641v-4.681a3.7 3.7 0 0 0-.749-2.681 3.962 3.962 0 0 0-2.734-.72H1194.6a.8.8 0 0 0-.109.009c-.058 0-.116-.009-.175-.009a2.472 2.472 0 1 0 0 4.944c.059 0 .117 0 .175-.009a.8.8 0 0 0 .109.009h17.618c.216 0 .324.094.324.279v1.156c0 .186-.108.279-.324.279h-16.889a4.141 4.141 0 0 0-2.754.7 3.532 3.532 0 0 0-.769 2.651v4.613a2.485 2.485 0 0 0 2.106 2.439c.469.11 1.112.223 1.848.354 1.475.264 3.091.466 4.841.635q1.033.127 2.109.169l4.64.033v.009l.2-.007 1.009.007q1.247-.084 2.5-.212.336-.033.664-.068v-.01c.262-.026.521-.054.775-.083q2.17-.258 3.829-.608a16.371 16.371 0 0 0 2.5-.685 2.528 2.528 0 0 0 1.787-1.425 3.082 3.082 0 0 0 .206-1.089z" class="cls-1" transform="translate(-1149.198 -609.676)"/>
    <path id="패스_8559" d="M1647.214 610.862c-.03 0-.06-.009-.089-.009h-3.309q.324-1.428.526-2.993a25.8 25.8 0 0 0 .2-3.3v-2.472a3.167 3.167 0 0 0-.91-2.433 4.279 4.279 0 0 0-2.972-.85h-19.615a4.008 4.008 0 0 0-2.164.5 2.484 2.484 0 0 0 0 3.631 4 4 0 0 0 2.164.5h16.622a1.181 1.181 0 0 1 .586.1q.141.1.142.521v1.506a25.428 25.428 0 0 1-.142 2.685q-.142 1.332-.384 2.607h-22.264a2.28 2.28 0 1 0 0 4.558h31.518a1.109 1.109 0 0 0 .128-.011h.057a2.271 2.271 0 0 0-.1-4.532z" class="cls-1" transform="translate(-1575.144 -558.898)"/>
    <path id="패스_8560" d="M1464.966 736.036c-.045 0-.089 0-.133.007h-16.77a.864.864 0 0 1-.567-.122.882.882 0 0 1-.122-.572v-2.941a.223.223 0 0 0-.018-.085 3.272 3.272 0 0 0-6.535.048.229.229 0 0 0-.008.037v5.433a3.807 3.807 0 0 0 .83 2.778 3.939 3.939 0 0 0 2.815.817h20.508a2.7 2.7 0 1 0 0-5.4z" class="cls-5" transform="translate(-1435.141 -665.435)"/>
    <path id="패스_8561" d="M1665.636 716.97a2.307 2.307 0 0 0-2.324-2.3H1644.323a.249.249 0 0 1-.283-.28v-1.33a.249.249 0 0 1 .283-.281h17.026a3.947 3.947 0 0 0 2.73-.721 3.708 3.708 0 0 0 .748-2.685v-3.967a3.708 3.708 0 0 0-.748-2.685 3.947 3.947 0 0 0-2.73-.721h-21.133a2.242 2.242 0 0 0 0 4.484h.027c.016 0 .034.005.05.005h18.185a.25.25 0 0 1 .283.281v1.242a.249.249 0 0 1-.283.281h-16.986a4.115 4.115 0 0 0-2.75.7 3.566 3.566 0 0 0-.768 2.665v4.242a3.642 3.642 0 0 0 .768 2.685 4.031 4.031 0 0 0 2.75.721h21.82a2.37 2.37 0 0 0 .419-.057 2.318 2.318 0 0 0 1.905-2.284z" class="cls-5" transform="translate(-1595.224 -643.311)"/>
    <rect id="사각형_1624" width="21.921" height="5.022" class="cls-1" rx="2.511" transform="translate(.328 43.069)"/>
</svg>
